<?xml version="1.0" standalone="no"?>
<!DOCTYPE svg PUBLIC "-//W3C//DTD SVG 1.1//EN" "http://www.w3.org/Graphics/SVG/1.1/DTD/svg11.dtd" >
<svg xmlns="http://www.w3.org/2000/svg" xmlns:xlink="http://www.w3.org/1999/xlink" version="1.1">
<metadata>
Created by FontForge 20170731 at Thu Aug 12 12:51:55 2021
 By Aleksey,,,
Copyright 2021 The Red Hat Project Authors (https://github.com/RedHatOfficial/RedHatFont)
</metadata>
<defs>
<font id="RedHatDisplay-Black" horiz-adv-x="600" >
  <font-face 
    font-family="Red Hat Display Black"
    font-weight="900"
    font-stretch="normal"
    units-per-em="1000"
    panose-1="2 1 3 3 4 2 1 6 3 3"
    ascent="800"
    descent="-200"
    x-height="529"
    cap-height="700"
    bbox="-73 -295 1153 1005"
    underline-thickness="100"
    underline-position="-350"
    unicode-range="U+0020-FFFD"
  />
<missing-glyph horiz-adv-x="514" 
d="M60 -100v850h394v-850h-394z" />
    <glyph glyph-name=".notdef" horiz-adv-x="514" 
d="M60 -100v850h394v-850h-394z" />
    <glyph glyph-name=".null" horiz-adv-x="0" 
 />
    <glyph glyph-name="nonmarkingreturn" horiz-adv-x="333" 
 />
    <glyph glyph-name="space" unicode=" " horiz-adv-x="195" 
 />
    <glyph glyph-name="exclam" unicode="!" horiz-adv-x="258" 
d="M67 216l-20 489h164l-20 -489h-124zM129 -11q-38 0 -65.5 27.5t-27.5 65.5t27.5 65.5t65.5 27.5t65.5 -27.5t27.5 -65.5t-27.5 -65.5t-65.5 -27.5z" />
    <glyph glyph-name="quotedbl" unicode="&#x22;" horiz-adv-x="482" 
d="M79 396l-19 310h156l-19 -310h-118zM286 396l-19 310h156l-19 -310h-118z" />
    <glyph glyph-name="numbersign" unicode="#" horiz-adv-x="757" 
d="M67 0l53 184h-91v114h123l30 104h-103v114h135l53 184h145l-53 -184h133l53 184h144l-53 -184h92v-114h-124l-30 -104h104v-114h-136l-53 -184h-144l53 184h-133l-53 -184h-145zM297 298h133l30 104h-133z" />
    <glyph glyph-name="dollar" unicode="$" horiz-adv-x="614" 
d="M258 -66v85q-75 6 -141.5 33.5t-116.5 72.5l80 116q79 -71 178 -88v128l-62 12q-97 17 -139.5 60t-42.5 124q0 63 29 109t84 71.5t131 28.5v82h73v-85q62 -6 123.5 -25.5t114.5 -51.5l-66 -124q-47 26 -89.5 42t-82.5 23v-130l61 -10q103 -18 150.5 -60.5t47.5 -117.5
q0 -62 -31 -108t-88.5 -72.5t-139.5 -30.5v-84h-73zM258 424v129q-43 -2 -68.5 -18.5t-25.5 -44.5q0 -21 8 -34.5t25.5 -20.5t47.5 -10zM331 148q47 3 75 20t28 45q0 20 -7 31.5t-26.5 18t-55.5 11.5l-14 2v-128z" />
    <glyph glyph-name="percent" unicode="%" horiz-adv-x="814" 
d="M184 345q-75 0 -119.5 49.5t-44.5 131.5q0 81 45 130.5t119 49.5t119 -49.5t45 -130.5q0 -82 -44.5 -131.5t-119.5 -49.5zM184 429q33 0 51.5 25.5t18.5 71.5q0 44 -19 70t-51 26t-50.5 -26t-18.5 -70q0 -46 18 -71.5t51 -25.5zM143 0l397 700h119l-398 -700h-118z
M630 -5q-75 0 -119.5 49.5t-44.5 131.5q0 81 45 130.5t119 49.5t119 -49.5t45 -130.5q0 -82 -44.5 -131.5t-119.5 -49.5zM630 79q33 0 51.5 25.5t18.5 71.5q0 44 -19 70t-51 26t-50.5 -26t-18.5 -70q0 -46 18 -71.5t51 -25.5z" />
    <glyph glyph-name="ampersand" unicode="&#x26;" horiz-adv-x="696" 
d="M277 -11q-75 0 -132 25t-89 70.5t-32 104.5q0 43 12.5 75.5t40.5 60t75 54.5q-31 40 -43.5 75t-12.5 76q0 52 26.5 93t73 64.5t106.5 23.5q58 0 103.5 -22.5t72 -61.5t26.5 -89q0 -45 -23.5 -82t-70.5 -66l-51 -32q25 -25 53 -52.5t58 -54.5q16 30 28.5 66.5t21.5 79.5
l138 -23q-16 -66 -36.5 -119.5t-47.5 -94.5q23 -19 43.5 -34.5t46.5 -35.5l-96 -114q-22 17 -45 34.5t-46 36.5q-42 -28 -92.5 -43t-107.5 -15zM282 449l35 21q23 14 32.5 29t9.5 34q0 26 -17.5 43t-43.5 17q-25 0 -41.5 -17t-16.5 -43q0 -18 9 -36.5t33 -47.5zM289 115
q24 0 45.5 5t40.5 16q-40 36 -76.5 73.5t-70.5 75.5q-20 -12 -32 -25t-17.5 -27t-5.5 -31q0 -40 31 -63.5t85 -23.5z" />
    <glyph glyph-name="quotesingle" unicode="'" horiz-adv-x="275" 
d="M79 396l-19 310h156l-19 -310h-118z" />
    <glyph glyph-name="parenleft" unicode="(" horiz-adv-x="421" 
d="M312 -221q-127 74 -195.5 194.5t-68.5 273.5t68.5 274t195.5 194l90 -99q-100 -63 -152 -156.5t-52 -212.5q0 -118 52 -212t152 -157z" />
    <glyph glyph-name="parenright" unicode=")" horiz-adv-x="421" 
d="M109 713q127 -74 195.5 -194.5t68.5 -273.5t-68.5 -274t-195.5 -194l-90 99q100 63 152 156.5t52 212.5q0 118 -52 212t-152 157z" />
    <glyph glyph-name="asterisk" unicode="*" horiz-adv-x="487" 
d="M193 306l2 107l-99 -62l-56 87l109 63l-111 66l57 85l100 -63l-2 111h103l-2 -111l100 63l57 -85l-111 -66l109 -63l-58 -87l-97 61l2 -106h-103z" />
    <glyph glyph-name="plus" unicode="+" 
d="M238 123v174h-163v120h163v174h124v-174h163v-120h-163v-174h-124z" />
    <glyph glyph-name="comma" unicode="," horiz-adv-x="250" 
d="M-14 -157l73 284h167l-119 -284h-121z" />
    <glyph glyph-name="hyphen" unicode="-" horiz-adv-x="463" 
d="M38 219v135h387v-135h-387z" />
    <glyph glyph-name="period" unicode="." horiz-adv-x="250" 
d="M125 -11q-38 0 -65.5 27.5t-27.5 65.5t27.5 65.5t65.5 27.5t65.5 -27.5t27.5 -65.5t-27.5 -65.5t-65.5 -27.5z" />
    <glyph glyph-name="slash" unicode="/" horiz-adv-x="534" 
d="M-53 -209l402 909h154l-401 -909h-155z" />
    <glyph glyph-name="zero" unicode="0" horiz-adv-x="694" 
d="M347 -11q-95 0 -166.5 45t-111 126.5t-39.5 189.5q0 109 39.5 190t111 126t166.5 45t166.5 -45t111 -126t39.5 -190q0 -108 -39.5 -189.5t-111 -126.5t-166.5 -45zM347 129q49 0 84.5 26.5t55 76.5t19.5 118q0 69 -19.5 118.5t-55 76t-84.5 26.5t-84.5 -26.5t-55 -76
t-19.5 -118.5q0 -68 19.5 -118t55 -76.5t84.5 -26.5z" />
    <glyph glyph-name="one" unicode="1" horiz-adv-x="373" 
d="M163 0v536l-145 -58v140l205 82h102v-700h-162z" />
    <glyph glyph-name="two" unicode="2" horiz-adv-x="586" 
d="M49 0v110l296 293q17 16 27 31.5t15 31.5t5 32q0 34 -29.5 56.5t-73.5 22.5q-47 0 -88 -19.5t-89 -66.5l-86 105q60 57 127.5 86t140.5 29q75 0 130.5 -25.5t86.5 -71t31 -106.5q0 -33 -9.5 -63.5t-29.5 -59.5t-52 -60l-202 -195l303 1v-131h-503z" />
    <glyph glyph-name="three" unicode="3" horiz-adv-x="629" 
d="M305 -11q-84 0 -156.5 30t-119.5 83l104 96q39 -42 75.5 -58t94.5 -16q38 0 66.5 10.5t44 30t15.5 45.5q0 23 -11.5 39t-32 25t-48.5 9h-90v127h74q43 0 67 20.5t24 57.5q0 25 -14.5 44.5t-39 30.5t-56.5 11q-51 0 -86.5 -17.5t-76.5 -62.5l-105 95q50 57 122.5 89.5
t151.5 32.5q77 0 135 -25.5t91 -71t33 -105.5q0 -57 -37 -100t-96 -60q69 -13 110 -53.5t41 -98.5q0 -60 -36 -107t-99 -74t-145 -27z" />
    <glyph glyph-name="four" unicode="4" horiz-adv-x="694" 
d="M421 0v155h-394v131l367 414h189v-410h87v-135h-87v-155h-162zM212 290h209v235z" />
    <glyph glyph-name="five" unicode="5" horiz-adv-x="617" 
d="M288 -11q-147 0 -256 94l92 107q44 -36 85 -52t87 -16q37 0 64 12.5t42.5 35.5t15.5 53q0 44 -36.5 73t-92.5 29q-29 0 -58 -8t-59 -25l-108 32l17 376h458v-131h-329l-7 -157q32 16 66 24t71 8q71 0 124 -26.5t82.5 -74.5t29.5 -112q0 -72 -36 -126.5t-101 -85
t-151 -30.5z" />
    <glyph glyph-name="six" unicode="6" horiz-adv-x="645" 
d="M345 -11q-92 0 -161.5 44t-108 122.5t-38.5 183.5q0 112 42.5 195.5t119 130t178.5 46.5q59 0 117.5 -20.5t95.5 -55.5l-89 -110q-29 25 -61.5 36.5t-74.5 11.5q-57 0 -96 -28t-59 -81t-20 -130q33 47 80 73t99 26q69 0 122 -27t83 -75t30 -110q0 -66 -33.5 -118.5
t-92 -83t-133.5 -30.5zM343 313q-43 0 -79.5 -16t-64.5 -45q10 -40 29.5 -69.5t47.5 -45.5t61 -16t59 12.5t41.5 34.5t15.5 50t-14 49.5t-38.5 33.5t-57.5 12z" />
    <glyph glyph-name="seven" unicode="7" horiz-adv-x="618" 
d="M106 0l300 564h-380v136h547v-115l-282 -585h-185z" />
    <glyph glyph-name="eight" unicode="8" horiz-adv-x="640" 
d="M320 -11q-81 0 -142.5 26.5t-96 73.5t-34.5 109q0 37 16.5 69t46.5 56t69 36q-50 20 -81 60t-31 89q0 58 33.5 104t90.5 72.5t129 26.5t129.5 -26.5t90.5 -72.5t33 -104q0 -49 -31 -89t-81 -60q59 -19 95.5 -62t36.5 -99q0 -62 -34.5 -109t-96 -73.5t-142.5 -26.5z
M320 411q29 0 52 11t36 30.5t13 44.5t-13 44.5t-36 30.5t-52 11t-52 -11t-36 -30.5t-13 -44.5t13 -44.5t36 -30.5t52 -11zM320 118q35 0 61 11.5t41 32.5t15 47q0 27 -15 47.5t-41 32t-61 11.5q-34 0 -60.5 -11.5t-41.5 -32t-15 -47.5q0 -26 15 -47t41.5 -32.5t60.5 -11.5z
" />
    <glyph glyph-name="nine" unicode="9" horiz-adv-x="645" 
d="M301 711q92 0 161.5 -44t108 -122.5t38.5 -183.5q0 -111 -42.5 -195t-119 -130.5t-178.5 -46.5q-58 0 -117 21t-96 55l89 110q29 -25 61.5 -36.5t74.5 -11.5q57 0 96 28t59 81.5t20 129.5q-33 -47 -79.5 -73t-99.5 -26q-69 0 -122 27t-83 75t-30 110q0 67 33.5 119
t92.5 82.5t133 30.5zM303 387q43 0 79.5 16t64.5 45q-10 40 -29.5 69.5t-47 45.5t-61.5 16q-33 0 -59.5 -12.5t-41.5 -34.5t-15 -50t14 -49.5t39 -33.5t57 -12z" />
    <glyph glyph-name="colon" unicode=":" horiz-adv-x="250" 
d="M125 -11q-38 0 -65.5 27.5t-27.5 65.5t27.5 65.5t65.5 27.5t65.5 -27.5t27.5 -65.5t-27.5 -65.5t-65.5 -27.5zM125 352q-38 0 -65.5 27.5t-27.5 65.5t27.5 65.5t65.5 27.5t65.5 -27.5t27.5 -65.5t-27.5 -65.5t-65.5 -27.5z" />
    <glyph glyph-name="semicolon" unicode=";" horiz-adv-x="250" 
d="M138 352q-38 0 -65.5 27.5t-27.5 65.5t27.5 65.5t65.5 27.5t65.5 -27.5t27.5 -65.5t-27.5 -65.5t-65.5 -27.5zM-19 -157l73 284h167l-119 -284h-121z" />
    <glyph glyph-name="less" unicode="&#x3c;" 
d="M417 43l-354 304l357 305l82 -93l-250 -210l250 -211z" />
    <glyph glyph-name="equal" unicode="=" 
d="M75 191v120h450v-120h-450zM75 393v120h450v-120h-450z" />
    <glyph glyph-name="greater" unicode="&#x3e;" 
d="M183 652l354 -304l-357 -305l-82 93l250 210l-250 211z" />
    <glyph glyph-name="question" unicode="?" horiz-adv-x="534" 
d="M176 218q-2 47 3.5 78.5t23 56t48.5 47.5l54 40q26 19 38 36t12 33q0 20 -12 35t-32.5 24t-47.5 9q-43 0 -78.5 -23t-50.5 -61l-131 49q19 52 58 89.5t92.5 58.5t115.5 21q70 0 125 -25.5t87 -68.5t32 -98q0 -37 -11.5 -66t-39 -56.5t-75.5 -60.5l-25 -17
q-29 -19 -40.5 -41.5t-10.5 -59.5h-135zM244 -11q-38 0 -65.5 27.5t-27.5 65.5t27.5 65.5t65.5 27.5t65.5 -27.5t27.5 -65.5t-27.5 -65.5t-65.5 -27.5z" />
    <glyph glyph-name="at" unicode="@" horiz-adv-x="792" 
d="M413 -144q-81 0 -149 26t-118.5 73.5t-78 111.5t-27.5 140q0 81 28 149.5t78.5 119.5t118.5 79t149 28q72 0 133.5 -23t108 -64.5t72.5 -97t26 -119.5q0 -68 -24.5 -121t-68.5 -82.5t-101 -29.5q-76 0 -106 41q-22 -19 -49 -29.5t-55 -10.5q-41 0 -74 21t-52.5 56.5
t-19.5 78.5q0 52 24 94t65 66.5t91 24.5q53 0 90 -31l4 18h103l-44 -208q-5 -23 5.5 -35.5t33.5 -12.5q30 0 53 19.5t35.5 54t12.5 79.5q0 71 -35 126.5t-95 88t-136 32.5q-63 0 -117 -23t-94 -64.5t-62.5 -97t-22.5 -120.5q0 -85 37.5 -150t104.5 -101.5t155 -36.5
q90 0 163 35l28 -62q-48 -22 -94 -32.5t-96 -10.5zM375 131q34 0 61 23q0 7 1 14l2 14l17 87q-11 16 -28 24t-40 8t-42.5 -12t-31 -32t-11.5 -45q0 -35 20.5 -58t51.5 -23z" />
    <glyph glyph-name="A" unicode="A" horiz-adv-x="753" 
d="M-7 0l287 700h197l283 -700h-186l-64 169h-273l-65 -169h-179zM289 306h170l-84 224z" />
    <glyph glyph-name="B" unicode="B" horiz-adv-x="705" 
d="M58 0v700h347q72 0 126.5 -25t85.5 -69.5t31 -102.5q0 -43 -21.5 -80.5t-58.5 -63.5q47 -25 74.5 -65t27.5 -88q0 -61 -31 -107.5t-87 -72.5t-130 -26h-364zM230 421h164q38 0 60 19t22 50q0 32 -22 50.5t-60 18.5h-164v-138zM230 141h179q40 0 63.5 20t23.5 54t-23.5 54
t-63.5 20h-179v-148z" />
    <glyph glyph-name="C" unicode="C" horiz-adv-x="716" 
d="M409 -10q-80 0 -148.5 27.5t-119.5 76.5t-79.5 114.5t-28.5 141.5q0 77 28.5 142.5t80 114.5t120 76.5t147.5 27.5q58 0 114 -17t103.5 -47.5t79.5 -72.5l-116 -114q-37 47 -82.5 70t-98.5 23q-42 0 -78.5 -15.5t-63.5 -42.5t-42 -64t-15 -81q0 -43 15.5 -79.5t43 -64
t65 -42.5t81.5 -15q51 0 94.5 22t78.5 65l113 -111q-32 -41 -79 -71.5t-102 -47t-111 -16.5z" />
    <glyph glyph-name="D" unicode="D" horiz-adv-x="745" 
d="M230 152h108q41 0 76.5 15t62.5 42t42 62.5t15 76.5q0 42 -15 78.5t-42 63.5t-62.5 42.5t-76.5 15.5h-108v-396zM58 0v700h284q78 0 145 -27t117.5 -75t79 -112t28.5 -138q0 -73 -28.5 -136t-79 -110.5t-117.5 -74.5t-145 -27h-284z" />
    <glyph glyph-name="E" unicode="E" horiz-adv-x="657" 
d="M58 0v700h552v-149h-380v-126h251v-144h-251v-132h384v-149h-556z" />
    <glyph glyph-name="F" unicode="F" horiz-adv-x="652" 
d="M58 0v700h556v-149h-384v-131h256v-144h-256v-276h-172z" />
    <glyph glyph-name="G" unicode="G" horiz-adv-x="796" 
d="M408 -11q-79 0 -147 27.5t-119.5 77t-80 115t-28.5 141.5t28.5 141.5t79 115t118.5 77t146 27.5q89 0 168 -36.5t129 -100.5l-121 -109q-34 44 -78.5 66t-97.5 22q-42 0 -77.5 -15.5t-62 -42.5t-41 -64t-14.5 -81t15 -81.5t42.5 -65t64 -43t79.5 -15.5q41 0 74.5 14
t57.5 39t34 57h-189v149h375v-50q0 -79 -26.5 -145.5t-74 -116t-112.5 -76.5t-142 -27z" />
    <glyph glyph-name="H" unicode="H" horiz-adv-x="748" 
d="M58 0v700h172v-269h288v269h172v-700h-172v274h-288v-274h-172z" />
    <glyph glyph-name="I" unicode="I" horiz-adv-x="288" 
d="M58 0v700h172v-700h-172z" />
    <glyph glyph-name="J" unicode="J" horiz-adv-x="658" 
d="M311 -10q-111 0 -186.5 55.5t-107.5 160.5l159 59q20 -61 53 -90t83 -29q56 0 91 37t35 97v420h172v-425q0 -85 -37.5 -149t-104.5 -100t-157 -36z" />
    <glyph glyph-name="K" unicode="K" horiz-adv-x="729" 
d="M58 0v700h172v-306l283 306h208l-324 -329l342 -371h-228l-281 321v-321h-172z" />
    <glyph glyph-name="L" unicode="L" horiz-adv-x="637" 
d="M58 0v700h172v-548h369v-152h-541z" />
    <glyph glyph-name="M" unicode="M" horiz-adv-x="896" 
d="M58 0v700h217l173 -330l173 330h217v-700h-162v477l-230 -427l-230 429v-479h-158z" />
    <glyph glyph-name="N" unicode="N" horiz-adv-x="758" 
d="M58 0v700h162l318 -406v406h162v-700h-152l-328 422v-422h-162z" />
    <glyph glyph-name="O" unicode="O" horiz-adv-x="814" 
d="M407 -11q-79 0 -147 27.5t-119 77t-79.5 115t-28.5 141.5t28.5 141.5t79.5 115t119 77t147 27.5t147 -27.5t119 -77t79.5 -115t28.5 -141.5t-28.5 -141.5t-79.5 -115t-119 -77t-147 -27.5zM407 147q42 0 78 15.5t62.5 42.5t41.5 64.5t15 80.5q0 44 -15 81t-41.5 64
t-62.5 42.5t-78 15.5t-78 -15.5t-62.5 -42.5t-41.5 -64t-15 -80q0 -44 15 -81.5t41.5 -64.5t62.5 -42.5t78 -15.5z" />
    <glyph glyph-name="P" unicode="P" horiz-adv-x="695" 
d="M58 0v700h369q69 0 122.5 -29.5t84.5 -80.5t31 -117q0 -63 -31 -113.5t-85 -79.5t-122 -29h-197v-251h-172zM230 393h177q38 0 61 22t23 57q0 36 -23 58.5t-61 22.5h-177v-160z" />
    <glyph glyph-name="Q" unicode="Q" horiz-adv-x="814" 
d="M600 -41l-46 58q-34 -13 -70.5 -20.5t-76.5 -7.5q-79 0 -147 27.5t-119 77t-79.5 115t-28.5 141.5t28.5 141.5t79.5 115t119 77t147 27.5t147 -27.5t119 -77t79.5 -115t28.5 -141.5q0 -73 -27.5 -137.5t-75.5 -113.5l68 -86zM407 147q11 0 21.5 1t20.5 3l-66 84l146 54
l42 -54q16 24 24.5 53.5t8.5 61.5q0 44 -15 81t-41.5 64t-62.5 42.5t-78 15.5t-78 -15.5t-62.5 -42.5t-41.5 -64t-15 -81q0 -43 15 -80.5t41.5 -64.5t62.5 -42.5t78 -15.5z" />
    <glyph glyph-name="R" unicode="R" horiz-adv-x="693" 
d="M58 0v700h358q72 0 128 -28.5t87.5 -79t31.5 -115.5q0 -66 -36 -118t-95 -79l153 -280h-192l-132 255h-131v-255h-172zM230 395h170q40 0 64.5 22t24.5 57t-24.5 57t-64.5 22h-170v-158z" />
    <glyph glyph-name="S" unicode="S" horiz-adv-x="644" 
d="M316 -10q-85 0 -168 31t-148 86l96 125q64 -52 118 -74.5t115 -22.5q40 0 68 8t43 23.5t15 36.5q0 29 -22 45t-75 25l-154 27q-85 15 -131 65t-46 127q0 68 34.5 117t99 75t153.5 26q78 0 157 -26.5t137 -73.5l-91 -127q-108 83 -215 83q-35 0 -60.5 -7.5t-39 -21
t-13.5 -32.5q0 -26 19.5 -40t63.5 -22l145 -24q101 -16 153.5 -67t52.5 -132q0 -71 -37 -122.5t-106 -79.5t-164 -28z" />
    <glyph glyph-name="T" unicode="T" horiz-adv-x="666" 
d="M247 0v548h-229v152h630v-152h-229v-548h-172z" />
    <glyph glyph-name="U" unicode="U" horiz-adv-x="733" 
d="M366 -10q-97 0 -168.5 38.5t-110.5 109.5t-39 167v395h172v-395q0 -47 18 -82.5t51.5 -54.5t77.5 -19q45 0 77.5 19t50.5 54.5t18 82.5v395h172v-395q0 -95 -39.5 -166t-111 -110t-168.5 -39z" />
    <glyph glyph-name="V" unicode="V" horiz-adv-x="753" 
d="M276 0l-283 700h186l199 -521l203 521h179l-287 -700h-197z" />
    <glyph glyph-name="W" unicode="W" horiz-adv-x="969" 
d="M179 0l-156 700h177l85 -432l122 432h161l122 -432l85 432h171l-156 -700h-182l-123 446l-124 -446h-182z" />
    <glyph glyph-name="X" unicode="X" horiz-adv-x="724" 
d="M-5 0l265 361l-253 339h205l150 -211l150 211h197l-249 -339l270 -361h-205l-167 234l-166 -234h-197z" />
    <glyph glyph-name="Y" unicode="Y" horiz-adv-x="732" 
d="M280 0v261l-290 439h198l183 -287l184 287h187l-290 -439v-261h-172z" />
    <glyph glyph-name="Z" unicode="Z" horiz-adv-x="622" 
d="M20 0v116l362 435h-359v149h583v-116l-361 -435h364v-149h-589z" />
    <glyph glyph-name="bracketleft" unicode="[" horiz-adv-x="412" 
d="M56 -215v915h318v-126h-165v-663h165v-126h-318z" />
    <glyph glyph-name="backslash" unicode="\" horiz-adv-x="543" 
d="M434 -209l-403 909h163l402 -909h-162z" />
    <glyph glyph-name="bracketright" unicode="]" horiz-adv-x="412" 
d="M356 700v-915h-318v126h165v663h-165v126h318z" />
    <glyph glyph-name="asciicircum" unicode="^" 
d="M60 350l174 350h132l174 -350h-125l-115 234l-115 -234h-125z" />
    <glyph glyph-name="underscore" unicode="_" horiz-adv-x="499" 
d="M-1 -191v111h501v-111h-501z" />
    <glyph glyph-name="grave" unicode="`" 
d="M266 611l-139 136h182l87 -136h-130z" />
    <glyph glyph-name="a" unicode="a" horiz-adv-x="571" 
d="M219 -9q-56 0 -99.5 21t-68 58t-24.5 85q0 76 57.5 117.5t160.5 41.5q62 0 120 -15v26q0 40 -25.5 59.5t-75.5 19.5q-31 0 -69.5 -10t-90.5 -32l-58 119q65 29 125.5 43.5t121.5 14.5q110 0 171 -52.5t61 -147.5v-339h-160v32q-32 -22 -67.5 -31.5t-78.5 -9.5zM181 158
q0 -25 22 -39t61 -14q29 0 54.5 6t46.5 19v68q-23 6 -47 9t-49 3q-42 0 -65 -13.5t-23 -38.5z" />
    <glyph glyph-name="b" unicode="b" horiz-adv-x="648" 
d="M50 0v700l162 25v-233q62 44 140 44q76 0 137 -36.5t97 -98t36 -137.5t-36.5 -137.5t-99 -97.5t-139.5 -36q-37 0 -72 9.5t-65 27.5v-30h-160zM324 130q40 0 71 17.5t49.5 48t18.5 68.5t-18.5 68.5t-50 48t-70.5 17.5q-34 0 -62 -10.5t-50 -31.5v-185q21 -19 50 -30
t62 -11z" />
    <glyph glyph-name="c" unicode="c" horiz-adv-x="539" 
d="M306 -10q-79 0 -142.5 36t-100.5 98.5t-37 139.5q0 78 37 140t100.5 98.5t142.5 36.5q65 0 124 -25.5t100 -72.5l-99 -103q-28 32 -57 46.5t-64 14.5t-63 -17.5t-44 -48t-16 -69.5q0 -38 16.5 -68.5t45.5 -48t65 -17.5q33 0 61 14t54 43l96 -100q-40 -46 -98 -71.5
t-121 -25.5z" />
    <glyph glyph-name="d" unicode="d" horiz-adv-x="648" 
d="M296 -7q-75 0 -136.5 36.5t-97.5 98t-36 137.5t36.5 137.5t99 97.5t139.5 36q37 0 71 -9t64 -26v199l162 25v-725h-160v39q-63 -46 -142 -46zM324 131q34 0 62 10.5t50 31.5v185q-21 20 -50 30.5t-62 10.5q-39 0 -70.5 -17.5t-50 -48t-18.5 -68.5t18.5 -68.5t50 -48
t70.5 -17.5z" />
    <glyph glyph-name="e" unicode="e" horiz-adv-x="595" 
d="M314 -10q-81 0 -146.5 36.5t-103.5 98.5t-38 139t36.5 139t99.5 98.5t140 36.5q78 0 138 -37.5t94.5 -102.5t34.5 -149v-40h-377q11 -25 29.5 -44t44.5 -29.5t56 -10.5q33 0 60 10.5t46 29.5l107 -95q-50 -42 -102.5 -61t-118.5 -19zM189 322h221q-8 26 -24.5 44.5
t-38.5 29t-48 10.5q-27 0 -49 -10t-37.5 -28.5t-23.5 -45.5z" />
    <glyph glyph-name="f" unicode="f" horiz-adv-x="453" 
d="M134 0v394h-116v135h116v32q0 94 55.5 143.5t159.5 49.5q21 0 45.5 -2.5t40.5 -7.5v-134q-19 4 -33.5 5.5t-30.5 1.5q-37 0 -56 -14.5t-19 -44.5v-29h139v-135h-139v-394h-162z" />
    <glyph glyph-name="g" unicode="g" horiz-adv-x="644" 
d="M320 -214q-64 0 -121.5 12t-104.5 34l54 126q43 -20 85 -30t84 -10q57 0 86 23t29 69v30q-62 -42 -137 -42t-136 36t-97 97.5t-36 136.5t36.5 136t99 96.5t139.5 35.5q36 0 70 -9t63 -26v28h160v-521q0 -107 -70.5 -164.5t-203.5 -57.5zM323 134q33 0 60.5 10t48.5 29
v187q-21 18 -48.5 28.5t-59.5 10.5q-39 0 -70.5 -17.5t-50 -47t-18.5 -66.5q0 -38 18 -68.5t49.5 -48t70.5 -17.5z" />
    <glyph glyph-name="h" unicode="h" horiz-adv-x="611" 
d="M50 0v700l162 35v-242q60 46 142 46q62 0 109.5 -27t74.5 -75t27 -111v-326h-162v304q0 44 -26 70t-70 26q-31 0 -54.5 -11t-40.5 -31v-358h-162z" />
    <glyph glyph-name="i" unicode="i" horiz-adv-x="262" 
d="M50 0v529h162v-529h-162zM131 578q-37 0 -63 26t-26 63t26 63t63 26t63 -26t26 -63t-26 -63t-63 -26z" />
    <glyph glyph-name="j" unicode="j" horiz-adv-x="262" 
d="M131 578q-37 0 -63 26t-26 63t26 63t63 26t63 -26t26 -63t-26 -63t-63 -26zM27 -214q-21 0 -44 3t-37 7v122q20 -4 47 -4q29 0 43 11.5t14 36.5v567h162v-576q0 -79 -48 -123t-137 -44z" />
    <glyph glyph-name="k" unicode="k" horiz-adv-x="597" 
d="M50 0v700l162 25v-412l211 216h181l-235 -239l251 -290h-205l-203 237v-237h-162z" />
    <glyph glyph-name="l" unicode="l" horiz-adv-x="262" 
d="M50 0v700l162 25v-725h-162z" />
    <glyph glyph-name="m" unicode="m" horiz-adv-x="924" 
d="M50 0v529h162v-34q56 44 132 44q50 0 90 -19t67 -54q32 35 76 54t96 19q60 0 106 -27t72.5 -75t26.5 -111v-326h-162v304q0 44 -23.5 70t-62.5 26q-27 0 -49 -10t-38 -30q1 -8 1.5 -16.5t0.5 -17.5v-326h-162v304q0 44 -23.5 70t-62.5 26q-27 0 -48.5 -9.5t-36.5 -28.5
v-362h-162z" />
    <glyph glyph-name="n" unicode="n" horiz-adv-x="611" 
d="M50 0v529h162v-36q60 46 142 46q62 0 109.5 -27t74.5 -75t27 -111v-326h-162v304q0 44 -26 70t-70 26q-31 0 -54.5 -11t-40.5 -31v-358h-162z" />
    <glyph glyph-name="o" unicode="o" horiz-adv-x="626" 
d="M313 -10q-81 0 -146 36.5t-103 98.5t-38 139t38 139.5t103 99t146 36.5t146 -36.5t103 -99t38 -139.5t-38 -139t-103 -98.5t-146 -36.5zM313 130q37 0 66 18t46 48.5t17 67.5q0 38 -17 68.5t-46.5 48.5t-65.5 18t-65.5 -18t-46.5 -48.5t-17 -68.5q0 -37 17 -67.5
t46.5 -48.5t65.5 -18z" />
    <glyph glyph-name="p" unicode="p" horiz-adv-x="648" 
d="M50 -204v733h160v-39q63 46 142 46q76 0 137 -36.5t97 -98t36 -137.5t-36.5 -137.5t-99 -97.5t-139.5 -36q-37 0 -71 9t-64 26v-232h-162zM324 130q40 0 71 17.5t49.5 48t18.5 68.5t-18.5 68.5t-50 48t-70.5 17.5q-34 0 -62 -10.5t-50 -31.5v-185q21 -19 50 -30t62 -11z
" />
    <glyph glyph-name="q" unicode="q" horiz-adv-x="648" 
d="M436 -204v241q-62 -44 -140 -44q-75 0 -136.5 36.5t-97.5 98t-36 137.5t36.5 137.5t99 97.5t139.5 36q38 0 72.5 -9.5t64.5 -27.5v30h160v-733h-162zM324 131q34 0 62 10.5t50 31.5v185q-21 20 -50 30.5t-62 10.5q-39 0 -70.5 -17.5t-50 -48t-18.5 -68.5t18.5 -68.5
t50 -48t70.5 -17.5z" />
    <glyph glyph-name="r" unicode="r" horiz-adv-x="432" 
d="M50 0v529h162v-53q26 32 61 48.5t78 16.5q43 -1 61 -13v-141q-16 8 -36 12t-41 4q-38 0 -70.5 -17.5t-52.5 -49.5v-336h-162z" />
    <glyph glyph-name="s" unicode="s" horiz-adv-x="509" 
d="M259 -10q-75 0 -139 17.5t-111 51.5l77 109q50 -30 91 -43.5t81 -13.5t63.5 11.5t23.5 30.5q0 15 -13 24.5t-41 13.5l-105 16q-79 12 -120.5 52.5t-41.5 105.5q0 54 27.5 92.5t78.5 59t122 20.5q58 0 115 -16t106 -48l-77 -104q-43 25 -82 36.5t-78 11.5q-31 0 -50 -10.5
t-19 -27.5q0 -16 14 -25.5t48 -14.5l105 -16q78 -11 120.5 -51.5t42.5 -102.5q0 -52 -31 -92t-84.5 -63.5t-122.5 -23.5z" />
    <glyph glyph-name="t" unicode="t" horiz-adv-x="448" 
d="M317 -7q-95 0 -143.5 42.5t-48.5 125.5v233h-107v135h107v136l162 35v-171h148v-135h-148v-201q0 -35 15.5 -49.5t54.5 -14.5q20 0 36.5 2.5t36.5 8.5v-131q-22 -7 -56 -11.5t-57 -4.5z" />
    <glyph glyph-name="u" unicode="u" horiz-adv-x="611" 
d="M257 -10q-62 0 -109.5 27t-74.5 75.5t-27 110.5v326h162v-304q0 -43 26.5 -69.5t69.5 -26.5q31 0 55 11t40 31v358h162v-529h-162v36q-60 -46 -142 -46z" />
    <glyph glyph-name="v" unicode="v" horiz-adv-x="606" 
d="M224 0l-226 529h176l131 -324l131 324h172l-226 -529h-158z" />
    <glyph glyph-name="w" unicode="w" horiz-adv-x="799" 
d="M152 0l-144 529h153l78 -311l95 311h134l95 -312l77 312h151l-145 -529h-155l-92 306l-91 -306h-156z" />
    <glyph glyph-name="x" unicode="x" horiz-adv-x="580" 
d="M-5 0l201 268l-198 261h188l104 -142l103 142h181l-195 -259l206 -270h-188l-111 151l-110 -151h-181z" />
    <glyph glyph-name="y" unicode="y" horiz-adv-x="603" 
d="M113 -216q-19 0 -37 1.5t-30 4.5v138q20 -4 50 -4q78 0 105 68v1l-203 536h179l117 -333l136 333h175l-237 -556q-29 -69 -64 -110.5t-81 -60t-110 -18.5z" />
    <glyph glyph-name="z" unicode="z" horiz-adv-x="514" 
d="M25 0v113l246 281h-244v135h454v-113l-247 -281h255v-135h-464z" />
    <glyph glyph-name="braceleft" unicode="{" horiz-adv-x="448" 
d="M301 -220q-70 0 -116 27.5t-61 75.5t6 109l31 88q16 46 -2 76t-63 30h-85v118h85q45 0 63 30t2 76l-31 88q-21 61 -6 109t61 75.5t116 27.5q28 0 54 -4.5t53 -13.5l-22 -115q-15 5 -30.5 8t-32.5 3q-36 -1 -50 -26.5t-1 -63.5l32 -92q20 -58 -10 -103t-95 -58
q65 -13 95 -58t10 -103l-32 -92q-13 -38 1 -63.5t50 -26.5q17 0 32.5 3t30.5 8l22 -115q-27 -9 -53 -13.5t-54 -4.5z" />
    <glyph glyph-name="bar" unicode="|" horiz-adv-x="356" 
d="M106 -209v909h144v-909h-144z" />
    <glyph glyph-name="braceright" unicode="}" horiz-adv-x="448" 
d="M147 711q70 0 116 -27.5t61 -75.5t-6 -109l-31 -88q-16 -46 2 -76t63 -30h85v-118h-85q-45 0 -63 -30t-2 -76l31 -88q21 -61 6 -109t-61 -75.5t-116 -27.5q-28 0 -54 4.5t-53 13.5l22 115q15 -5 30.5 -8t32.5 -3q36 1 50 26.5t1 63.5l-32 92q-20 58 10 103t95 58
q-65 13 -95 58t-10 103l32 92q13 38 -1 63.5t-50 26.5q-17 0 -32.5 -3t-30.5 -8l-22 115q27 9 53 13.5t54 4.5z" />
    <glyph glyph-name="asciitilde" unicode="~" 
d="M133 279l-106 12q10 87 47.5 133.5t98.5 46.5q23 0 46.5 -6t45.5 -17l88 -43q20 -10 33 -14t23 -4q49 0 58 74l106 -12q-10 -87 -48 -133.5t-99 -46.5q-22 0 -46.5 6t-45.5 17l-88 43q-21 10 -33 14t-23 4q-50 0 -57 -74z" />
    <glyph glyph-name="uni00A0" unicode="&#xa0;" horiz-adv-x="195" 
 />
    <glyph glyph-name="exclamdown" unicode="&#xa1;" horiz-adv-x="258" 
d="M191 281l20 -489h-164l20 489h124zM129 508q38 0 65.5 -27.5t27.5 -65.5t-27.5 -65.5t-65.5 -27.5t-65.5 27.5t-27.5 65.5t27.5 65.5t65.5 27.5z" />
    <glyph glyph-name="cent" unicode="&#xa2;" horiz-adv-x="539" 
d="M276 -110v101q-71 7 -128 44.5t-89.5 97t-32.5 131.5q0 73 32.5 132t89.5 97t128 45v87h66v-88q55 -7 104 -31.5t84 -64.5l-99 -103q-21 24 -42.5 38.5t-46.5 19.5v-263q24 5 45.5 18.5t41.5 35.5l96 -100q-34 -39 -82 -63.5t-101 -31.5v-102h-66zM187 264
q0 -31 11 -57.5t31 -44.5t47 -26v258q-26 -7 -46 -26t-31.5 -45.5t-11.5 -58.5z" />
    <glyph glyph-name="sterling" unicode="&#xa3;" horiz-adv-x="661" 
d="M477 -29q-19 0 -38.5 3t-41.5 8l-170 43q-10 2 -19.5 3.5t-17.5 1.5q-28 0 -47.5 -15.5t-36.5 -49.5l-123 76q29 53 66.5 81.5t86.5 34.5q14 14 14 35q0 2 -0.5 5t-2 11l-4.5 24t-9 43h-94v102h74q-5 26 -8 43.5t-4 30t-1 22.5q0 71 31 124t88 83t134 30
q103 0 169.5 -46.5t95.5 -138.5l-133 -44q-17 48 -47 72.5t-77 24.5q-54 0 -82.5 -28.5t-28.5 -78.5q0 -7 1 -16t4.5 -27t9.5 -51h180v-102h-158q2 -10 3 -17.5t1.5 -13.5t1 -10.5t0.5 -9.5q0 -51 -29 -81l150 -38q11 -3 20.5 -4t18.5 -1q53 0 82 59l118 -70
q-63 -118 -177 -118z" />
    <glyph glyph-name="uni00A4" unicode="&#xa4;" horiz-adv-x="688" 
d="M97 37l-77 77l95 96q-22 32 -35 71.5t-13 82.5q0 44 13 83t35 71l-96 98l77 77l99 -100q32 20 70 30.5t79 10.5q42 0 80 -11t70 -31l99 99l75 -75l-96 -97q23 -32 36 -71.5t13 -83.5q0 -43 -13 -83t-36 -72l97 -97l-75 -75l-100 99q-32 -20 -70 -31t-80 -11q-41 0 -79 11
t-70 30zM344 229q36 0 65.5 18t46.5 48.5t17 68.5t-17 68.5t-46.5 48.5t-65.5 18t-65 -18t-46.5 -48.5t-17.5 -68.5t17.5 -68.5t46.5 -48.5t65 -18z" />
    <glyph glyph-name="yen" unicode="&#xa5;" horiz-adv-x="738" 
d="M288 0v130h-177v81h177v53h-177v81h127l-239 355h198l182 -287l173 287h187l-230 -355h118v-81h-167v-53h167v-81h-167v-130h-172z" />
    <glyph glyph-name="uni00A6" unicode="&#xa6;" horiz-adv-x="362" 
d="M106 288v412h150v-412h-150zM106 -209v412h150v-412h-150z" />
    <glyph glyph-name="section" unicode="&#xa7;" horiz-adv-x="584" 
d="M279 -55q-58 0 -111 15t-99 43l62 94q85 -51 150 -50q29 0 46 12.5t17 33.5q0 16 -12 27t-41 21l-104 35q-88 29 -122.5 63t-34.5 92q0 46 25 80.5t68 53.5q-28 32 -28 82q0 74 58 118.5t154 44.5q54 0 107 -15t102 -44l-62 -94q-84 50 -150 50q-29 0 -46 -12t-17 -34
q0 -16 12.5 -27t40.5 -21l103 -35q88 -29 122.5 -63t34.5 -92q0 -46 -24 -81t-68 -55q27 -31 27 -81q0 -73 -57.5 -117t-152.5 -44zM364 247q26 5 41.5 19.5t15.5 36.5q0 20 -14 34.5t-46 24.5l-120 38l-10 4t-10 3q-27 -4 -42.5 -19t-15.5 -38q0 -20 14 -33.5t46 -24.5
l120 -38q5 -1 10.5 -3t10.5 -4z" />
    <glyph glyph-name="dieresis" unicode="&#xa8;" 
d="M178 602q-34 0 -57.5 23t-23.5 59t23.5 59t57.5 23q35 0 58 -23t23 -59t-23 -59t-58 -23zM422 602q-34 0 -57.5 23t-23.5 59t23.5 59t57.5 23q35 0 58 -23t23 -59t-23 -59t-58 -23z" />
    <glyph glyph-name="copyright" unicode="&#xa9;" horiz-adv-x="783" 
d="M398 161q-55 0 -99 25t-70 68.5t-26 96.5q0 54 26 97t70 68.5t99 25.5q45 0 86 -18t69 -50l-68 -71q-20 23 -39.5 32.5t-44.5 9.5q-24 0 -43.5 -12t-31 -33.5t-11.5 -48.5q0 -26 11.5 -47.5t31.5 -33.5t45 -12q44 0 80 40l67 -70q-29 -32 -68.5 -49.5t-83.5 -17.5z
M391 -11q-75 0 -140.5 27.5t-114 77t-76 115t-27.5 141.5t27.5 141.5t76 115t114 77t140.5 27.5t140.5 -27.5t114 -77t76 -115t27.5 -141.5t-27.5 -141.5t-76 -115t-114 -77t-140.5 -27.5zM391 56q60 0 112 23t91.5 63t61.5 93.5t22 114.5t-22 114.5t-61.5 93.5t-91.5 63
t-112 23t-111.5 -23t-91 -63t-61.5 -93.5t-22 -114.5t22 -114.5t61.5 -93.5t91 -63t111.5 -23z" />
    <glyph glyph-name="ordfeminine" unicode="&#xaa;" horiz-adv-x="450" 
d="M172 298q-64 0 -104.5 34.5t-40.5 89.5q0 56 43 87.5t122 31.5q23 0 44.5 -2.5t43.5 -7.5v17q0 57 -74 57q-22 0 -51 -7.5t-69 -23.5l-45 93q50 22 96 33t92 11q84 0 130 -40t46 -112v-254h-125v23q-46 -30 -108 -30zM207 387q21 0 39.5 4.5t33.5 12.5v48
q-17 5 -34.5 6.5t-34.5 1.5q-31 0 -47 -9.5t-16 -26.5t15.5 -27t43.5 -10z" />
    <glyph glyph-name="guillemotleft" unicode="&#xab;" horiz-adv-x="711" 
d="M260 0l-246 265l246 264h164l-239 -263l242 -266h-167zM523 0l-246 265l246 264h164l-239 -263l242 -266h-167z" />
    <glyph glyph-name="uni00AC" unicode="&#xac;" horiz-adv-x="598" 
d="M418 0v234h-362v120h486v-354h-124z" />
    <glyph glyph-name="uni00AD" unicode="&#xad;" horiz-adv-x="470" 
d="M38 219v135h387v-135h-387z" />
    <glyph glyph-name="registered" unicode="&#xae;" horiz-adv-x="486" 
d="M243 304q-57 0 -104 28t-75 75.5t-28 105.5q0 59 28 106t75 75t104 28q58 0 104.5 -28t74.5 -75.5t28 -105.5t-28 -105.5t-74.5 -75.5t-104.5 -28zM242 353q46 0 80.5 20.5t54.5 57t20 82.5q0 47 -20 83t-54.5 56.5t-80.5 20.5q-44 0 -79 -20.5t-54.5 -56.5t-19.5 -83
q0 -46 19.5 -82.5t54.5 -57t79 -20.5zM168 420v188h90q29 0 46.5 -16.5t17.5 -43.5q0 -16 -8.5 -30t-23.5 -22l43 -76h-58l-33 65h-21v-65h-53zM246 568h-25v-46h24q25 0 25 23q0 11 -6 17t-18 6z" />
    <glyph glyph-name="macron" unicode="&#xaf;" 
d="M133 626v100h334v-100h-334z" />
    <glyph glyph-name="degree" unicode="&#xb0;" horiz-adv-x="402" 
d="M201 411q-44 0 -79.5 20.5t-55.5 55t-20 74.5q0 41 20 75t55.5 54.5t79.5 20.5q45 0 80 -20.5t55 -54.5t20 -75q0 -40 -20 -74.5t-55 -55t-80 -20.5zM201 492q30 0 51 20.5t21 48.5q0 29 -21 49t-51 20t-51 -20t-21 -49q0 -28 21 -48.5t51 -20.5z" />
    <glyph glyph-name="plusminus" unicode="&#xb1;" 
d="M75 -1v119h450v-119h-450zM239 209v151h-164v119h164v150h122v-150h164v-119h-164v-151h-122z" />
    <glyph glyph-name="twosuperior" unicode="&#xb2;" horiz-adv-x="313" 
d="M27 350v69l143 119q13 11 20.5 22.5t7.5 23.5q0 17 -13.5 27.5t-34.5 10.5q-24 0 -45 -10t-46 -33l-54 64q33 30 71 45.5t78 16.5q62 -1 100.5 -32t38.5 -83q0 -30 -15.5 -56.5t-47.5 -52.5l-60 -50h125v-81h-268z" />
    <glyph glyph-name="threesuperior" unicode="&#xb3;" horiz-adv-x="335" 
d="M162 345q-45 0 -84.5 15.5t-63.5 43.5l66 60q20 -21 36.5 -28.5t44.5 -7.5q25 0 39.5 8.5t14.5 21.5q0 11 -11.5 16.5t-33.5 5.5h-35v77h24q22 0 35.5 9.5t13.5 24.5q0 14 -13 22t-34 8q-24 0 -40.5 -8t-38.5 -31l-66 59q26 29 66.5 47t82.5 18q63 0 102 -28t39 -74
q0 -25 -12 -46t-33 -35q25 -10 39 -29t14 -44q0 -46 -43 -75.5t-109 -29.5z" />
    <glyph glyph-name="acute" unicode="&#xb4;" 
d="M212 611l88 136h181l-140 -136h-129z" />
    <glyph glyph-name="uni00B5" unicode="&#xb5;" horiz-adv-x="640" 
d="M63 -204v733h162v-314q0 -43 26 -69.5t69 -26.5q30 0 53.5 14t41.5 42v354h162v-529h-162v96q-28 -50 -65.5 -77t-86.5 -27q-10 0 -19.5 1t-18.5 3v-200h-162z" />
    <glyph glyph-name="paragraph" unicode="&#xb6;" horiz-adv-x="719" 
d="M312 0v238h-29q-76 0 -135 29t-92 80t-33 117q0 72 32.5 125t91 82t136.5 29h377v-700h-131v238h-87v-238h-130zM442 365h87v205h-87v-205zM276 365h36v205h-36q-50 0 -80.5 -28t-30.5 -74t30.5 -74.5t80.5 -28.5z" />
    <glyph glyph-name="periodcentered" unicode="&#xb7;" horiz-adv-x="250" 
d="M125 194q-38 0 -65.5 27.5t-27.5 65.5t27.5 65.5t65.5 27.5t65.5 -27.5t27.5 -65.5t-27.5 -65.5t-65.5 -27.5z" />
    <glyph glyph-name="cedilla" unicode="&#xb8;" 
d="M315 -239q-77 0 -130 47l51 54q37 -28 76 -28q25 0 38 9t13 25q0 15 -13 24t-36 9h-47l29 99h76l-13 -42q44 -4 69.5 -29t25.5 -63q0 -44 -40 -74.5t-99 -30.5z" />
    <glyph glyph-name="onesuperior" unicode="&#xb9;" horiz-adv-x="207" 
d="M92 350v252l-77 -30v83l114 45h61v-350h-98z" />
    <glyph glyph-name="ordmasculine" unicode="&#xba;" horiz-adv-x="490" 
d="M245 295q-60 0 -109.5 27.5t-78.5 75t-29 105.5q0 59 29 106t78.5 74.5t110.5 27.5q60 0 109 -27.5t78 -74.5t29 -106q0 -58 -29 -105.5t-78 -75t-110 -27.5zM245 405q26 0 47 13t33.5 35.5t12.5 49.5q0 28 -12.5 50t-33.5 35t-47 13t-47 -13t-33.5 -35t-12.5 -50
q0 -27 12.5 -49.5t33.5 -35.5t47 -13z" />
    <glyph glyph-name="guillemotright" unicode="&#xbb;" horiz-adv-x="711" 
d="M451 529l246 -265l-246 -264h-164l239 263l-242 266h167zM188 529l246 -265l-246 -264h-164l239 263l-242 266h167z" />
    <glyph glyph-name="onequarter" unicode="&#xbc;" horiz-adv-x="690" 
d="M540 0v72h-196v79l179 199h115v-198h44v-80h-44v-72h-98zM453 152h87v95zM92 350v252l-77 -30v83l114 45h61v-350h-98zM59 0l397 700h119l-398 -700h-118z" />
    <glyph glyph-name="onehalf" unicode="&#xbd;" horiz-adv-x="715" 
d="M92 350v252l-77 -30v83l114 45h61v-350h-98zM59 0l397 700h119l-398 -700h-118zM429 0v69l143 119q13 11 20.5 22.5t7.5 23.5q0 17 -13.5 27.5t-34.5 10.5q-24 0 -45 -10t-46 -33l-54 64q33 30 71 45.5t78 16.5q62 -1 100.5 -32t38.5 -83q0 -30 -15.5 -56.5t-47.5 -52.5
l-60 -50h125v-81h-268z" />
    <glyph glyph-name="threequarters" unicode="&#xbe;" horiz-adv-x="783" 
d="M633 0v72h-196v79l179 199h115v-198h44v-80h-44v-72h-98zM546 152h87v95zM162 345q-45 0 -84.5 15.5t-63.5 43.5l66 60q20 -21 36.5 -28.5t44.5 -7.5q25 0 39.5 8.5t14.5 21.5q0 11 -11.5 16.5t-33.5 5.5h-35v77h24q22 0 35.5 9.5t13.5 24.5q0 14 -13 22t-34 8
q-24 0 -40.5 -8t-38.5 -31l-66 59q26 29 66.5 47t82.5 18q63 0 102 -28t39 -74q0 -25 -12 -46t-33 -35q25 -10 39 -29t14 -44q0 -46 -43 -75.5t-109 -29.5zM152 0l397 700h119l-398 -700h-118z" />
    <glyph glyph-name="questiondown" unicode="&#xbf;" horiz-adv-x="534" 
d="M345 279q2 -47 -3.5 -78.5t-23 -56t-48.5 -47.5l-54 -40q-26 -19 -38 -36t-12 -33q0 -20 12 -35t32.5 -24t47.5 -9q43 0 78.5 23t50.5 61l131 -49q-19 -52 -58 -89.5t-92.5 -58.5t-115.5 -21q-70 0 -125 25.5t-87 68.5t-32 98q0 37 11.5 66t39 56.5t75.5 60.5l25 17
q29 19 40.5 41.5t10.5 59.5h135zM277 508q38 0 65.5 -27.5t27.5 -65.5t-27.5 -65.5t-65.5 -27.5t-65.5 27.5t-27.5 65.5t27.5 65.5t65.5 27.5z" />
    <glyph glyph-name="Agrave" unicode="&#xc0;" horiz-adv-x="753" 
d="M-7 0l287 700h197l283 -700h-186l-64 169h-273l-65 -169h-179zM289 306h170l-84 224zM323 782l-139 136h182l87 -136h-130z" />
    <glyph glyph-name="Aacute" unicode="&#xc1;" horiz-adv-x="753" 
d="M-7 0l287 700h197l283 -700h-186l-64 169h-273l-65 -169h-179zM289 306h170l-84 224zM289 782l88 136h181l-140 -136h-129z" />
    <glyph glyph-name="Acircumflex" unicode="&#xc2;" horiz-adv-x="753" 
d="M-7 0l287 700h197l283 -700h-186l-64 169h-273l-65 -169h-179zM289 306h170l-84 224zM445 780l-70 71l-70 -71h-129l119 141h164l119 -141h-133z" />
    <glyph glyph-name="Atilde" unicode="&#xc3;" horiz-adv-x="753" 
d="M-7 0l287 700h197l283 -700h-186l-64 169h-273l-65 -169h-179zM289 306h170l-84 224zM270 769l-97 21q28 130 122 130q28 0 55 -12t51 -24t42 -12q17 0 26.5 11.5t16.5 40.5l95 -21q-13 -66 -43.5 -98t-77.5 -32q-27 0 -54.5 12t-51.5 24t-43 12q-16 0 -25.5 -12
t-15.5 -40z" />
    <glyph glyph-name="Adieresis" unicode="&#xc4;" horiz-adv-x="753" 
d="M-7 0l287 700h197l283 -700h-186l-64 169h-273l-65 -169h-179zM289 306h170l-84 224zM255 773q-34 0 -57.5 23t-23.5 59t23.5 59t57.5 23q35 0 58 -23t23 -59t-23 -59t-58 -23zM499 773q-34 0 -57.5 23t-23.5 59t23.5 59t57.5 23q35 0 58 -23t23 -59t-23 -59t-58 -23z
" />
    <glyph glyph-name="Aring" unicode="&#xc5;" horiz-adv-x="753" 
d="M-7 0l287 700h197l283 -700h-186l-64 169h-273l-65 -169h-179zM289 306h170l-84 224zM377 757q-35 0 -64 17t-46 45t-17 62t17 62t46 45t64 17t64 -17t46 -45t17 -62t-17 -62t-46 -45t-64 -17zM377 821q25 0 42.5 17.5t17.5 42.5t-17.5 42.5t-42.5 17.5t-42.5 -17.5
t-17.5 -42.5t17.5 -42.5t42.5 -17.5z" />
    <glyph glyph-name="AE" unicode="&#xc6;" horiz-adv-x="994" 
d="M-7 0l287 700h671v-149h-412l48 -126h241v-144h-186l51 -132h258v-149h-377l-64 169h-273l-65 -169h-179zM289 306h170l-84 224z" />
    <glyph glyph-name="Ccedilla" unicode="&#xc7;" horiz-adv-x="716" 
d="M388 -239q-77 0 -130 47l51 54q37 -28 76 -28q25 0 38 9t13 25q0 15 -13 24t-36 9h-47l27 91q-72 7 -133 37t-106 78t-70 110t-25 133q0 77 28.5 142.5t80 114.5t120 76.5t147.5 27.5q58 0 114 -17t103.5 -47.5t79.5 -72.5l-116 -114q-37 47 -82.5 70t-98.5 23
q-42 0 -78.5 -15.5t-63.5 -42.5t-42 -64t-15 -81q0 -43 15.5 -79.5t43 -64t65 -42.5t81.5 -15q51 0 94.5 22t78.5 65l113 -111q-44 -55 -113.5 -90.5t-145.5 -42.5l-10 -34q44 -4 69.5 -29t25.5 -63q0 -44 -40 -74.5t-99 -30.5z" />
    <glyph glyph-name="Egrave" unicode="&#xc8;" horiz-adv-x="657" 
d="M58 0v700h552v-149h-380v-126h251v-144h-251v-132h384v-149h-556zM292 782l-139 136h182l87 -136h-130z" />
    <glyph glyph-name="Eacute" unicode="&#xc9;" horiz-adv-x="657" 
d="M58 0v700h552v-149h-380v-126h251v-144h-251v-132h384v-149h-556zM258 782l88 136h181l-140 -136h-129z" />
    <glyph glyph-name="Ecircumflex" unicode="&#xca;" horiz-adv-x="657" 
d="M58 0v700h552v-149h-380v-126h251v-144h-251v-132h384v-149h-556zM414 780l-70 71l-70 -71h-129l119 141h164l119 -141h-133z" />
    <glyph glyph-name="Edieresis" unicode="&#xcb;" horiz-adv-x="657" 
d="M58 0v700h552v-149h-380v-126h251v-144h-251v-132h384v-149h-556zM224 773q-34 0 -57.5 23t-23.5 59t23.5 59t57.5 23q35 0 58 -23t23 -59t-23 -59t-58 -23zM468 773q-34 0 -57.5 23t-23.5 59t23.5 59t57.5 23q35 0 58 -23t23 -59t-23 -59t-58 -23z" />
    <glyph glyph-name="Igrave" unicode="&#xcc;" horiz-adv-x="288" 
d="M58 0v700h172v-700h-172zM90 782l-139 136h182l87 -136h-130z" />
    <glyph glyph-name="Iacute" unicode="&#xcd;" horiz-adv-x="288" 
d="M58 0v700h172v-700h-172zM56 782l88 136h181l-140 -136h-129z" />
    <glyph glyph-name="Icircumflex" unicode="&#xce;" horiz-adv-x="288" 
d="M58 0v700h172v-700h-172zM212 780l-70 71l-70 -71h-129l119 141h164l119 -141h-133z" />
    <glyph glyph-name="Idieresis" unicode="&#xcf;" horiz-adv-x="288" 
d="M58 0v700h172v-700h-172zM22 773q-34 0 -57.5 23t-23.5 59t23.5 59t57.5 23q35 0 58 -23t23 -59t-23 -59t-58 -23zM266 773q-34 0 -57.5 23t-23.5 59t23.5 59t57.5 23q35 0 58 -23t23 -59t-23 -59t-58 -23z" />
    <glyph glyph-name="Eth" unicode="&#xd0;" horiz-adv-x="780" 
d="M93 0v283h-75v135h75v282h284q78 0 145 -27t117.5 -75t79 -112t28.5 -138q0 -73 -28.5 -136t-79 -110.5t-117.5 -74.5t-145 -27h-284zM265 152h108q41 0 76.5 15t62.5 42t42 62.5t15 76.5q0 42 -15 78.5t-42 63.5t-62.5 42.5t-76.5 15.5h-108v-130h156v-135h-156v-131z
" />
    <glyph glyph-name="Ntilde" unicode="&#xd1;" horiz-adv-x="758" 
d="M58 0v700h162l318 -406v406h162v-700h-152l-328 422v-422h-162zM272 769l-97 21q28 130 122 130q28 0 55 -12t51 -24t42 -12q17 0 26.5 11.5t16.5 40.5l95 -21q-13 -66 -43.5 -98t-77.5 -32q-27 0 -54.5 12t-51.5 24t-43 12q-16 0 -25.5 -12t-15.5 -40z" />
    <glyph glyph-name="Ograve" unicode="&#xd2;" horiz-adv-x="814" 
d="M407 -11q-79 0 -147 27.5t-119 77t-79.5 115t-28.5 141.5t28.5 141.5t79.5 115t119 77t147 27.5t147 -27.5t119 -77t79.5 -115t28.5 -141.5t-28.5 -141.5t-79.5 -115t-119 -77t-147 -27.5zM407 147q42 0 78 15.5t62.5 42.5t41.5 64.5t15 80.5q0 44 -15 81t-41.5 64
t-62.5 42.5t-78 15.5t-78 -15.5t-62.5 -42.5t-41.5 -64t-15 -80q0 -44 15 -81.5t41.5 -64.5t62.5 -42.5t78 -15.5zM353 782l-139 136h182l87 -136h-130z" />
    <glyph glyph-name="Oacute" unicode="&#xd3;" horiz-adv-x="814" 
d="M407 -11q-79 0 -147 27.5t-119 77t-79.5 115t-28.5 141.5t28.5 141.5t79.5 115t119 77t147 27.5t147 -27.5t119 -77t79.5 -115t28.5 -141.5t-28.5 -141.5t-79.5 -115t-119 -77t-147 -27.5zM407 147q42 0 78 15.5t62.5 42.5t41.5 64.5t15 80.5q0 44 -15 81t-41.5 64
t-62.5 42.5t-78 15.5t-78 -15.5t-62.5 -42.5t-41.5 -64t-15 -80q0 -44 15 -81.5t41.5 -64.5t62.5 -42.5t78 -15.5zM319 782l88 136h181l-140 -136h-129z" />
    <glyph glyph-name="Ocircumflex" unicode="&#xd4;" horiz-adv-x="814" 
d="M407 -11q-79 0 -147 27.5t-119 77t-79.5 115t-28.5 141.5t28.5 141.5t79.5 115t119 77t147 27.5t147 -27.5t119 -77t79.5 -115t28.5 -141.5t-28.5 -141.5t-79.5 -115t-119 -77t-147 -27.5zM407 147q42 0 78 15.5t62.5 42.5t41.5 64.5t15 80.5q0 44 -15 81t-41.5 64
t-62.5 42.5t-78 15.5t-78 -15.5t-62.5 -42.5t-41.5 -64t-15 -80q0 -44 15 -81.5t41.5 -64.5t62.5 -42.5t78 -15.5zM475 780l-70 71l-70 -71h-129l119 141h164l119 -141h-133z" />
    <glyph glyph-name="Otilde" unicode="&#xd5;" horiz-adv-x="814" 
d="M407 -11q-79 0 -147 27.5t-119 77t-79.5 115t-28.5 141.5t28.5 141.5t79.5 115t119 77t147 27.5t147 -27.5t119 -77t79.5 -115t28.5 -141.5t-28.5 -141.5t-79.5 -115t-119 -77t-147 -27.5zM407 147q42 0 78 15.5t62.5 42.5t41.5 64.5t15 80.5q0 44 -15 81t-41.5 64
t-62.5 42.5t-78 15.5t-78 -15.5t-62.5 -42.5t-41.5 -64t-15 -80q0 -44 15 -81.5t41.5 -64.5t62.5 -42.5t78 -15.5zM300 769l-97 21q28 130 122 130q28 0 55 -12t51 -24t42 -12q17 0 26.5 11.5t16.5 40.5l95 -21q-13 -66 -43.5 -98t-77.5 -32q-27 0 -54.5 12t-51.5 24t-43 12
q-16 0 -25.5 -12t-15.5 -40z" />
    <glyph glyph-name="Odieresis" unicode="&#xd6;" horiz-adv-x="814" 
d="M407 -11q-79 0 -147 27.5t-119 77t-79.5 115t-28.5 141.5t28.5 141.5t79.5 115t119 77t147 27.5t147 -27.5t119 -77t79.5 -115t28.5 -141.5t-28.5 -141.5t-79.5 -115t-119 -77t-147 -27.5zM407 147q42 0 78 15.5t62.5 42.5t41.5 64.5t15 80.5q0 44 -15 81t-41.5 64
t-62.5 42.5t-78 15.5t-78 -15.5t-62.5 -42.5t-41.5 -64t-15 -80q0 -44 15 -81.5t41.5 -64.5t62.5 -42.5t78 -15.5zM285 773q-34 0 -57.5 23t-23.5 59t23.5 59t57.5 23q35 0 58 -23t23 -59t-23 -59t-58 -23zM529 773q-34 0 -57.5 23t-23.5 59t23.5 59t57.5 23q35 0 58 -23
t23 -59t-23 -59t-58 -23z" />
    <glyph glyph-name="multiply" unicode="&#xd7;" 
d="M160 133l-72 75l140 150l-141 151l73 77l141 -151l141 150l71 -75l-141 -150l141 -151l-73 -77l-141 150z" />
    <glyph glyph-name="Oslash" unicode="&#xd8;" horiz-adv-x="814" 
d="M407 -11q-52 0 -100 12.5t-89 35.5l-31 -37h-147l88 107q-44 48 -69.5 110.5t-25.5 132.5q0 76 28.5 141.5t79.5 115t119 77t147 27.5q50 0 96 -11.5t86 -32.5l28 33h148l-84 -102q47 -48 73.5 -111.5t26.5 -136.5q0 -76 -28.5 -141.5t-79.5 -115t-119 -77t-147 -27.5z
M239 241l245 297q-18 8 -37.5 11.5t-39.5 3.5q-42 0 -78 -15.5t-62.5 -42.5t-41.5 -64t-15 -81q0 -31 7.5 -58.5t21.5 -50.5zM407 147q42 0 78 15.5t62.5 42.5t41.5 64.5t15 80.5q0 33 -8.5 62t-24.5 53l-248 -300q19 -9 40.5 -13.5t43.5 -4.5z" />
    <glyph glyph-name="Ugrave" unicode="&#xd9;" horiz-adv-x="733" 
d="M366 -10q-97 0 -168.5 38.5t-110.5 109.5t-39 167v395h172v-395q0 -47 18 -82.5t51.5 -54.5t77.5 -19q45 0 77.5 19t50.5 54.5t18 82.5v395h172v-395q0 -95 -39.5 -166t-111 -110t-168.5 -39zM313 782l-139 136h182l87 -136h-130z" />
    <glyph glyph-name="Uacute" unicode="&#xda;" horiz-adv-x="733" 
d="M366 -10q-97 0 -168.5 38.5t-110.5 109.5t-39 167v395h172v-395q0 -47 18 -82.5t51.5 -54.5t77.5 -19q45 0 77.5 19t50.5 54.5t18 82.5v395h172v-395q0 -95 -39.5 -166t-111 -110t-168.5 -39zM279 782l88 136h181l-140 -136h-129z" />
    <glyph glyph-name="Ucircumflex" unicode="&#xdb;" horiz-adv-x="733" 
d="M366 -10q-97 0 -168.5 38.5t-110.5 109.5t-39 167v395h172v-395q0 -47 18 -82.5t51.5 -54.5t77.5 -19q45 0 77.5 19t50.5 54.5t18 82.5v395h172v-395q0 -95 -39.5 -166t-111 -110t-168.5 -39zM435 780l-70 71l-70 -71h-129l119 141h164l119 -141h-133z" />
    <glyph glyph-name="Udieresis" unicode="&#xdc;" horiz-adv-x="733" 
d="M366 -10q-97 0 -168.5 38.5t-110.5 109.5t-39 167v395h172v-395q0 -47 18 -82.5t51.5 -54.5t77.5 -19q45 0 77.5 19t50.5 54.5t18 82.5v395h172v-395q0 -95 -39.5 -166t-111 -110t-168.5 -39zM245 773q-34 0 -57.5 23t-23.5 59t23.5 59t57.5 23q35 0 58 -23t23 -59
t-23 -59t-58 -23zM489 773q-34 0 -57.5 23t-23.5 59t23.5 59t57.5 23q35 0 58 -23t23 -59t-23 -59t-58 -23z" />
    <glyph glyph-name="Yacute" unicode="&#xdd;" horiz-adv-x="732" 
d="M280 0v261l-290 439h198l183 -287l184 287h187l-290 -439v-261h-172zM278 782l88 136h181l-140 -136h-129z" />
    <glyph glyph-name="Thorn" unicode="&#xde;" horiz-adv-x="695" 
d="M58 0v700h172v-125h197q69 0 122.5 -29.5t84.5 -80.5t31 -117q0 -63 -31 -113.5t-85 -79.5t-122 -29h-197v-126h-172zM230 268h177q25 0 44 10t29.5 28t10.5 41q0 24 -10.5 42.5t-29.5 28.5t-44 10h-177v-160z" />
    <glyph glyph-name="germandbls" unicode="&#xdf;" horiz-adv-x="708" 
d="M489 -11q-130 0 -220 81l78 86q65 -58 135 -58q34 0 53 13.5t19 36.5q0 20 -12.5 31.5t-44.5 21.5l-87 29q-56 19 -82.5 47t-26.5 68q0 35 16 58.5t39.5 40.5t47.5 30.5t40 28.5t16 35q0 29 -33 49t-82 20q-65 0 -99.5 -36t-34.5 -106v-465h-161v470q0 125 77.5 195
t213.5 70q84 0 146.5 -21.5t96.5 -60t34 -91.5q0 -39 -16.5 -65.5t-40.5 -45t-48.5 -32t-41 -25.5t-16.5 -26q0 -13 8 -21t32 -17l80 -28q68 -25 97 -58t29 -85q0 -78 -57 -124t-155 -46z" />
    <glyph glyph-name="agrave" unicode="&#xe0;" horiz-adv-x="571" 
d="M219 -9q-56 0 -99.5 21t-68 58t-24.5 85q0 76 57.5 117.5t160.5 41.5q62 0 120 -15v26q0 40 -25.5 59.5t-75.5 19.5q-31 0 -69.5 -10t-90.5 -32l-58 119q65 29 125.5 43.5t121.5 14.5q110 0 171 -52.5t61 -147.5v-339h-160v32q-32 -22 -67.5 -31.5t-78.5 -9.5zM181 158
q0 -25 22 -39t61 -14q29 0 54.5 6t46.5 19v68q-23 6 -47 9t-49 3q-42 0 -65 -13.5t-23 -38.5zM224 611l-139 136h182l87 -136h-130z" />
    <glyph glyph-name="aacute" unicode="&#xe1;" horiz-adv-x="571" 
d="M219 -9q-56 0 -99.5 21t-68 58t-24.5 85q0 76 57.5 117.5t160.5 41.5q62 0 120 -15v26q0 40 -25.5 59.5t-75.5 19.5q-31 0 -69.5 -10t-90.5 -32l-58 119q65 29 125.5 43.5t121.5 14.5q110 0 171 -52.5t61 -147.5v-339h-160v32q-32 -22 -67.5 -31.5t-78.5 -9.5zM181 158
q0 -25 22 -39t61 -14q29 0 54.5 6t46.5 19v68q-23 6 -47 9t-49 3q-42 0 -65 -13.5t-23 -38.5zM190 611l88 136h181l-140 -136h-129z" />
    <glyph glyph-name="acircumflex" unicode="&#xe2;" horiz-adv-x="571" 
d="M219 -9q-56 0 -99.5 21t-68 58t-24.5 85q0 76 57.5 117.5t160.5 41.5q62 0 120 -15v26q0 40 -25.5 59.5t-75.5 19.5q-31 0 -69.5 -10t-90.5 -32l-58 119q65 29 125.5 43.5t121.5 14.5q110 0 171 -52.5t61 -147.5v-339h-160v32q-32 -22 -67.5 -31.5t-78.5 -9.5zM181 158
q0 -25 22 -39t61 -14q29 0 54.5 6t46.5 19v68q-23 6 -47 9t-49 3q-42 0 -65 -13.5t-23 -38.5zM346 609l-70 71l-70 -71h-129l119 141h164l119 -141h-133z" />
    <glyph glyph-name="atilde" unicode="&#xe3;" horiz-adv-x="571" 
d="M219 -9q-56 0 -99.5 21t-68 58t-24.5 85q0 76 57.5 117.5t160.5 41.5q62 0 120 -15v26q0 40 -25.5 59.5t-75.5 19.5q-31 0 -69.5 -10t-90.5 -32l-58 119q65 29 125.5 43.5t121.5 14.5q110 0 171 -52.5t61 -147.5v-339h-160v32q-32 -22 -67.5 -31.5t-78.5 -9.5zM181 158
q0 -25 22 -39t61 -14q29 0 54.5 6t46.5 19v68q-23 6 -47 9t-49 3q-42 0 -65 -13.5t-23 -38.5zM171 598l-97 21q28 130 122 130q28 0 55 -12t51 -24t42 -12q17 0 26.5 11.5t16.5 40.5l95 -21q-13 -66 -43.5 -98t-77.5 -32q-27 0 -54.5 12t-51.5 24t-43 12q-16 0 -25.5 -12
t-15.5 -40z" />
    <glyph glyph-name="adieresis" unicode="&#xe4;" horiz-adv-x="571" 
d="M219 -9q-56 0 -99.5 21t-68 58t-24.5 85q0 76 57.5 117.5t160.5 41.5q62 0 120 -15v26q0 40 -25.5 59.5t-75.5 19.5q-31 0 -69.5 -10t-90.5 -32l-58 119q65 29 125.5 43.5t121.5 14.5q110 0 171 -52.5t61 -147.5v-339h-160v32q-32 -22 -67.5 -31.5t-78.5 -9.5zM181 158
q0 -25 22 -39t61 -14q29 0 54.5 6t46.5 19v68q-23 6 -47 9t-49 3q-42 0 -65 -13.5t-23 -38.5zM156 602q-34 0 -57.5 23t-23.5 59t23.5 59t57.5 23q35 0 58 -23t23 -59t-23 -59t-58 -23zM400 602q-34 0 -57.5 23t-23.5 59t23.5 59t57.5 23q35 0 58 -23t23 -59t-23 -59
t-58 -23z" />
    <glyph glyph-name="aring" unicode="&#xe5;" horiz-adv-x="571" 
d="M219 -9q-56 0 -99.5 21t-68 58t-24.5 85q0 76 57.5 117.5t160.5 41.5q62 0 120 -15v26q0 40 -25.5 59.5t-75.5 19.5q-31 0 -69.5 -10t-90.5 -32l-58 119q65 29 125.5 43.5t121.5 14.5q110 0 171 -52.5t61 -147.5v-339h-160v32q-32 -22 -67.5 -31.5t-78.5 -9.5zM181 158
q0 -25 22 -39t61 -14q29 0 54.5 6t46.5 19v68q-23 6 -47 9t-49 3q-42 0 -65 -13.5t-23 -38.5zM278 586q-35 0 -64 17t-46 45t-17 62t17 62t46 45t64 17t64 -17t46 -45t17 -62t-17 -62t-46 -45t-64 -17zM278 650q25 0 42.5 17.5t17.5 42.5t-17.5 42.5t-42.5 17.5t-42.5 -17.5
t-17.5 -42.5t17.5 -42.5t42.5 -17.5z" />
    <glyph glyph-name="ae" unicode="&#xe6;" horiz-adv-x="934" 
d="M219 -9q-55 0 -97 21t-66 58t-24 85q0 76 56 117.5t157 41.5q62 0 120 -15v26q0 40 -25.5 59.5t-75.5 19.5q-31 0 -69.5 -10t-90.5 -32l-58 119q65 29 125.5 43.5t121.5 14.5q59 0 104.5 -16t74.5 -47q35 30 77.5 46t91.5 16q78 0 138 -37.5t94.5 -102.5t34.5 -149v-40
h-377q11 -25 29.5 -44t44.5 -29.5t56 -10.5q33 0 60 10.5t46 29.5l107 -95q-50 -42 -102.5 -61t-118.5 -19q-63 0 -117 22.5t-93 62.5q-49 -44 -102.5 -64t-121.5 -20zM528 322h221q-8 26 -24.5 44.5t-38.5 29t-48 10.5q-27 0 -49 -10t-37.5 -28.5t-23.5 -45.5zM264 105
q34 0 65.5 12t59.5 36q-4 10 -8 21t-7 21q-25 8 -51.5 11.5t-53.5 3.5q-40 0 -61.5 -13.5t-21.5 -38.5t20.5 -39t57.5 -14z" />
    <glyph glyph-name="ccedilla" unicode="&#xe7;" horiz-adv-x="539" 
d="M287 -239q-77 0 -130 47l51 54q37 -28 76 -28q25 0 38 9t13 25q0 15 -13 24t-36 9h-47l27 92q-69 9 -123.5 46.5t-85.5 95.5t-31 129q0 78 37 140t100.5 98.5t142.5 36.5q65 0 124 -25.5t100 -72.5l-99 -103q-28 32 -57 46.5t-64 14.5t-63 -17.5t-44 -48t-16 -69.5
q0 -38 16.5 -68.5t45.5 -48t65 -17.5q33 0 61 14t54 43l96 -100q-34 -39 -82 -63.5t-101 -31.5l-11 -34q44 -4 69.5 -29t25.5 -63q0 -44 -40 -74.5t-99 -30.5z" />
    <glyph glyph-name="egrave" unicode="&#xe8;" horiz-adv-x="595" 
d="M314 -10q-81 0 -146.5 36.5t-103.5 98.5t-38 139t36.5 139t99.5 98.5t140 36.5q78 0 138 -37.5t94.5 -102.5t34.5 -149v-40h-377q11 -25 29.5 -44t44.5 -29.5t56 -10.5q33 0 60 10.5t46 29.5l107 -95q-50 -42 -102.5 -61t-118.5 -19zM189 322h221q-8 26 -24.5 44.5
t-38.5 29t-48 10.5q-27 0 -49 -10t-37.5 -28.5t-23.5 -45.5zM246 611l-139 136h182l87 -136h-130z" />
    <glyph glyph-name="eacute" unicode="&#xe9;" horiz-adv-x="595" 
d="M314 -10q-81 0 -146.5 36.5t-103.5 98.5t-38 139t36.5 139t99.5 98.5t140 36.5q78 0 138 -37.5t94.5 -102.5t34.5 -149v-40h-377q11 -25 29.5 -44t44.5 -29.5t56 -10.5q33 0 60 10.5t46 29.5l107 -95q-50 -42 -102.5 -61t-118.5 -19zM189 322h221q-8 26 -24.5 44.5
t-38.5 29t-48 10.5q-27 0 -49 -10t-37.5 -28.5t-23.5 -45.5zM212 611l88 136h181l-140 -136h-129z" />
    <glyph glyph-name="ecircumflex" unicode="&#xea;" horiz-adv-x="595" 
d="M314 -10q-81 0 -146.5 36.5t-103.5 98.5t-38 139t36.5 139t99.5 98.5t140 36.5q78 0 138 -37.5t94.5 -102.5t34.5 -149v-40h-377q11 -25 29.5 -44t44.5 -29.5t56 -10.5q33 0 60 10.5t46 29.5l107 -95q-50 -42 -102.5 -61t-118.5 -19zM189 322h221q-8 26 -24.5 44.5
t-38.5 29t-48 10.5q-27 0 -49 -10t-37.5 -28.5t-23.5 -45.5zM368 609l-70 71l-70 -71h-129l119 141h164l119 -141h-133z" />
    <glyph glyph-name="edieresis" unicode="&#xeb;" horiz-adv-x="595" 
d="M314 -10q-81 0 -146.5 36.5t-103.5 98.5t-38 139t36.5 139t99.5 98.5t140 36.5q78 0 138 -37.5t94.5 -102.5t34.5 -149v-40h-377q11 -25 29.5 -44t44.5 -29.5t56 -10.5q33 0 60 10.5t46 29.5l107 -95q-50 -42 -102.5 -61t-118.5 -19zM189 322h221q-8 26 -24.5 44.5
t-38.5 29t-48 10.5q-27 0 -49 -10t-37.5 -28.5t-23.5 -45.5zM178 602q-34 0 -57.5 23t-23.5 59t23.5 59t57.5 23q35 0 58 -23t23 -59t-23 -59t-58 -23zM422 602q-34 0 -57.5 23t-23.5 59t23.5 59t57.5 23q35 0 58 -23t23 -59t-23 -59t-58 -23z" />
    <glyph glyph-name="igrave" unicode="&#xec;" horiz-adv-x="262" 
d="M50 0v529h162v-529h-162zM77 611l-139 136h182l87 -136h-130z" />
    <glyph glyph-name="iacute" unicode="&#xed;" horiz-adv-x="262" 
d="M50 0v529h162v-529h-162zM43 611l88 136h181l-140 -136h-129z" />
    <glyph glyph-name="icircumflex" unicode="&#xee;" horiz-adv-x="262" 
d="M50 0v529h162v-529h-162zM199 609l-70 71l-70 -71h-129l119 141h164l119 -141h-133z" />
    <glyph glyph-name="idieresis" unicode="&#xef;" horiz-adv-x="262" 
d="M50 0v529h162v-529h-162zM9 602q-34 0 -57.5 23t-23.5 59t23.5 59t57.5 23q35 0 58 -23t23 -59t-23 -59t-58 -23zM253 602q-34 0 -57.5 23t-23.5 59t23.5 59t57.5 23q35 0 58 -23t23 -59t-23 -59t-58 -23z" />
    <glyph glyph-name="eth" unicode="&#xf0;" horiz-adv-x="596" 
d="M287 -9q-73 0 -132.5 34t-94 91.5t-34.5 129.5q0 47 19.5 89.5t53 75t76.5 51.5t91 19q38 0 68.5 -7.5t55.5 -24.5q-8 27 -26.5 55t-44.5 55l-82 -53l-60 81l60 39q-17 11 -35 21t-37 18l86 106q30 -14 57.5 -30.5t52.5 -34.5l93 60l60 -81l-75 -48q62 -67 95.5 -147.5
t33.5 -169.5q0 -101 -34 -175t-97 -114t-150 -40zM292 132q30 0 54.5 15t39 39.5t14.5 54.5t-14.5 54t-39 38.5t-54.5 14.5t-55 -14.5t-40 -38.5t-15 -54t15 -54.5t40 -39.5t55 -15z" />
    <glyph glyph-name="ntilde" unicode="&#xf1;" horiz-adv-x="611" 
d="M50 0v529h162v-36q60 46 142 46q62 0 109.5 -27t74.5 -75t27 -111v-326h-162v304q0 44 -26 70t-70 26q-31 0 -54.5 -11t-40.5 -31v-358h-162zM201 598l-97 21q28 130 122 130q28 0 55 -12t51 -24t42 -12q17 0 26.5 11.5t16.5 40.5l95 -21q-13 -66 -43.5 -98t-77.5 -32
q-27 0 -54.5 12t-51.5 24t-43 12q-16 0 -25.5 -12t-15.5 -40z" />
    <glyph glyph-name="ograve" unicode="&#xf2;" horiz-adv-x="626" 
d="M313 -10q-81 0 -146 36.5t-103 98.5t-38 139t38 139.5t103 99t146 36.5t146 -36.5t103 -99t38 -139.5t-38 -139t-103 -98.5t-146 -36.5zM313 130q37 0 66 18t46 48.5t17 67.5q0 38 -17 68.5t-46.5 48.5t-65.5 18t-65.5 -18t-46.5 -48.5t-17 -68.5q0 -37 17 -67.5
t46.5 -48.5t65.5 -18zM259 611l-139 136h182l87 -136h-130z" />
    <glyph glyph-name="oacute" unicode="&#xf3;" horiz-adv-x="626" 
d="M313 -10q-81 0 -146 36.5t-103 98.5t-38 139t38 139.5t103 99t146 36.5t146 -36.5t103 -99t38 -139.5t-38 -139t-103 -98.5t-146 -36.5zM313 130q37 0 66 18t46 48.5t17 67.5q0 38 -17 68.5t-46.5 48.5t-65.5 18t-65.5 -18t-46.5 -48.5t-17 -68.5q0 -37 17 -67.5
t46.5 -48.5t65.5 -18zM225 611l88 136h181l-140 -136h-129z" />
    <glyph glyph-name="ocircumflex" unicode="&#xf4;" horiz-adv-x="626" 
d="M313 -10q-81 0 -146 36.5t-103 98.5t-38 139t38 139.5t103 99t146 36.5t146 -36.5t103 -99t38 -139.5t-38 -139t-103 -98.5t-146 -36.5zM313 130q37 0 66 18t46 48.5t17 67.5q0 38 -17 68.5t-46.5 48.5t-65.5 18t-65.5 -18t-46.5 -48.5t-17 -68.5q0 -37 17 -67.5
t46.5 -48.5t65.5 -18zM381 609l-70 71l-70 -71h-129l119 141h164l119 -141h-133z" />
    <glyph glyph-name="otilde" unicode="&#xf5;" horiz-adv-x="626" 
d="M313 -10q-81 0 -146 36.5t-103 98.5t-38 139t38 139.5t103 99t146 36.5t146 -36.5t103 -99t38 -139.5t-38 -139t-103 -98.5t-146 -36.5zM313 130q37 0 66 18t46 48.5t17 67.5q0 38 -17 68.5t-46.5 48.5t-65.5 18t-65.5 -18t-46.5 -48.5t-17 -68.5q0 -37 17 -67.5
t46.5 -48.5t65.5 -18zM206 598l-97 21q28 130 122 130q28 0 55 -12t51 -24t42 -12q17 0 26.5 11.5t16.5 40.5l95 -21q-13 -66 -43.5 -98t-77.5 -32q-27 0 -54.5 12t-51.5 24t-43 12q-16 0 -25.5 -12t-15.5 -40z" />
    <glyph glyph-name="odieresis" unicode="&#xf6;" horiz-adv-x="626" 
d="M313 -10q-81 0 -146 36.5t-103 98.5t-38 139t38 139.5t103 99t146 36.5t146 -36.5t103 -99t38 -139.5t-38 -139t-103 -98.5t-146 -36.5zM313 130q37 0 66 18t46 48.5t17 67.5q0 38 -17 68.5t-46.5 48.5t-65.5 18t-65.5 -18t-46.5 -48.5t-17 -68.5q0 -37 17 -67.5
t46.5 -48.5t65.5 -18zM191 602q-34 0 -57.5 23t-23.5 59t23.5 59t57.5 23q35 0 58 -23t23 -59t-23 -59t-58 -23zM435 602q-34 0 -57.5 23t-23.5 59t23.5 59t57.5 23q35 0 58 -23t23 -59t-23 -59t-58 -23z" />
    <glyph glyph-name="divide" unicode="&#xf7;" 
d="M300 498q-37 0 -64 27.5t-27 64.5q0 38 27 65t64 27q38 0 64.5 -27t26.5 -65q0 -37 -26.5 -64.5t-64.5 -27.5zM300 36q-37 0 -64 27.5t-27 64.5q0 38 27 65t64 27q38 0 64.5 -27t26.5 -65q0 -37 -26.5 -64.5t-64.5 -27.5zM75 299v120h450v-120h-450z" />
    <glyph glyph-name="oslash" unicode="&#xf8;" horiz-adv-x="626" 
d="M313 -10q-40 0 -76.5 9.5t-68.5 26.5l-21 -26h-104l61 74q-37 37 -57.5 86t-20.5 104q0 77 38 139.5t103 99t146 36.5q40 0 76.5 -9.5t67.5 -26.5l21 26h105l-61 -74q36 -37 57 -86t21 -105q0 -77 -38 -139t-103 -98.5t-146 -36.5zM202 194l161 195q-11 5 -23.5 7.5
t-26.5 2.5q-36 0 -65.5 -18t-46.5 -48.5t-17 -68.5q0 -19 5 -37t13 -33zM313 130q37 0 66 18t46 48.5t17 67.5q0 20 -5 38t-14 33l-160 -195q11 -4 24 -7t26 -3z" />
    <glyph glyph-name="ugrave" unicode="&#xf9;" horiz-adv-x="611" 
d="M257 -10q-62 0 -109.5 27t-74.5 75.5t-27 110.5v326h162v-304q0 -43 26.5 -69.5t69.5 -26.5q31 0 55 11t40 31v358h162v-529h-162v36q-60 -46 -142 -46zM252 611l-139 136h182l87 -136h-130z" />
    <glyph glyph-name="uacute" unicode="&#xfa;" horiz-adv-x="611" 
d="M257 -10q-62 0 -109.5 27t-74.5 75.5t-27 110.5v326h162v-304q0 -43 26.5 -69.5t69.5 -26.5q31 0 55 11t40 31v358h162v-529h-162v36q-60 -46 -142 -46zM218 611l88 136h181l-140 -136h-129z" />
    <glyph glyph-name="ucircumflex" unicode="&#xfb;" horiz-adv-x="611" 
d="M257 -10q-62 0 -109.5 27t-74.5 75.5t-27 110.5v326h162v-304q0 -43 26.5 -69.5t69.5 -26.5q31 0 55 11t40 31v358h162v-529h-162v36q-60 -46 -142 -46zM374 609l-70 71l-70 -71h-129l119 141h164l119 -141h-133z" />
    <glyph glyph-name="udieresis" unicode="&#xfc;" horiz-adv-x="611" 
d="M257 -10q-62 0 -109.5 27t-74.5 75.5t-27 110.5v326h162v-304q0 -43 26.5 -69.5t69.5 -26.5q31 0 55 11t40 31v358h162v-529h-162v36q-60 -46 -142 -46zM184 602q-34 0 -57.5 23t-23.5 59t23.5 59t57.5 23q35 0 58 -23t23 -59t-23 -59t-58 -23zM428 602q-34 0 -57.5 23
t-23.5 59t23.5 59t57.5 23q35 0 58 -23t23 -59t-23 -59t-58 -23z" />
    <glyph glyph-name="yacute" unicode="&#xfd;" horiz-adv-x="603" 
d="M113 -216q-19 0 -37 1.5t-30 4.5v138q20 -4 50 -4q78 0 105 68v1l-203 536h179l117 -333l136 333h175l-237 -556q-29 -69 -64 -110.5t-81 -60t-110 -18.5zM213 611l88 136h181l-140 -136h-129z" />
    <glyph glyph-name="thorn" unicode="&#xfe;" horiz-adv-x="651" 
d="M50 -211v911l162 35v-243q62 44 140 44q76 0 137 -36.5t97 -98t36 -137.5t-36.5 -137.5t-99 -97.5t-139.5 -36q-37 0 -71 9t-64 26v-239h-162zM324 398q-34 0 -62 -10.5t-50 -31.5v-185q21 -19 50 -30t62 -11q40 0 71 17.5t49.5 48t18.5 68.5t-18.5 68.5t-50 48
t-70.5 17.5z" />
    <glyph glyph-name="ydieresis" unicode="&#xff;" horiz-adv-x="603" 
d="M113 -216q-19 0 -37 1.5t-30 4.5v138q20 -4 50 -4q78 0 105 68v1l-203 536h179l117 -333l136 333h175l-237 -556q-29 -69 -64 -110.5t-81 -60t-110 -18.5zM179 602q-34 0 -57.5 23t-23.5 59t23.5 59t57.5 23q35 0 58 -23t23 -59t-23 -59t-58 -23zM423 602q-34 0 -57.5 23
t-23.5 59t23.5 59t57.5 23q35 0 58 -23t23 -59t-23 -59t-58 -23z" />
    <glyph glyph-name="Amacron" unicode="&#x100;" horiz-adv-x="753" 
d="M-7 0l287 700h197l283 -700h-186l-64 169h-273l-65 -169h-179zM289 306h170l-84 224zM210 797v100h334v-100h-334z" />
    <glyph glyph-name="amacron" unicode="&#x101;" horiz-adv-x="571" 
d="M219 -9q-56 0 -99.5 21t-68 58t-24.5 85q0 76 57.5 117.5t160.5 41.5q62 0 120 -15v26q0 40 -25.5 59.5t-75.5 19.5q-31 0 -69.5 -10t-90.5 -32l-58 119q65 29 125.5 43.5t121.5 14.5q110 0 171 -52.5t61 -147.5v-339h-160v32q-32 -22 -67.5 -31.5t-78.5 -9.5zM181 158
q0 -25 22 -39t61 -14q29 0 54.5 6t46.5 19v68q-23 6 -47 9t-49 3q-42 0 -65 -13.5t-23 -38.5zM111 626v100h334v-100h-334z" />
    <glyph glyph-name="Abreve" unicode="&#x102;" horiz-adv-x="753" 
d="M-7 0l287 700h197l283 -700h-186l-64 169h-273l-65 -169h-179zM289 306h170l-84 224zM377 774q-71 0 -119 36.5t-65 103.5l97 25q25 -76 87 -76q32 0 53.5 19t33.5 57l97 -25q-17 -67 -65 -103.5t-119 -36.5z" />
    <glyph glyph-name="abreve" unicode="&#x103;" horiz-adv-x="571" 
d="M219 -9q-56 0 -99.5 21t-68 58t-24.5 85q0 76 57.5 117.5t160.5 41.5q62 0 120 -15v26q0 40 -25.5 59.5t-75.5 19.5q-31 0 -69.5 -10t-90.5 -32l-58 119q65 29 125.5 43.5t121.5 14.5q110 0 171 -52.5t61 -147.5v-339h-160v32q-32 -22 -67.5 -31.5t-78.5 -9.5zM181 158
q0 -25 22 -39t61 -14q29 0 54.5 6t46.5 19v68q-23 6 -47 9t-49 3q-42 0 -65 -13.5t-23 -38.5zM278 603q-71 0 -119 36.5t-65 103.5l97 25q25 -76 87 -76q32 0 53.5 19t33.5 57l97 -25q-17 -67 -65 -103.5t-119 -36.5z" />
    <glyph glyph-name="Aogonek" unicode="&#x104;" horiz-adv-x="753" 
d="M693 -221q-49 0 -78.5 26t-29.5 68q0 37 21 68t66 59h-98l-64 169h-273l-65 -169h-179l287 700h197l283 -700q-43 -25 -63.5 -48.5t-20.5 -49.5q0 -19 12.5 -30t34.5 -11q9 0 19 3t17 8l21 -70q-17 -10 -40 -16.5t-47 -6.5zM289 306h170l-84 224z" />
    <glyph glyph-name="aogonek" unicode="&#x105;" horiz-adv-x="571" 
d="M458 -221q-49 0 -78.5 26t-29.5 68q0 37 21 68t66 59h-72v32q-32 -22 -67.5 -31.5t-78.5 -9.5q-56 0 -99.5 21t-68 58t-24.5 85q0 76 57.5 117.5t160.5 41.5q62 0 120 -15v26q0 40 -25.5 59.5t-75.5 19.5q-31 0 -69.5 -10t-90.5 -32l-58 119q65 29 125.5 43.5t121.5 14.5
q110 0 171 -52.5t61 -147.5v-339q-43 -25 -63.5 -48.5t-20.5 -49.5q0 -19 12.5 -30t34.5 -11q9 0 19 3t17 8l21 -70q-17 -10 -40 -16.5t-47 -6.5zM264 105q29 0 54.5 6t46.5 19v68q-23 6 -47 9t-49 3q-42 0 -65 -13.5t-23 -38.5t22 -39t61 -14z" />
    <glyph glyph-name="Cacute" unicode="&#x106;" horiz-adv-x="716" 
d="M409 -10q-80 0 -148.5 27.5t-119.5 76.5t-79.5 114.5t-28.5 141.5q0 77 28.5 142.5t80 114.5t120 76.5t147.5 27.5q58 0 114 -17t103.5 -47.5t79.5 -72.5l-116 -114q-37 47 -82.5 70t-98.5 23q-42 0 -78.5 -15.5t-63.5 -42.5t-42 -64t-15 -81q0 -43 15.5 -79.5t43 -64
t65 -42.5t81.5 -15q51 0 94.5 22t78.5 65l113 -111q-32 -41 -79 -71.5t-102 -47t-111 -16.5zM320 782l88 136h181l-140 -136h-129z" />
    <glyph glyph-name="cacute" unicode="&#x107;" horiz-adv-x="539" 
d="M306 -10q-79 0 -142.5 36t-100.5 98.5t-37 139.5q0 78 37 140t100.5 98.5t142.5 36.5q65 0 124 -25.5t100 -72.5l-99 -103q-28 32 -57 46.5t-64 14.5t-63 -17.5t-44 -48t-16 -69.5q0 -38 16.5 -68.5t45.5 -48t65 -17.5q33 0 61 14t54 43l96 -100q-40 -46 -98 -71.5
t-121 -25.5zM216 611l88 136h181l-140 -136h-129z" />
    <glyph glyph-name="Ccircumflex" unicode="&#x108;" horiz-adv-x="716" 
d="M409 -10q-80 0 -148.5 27.5t-119.5 76.5t-79.5 114.5t-28.5 141.5q0 77 28.5 142.5t80 114.5t120 76.5t147.5 27.5q58 0 114 -17t103.5 -47.5t79.5 -72.5l-116 -114q-37 47 -82.5 70t-98.5 23q-42 0 -78.5 -15.5t-63.5 -42.5t-42 -64t-15 -81q0 -43 15.5 -79.5t43 -64
t65 -42.5t81.5 -15q51 0 94.5 22t78.5 65l113 -111q-32 -41 -79 -71.5t-102 -47t-111 -16.5zM476 780l-70 71l-70 -71h-129l119 141h164l119 -141h-133z" />
    <glyph glyph-name="ccircumflex" unicode="&#x109;" horiz-adv-x="539" 
d="M306 -10q-79 0 -142.5 36t-100.5 98.5t-37 139.5q0 78 37 140t100.5 98.5t142.5 36.5q65 0 124 -25.5t100 -72.5l-99 -103q-28 32 -57 46.5t-64 14.5t-63 -17.5t-44 -48t-16 -69.5q0 -38 16.5 -68.5t45.5 -48t65 -17.5q33 0 61 14t54 43l96 -100q-40 -46 -98 -71.5
t-121 -25.5zM372 609l-70 71l-70 -71h-129l119 141h164l119 -141h-133z" />
    <glyph glyph-name="Cdotaccent" unicode="&#x10a;" horiz-adv-x="716" 
d="M409 -10q-80 0 -148.5 27.5t-119.5 76.5t-79.5 114.5t-28.5 141.5q0 77 28.5 142.5t80 114.5t120 76.5t147.5 27.5q58 0 114 -17t103.5 -47.5t79.5 -72.5l-116 -114q-37 47 -82.5 70t-98.5 23q-42 0 -78.5 -15.5t-63.5 -42.5t-42 -64t-15 -81q0 -43 15.5 -79.5t43 -64
t65 -42.5t81.5 -15q51 0 94.5 22t78.5 65l113 -111q-32 -41 -79 -71.5t-102 -47t-111 -16.5zM408 773q-37 0 -61 23.5t-24 58.5t24 58.5t61 23.5t61 -23.5t24 -58.5t-24 -58.5t-61 -23.5z" />
    <glyph glyph-name="cdotaccent" unicode="&#x10b;" horiz-adv-x="539" 
d="M306 -10q-79 0 -142.5 36t-100.5 98.5t-37 139.5q0 78 37 140t100.5 98.5t142.5 36.5q65 0 124 -25.5t100 -72.5l-99 -103q-28 32 -57 46.5t-64 14.5t-63 -17.5t-44 -48t-16 -69.5q0 -38 16.5 -68.5t45.5 -48t65 -17.5q33 0 61 14t54 43l96 -100q-40 -46 -98 -71.5
t-121 -25.5zM304 602q-37 0 -61 23.5t-24 58.5t24 58.5t61 23.5t61 -23.5t24 -58.5t-24 -58.5t-61 -23.5z" />
    <glyph glyph-name="Ccaron" unicode="&#x10c;" horiz-adv-x="716" 
d="M409 -10q-80 0 -148.5 27.5t-119.5 76.5t-79.5 114.5t-28.5 141.5q0 77 28.5 142.5t80 114.5t120 76.5t147.5 27.5q58 0 114 -17t103.5 -47.5t79.5 -72.5l-116 -114q-37 47 -82.5 70t-98.5 23q-42 0 -78.5 -15.5t-63.5 -42.5t-42 -64t-15 -81q0 -43 15.5 -79.5t43 -64
t65 -42.5t81.5 -15q51 0 94.5 22t78.5 65l113 -111q-32 -41 -79 -71.5t-102 -47t-111 -16.5zM340 921l70 -71l70 71h129l-119 -141h-164l-119 141h133z" />
    <glyph glyph-name="ccaron" unicode="&#x10d;" horiz-adv-x="539" 
d="M306 -10q-79 0 -142.5 36t-100.5 98.5t-37 139.5q0 78 37 140t100.5 98.5t142.5 36.5q65 0 124 -25.5t100 -72.5l-99 -103q-28 32 -57 46.5t-64 14.5t-63 -17.5t-44 -48t-16 -69.5q0 -38 16.5 -68.5t45.5 -48t65 -17.5q33 0 61 14t54 43l96 -100q-40 -46 -98 -71.5
t-121 -25.5zM236 750l70 -71l70 71h129l-119 -141h-164l-119 141h133z" />
    <glyph glyph-name="Dcaron" unicode="&#x10e;" horiz-adv-x="745" 
d="M230 152h108q41 0 76.5 15t62.5 42t42 62.5t15 76.5q0 42 -15 78.5t-42 63.5t-62.5 42.5t-76.5 15.5h-108v-396zM58 0v700h284q78 0 145 -27t117.5 -75t79 -112t28.5 -138q0 -73 -28.5 -136t-79 -110.5t-117.5 -74.5t-145 -27h-284zM305 921l70 -71l70 71h129l-119 -141
h-164l-119 141h133z" />
    <glyph glyph-name="dcaron" unicode="&#x10f;" horiz-adv-x="811" 
d="M296 -7q-75 0 -136.5 36.5t-97.5 98t-36 137.5t36.5 137.5t99 97.5t139.5 36q37 0 71 -9t64 -26v199l162 25v-725h-160v39q-63 -46 -142 -46zM324 131q34 0 62 10.5t50 31.5v185q-21 20 -50 30.5t-62 10.5q-39 0 -70.5 -17.5t-50 -48t-18.5 -68.5t18.5 -68.5t50 -48
t70.5 -17.5zM674 498l4 202l125 25l-40 -227h-89z" />
    <glyph glyph-name="Dcroat" unicode="&#x110;" horiz-adv-x="780" 
d="M93 0v283h-75v135h75v282h284q78 0 145 -27t117.5 -75t79 -112t28.5 -138q0 -73 -28.5 -136t-79 -110.5t-117.5 -74.5t-145 -27h-284zM265 152h108q41 0 76.5 15t62.5 42t42 62.5t15 76.5q0 42 -15 78.5t-42 63.5t-62.5 42.5t-76.5 15.5h-108v-130h156v-135h-156v-131z
" />
    <glyph glyph-name="dcroat" unicode="&#x111;" horiz-adv-x="646" 
d="M296 -7q-75 0 -136.5 36.5t-97.5 98t-36 137.5t36.5 137.5t99 97.5t139.5 36q37 0 71 -9t64 -26v75h-130v95h130v29l162 35v-64h53v-95h-53v-576h-160v39q-63 -46 -142 -46zM324 131q34 0 62 10.5t50 31.5v185q-21 20 -50 30.5t-62 10.5q-39 0 -70.5 -17.5t-50 -48
t-18.5 -68.5t18.5 -68.5t50 -48t70.5 -17.5z" />
    <glyph glyph-name="Emacron" unicode="&#x112;" horiz-adv-x="657" 
d="M58 0v700h552v-149h-380v-126h251v-144h-251v-132h384v-149h-556zM179 797v100h334v-100h-334z" />
    <glyph glyph-name="emacron" unicode="&#x113;" horiz-adv-x="595" 
d="M314 -10q-81 0 -146.5 36.5t-103.5 98.5t-38 139t36.5 139t99.5 98.5t140 36.5q78 0 138 -37.5t94.5 -102.5t34.5 -149v-40h-377q11 -25 29.5 -44t44.5 -29.5t56 -10.5q33 0 60 10.5t46 29.5l107 -95q-50 -42 -102.5 -61t-118.5 -19zM189 322h221q-8 26 -24.5 44.5
t-38.5 29t-48 10.5q-27 0 -49 -10t-37.5 -28.5t-23.5 -45.5zM133 626v100h334v-100h-334z" />
    <glyph glyph-name="Ebreve" unicode="&#x114;" horiz-adv-x="657" 
d="M58 0v700h552v-149h-380v-126h251v-144h-251v-132h384v-149h-556zM346 774q-71 0 -119 36.5t-65 103.5l97 25q25 -76 87 -76q32 0 53.5 19t33.5 57l97 -25q-17 -67 -65 -103.5t-119 -36.5z" />
    <glyph glyph-name="ebreve" unicode="&#x115;" horiz-adv-x="595" 
d="M314 -10q-81 0 -146.5 36.5t-103.5 98.5t-38 139t36.5 139t99.5 98.5t140 36.5q78 0 138 -37.5t94.5 -102.5t34.5 -149v-40h-377q11 -25 29.5 -44t44.5 -29.5t56 -10.5q33 0 60 10.5t46 29.5l107 -95q-50 -42 -102.5 -61t-118.5 -19zM189 322h221q-8 26 -24.5 44.5
t-38.5 29t-48 10.5q-27 0 -49 -10t-37.5 -28.5t-23.5 -45.5zM300 603q-71 0 -119 36.5t-65 103.5l97 25q25 -76 87 -76q32 0 53.5 19t33.5 57l97 -25q-17 -67 -65 -103.5t-119 -36.5z" />
    <glyph glyph-name="Edotaccent" unicode="&#x116;" horiz-adv-x="657" 
d="M58 0v700h552v-149h-380v-126h251v-144h-251v-132h384v-149h-556zM346 773q-37 0 -61 23.5t-24 58.5t24 58.5t61 23.5t61 -23.5t24 -58.5t-24 -58.5t-61 -23.5z" />
    <glyph glyph-name="edotaccent" unicode="&#x117;" horiz-adv-x="595" 
d="M314 -10q-81 0 -146.5 36.5t-103.5 98.5t-38 139t36.5 139t99.5 98.5t140 36.5q78 0 138 -37.5t94.5 -102.5t34.5 -149v-40h-377q11 -25 29.5 -44t44.5 -29.5t56 -10.5q33 0 60 10.5t46 29.5l107 -95q-50 -42 -102.5 -61t-118.5 -19zM189 322h221q-8 26 -24.5 44.5
t-38.5 29t-48 10.5q-27 0 -49 -10t-37.5 -28.5t-23.5 -45.5zM300 602q-37 0 -61 23.5t-24 58.5t24 58.5t61 23.5t61 -23.5t24 -58.5t-24 -58.5t-61 -23.5z" />
    <glyph glyph-name="Eogonek" unicode="&#x118;" horiz-adv-x="657" 
d="M634 -198q-17 -10 -40 -16.5t-47 -6.5q-49 0 -78.5 26t-29.5 68q0 37 21 68t66 59h-468v700h552v-149h-380v-126h251v-144h-251v-132h384v-149q-43 -25 -63.5 -48.5t-20.5 -49.5q0 -19 12.5 -30t34.5 -11q9 0 19 3t17 8z" />
    <glyph glyph-name="eogonek" unicode="&#x119;" horiz-adv-x="595" 
d="M335 -221q-49 0 -78.5 26t-29.5 68q0 34 18 62.5t56 54.5q-78 4 -140 40.5t-98.5 97.5t-36.5 136q0 77 36.5 139t99.5 98.5t140 36.5q78 0 138 -37.5t94.5 -102.5t34.5 -149v-40h-377q11 -25 29.5 -44t44.5 -29.5t56 -10.5q33 0 60 10.5t46 29.5l107 -95
q-32 -27 -64.5 -44.5t-69.5 -25.5q-43 -25 -63 -48.5t-20 -49.5q0 -19 12.5 -30t34.5 -11q9 0 19 3t17 8l21 -70q-17 -10 -40 -16.5t-47 -6.5zM189 322h221q-8 26 -24.5 44.5t-38.5 29t-48 10.5q-27 0 -49 -10t-37.5 -28.5t-23.5 -45.5z" />
    <glyph glyph-name="Ecaron" unicode="&#x11a;" horiz-adv-x="657" 
d="M58 0v700h552v-149h-380v-126h251v-144h-251v-132h384v-149h-556zM278 921l70 -71l70 71h129l-119 -141h-164l-119 141h133z" />
    <glyph glyph-name="ecaron" unicode="&#x11b;" horiz-adv-x="595" 
d="M314 -10q-81 0 -146.5 36.5t-103.5 98.5t-38 139t36.5 139t99.5 98.5t140 36.5q78 0 138 -37.5t94.5 -102.5t34.5 -149v-40h-377q11 -25 29.5 -44t44.5 -29.5t56 -10.5q33 0 60 10.5t46 29.5l107 -95q-50 -42 -102.5 -61t-118.5 -19zM189 322h221q-8 26 -24.5 44.5
t-38.5 29t-48 10.5q-27 0 -49 -10t-37.5 -28.5t-23.5 -45.5zM232 750l70 -71l70 71h129l-119 -141h-164l-119 141h133z" />
    <glyph glyph-name="Gcircumflex" unicode="&#x11c;" horiz-adv-x="796" 
d="M408 -11q-79 0 -147 27.5t-119.5 77t-80 115t-28.5 141.5t28.5 141.5t79 115t118.5 77t146 27.5q89 0 168 -36.5t129 -100.5l-121 -109q-34 44 -78.5 66t-97.5 22q-42 0 -77.5 -15.5t-62 -42.5t-41 -64t-14.5 -81t15 -81.5t42.5 -65t64 -43t79.5 -15.5q41 0 74.5 14
t57.5 39t34 57h-189v149h375v-50q0 -79 -26.5 -145.5t-74 -116t-112.5 -76.5t-142 -27zM474 780l-70 71l-70 -71h-129l119 141h164l119 -141h-133z" />
    <glyph glyph-name="gcircumflex" unicode="&#x11d;" horiz-adv-x="644" 
d="M320 -214q-64 0 -121.5 12t-104.5 34l54 126q43 -20 85 -30t84 -10q57 0 86 23t29 69v30q-62 -42 -137 -42t-136 36t-97 97.5t-36 136.5t36.5 136t99 96.5t139.5 35.5q36 0 70 -9t63 -26v28h160v-521q0 -107 -70.5 -164.5t-203.5 -57.5zM323 134q33 0 60.5 10t48.5 29
v187q-21 18 -48.5 28.5t-59.5 10.5q-39 0 -70.5 -17.5t-50 -47t-18.5 -66.5q0 -38 18 -68.5t49.5 -48t70.5 -17.5zM388 609l-70 71l-70 -71h-129l119 141h164l119 -141h-133z" />
    <glyph glyph-name="Gbreve" unicode="&#x11e;" horiz-adv-x="796" 
d="M408 -11q-79 0 -147 27.5t-119.5 77t-80 115t-28.5 141.5t28.5 141.5t79 115t118.5 77t146 27.5q89 0 168 -36.5t129 -100.5l-121 -109q-34 44 -78.5 66t-97.5 22q-42 0 -77.5 -15.5t-62 -42.5t-41 -64t-14.5 -81t15 -81.5t42.5 -65t64 -43t79.5 -15.5q41 0 74.5 14
t57.5 39t34 57h-189v149h375v-50q0 -79 -26.5 -145.5t-74 -116t-112.5 -76.5t-142 -27zM406 774q-71 0 -119 36.5t-65 103.5l97 25q25 -76 87 -76q32 0 53.5 19t33.5 57l97 -25q-17 -67 -65 -103.5t-119 -36.5z" />
    <glyph glyph-name="gbreve" unicode="&#x11f;" horiz-adv-x="644" 
d="M320 -214q-64 0 -121.5 12t-104.5 34l54 126q43 -20 85 -30t84 -10q57 0 86 23t29 69v30q-62 -42 -137 -42t-136 36t-97 97.5t-36 136.5t36.5 136t99 96.5t139.5 35.5q36 0 70 -9t63 -26v28h160v-521q0 -107 -70.5 -164.5t-203.5 -57.5zM323 134q33 0 60.5 10t48.5 29
v187q-21 18 -48.5 28.5t-59.5 10.5q-39 0 -70.5 -17.5t-50 -47t-18.5 -66.5q0 -38 18 -68.5t49.5 -48t70.5 -17.5zM320 603q-71 0 -119 36.5t-65 103.5l97 25q25 -76 87 -76q32 0 53.5 19t33.5 57l97 -25q-17 -67 -65 -103.5t-119 -36.5z" />
    <glyph glyph-name="Gdotaccent" unicode="&#x120;" horiz-adv-x="796" 
d="M408 -11q-79 0 -147 27.5t-119.5 77t-80 115t-28.5 141.5t28.5 141.5t79 115t118.5 77t146 27.5q89 0 168 -36.5t129 -100.5l-121 -109q-34 44 -78.5 66t-97.5 22q-42 0 -77.5 -15.5t-62 -42.5t-41 -64t-14.5 -81t15 -81.5t42.5 -65t64 -43t79.5 -15.5q41 0 74.5 14
t57.5 39t34 57h-189v149h375v-50q0 -79 -26.5 -145.5t-74 -116t-112.5 -76.5t-142 -27zM406 773q-37 0 -61 23.5t-24 58.5t24 58.5t61 23.5t61 -23.5t24 -58.5t-24 -58.5t-61 -23.5z" />
    <glyph glyph-name="gdotaccent" unicode="&#x121;" horiz-adv-x="644" 
d="M320 -214q-64 0 -121.5 12t-104.5 34l54 126q43 -20 85 -30t84 -10q57 0 86 23t29 69v30q-62 -42 -137 -42t-136 36t-97 97.5t-36 136.5t36.5 136t99 96.5t139.5 35.5q36 0 70 -9t63 -26v28h160v-521q0 -107 -70.5 -164.5t-203.5 -57.5zM323 134q33 0 60.5 10t48.5 29
v187q-21 18 -48.5 28.5t-59.5 10.5q-39 0 -70.5 -17.5t-50 -47t-18.5 -66.5q0 -38 18 -68.5t49.5 -48t70.5 -17.5zM320 602q-37 0 -61 23.5t-24 58.5t24 58.5t61 23.5t61 -23.5t24 -58.5t-24 -58.5t-61 -23.5z" />
    <glyph glyph-name="Gcommaaccent" unicode="&#x122;" horiz-adv-x="796" 
d="M408 -11q-79 0 -147 27.5t-119.5 77t-80 115t-28.5 141.5t28.5 141.5t79 115t118.5 77t146 27.5q89 0 168 -36.5t129 -100.5l-121 -109q-34 44 -78.5 66t-97.5 22q-42 0 -77.5 -15.5t-62 -42.5t-41 -64t-14.5 -81t15 -81.5t42.5 -65t64 -43t79.5 -15.5q41 0 74.5 14
t57.5 39t34 57h-189v149h375v-50q0 -79 -26.5 -145.5t-74 -116t-112.5 -76.5t-142 -27zM280 -295l55 215h151l-89 -215h-117z" />
    <glyph glyph-name="gcommaaccent" unicode="&#x123;" horiz-adv-x="642" 
d="M320 -214q-64 0 -121.5 12t-104.5 34l54 126q43 -20 85 -30t84 -10q57 0 86 23t29 69v30q-62 -42 -137 -42t-136 36t-97 97.5t-36 136.5t36.5 136t99 96.5t139.5 35.5q36 0 70 -9t63 -26v28h160v-521q0 -107 -70.5 -164.5t-203.5 -57.5zM323 134q33 0 60.5 10t48.5 29
v187q-21 18 -48.5 28.5t-59.5 10.5q-39 0 -70.5 -17.5t-50 -47t-18.5 -66.5q0 -38 18 -68.5t49.5 -48t70.5 -17.5zM453 832l-55 -215h-151l89 215h117z" />
    <glyph glyph-name="Hcircumflex" unicode="&#x124;" horiz-adv-x="748" 
d="M58 0v700h172v-269h288v269h172v-700h-172v274h-288v-274h-172zM442 780l-70 71l-70 -71h-129l119 141h164l119 -141h-133z" />
    <glyph glyph-name="hcircumflex" unicode="&#x125;" horiz-adv-x="611" 
d="M50 0v705h162v-212q60 46 142 46q62 0 109.5 -27t74.5 -75t27 -111v-326h-162v304q0 44 -26 70t-70 26q-31 0 -54.5 -11t-40.5 -31v-358h-162zM-70 780l119 141h164l119 -141h-133l-70 71l-70 -71h-129z" />
    <glyph glyph-name="Hbar" unicode="&#x126;" horiz-adv-x="768" 
d="M68 0v489h-60v135h60v76h172v-76h288v76h172v-76h60v-135h-60v-489h-172v274h-288v-274h-172zM240 431h288v58h-288v-58z" />
    <glyph glyph-name="hbar" unicode="&#x127;" horiz-adv-x="611" 
d="M50 0v576h-55v95h55v29l162 35v-64h128v-95h-128v-83q60 46 142 46q62 0 109.5 -27t74.5 -75t27 -111v-326h-162v304q0 44 -26 70t-70 26q-31 0 -54.5 -11t-40.5 -31v-358h-162z" />
    <glyph glyph-name="Itilde" unicode="&#x128;" horiz-adv-x="288" 
d="M58 0v700h172v-700h-172zM37 769l-97 21q28 130 122 130q28 0 55 -12t51 -24t42 -12q17 0 26.5 11.5t16.5 40.5l95 -21q-13 -66 -43.5 -98t-77.5 -32q-27 0 -54.5 12t-51.5 24t-43 12q-16 0 -25.5 -12t-15.5 -40z" />
    <glyph glyph-name="itilde" unicode="&#x129;" horiz-adv-x="262" 
d="M50 0v529h162v-529h-162zM24 598l-97 21q28 130 122 130q28 0 55 -12t51 -24t42 -12q17 0 26.5 11.5t16.5 40.5l95 -21q-13 -66 -43.5 -98t-77.5 -32q-27 0 -54.5 12t-51.5 24t-43 12q-16 0 -25.5 -12t-15.5 -40z" />
    <glyph glyph-name="Imacron" unicode="&#x12a;" horiz-adv-x="288" 
d="M58 0v700h172v-700h-172zM-23 797v100h334v-100h-334z" />
    <glyph glyph-name="imacron" unicode="&#x12b;" horiz-adv-x="262" 
d="M50 0v529h162v-529h-162zM-36 626v100h334v-100h-334z" />
    <glyph glyph-name="Ibreve" unicode="&#x12c;" horiz-adv-x="288" 
d="M58 0v700h172v-700h-172zM144 774q-71 0 -119 36.5t-65 103.5l97 25q25 -76 87 -76q32 0 53.5 19t33.5 57l97 -25q-17 -67 -65 -103.5t-119 -36.5z" />
    <glyph glyph-name="ibreve" unicode="&#x12d;" horiz-adv-x="262" 
d="M50 0v529h162v-529h-162zM131 603q-71 0 -119 36.5t-65 103.5l97 25q25 -76 87 -76q32 0 53.5 19t33.5 57l97 -25q-17 -67 -65 -103.5t-119 -36.5z" />
    <glyph glyph-name="Iogonek" unicode="&#x12e;" horiz-adv-x="288" 
d="M163 -221q-49 0 -78.5 26t-29.5 68q0 37 21 68t66 59h-84v700h172v-700q-43 -25 -63.5 -48.5t-20.5 -49.5q0 -19 12.5 -30t34.5 -11q9 0 19 3t17 8l21 -70q-17 -10 -40 -16.5t-47 -6.5z" />
    <glyph glyph-name="iogonek" unicode="&#x12f;" horiz-adv-x="262" 
d="M131 578q-37 0 -63 26t-26 63t26 63t63 26t63 -26t26 -63t-26 -63t-63 -26zM145 -221q-49 0 -78.5 26t-29.5 68q0 37 21 68t66 59h-74v529h162v-529q-43 -25 -63.5 -48.5t-20.5 -49.5q0 -19 12.5 -30t34.5 -11q9 0 19 3t17 8l21 -70q-17 -10 -40 -16.5t-47 -6.5z" />
    <glyph glyph-name="Idotaccent" unicode="&#x130;" horiz-adv-x="288" 
d="M58 0v700h172v-700h-172zM144 773q-37 0 -61 23.5t-24 58.5t24 58.5t61 23.5t61 -23.5t24 -58.5t-24 -58.5t-61 -23.5z" />
    <glyph glyph-name="dotlessi" unicode="&#x131;" horiz-adv-x="262" 
d="M50 0v529h162v-529h-162z" />
    <glyph glyph-name="IJ" unicode="&#x132;" horiz-adv-x="946" 
d="M58 0v700h172v-700h-172zM599 -10q-111 0 -186.5 55.5t-107.5 160.5l159 59q20 -61 53 -90t83 -29q56 0 91 37t35 97v420h172v-425q0 -85 -37.5 -149t-104.5 -100t-157 -36z" />
    <glyph glyph-name="ij" unicode="&#x133;" horiz-adv-x="516" 
d="M50 0v529h162v-529h-162zM131 578q-37 0 -63 26t-26 63t26 63t63 26t63 -26t26 -63t-26 -63t-63 -26zM389 578q-37 0 -63 26t-26 63t26 63t63 26t63 -26t26 -63t-26 -63t-63 -26zM285 -214q-21 0 -44 3t-37 7v122q20 -4 47 -4q29 0 43 11.5t14 36.5v567h162v-576
q0 -79 -48 -123t-137 -44z" />
    <glyph glyph-name="Jcircumflex" unicode="&#x134;" horiz-adv-x="658" 
d="M311 -10q-111 0 -186.5 55.5t-107.5 160.5l159 59q20 -61 53 -90t83 -29q56 0 91 37t35 97v420h172v-425q0 -85 -37.5 -149t-104.5 -100t-157 -36zM595 780l-70 71l-70 -71h-129l119 141h164l119 -141h-133z" />
    <glyph glyph-name="jcircumflex" unicode="&#x135;" horiz-adv-x="262" 
d="M28 -214q-21 0 -44.5 3t-37.5 7v122q21 -4 48 -4q29 0 42.5 11.5t13.5 36.5v567h162v-577q0 -79 -48 -122.5t-136 -43.5zM199 609l-70 71l-70 -71h-129l119 141h164l119 -141h-133z" />
    <glyph glyph-name="Kcommaaccent" unicode="&#x136;" horiz-adv-x="729" 
d="M58 0v700h172v-306l283 306h208l-324 -329l342 -371h-228l-281 321v-321h-172zM240 -295l55 215h151l-89 -215h-117z" />
    <glyph glyph-name="kcommaaccent" unicode="&#x137;" horiz-adv-x="597" 
d="M50 0v700l162 25v-412l211 216h181l-235 -239l251 -290h-205l-203 237v-237h-162zM173 -295l55 215h151l-89 -215h-117z" />
    <glyph glyph-name="kgreenlandic" unicode="&#x138;" horiz-adv-x="597" 
d="M50 0v529h162v-216l211 216h181l-235 -239l251 -290h-205l-203 237v-237h-162z" />
    <glyph glyph-name="Lacute" unicode="&#x139;" horiz-adv-x="637" 
d="M58 0v700h172v-548h369v-152h-541zM55 782l88 136h181l-140 -136h-129z" />
    <glyph glyph-name="lacute" unicode="&#x13a;" horiz-adv-x="262" 
d="M50 0v705h162v-705h-162zM55 782l88 136h181l-140 -136h-129z" />
    <glyph glyph-name="Lcommaaccent" unicode="&#x13b;" horiz-adv-x="637" 
d="M58 0v700h172v-548h369v-152h-541zM222 -295l55 215h151l-89 -215h-117z" />
    <glyph glyph-name="lcommaaccent" unicode="&#x13c;" horiz-adv-x="262" 
d="M50 0v700l162 25v-725h-162zM1 -295l55 215h151l-89 -215h-117z" />
    <glyph glyph-name="Lcaron" unicode="&#x13d;" horiz-adv-x="632" 
d="M58 0v700h172v-548h369v-152h-541zM401 498l4 202l125 25l-40 -227h-89z" />
    <glyph glyph-name="lcaron" unicode="&#x13e;" horiz-adv-x="423" 
d="M50 0v700l162 25v-725h-162zM286 498l4 202l125 25l-40 -227h-89z" />
    <glyph glyph-name="Ldot" unicode="&#x13f;" horiz-adv-x="632" 
d="M58 0v700h172v-548h369v-152h-541zM446 292q-37 0 -61 23.5t-24 58.5t24 58.5t61 23.5t61 -23.5t24 -58.5t-24 -58.5t-61 -23.5z" />
    <glyph glyph-name="ldot" unicode="&#x140;" horiz-adv-x="438" 
d="M50 0v700l162 25v-725h-162zM350 278q-37 0 -61 23.5t-24 58.5t24 58.5t61 23.5t61 -23.5t24 -58.5t-24 -58.5t-61 -23.5z" />
    <glyph glyph-name="Lslash" unicode="&#x141;" horiz-adv-x="662" 
d="M88 0v200l-77 -46v142l77 46v358h172v-257l168 100v-142l-168 -100v-149h369v-152h-541z" />
    <glyph glyph-name="lslash" unicode="&#x142;" horiz-adv-x="308" 
d="M75 0v237l-68 -46v145l68 46v318l162 35v-243l68 46v-145l-68 -46v-347h-162z" />
    <glyph glyph-name="Nacute" unicode="&#x143;" horiz-adv-x="758" 
d="M58 0v700h162l318 -406v406h162v-700h-152l-328 422v-422h-162zM291 782l88 136h181l-140 -136h-129z" />
    <glyph glyph-name="nacute" unicode="&#x144;" horiz-adv-x="611" 
d="M50 0v529h162v-36q60 46 142 46q62 0 109.5 -27t74.5 -75t27 -111v-326h-162v304q0 44 -26 70t-70 26q-31 0 -54.5 -11t-40.5 -31v-358h-162zM220 611l88 136h181l-140 -136h-129z" />
    <glyph glyph-name="Ncommaaccent" unicode="&#x145;" horiz-adv-x="758" 
d="M58 0v700h162l318 -406v406h162v-700h-152l-328 422v-422h-162zM249 -295l55 215h151l-89 -215h-117z" />
    <glyph glyph-name="ncommaaccent" unicode="&#x146;" horiz-adv-x="611" 
d="M50 0v529h162v-36q60 46 142 46q62 0 109.5 -27t74.5 -75t27 -111v-326h-162v304q0 44 -26 70t-70 26q-31 0 -54.5 -11t-40.5 -31v-358h-162zM178 -295l55 215h151l-89 -215h-117z" />
    <glyph glyph-name="Ncaron" unicode="&#x147;" horiz-adv-x="758" 
d="M58 0v700h162l318 -406v406h162v-700h-152l-328 422v-422h-162zM311 921l70 -71l70 71h129l-119 -141h-164l-119 141h133z" />
    <glyph glyph-name="ncaron" unicode="&#x148;" horiz-adv-x="611" 
d="M50 0v529h162v-36q60 46 142 46q62 0 109.5 -27t74.5 -75t27 -111v-326h-162v304q0 44 -26 70t-70 26q-31 0 -54.5 -11t-40.5 -31v-358h-162zM240 750l70 -71l70 71h129l-119 -141h-164l-119 141h133z" />
    <glyph glyph-name="Eng" unicode="&#x14a;" horiz-adv-x="758" 
d="M516 -214q-21 0 -44.5 3t-37.5 7v122q21 -4 48 -4q29 0 42.5 11.5t13.5 36.5v44l-318 410v-416h-162v700h157l323 -412v412h162v-748q0 -79 -48 -122.5t-136 -43.5z" />
    <glyph glyph-name="eng" unicode="&#x14b;" horiz-adv-x="611" 
d="M381 -218q-21 0 -44.5 3t-37.5 7v122q21 -4 48 -4q29 0 42.5 11.5t13.5 36.5v346q0 44 -26 70t-70 26q-31 0 -54.5 -11t-40.5 -31v-358h-162v529h162v-36q60 46 142 46q62 0 109.5 -27t74.5 -75t27 -111v-378q0 -79 -48 -122.5t-136 -43.5z" />
    <glyph glyph-name="Omacron" unicode="&#x14c;" horiz-adv-x="814" 
d="M407 -11q-79 0 -147 27.5t-119 77t-79.5 115t-28.5 141.5t28.5 141.5t79.5 115t119 77t147 27.5t147 -27.5t119 -77t79.5 -115t28.5 -141.5t-28.5 -141.5t-79.5 -115t-119 -77t-147 -27.5zM407 147q42 0 78 15.5t62.5 42.5t41.5 64.5t15 80.5q0 44 -15 81t-41.5 64
t-62.5 42.5t-78 15.5t-78 -15.5t-62.5 -42.5t-41.5 -64t-15 -80q0 -44 15 -81.5t41.5 -64.5t62.5 -42.5t78 -15.5zM240 797v100h334v-100h-334z" />
    <glyph glyph-name="omacron" unicode="&#x14d;" horiz-adv-x="626" 
d="M313 -10q-81 0 -146 36.5t-103 98.5t-38 139t38 139.5t103 99t146 36.5t146 -36.5t103 -99t38 -139.5t-38 -139t-103 -98.5t-146 -36.5zM313 130q37 0 66 18t46 48.5t17 67.5q0 38 -17 68.5t-46.5 48.5t-65.5 18t-65.5 -18t-46.5 -48.5t-17 -68.5q0 -37 17 -67.5
t46.5 -48.5t65.5 -18zM146 626v100h334v-100h-334z" />
    <glyph glyph-name="Obreve" unicode="&#x14e;" horiz-adv-x="814" 
d="M407 -11q-79 0 -147 27.5t-119 77t-79.5 115t-28.5 141.5t28.5 141.5t79.5 115t119 77t147 27.5t147 -27.5t119 -77t79.5 -115t28.5 -141.5t-28.5 -141.5t-79.5 -115t-119 -77t-147 -27.5zM407 147q42 0 78 15.5t62.5 42.5t41.5 64.5t15 80.5q0 44 -15 81t-41.5 64
t-62.5 42.5t-78 15.5t-78 -15.5t-62.5 -42.5t-41.5 -64t-15 -80q0 -44 15 -81.5t41.5 -64.5t62.5 -42.5t78 -15.5zM407 774q-71 0 -119 36.5t-65 103.5l97 25q25 -76 87 -76q32 0 53.5 19t33.5 57l97 -25q-17 -67 -65 -103.5t-119 -36.5z" />
    <glyph glyph-name="obreve" unicode="&#x14f;" horiz-adv-x="626" 
d="M313 -10q-81 0 -146 36.5t-103 98.5t-38 139t38 139.5t103 99t146 36.5t146 -36.5t103 -99t38 -139.5t-38 -139t-103 -98.5t-146 -36.5zM313 130q37 0 66 18t46 48.5t17 67.5q0 38 -17 68.5t-46.5 48.5t-65.5 18t-65.5 -18t-46.5 -48.5t-17 -68.5q0 -37 17 -67.5
t46.5 -48.5t65.5 -18zM313 603q-71 0 -119 36.5t-65 103.5l97 25q25 -76 87 -76q32 0 53.5 19t33.5 57l97 -25q-17 -67 -65 -103.5t-119 -36.5z" />
    <glyph glyph-name="Ohungarumlaut" unicode="&#x150;" horiz-adv-x="814" 
d="M407 -11q-79 0 -147 27.5t-119 77t-79.5 115t-28.5 141.5t28.5 141.5t79.5 115t119 77t147 27.5t147 -27.5t119 -77t79.5 -115t28.5 -141.5t-28.5 -141.5t-79.5 -115t-119 -77t-147 -27.5zM407 147q42 0 78 15.5t62.5 42.5t41.5 64.5t15 80.5q0 44 -15 81t-41.5 64
t-62.5 42.5t-78 15.5t-78 -15.5t-62.5 -42.5t-41.5 -64t-15 -80q0 -44 15 -81.5t41.5 -64.5t62.5 -42.5t78 -15.5zM219 784l100 133h156l-134 -133h-122zM442 784l100 133h158l-146 -133h-112z" />
    <glyph glyph-name="ohungarumlaut" unicode="&#x151;" horiz-adv-x="626" 
d="M313 -10q-81 0 -146 36.5t-103 98.5t-38 139t38 139.5t103 99t146 36.5t146 -36.5t103 -99t38 -139.5t-38 -139t-103 -98.5t-146 -36.5zM313 130q37 0 66 18t46 48.5t17 67.5q0 38 -17 68.5t-46.5 48.5t-65.5 18t-65.5 -18t-46.5 -48.5t-17 -68.5q0 -37 17 -67.5
t46.5 -48.5t65.5 -18zM125 613l100 133h156l-134 -133h-122zM348 613l100 133h158l-146 -133h-112z" />
    <glyph glyph-name="OE" unicode="&#x152;" horiz-adv-x="1106" 
d="M402 0q-76 0 -142 27t-116 75t-78 111.5t-28 136.5t28 136.5t78 111.5t116 75t142 27h661v-149h-364q20 -28 35 -59.5t22 -66.5h184v-144h-183q-7 -36 -22 -69.5t-36 -62.5h364v-149h-661zM402 152q39 0 73 15t59.5 42t40 63t14.5 78t-14.5 78t-40 63t-59.5 42t-73 15
t-73 -15t-59.5 -42t-40 -63t-14.5 -78t14.5 -78t40 -63t59.5 -42t73 -15z" />
    <glyph glyph-name="oe" unicode="&#x153;" horiz-adv-x="1013" 
d="M313 -10q-81 0 -146 36.5t-103 98.5t-38 139t38 139.5t103 99t146 36.5q62 0 115 -24t90 -65q37 41 89 64.5t113 23.5q78 0 138 -37.5t94.5 -102.5t34.5 -149v-40h-377q11 -25 29.5 -44t44.5 -29.5t56 -10.5q33 0 60 10.5t46 29.5l107 -95q-50 -42 -102.5 -61t-118.5 -19
q-64 0 -119 24t-93 66q-38 -42 -91.5 -66t-115.5 -24zM313 130q37 0 66 18t46 48.5t17 67.5q0 38 -17 68.5t-46.5 48.5t-65.5 18t-65.5 -18t-46.5 -48.5t-17 -68.5q0 -37 17 -67.5t46.5 -48.5t65.5 -18zM607 322h221q-8 26 -24.5 44.5t-38.5 29t-48 10.5q-27 0 -49 -10
t-37.5 -28.5t-23.5 -45.5z" />
    <glyph glyph-name="Racute" unicode="&#x154;" horiz-adv-x="693" 
d="M58 0v700h358q72 0 128 -28.5t87.5 -79t31.5 -115.5q0 -66 -36 -118t-95 -79l153 -280h-192l-132 255h-131v-255h-172zM230 395h170q40 0 64.5 22t24.5 57t-24.5 57t-64.5 22h-170v-158zM259 782l88 136h181l-140 -136h-129z" />
    <glyph glyph-name="racute" unicode="&#x155;" horiz-adv-x="432" 
d="M50 0v529h162v-53q26 32 61 48.5t78 16.5q43 -1 61 -13v-141q-16 8 -36 12t-41 4q-38 0 -70.5 -17.5t-52.5 -49.5v-336h-162zM163 611l88 136h181l-140 -136h-129z" />
    <glyph glyph-name="Rcommaaccent" unicode="&#x156;" horiz-adv-x="693" 
d="M58 0v700h358q72 0 128 -28.5t87.5 -79t31.5 -115.5q0 -66 -36 -118t-95 -79l153 -280h-192l-132 255h-131v-255h-172zM230 395h170q40 0 64.5 22t24.5 57t-24.5 57t-64.5 22h-170v-158zM228 -295l55 215h151l-89 -215h-117z" />
    <glyph glyph-name="rcommaaccent" unicode="&#x157;" horiz-adv-x="432" 
d="M50 0v529h162v-53q26 32 61 48.5t78 16.5q43 -1 61 -13v-141q-16 8 -36 12t-41 4q-38 0 -70.5 -17.5t-52.5 -49.5v-336h-162zM-4 -295l55 215h151l-89 -215h-117z" />
    <glyph glyph-name="Rcaron" unicode="&#x158;" horiz-adv-x="693" 
d="M58 0v700h358q72 0 128 -28.5t87.5 -79t31.5 -115.5q0 -66 -36 -118t-95 -79l153 -280h-192l-132 255h-131v-255h-172zM230 395h170q40 0 64.5 22t24.5 57t-24.5 57t-64.5 22h-170v-158zM279 921l70 -71l70 71h129l-119 -141h-164l-119 141h133z" />
    <glyph glyph-name="rcaron" unicode="&#x159;" horiz-adv-x="432" 
d="M50 0v529h162v-53q26 32 61 48.5t78 16.5q43 -1 61 -13v-141q-16 8 -36 12t-41 4q-38 0 -70.5 -17.5t-52.5 -49.5v-336h-162zM183 750l70 -71l70 71h129l-119 -141h-164l-119 141h133z" />
    <glyph glyph-name="Sacute" unicode="&#x15a;" horiz-adv-x="644" 
d="M316 -10q-85 0 -168 31t-148 86l96 125q64 -52 118 -74.5t115 -22.5q40 0 68 8t43 23.5t15 36.5q0 29 -22 45t-75 25l-154 27q-85 15 -131 65t-46 127q0 68 34.5 117t99 75t153.5 26q78 0 157 -26.5t137 -73.5l-91 -127q-108 83 -215 83q-35 0 -60.5 -7.5t-39 -21
t-13.5 -32.5q0 -26 19.5 -40t63.5 -22l145 -24q101 -16 153.5 -67t52.5 -132q0 -71 -37 -122.5t-106 -79.5t-164 -28zM219 782l88 136h181l-140 -136h-129z" />
    <glyph glyph-name="sacute" unicode="&#x15b;" horiz-adv-x="509" 
d="M259 -10q-75 0 -139 17.5t-111 51.5l77 109q50 -30 91 -43.5t81 -13.5t63.5 11.5t23.5 30.5q0 15 -13 24.5t-41 13.5l-105 16q-79 12 -120.5 52.5t-41.5 105.5q0 54 27.5 92.5t78.5 59t122 20.5q58 0 115 -16t106 -48l-77 -104q-43 25 -82 36.5t-78 11.5q-31 0 -50 -10.5
t-19 -27.5q0 -16 14 -25.5t48 -14.5l105 -16q78 -11 120.5 -51.5t42.5 -102.5q0 -52 -31 -92t-84.5 -63.5t-122.5 -23.5zM160 611l88 136h181l-140 -136h-129z" />
    <glyph glyph-name="Scircumflex" unicode="&#x15c;" horiz-adv-x="644" 
d="M316 -10q-85 0 -168 31t-148 86l96 125q64 -52 118 -74.5t115 -22.5q40 0 68 8t43 23.5t15 36.5q0 29 -22 45t-75 25l-154 27q-85 15 -131 65t-46 127q0 68 34.5 117t99 75t153.5 26q78 0 157 -26.5t137 -73.5l-91 -127q-108 83 -215 83q-35 0 -60.5 -7.5t-39 -21
t-13.5 -32.5q0 -26 19.5 -40t63.5 -22l145 -24q101 -16 153.5 -67t52.5 -132q0 -71 -37 -122.5t-106 -79.5t-164 -28zM375 780l-70 71l-70 -71h-129l119 141h164l119 -141h-133z" />
    <glyph glyph-name="scircumflex" unicode="&#x15d;" horiz-adv-x="509" 
d="M259 -10q-75 0 -139 17.5t-111 51.5l77 109q50 -30 91 -43.5t81 -13.5t63.5 11.5t23.5 30.5q0 15 -13 24.5t-41 13.5l-105 16q-79 12 -120.5 52.5t-41.5 105.5q0 54 27.5 92.5t78.5 59t122 20.5q58 0 115 -16t106 -48l-77 -104q-43 25 -82 36.5t-78 11.5q-31 0 -50 -10.5
t-19 -27.5q0 -16 14 -25.5t48 -14.5l105 -16q78 -11 120.5 -51.5t42.5 -102.5q0 -52 -31 -92t-84.5 -63.5t-122.5 -23.5zM316 609l-70 71l-70 -71h-129l119 141h164l119 -141h-133z" />
    <glyph glyph-name="Scedilla" unicode="&#x15e;" horiz-adv-x="644" 
d="M296 -239q-77 0 -130 47l51 54q37 -28 76 -28q25 0 38 9t13 25q0 15 -13 24t-36 9h-47l27 91q-75 7 -146.5 36.5t-128.5 78.5l96 125q64 -52 118 -74.5t115 -22.5q40 0 68 8t43 23.5t15 36.5q0 29 -22 45t-75 25l-154 27q-85 15 -131 65t-46 127q0 68 34.5 117t99 75
t153.5 26q78 0 157 -26.5t137 -73.5l-91 -127q-108 83 -215 83q-35 0 -60.5 -7.5t-39 -21t-13.5 -32.5q0 -26 19.5 -40t63.5 -22l145 -24q101 -16 153.5 -67t52.5 -132q0 -66 -33 -116t-94 -79t-146 -34l-10 -33q44 -4 69.5 -29t25.5 -63q0 -44 -40 -74.5t-99 -30.5z" />
    <glyph glyph-name="scedilla" unicode="&#x15f;" horiz-adv-x="509" 
d="M238 -239q-77 0 -130 47l51 54q37 -28 76 -28q25 0 38 9t13 25q0 15 -13 24t-36 9h-47l27 90q-62 5 -115 22t-93 46l77 109q50 -30 91 -43.5t81 -13.5t63.5 11.5t23.5 30.5q0 15 -13 24.5t-41 13.5l-105 16q-79 12 -120.5 52.5t-41.5 105.5q0 54 27.5 92.5t78.5 59
t122 20.5q58 0 115 -16t106 -48l-77 -104q-43 25 -82 36.5t-78 11.5q-31 0 -50 -10.5t-19 -27.5q0 -16 14 -25.5t48 -14.5l105 -16q78 -11 120.5 -51.5t42.5 -102.5q0 -47 -26 -85t-72.5 -62t-106.5 -30l-10 -34q44 -4 69.5 -29t25.5 -63q0 -44 -40 -74.5t-99 -30.5z" />
    <glyph glyph-name="Scaron" unicode="&#x160;" horiz-adv-x="644" 
d="M316 -10q-85 0 -168 31t-148 86l96 125q64 -52 118 -74.5t115 -22.5q40 0 68 8t43 23.5t15 36.5q0 29 -22 45t-75 25l-154 27q-85 15 -131 65t-46 127q0 68 34.5 117t99 75t153.5 26q78 0 157 -26.5t137 -73.5l-91 -127q-108 83 -215 83q-35 0 -60.5 -7.5t-39 -21
t-13.5 -32.5q0 -26 19.5 -40t63.5 -22l145 -24q101 -16 153.5 -67t52.5 -132q0 -71 -37 -122.5t-106 -79.5t-164 -28zM239 921l70 -71l70 71h129l-119 -141h-164l-119 141h133z" />
    <glyph glyph-name="scaron" unicode="&#x161;" horiz-adv-x="509" 
d="M259 -10q-75 0 -139 17.5t-111 51.5l77 109q50 -30 91 -43.5t81 -13.5t63.5 11.5t23.5 30.5q0 15 -13 24.5t-41 13.5l-105 16q-79 12 -120.5 52.5t-41.5 105.5q0 54 27.5 92.5t78.5 59t122 20.5q58 0 115 -16t106 -48l-77 -104q-43 25 -82 36.5t-78 11.5q-31 0 -50 -10.5
t-19 -27.5q0 -16 14 -25.5t48 -14.5l105 -16q78 -11 120.5 -51.5t42.5 -102.5q0 -52 -31 -92t-84.5 -63.5t-122.5 -23.5zM180 750l70 -71l70 71h129l-119 -141h-164l-119 141h133z" />
    <glyph glyph-name="Tcedilla" unicode="&#x162;" horiz-adv-x="666" 
d="M311 -239q-77 0 -130 47l51 54q37 -28 76 -28q25 0 38 9t13 25q0 15 -13 24t-36 9h-47l29 99h-45v548h-229v152h630v-152h-229v-548h-51l-13 -42q44 -4 69.5 -29t25.5 -63q0 -44 -40 -74.5t-99 -30.5z" />
    <glyph glyph-name="tcedilla" unicode="&#x163;" horiz-adv-x="448" 
d="M261 -239q-77 0 -130 47l51 54q37 -28 76 -28q25 0 38 9t13 25q0 15 -13 24t-36 9h-47l30 100q-118 29 -118 160v233h-107v135h107v136l162 35v-171h148v-135h-148v-201q0 -35 15.5 -49.5t54.5 -14.5q20 0 36.5 2.5t36.5 8.5v-131q-22 -7 -56 -11.5t-57 -4.5h-0.5h-0.5
l-11 -35q44 -4 69.5 -29t25.5 -63q0 -44 -40 -74.5t-99 -30.5z" />
    <glyph glyph-name="Tcaron" unicode="&#x164;" horiz-adv-x="666" 
d="M247 0v548h-229v152h630v-152h-229v-548h-172zM265 921l70 -71l70 71h129l-119 -141h-164l-119 141h133z" />
    <glyph glyph-name="tcaron" unicode="&#x165;" horiz-adv-x="448" 
d="M348 591l4 202l125 25l-40 -227h-89zM317 -7q-95 0 -143.5 42.5t-48.5 125.5v233h-107v135h107v136l162 35v-171h148v-135h-148v-201q0 -35 15.5 -49.5t54.5 -14.5q20 0 36.5 2.5t36.5 8.5v-131q-22 -7 -56 -11.5t-57 -4.5z" />
    <glyph glyph-name="Tbar" unicode="&#x166;" horiz-adv-x="666" 
d="M247 0v269h-132v135h132v144h-229v152h630v-152h-229v-144h132v-135h-132v-269h-172z" />
    <glyph glyph-name="tbar" unicode="&#x167;" horiz-adv-x="448" 
d="M317 -7q-95 0 -143.5 42.5t-48.5 125.5v54h-107v115h107v64h-107v135h107v136l162 35v-171h148v-135h-148v-64h147v-115h-147v-22q0 -35 15.5 -49.5t54.5 -14.5q20 0 36.5 2.5t36.5 8.5v-131q-22 -7 -56 -11.5t-57 -4.5z" />
    <glyph glyph-name="Utilde" unicode="&#x168;" horiz-adv-x="733" 
d="M366 -10q-97 0 -168.5 38.5t-110.5 109.5t-39 167v395h172v-395q0 -47 18 -82.5t51.5 -54.5t77.5 -19q45 0 77.5 19t50.5 54.5t18 82.5v395h172v-395q0 -95 -39.5 -166t-111 -110t-168.5 -39zM260 769l-97 21q28 130 122 130q28 0 55 -12t51 -24t42 -12q17 0 26.5 11.5
t16.5 40.5l95 -21q-13 -66 -43.5 -98t-77.5 -32q-27 0 -54.5 12t-51.5 24t-43 12q-16 0 -25.5 -12t-15.5 -40z" />
    <glyph glyph-name="utilde" unicode="&#x169;" horiz-adv-x="611" 
d="M257 -10q-62 0 -109.5 27t-74.5 75.5t-27 110.5v326h162v-304q0 -43 26.5 -69.5t69.5 -26.5q31 0 55 11t40 31v358h162v-529h-162v36q-60 -46 -142 -46zM199 598l-97 21q28 130 122 130q28 0 55 -12t51 -24t42 -12q17 0 26.5 11.5t16.5 40.5l95 -21q-13 -66 -43.5 -98
t-77.5 -32q-27 0 -54.5 12t-51.5 24t-43 12q-16 0 -25.5 -12t-15.5 -40z" />
    <glyph glyph-name="Umacron" unicode="&#x16a;" horiz-adv-x="733" 
d="M366 -10q-97 0 -168.5 38.5t-110.5 109.5t-39 167v395h172v-395q0 -47 18 -82.5t51.5 -54.5t77.5 -19q45 0 77.5 19t50.5 54.5t18 82.5v395h172v-395q0 -95 -39.5 -166t-111 -110t-168.5 -39zM200 797v100h334v-100h-334z" />
    <glyph glyph-name="umacron" unicode="&#x16b;" horiz-adv-x="611" 
d="M257 -10q-62 0 -109.5 27t-74.5 75.5t-27 110.5v326h162v-304q0 -43 26.5 -69.5t69.5 -26.5q31 0 55 11t40 31v358h162v-529h-162v36q-60 -46 -142 -46zM139 626v100h334v-100h-334z" />
    <glyph glyph-name="Ubreve" unicode="&#x16c;" horiz-adv-x="733" 
d="M366 -10q-97 0 -168.5 38.5t-110.5 109.5t-39 167v395h172v-395q0 -47 18 -82.5t51.5 -54.5t77.5 -19q45 0 77.5 19t50.5 54.5t18 82.5v395h172v-395q0 -95 -39.5 -166t-111 -110t-168.5 -39zM367 774q-71 0 -119 36.5t-65 103.5l97 25q25 -76 87 -76q32 0 53.5 19
t33.5 57l97 -25q-17 -67 -65 -103.5t-119 -36.5z" />
    <glyph glyph-name="ubreve" unicode="&#x16d;" horiz-adv-x="611" 
d="M257 -10q-62 0 -109.5 27t-74.5 75.5t-27 110.5v326h162v-304q0 -43 26.5 -69.5t69.5 -26.5q31 0 55 11t40 31v358h162v-529h-162v36q-60 -46 -142 -46zM306 603q-71 0 -119 36.5t-65 103.5l97 25q25 -76 87 -76q32 0 53.5 19t33.5 57l97 -25q-17 -67 -65 -103.5
t-119 -36.5z" />
    <glyph glyph-name="Uring" unicode="&#x16e;" horiz-adv-x="733" 
d="M366 -10q-97 0 -168.5 38.5t-110.5 109.5t-39 167v395h172v-395q0 -47 18 -82.5t51.5 -54.5t77.5 -19q45 0 77.5 19t50.5 54.5t18 82.5v395h172v-395q0 -95 -39.5 -166t-111 -110t-168.5 -39zM367 757q-35 0 -64 17t-46 45t-17 62t17 62t46 45t64 17t64 -17t46 -45
t17 -62t-17 -62t-46 -45t-64 -17zM367 821q25 0 42.5 17.5t17.5 42.5t-17.5 42.5t-42.5 17.5t-42.5 -17.5t-17.5 -42.5t17.5 -42.5t42.5 -17.5z" />
    <glyph glyph-name="uring" unicode="&#x16f;" horiz-adv-x="611" 
d="M257 -10q-62 0 -109.5 27t-74.5 75.5t-27 110.5v326h162v-304q0 -43 26.5 -69.5t69.5 -26.5q31 0 55 11t40 31v358h162v-529h-162v36q-60 -46 -142 -46zM306 586q-35 0 -64 17t-46 45t-17 62t17 62t46 45t64 17t64 -17t46 -45t17 -62t-17 -62t-46 -45t-64 -17zM306 650
q25 0 42.5 17.5t17.5 42.5t-17.5 42.5t-42.5 17.5t-42.5 -17.5t-17.5 -42.5t17.5 -42.5t42.5 -17.5z" />
    <glyph glyph-name="Uhungarumlaut" unicode="&#x170;" horiz-adv-x="733" 
d="M366 -10q-97 0 -168.5 38.5t-110.5 109.5t-39 167v395h172v-395q0 -47 18 -82.5t51.5 -54.5t77.5 -19q45 0 77.5 19t50.5 54.5t18 82.5v395h172v-395q0 -95 -39.5 -166t-111 -110t-168.5 -39zM179 784l100 133h156l-134 -133h-122zM402 784l100 133h158l-146 -133h-112z
" />
    <glyph glyph-name="uhungarumlaut" unicode="&#x171;" horiz-adv-x="611" 
d="M257 -10q-62 0 -109.5 27t-74.5 75.5t-27 110.5v326h162v-304q0 -43 26.5 -69.5t69.5 -26.5q31 0 55 11t40 31v358h162v-529h-162v36q-60 -46 -142 -46zM118 613l100 133h156l-134 -133h-122zM341 613l100 133h158l-146 -133h-112z" />
    <glyph glyph-name="Uogonek" unicode="&#x172;" horiz-adv-x="733" 
d="M385 -221q-49 0 -78.5 26t-29.5 68q0 34 18 62.5t56 54.5q-93 4 -161 43.5t-105 109t-37 162.5v395h172v-395q0 -47 18 -82.5t51.5 -54.5t77.5 -19q45 0 77.5 19t50.5 54.5t18 82.5v395h172v-395q0 -121 -63.5 -202.5t-172.5 -104.5q-42 -24 -61.5 -47.5t-19.5 -48.5
q0 -19 12.5 -30t34.5 -11q9 0 19 3t17 8l21 -70q-17 -10 -40 -16.5t-47 -6.5z" />
    <glyph glyph-name="uogonek" unicode="&#x173;" horiz-adv-x="611" 
d="M496 -221q-49 0 -78.5 26t-29.5 68q0 37 21 68t66 59h-76v36q-60 -46 -142 -46q-62 0 -109.5 27t-74.5 75.5t-27 110.5v326h162v-304q0 -43 26.5 -69.5t69.5 -26.5q31 0 55 11t40 31v358h162v-528q-43 -25 -62.5 -49t-19.5 -50q0 -19 12.5 -30t34.5 -11q9 0 19 3t17 8
l21 -70q-17 -10 -40 -16.5t-47 -6.5z" />
    <glyph glyph-name="Wcircumflex" unicode="&#x174;" horiz-adv-x="969" 
d="M179 0l-156 700h177l85 -432l122 432h161l122 -432l85 432h171l-156 -700h-182l-123 446l-124 -446h-182zM551 780l-70 71l-70 -71h-129l119 141h164l119 -141h-133z" />
    <glyph glyph-name="wcircumflex" unicode="&#x175;" horiz-adv-x="799" 
d="M152 0l-144 529h153l78 -311l95 311h134l95 -312l77 312h151l-145 -529h-155l-92 306l-91 -306h-156zM468 609l-70 71l-70 -71h-129l119 141h164l119 -141h-133z" />
    <glyph glyph-name="Ycircumflex" unicode="&#x176;" horiz-adv-x="732" 
d="M280 0v261l-290 439h198l183 -287l184 287h187l-290 -439v-261h-172zM434 780l-70 71l-70 -71h-129l119 141h164l119 -141h-133z" />
    <glyph glyph-name="ycircumflex" unicode="&#x177;" horiz-adv-x="603" 
d="M113 -216q-19 0 -37 1.5t-30 4.5v138q20 -4 50 -4q78 0 105 68v1l-203 536h179l117 -333l136 333h175l-237 -556q-29 -69 -64 -110.5t-81 -60t-110 -18.5zM369 609l-70 71l-70 -71h-129l119 141h164l119 -141h-133z" />
    <glyph glyph-name="Ydieresis" unicode="&#x178;" horiz-adv-x="732" 
d="M280 0v261l-290 439h198l183 -287l184 287h187l-290 -439v-261h-172zM244 773q-34 0 -57.5 23t-23.5 59t23.5 59t57.5 23q35 0 58 -23t23 -59t-23 -59t-58 -23zM488 773q-34 0 -57.5 23t-23.5 59t23.5 59t57.5 23q35 0 58 -23t23 -59t-23 -59t-58 -23z" />
    <glyph glyph-name="Zacute" unicode="&#x179;" horiz-adv-x="622" 
d="M20 0v116l362 435h-359v149h583v-116l-361 -435h364v-149h-589zM232 782l88 136h181l-140 -136h-129z" />
    <glyph glyph-name="zacute" unicode="&#x17a;" horiz-adv-x="514" 
d="M25 0v113l246 281h-244v135h454v-113l-247 -281h255v-135h-464zM164 611l88 136h181l-140 -136h-129z" />
    <glyph glyph-name="Zdotaccent" unicode="&#x17b;" horiz-adv-x="622" 
d="M20 0v116l362 435h-359v149h583v-116l-361 -435h364v-149h-589zM320 773q-37 0 -61 23.5t-24 58.5t24 58.5t61 23.5t61 -23.5t24 -58.5t-24 -58.5t-61 -23.5z" />
    <glyph glyph-name="zdotaccent" unicode="&#x17c;" horiz-adv-x="514" 
d="M25 0v113l246 281h-244v135h454v-113l-247 -281h255v-135h-464zM252 602q-37 0 -61 23.5t-24 58.5t24 58.5t61 23.5t61 -23.5t24 -58.5t-24 -58.5t-61 -23.5z" />
    <glyph glyph-name="Zcaron" unicode="&#x17d;" horiz-adv-x="622" 
d="M20 0v116l362 435h-359v149h583v-116l-361 -435h364v-149h-589zM252 921l70 -71l70 71h129l-119 -141h-164l-119 141h133z" />
    <glyph glyph-name="zcaron" unicode="&#x17e;" horiz-adv-x="514" 
d="M25 0v113l246 281h-244v135h454v-113l-247 -281h255v-135h-464zM184 750l70 -71l70 71h129l-119 -141h-164l-119 141h133z" />
    <glyph glyph-name="Scommaaccent" unicode="&#x218;" horiz-adv-x="644" 
d="M316 -10q-85 0 -168 31t-148 86l96 125q64 -52 118 -74.5t115 -22.5q40 0 68 8t43 23.5t15 36.5q0 29 -22 45t-75 25l-154 27q-85 15 -131 65t-46 127q0 68 34.5 117t99 75t153.5 26q78 0 157 -26.5t137 -73.5l-91 -127q-108 83 -215 83q-35 0 -60.5 -7.5t-39 -21
t-13.5 -32.5q0 -26 19.5 -40t63.5 -22l145 -24q101 -16 153.5 -67t52.5 -132q0 -71 -37 -122.5t-106 -79.5t-164 -28zM188 -295l55 215h151l-89 -215h-117z" />
    <glyph glyph-name="scommaaccent" unicode="&#x219;" horiz-adv-x="509" 
d="M259 -10q-75 0 -139 17.5t-111 51.5l77 109q50 -30 91 -43.5t81 -13.5t63.5 11.5t23.5 30.5q0 15 -13 24.5t-41 13.5l-105 16q-79 12 -120.5 52.5t-41.5 105.5q0 54 27.5 92.5t78.5 59t122 20.5q58 0 115 -16t106 -48l-77 -104q-43 25 -82 36.5t-78 11.5q-31 0 -50 -10.5
t-19 -27.5q0 -16 14 -25.5t48 -14.5l105 -16q78 -11 120.5 -51.5t42.5 -102.5q0 -52 -31 -92t-84.5 -63.5t-122.5 -23.5zM130 -295l55 215h151l-89 -215h-117z" />
    <glyph glyph-name="uni021A" unicode="&#x21a;" horiz-adv-x="666" 
d="M247 0v548h-229v152h630v-152h-229v-548h-172zM203 -295l55 215h151l-89 -215h-117z" />
    <glyph glyph-name="uni021B" unicode="&#x21b;" horiz-adv-x="448" 
d="M317 -7q-95 0 -143.5 42.5t-48.5 125.5v233h-107v135h107v136l162 35v-171h148v-135h-148v-201q0 -35 15.5 -49.5t54.5 -14.5q20 0 36.5 2.5t36.5 8.5v-131q-22 -7 -56 -11.5t-57 -4.5zM139 -295l55 215h151l-89 -215h-117z" />
    <glyph glyph-name="dotlessj" unicode="&#x237;" horiz-adv-x="262" 
d="M28 -214q-21 0 -44.5 3t-37.5 7v122q21 -4 48 -4q29 0 42.5 11.5t13.5 36.5v567h162v-577q0 -79 -48 -122.5t-136 -43.5z" />
    <glyph glyph-name="uni02BB" unicode="&#x2bb;" horiz-adv-x="250" 
d="M249 750l-73 -284h-167l119 284h121z" />
    <glyph glyph-name="uni02BC" unicode="&#x2bc;" horiz-adv-x="250" 
d="M1 466l73 284h167l-119 -284h-121z" />
    <glyph glyph-name="circumflex" unicode="&#x2c6;" 
d="M368 609l-70 71l-70 -71h-129l119 141h164l119 -141h-133z" />
    <glyph glyph-name="caron" unicode="&#x2c7;" 
d="M232 750l70 -71l70 71h129l-119 -141h-164l-119 141h133z" />
    <glyph glyph-name="breve" unicode="&#x2d8;" 
d="M300 603q-71 0 -119 36.5t-65 103.5l97 25q25 -76 87 -76q32 0 53.5 19t33.5 57l97 -25q-17 -67 -65 -103.5t-119 -36.5z" />
    <glyph glyph-name="dotaccent" unicode="&#x2d9;" 
d="M300 602q-37 0 -61 23.5t-24 58.5t24 58.5t61 23.5t61 -23.5t24 -58.5t-24 -58.5t-61 -23.5z" />
    <glyph glyph-name="ring" unicode="&#x2da;" 
d="M300 586q-35 0 -64 17t-46 45t-17 62t17 62t46 45t64 17t64 -17t46 -45t17 -62t-17 -62t-46 -45t-64 -17zM300 650q25 0 42.5 17.5t17.5 42.5t-17.5 42.5t-42.5 17.5t-42.5 -17.5t-17.5 -42.5t17.5 -42.5t42.5 -17.5z" />
    <glyph glyph-name="ogonek" unicode="&#x2db;" 
d="M304 -221q-49 0 -78.5 26t-29.5 68q0 44 30.5 79.5t95.5 69.5l49 -22q-43 -25 -63.5 -48.5t-20.5 -49.5q0 -19 12.5 -30t34.5 -11q9 0 19 3t17 8l21 -70q-17 -10 -40 -16.5t-47 -6.5z" />
    <glyph glyph-name="tilde" unicode="&#x2dc;" 
d="M193 598l-97 21q28 130 122 130q28 0 55 -12t51 -24t42 -12q17 0 26.5 11.5t16.5 40.5l95 -21q-13 -66 -43.5 -98t-77.5 -32q-27 0 -54.5 12t-51.5 24t-43 12q-16 0 -25.5 -12t-15.5 -40z" />
    <glyph glyph-name="hungarumlaut" unicode="&#x2dd;" 
d="M112 613l100 133h156l-134 -133h-122zM335 613l100 133h158l-146 -133h-112z" />
    <glyph glyph-name="Wgrave" unicode="&#x1e80;" horiz-adv-x="969" 
d="M179 0l-156 700h177l85 -432l122 432h161l122 -432l85 432h171l-156 -700h-182l-123 446l-124 -446h-182zM429 782l-139 136h182l87 -136h-130z" />
    <glyph glyph-name="wgrave" unicode="&#x1e81;" horiz-adv-x="799" 
d="M152 0l-144 529h153l78 -311l95 311h134l95 -312l77 312h151l-145 -529h-155l-92 306l-91 -306h-156zM346 611l-139 136h182l87 -136h-130z" />
    <glyph glyph-name="Wacute" unicode="&#x1e82;" horiz-adv-x="969" 
d="M179 0l-156 700h177l85 -432l122 432h161l122 -432l85 432h171l-156 -700h-182l-123 446l-124 -446h-182zM395 782l88 136h181l-140 -136h-129z" />
    <glyph glyph-name="wacute" unicode="&#x1e83;" horiz-adv-x="799" 
d="M152 0l-144 529h153l78 -311l95 311h134l95 -312l77 312h151l-145 -529h-155l-92 306l-91 -306h-156zM312 611l88 136h181l-140 -136h-129z" />
    <glyph glyph-name="Wdieresis" unicode="&#x1e84;" horiz-adv-x="969" 
d="M179 0l-156 700h177l85 -432l122 432h161l122 -432l85 432h171l-156 -700h-182l-123 446l-124 -446h-182zM361 773q-34 0 -57.5 23t-23.5 59t23.5 59t57.5 23q35 0 58 -23t23 -59t-23 -59t-58 -23zM605 773q-34 0 -57.5 23t-23.5 59t23.5 59t57.5 23q35 0 58 -23t23 -59
t-23 -59t-58 -23z" />
    <glyph glyph-name="wdieresis" unicode="&#x1e85;" horiz-adv-x="799" 
d="M152 0l-144 529h153l78 -311l95 311h134l95 -312l77 312h151l-145 -529h-155l-92 306l-91 -306h-156zM278 602q-34 0 -57.5 23t-23.5 59t23.5 59t57.5 23q35 0 58 -23t23 -59t-23 -59t-58 -23zM522 602q-34 0 -57.5 23t-23.5 59t23.5 59t57.5 23q35 0 58 -23t23 -59
t-23 -59t-58 -23z" />
    <glyph glyph-name="Ygrave" unicode="&#x1ef2;" horiz-adv-x="732" 
d="M280 0v261l-290 439h198l183 -287l184 287h187l-290 -439v-261h-172zM312 782l-139 136h182l87 -136h-130z" />
    <glyph glyph-name="ygrave" unicode="&#x1ef3;" horiz-adv-x="603" 
d="M113 -216q-19 0 -37 1.5t-30 4.5v138q20 -4 50 -4q78 0 105 68v1l-203 536h179l117 -333l136 333h175l-237 -556q-29 -69 -64 -110.5t-81 -60t-110 -18.5zM247 611l-139 136h182l87 -136h-130z" />
    <glyph glyph-name="enspace" unicode="&#x2002;" horiz-adv-x="500" 
 />
    <glyph glyph-name="emspace" unicode="&#x2003;" horiz-adv-x="1000" 
 />
    <glyph glyph-name="thinspace" unicode="&#x2009;" horiz-adv-x="175" 
 />
    <glyph glyph-name="hairspace" unicode="&#x200a;" horiz-adv-x="100" 
 />
    <glyph glyph-name="zerowidthspace" unicode="&#x200b;" horiz-adv-x="0" 
 />
    <glyph glyph-name="endash" unicode="&#x2013;" horiz-adv-x="563" 
d="M38 219v135h487v-135h-487z" />
    <glyph glyph-name="emdash" unicode="&#x2014;" horiz-adv-x="713" 
d="M38 219v135h637v-135h-637z" />
    <glyph glyph-name="uni2015" unicode="&#x2015;" horiz-adv-x="963" 
d="M38 219v135h887v-135h-887z" />
    <glyph glyph-name="quoteleft" unicode="&#x2018;" horiz-adv-x="250" 
d="M249 750l-73 -284h-167l119 284h121z" />
    <glyph glyph-name="quoteright" unicode="&#x2019;" horiz-adv-x="250" 
d="M1 466l73 284h167l-119 -284h-121z" />
    <glyph glyph-name="quotesinglbase" unicode="&#x201a;" horiz-adv-x="250" 
d="M-14 -157l73 284h167l-119 -284h-121z" />
    <glyph glyph-name="quotedblleft" unicode="&#x201c;" horiz-adv-x="464" 
d="M249 750l-73 -284h-167l119 284h121zM463 750l-73 -284h-167l119 284h121z" />
    <glyph glyph-name="quotedblright" unicode="&#x201d;" horiz-adv-x="464" 
d="M215 466l73 284h167l-119 -284h-121zM1 466l73 284h167l-119 -284h-121z" />
    <glyph glyph-name="quotedblbase" unicode="&#x201e;" horiz-adv-x="464" 
d="M200 -157l73 284h167l-119 -284h-121zM-14 -157l73 284h167l-119 -284h-121z" />
    <glyph glyph-name="dagger" unicode="&#x2020;" horiz-adv-x="458" 
d="M165 0v402h-119v124h119v174h129v-174h118v-124h-118v-402h-129z" />
    <glyph glyph-name="daggerdbl" unicode="&#x2021;" horiz-adv-x="458" 
d="M165 0v174h-119v124h119v104h-119v124h119v174h129v-174h118v-124h-118v-104h118v-124h-118v-174h-129z" />
    <glyph glyph-name="bullet" unicode="&#x2022;" horiz-adv-x="366" 
d="M183 201q-35 0 -63 16.5t-44.5 44t-16.5 61.5t16.5 61.5t44.5 44t63 16.5t63 -16.5t44.5 -44t16.5 -61.5t-16.5 -61.5t-44.5 -44t-63 -16.5z" />
    <glyph glyph-name="ellipsis" unicode="&#x2026;" horiz-adv-x="734" 
d="M125 -11q-38 0 -65.5 27.5t-27.5 65.5t27.5 65.5t65.5 27.5t65.5 -27.5t27.5 -65.5t-27.5 -65.5t-65.5 -27.5zM367 -11q-38 0 -65.5 27.5t-27.5 65.5t27.5 65.5t65.5 27.5t65.5 -27.5t27.5 -65.5t-27.5 -65.5t-65.5 -27.5zM609 -11q-38 0 -65.5 27.5t-27.5 65.5
t27.5 65.5t65.5 27.5t65.5 -27.5t27.5 -65.5t-27.5 -65.5t-65.5 -27.5z" />
    <glyph glyph-name="perthousand" unicode="&#x2030;" horiz-adv-x="1173" 
d="M184 345q-75 0 -119.5 49.5t-44.5 131.5q0 81 45 130.5t119 49.5t119 -49.5t45 -130.5q0 -82 -44.5 -131.5t-119.5 -49.5zM184 429q33 0 51.5 25.5t18.5 71.5q0 44 -19 70t-51 26t-50.5 -26t-18.5 -70q0 -46 18 -71.5t51 -25.5zM143 0l397 700h119l-398 -700h-118z
M630 -5q-75 0 -119.5 49.5t-44.5 131.5q0 81 45 130.5t119 49.5t119 -49.5t45 -130.5q0 -82 -44.5 -131.5t-119.5 -49.5zM630 79q33 0 51.5 25.5t18.5 71.5q0 44 -19 70t-51 26t-50.5 -26t-18.5 -70q0 -46 18 -71.5t51 -25.5zM989 -5q-75 0 -119.5 49.5t-44.5 131.5
q0 81 45 130.5t119 49.5t119 -49.5t45 -130.5q0 -82 -44.5 -131.5t-119.5 -49.5zM989 79q33 0 51.5 25.5t18.5 71.5q0 44 -19 70t-51 26t-50.5 -26t-18.5 -70q0 -46 18 -71.5t51 -25.5z" />
    <glyph glyph-name="uni2032" unicode="&#x2032;" horiz-adv-x="250" 
d="M1 466l73 284h167l-119 -284h-121z" />
    <glyph glyph-name="uni2033" unicode="&#x2033;" horiz-adv-x="464" 
d="M215 466l73 284h167l-119 -284h-121zM1 466l73 284h167l-119 -284h-121z" />
    <glyph glyph-name="guilsinglleft" unicode="&#x2039;" horiz-adv-x="448" 
d="M260 0l-246 265l246 264h164l-239 -263l242 -266h-167z" />
    <glyph glyph-name="guilsinglright" unicode="&#x203a;" horiz-adv-x="448" 
d="M188 529l246 -265l-246 -264h-164l239 263l-242 266h167z" />
    <glyph glyph-name="fraction" unicode="&#x2044;" horiz-adv-x="577" 
d="M13 0l397 700h119l-398 -700h-118z" />
    <glyph glyph-name="uni2070" unicode="&#x2070;" horiz-adv-x="367" 
d="M184 345q-75 0 -119.5 49.5t-44.5 131.5q0 81 45 130.5t119 49.5t119 -49.5t45 -130.5q0 -82 -44.5 -131.5t-119.5 -49.5zM184 429q33 0 51.5 25.5t18.5 71.5q0 44 -19 70t-51 26t-50.5 -26t-18.5 -70q0 -46 18 -71.5t51 -25.5z" />
    <glyph glyph-name="uni2074" unicode="&#x2074;" horiz-adv-x="367" 
d="M217 350v72h-196v79l179 199h115v-198h44v-80h-44v-72h-98zM130 502h87v95z" />
    <glyph glyph-name="uni2075" unicode="&#x2075;" horiz-adv-x="330" 
d="M156 344q-80 0 -136 47l58 68q22 -17 40.5 -24.5t40.5 -7.5q25 0 39 10t14 27q0 16 -15.5 26.5t-41.5 10.5q-11 0 -25 -3t-26 -10l-66 20l9 192h245v-81h-167l-2 -51q14 5 27 6.5t28 1.5q62 0 98 -30.5t36 -80.5q0 -54 -43 -87.5t-113 -33.5z" />
    <glyph glyph-name="uni2076" unicode="&#x2076;" horiz-adv-x="343" 
d="M185 344q-75 0 -121 49.5t-46 129.5q0 83 50 133.5t131 50.5q35 0 68 -12t54 -32l-58 -68q-16 15 -32.5 21t-39.5 6q-34 0 -53 -22t-22 -66q16 16 38 24.5t47 8.5q55 0 89 -29.5t34 -76.5q0 -50 -39.5 -83.5t-99.5 -33.5zM186 492q-19 0 -34 -6t-28 -19q8 -19 22.5 -30
t33.5 -11q21 0 35 9.5t14 23.5q0 15 -11.5 24t-31.5 9z" />
    <glyph glyph-name="uni2077" unicode="&#x2077;" horiz-adv-x="329" 
d="M62 350l142 266h-185v84h298v-71l-137 -279h-118z" />
    <glyph glyph-name="uni2078" unicode="&#x2078;" horiz-adv-x="340" 
d="M170 344q-67 0 -107.5 29.5t-40.5 77.5q0 25 13.5 44.5t35.5 31.5q-18 13 -29 32t-11 41q0 45 39.5 75.5t98.5 30.5q60 0 100 -30.5t40 -75.5q0 -22 -11 -41t-29 -32q23 -12 36 -31.5t13 -44.5q0 -48 -41 -77.5t-107 -29.5zM170 560q18 0 30.5 9.5t12.5 23.5t-12 23.5
t-31 9.5t-31 -9.5t-12 -23.5t12 -23.5t31 -9.5zM170 424q23 0 36.5 9t13.5 24t-13.5 24t-36.5 9q-22 0 -36 -9t-14 -24t14 -24t36 -9z" />
    <glyph glyph-name="uni2079" unicode="&#x2079;" horiz-adv-x="343" 
d="M158 707q75 0 121 -49.5t46 -129.5q0 -82 -50 -133t-131 -51q-34 0 -67.5 12.5t-54.5 31.5l58 68q16 -15 32.5 -21t39.5 -6q35 0 53.5 22t21.5 66q-16 -16 -37.5 -24.5t-47.5 -8.5q-55 0 -89 29.5t-34 76.5q0 50 39.5 83.5t99.5 33.5zM157 559q19 0 34 6t28 19
q-8 19 -22.5 30t-33.5 11q-21 0 -35 -9.5t-14 -23.5q0 -15 12 -24t31 -9z" />
    <glyph glyph-name="uni2080" unicode="&#x2080;" horiz-adv-x="367" 
d="M184 -5q-75 0 -119.5 49.5t-44.5 131.5q0 81 45 130.5t119 49.5t119 -49.5t45 -130.5q0 -82 -44.5 -131.5t-119.5 -49.5zM184 79q33 0 51.5 25.5t18.5 71.5q0 44 -19 70t-51 26t-50.5 -26t-18.5 -70q0 -46 18 -71.5t51 -25.5z" />
    <glyph glyph-name="uni2081" unicode="&#x2081;" horiz-adv-x="207" 
d="M92 0v252l-77 -30v83l114 45h61v-350h-98z" />
    <glyph glyph-name="uni2082" unicode="&#x2082;" horiz-adv-x="313" 
d="M27 0v69l143 119q13 11 20.5 22.5t7.5 23.5q0 17 -13.5 27.5t-34.5 10.5q-24 0 -45 -10t-46 -33l-54 64q33 30 71 45.5t78 16.5q62 -1 100.5 -32t38.5 -83q0 -30 -15.5 -56.5t-47.5 -52.5l-60 -50h125v-81h-268z" />
    <glyph glyph-name="uni2083" unicode="&#x2083;" horiz-adv-x="335" 
d="M162 -5q-45 0 -84.5 15.5t-63.5 43.5l66 60q20 -21 36.5 -28.5t44.5 -7.5q25 0 39.5 8.5t14.5 21.5q0 11 -11.5 16.5t-33.5 5.5h-35v77h24q22 0 35.5 9.5t13.5 24.5q0 14 -13 22t-34 8q-24 0 -40.5 -8t-38.5 -31l-66 59q26 29 66.5 47t82.5 18q63 0 102 -28t39 -74
q0 -25 -12 -46t-33 -35q25 -10 39 -29t14 -44q0 -46 -43 -75.5t-109 -29.5z" />
    <glyph glyph-name="uni2084" unicode="&#x2084;" horiz-adv-x="367" 
d="M217 0v72h-196v79l179 199h115v-198h44v-80h-44v-72h-98zM130 152h87v95z" />
    <glyph glyph-name="uni2085" unicode="&#x2085;" horiz-adv-x="330" 
d="M156 -6q-80 0 -136 47l58 68q22 -17 40.5 -24.5t40.5 -7.5q25 0 39 10t14 27q0 16 -15.5 26.5t-41.5 10.5q-11 0 -25 -3t-26 -10l-66 20l9 192h245v-81h-167l-2 -51q14 5 27 6.5t28 1.5q62 0 98 -30.5t36 -80.5q0 -54 -43 -87.5t-113 -33.5z" />
    <glyph glyph-name="uni2086" unicode="&#x2086;" horiz-adv-x="343" 
d="M185 -6q-75 0 -121 49.5t-46 129.5q0 83 50 133.5t131 50.5q35 0 68 -12t54 -32l-58 -68q-16 15 -32.5 21t-39.5 6q-34 0 -53 -22t-22 -66q16 16 38 24.5t47 8.5q55 0 89 -29.5t34 -76.5q0 -50 -39.5 -83.5t-99.5 -33.5zM186 142q-19 0 -34 -6t-28 -19q8 -19 22.5 -30
t33.5 -11q21 0 35 9.5t14 23.5q0 15 -11.5 24t-31.5 9z" />
    <glyph glyph-name="uni2087" unicode="&#x2087;" horiz-adv-x="329" 
d="M62 0l142 266h-185v84h298v-71l-137 -279h-118z" />
    <glyph glyph-name="uni2088" unicode="&#x2088;" horiz-adv-x="340" 
d="M170 -6q-67 0 -107.5 29.5t-40.5 77.5q0 25 13.5 44.5t35.5 31.5q-18 13 -29 32t-11 41q0 45 39.5 75.5t98.5 30.5q60 0 100 -30.5t40 -75.5q0 -22 -11 -41t-29 -32q23 -12 36 -31.5t13 -44.5q0 -48 -41 -77.5t-107 -29.5zM170 210q18 0 30.5 9.5t12.5 23.5t-12 23.5
t-31 9.5t-31 -9.5t-12 -23.5t12 -23.5t31 -9.5zM170 74q23 0 36.5 9t13.5 24t-13.5 24t-36.5 9q-22 0 -36 -9t-14 -24t14 -24t36 -9z" />
    <glyph glyph-name="uni2089" unicode="&#x2089;" horiz-adv-x="343" 
d="M158 357q75 0 121 -49.5t46 -129.5q0 -83 -50 -133.5t-131 -50.5q-35 0 -68 12t-54 32l58 68q16 -15 32.5 -21t39.5 -6q34 0 53 22t22 66q-16 -16 -38 -24.5t-47 -8.5q-55 0 -89 29.5t-34 76.5q0 50 39.5 83.5t99.5 33.5zM157 209q19 0 34 6t28 19q-8 19 -22.5 30
t-33.5 11q-21 0 -35 -9.5t-14 -23.5q0 -15 11.5 -24t31.5 -9z" />
    <glyph glyph-name="Euro" unicode="&#x20ac;" horiz-adv-x="796" 
d="M475 -11q-89 0 -161.5 31.5t-122.5 89.5t-71 135h-84v78h72q-1 7 -1 13.5v13.5v13.5t1 12.5h-72v79h84q21 78 70.5 135.5t122.5 89t162 31.5q95 0 169.5 -33t121.5 -97l-108 -82q-27 38 -75.5 59.5t-106.5 21.5q-47 0 -85.5 -15t-67 -43t-45.5 -67h245l-31 -79h-233
q-1 -6 -1 -12.5v-13.5v-13.5t1 -13.5h214l-31 -78h-164q17 -39 45.5 -67t67 -43t85.5 -15q57 0 106.5 21.5t76.5 58.5l107 -81q-49 -64 -122.5 -97t-168.5 -33z" />
    <glyph glyph-name="trademark" unicode="&#x2122;" horiz-adv-x="694" 
d="M329 421v279h97l67 -135l68 135h97v-279h-77l2 186l-90 -169l-91 168l1 -185h-74zM114 421v212h-91v67h264v-67h-91v-212h-82z" />
    <glyph glyph-name="uni2191" unicode="&#x2191;" horiz-adv-x="659" 
d="M254 0v476l-136 -165l-93 82l305 357l304 -356l-95 -85l-134 163v-472h-151z" />
    <glyph glyph-name="uni2193" unicode="&#x2193;" horiz-adv-x="659" 
d="M405 700v-476l136 165l93 -82l-305 -357l-304 356l95 85l134 -163v472h151z" />
    <glyph glyph-name="minus" unicode="&#x2212;" 
d="M75 299v120h450v-120h-450z" />
    <glyph glyph-name="uni2215" unicode="&#x2215;" horiz-adv-x="577" 
d="M15 0l397 700h115l-398 -700h-114z" />
    <glyph glyph-name="notequal" unicode="&#x2260;" 
d="M80 81l66 110h-71v120h142l49 82h-191v120h263l64 108h118l-64 -108h69v-120h-140l-49 -82h189v-120h-260l-65 -110h-120z" />
    <glyph glyph-name="fi" unicode="&#xfb01;" horiz-adv-x="711" 
d="M134 0v394h-116v135h116v32q0 94 55.5 143.5t159.5 49.5q21 0 45.5 -2.5t40.5 -7.5v-134q-19 4 -33.5 5.5t-30.5 1.5q-37 0 -56 -14.5t-19 -44.5v-29h139v-135h-139v-394h-162zM503 0v529h162v-529h-162zM584 578q-37 0 -63 26t-26 63t26 63t63 26t63 -26t26 -63t-26 -63
t-63 -26z" />
    <glyph glyph-name="fl" unicode="&#xfb02;" horiz-adv-x="711" 
d="M134 0v394h-116v135h116v32q0 94 55.5 143.5t159.5 49.5q21 0 45.5 -2.5t40.5 -7.5v-134q-19 4 -33.5 5.5t-30.5 1.5q-37 0 -56 -14.5t-19 -44.5v-29h139v-135h-139v-394h-162zM503 0v700l162 25v-725h-162z" />
    <glyph glyph-name="uniFEFF" unicode="&#xfeff;" horiz-adv-x="0" 
 />
    <glyph glyph-name="uniFFFD" unicode="&#xfffd;" horiz-adv-x="514" 
d="M60 -100v850h394v-850h-394z" />
    <glyph glyph-name="NULL" horiz-adv-x="195" 
 />
    <glyph glyph-name="CR" horiz-adv-x="195" 
 />
    <glyph glyph-name="idotaccent" horiz-adv-x="258" 
d="M50 0v529h162v-529h-162zM131 578q-37 0 -63 26t-26 63t26 63t63 26t63 -26t26 -63t-26 -63t-63 -26z" />
    <glyph glyph-name="a.school" horiz-adv-x="648" 
d="M296 -7q-75 0 -136.5 36.5t-97.5 98t-36 137.5t36.5 137.5t99 97.5t139.5 36q37 0 71 -9t64 -26v28h162v-529h-160v39q-63 -46 -142 -46zM324 131q34 0 62 10.5t50 31.5v185q-21 20 -50 30.5t-62 10.5q-39 0 -70.5 -17.5t-50 -48t-18.5 -68.5t18.5 -68.5t50 -48
t70.5 -17.5z" />
    <glyph glyph-name="aacute.school" horiz-adv-x="648" 
d="M296 -7q-75 0 -136.5 36.5t-97.5 98t-36 137.5t36.5 137.5t99 97.5t139.5 36q37 0 71 -9t64 -26v28h162v-529h-160v39q-63 -46 -142 -46zM324 131q34 0 62 10.5t50 31.5v185q-21 20 -50 30.5t-62 10.5q-39 0 -70.5 -17.5t-50 -48t-18.5 -68.5t18.5 -68.5t50 -48
t70.5 -17.5zM235 611l88 136h181l-140 -136h-129z" />
    <glyph glyph-name="abreve.school" horiz-adv-x="648" 
d="M296 -7q-75 0 -136.5 36.5t-97.5 98t-36 137.5t36.5 137.5t99 97.5t139.5 36q37 0 71 -9t64 -26v28h162v-529h-160v39q-63 -46 -142 -46zM324 131q34 0 62 10.5t50 31.5v185q-21 20 -50 30.5t-62 10.5q-39 0 -70.5 -17.5t-50 -48t-18.5 -68.5t18.5 -68.5t50 -48
t70.5 -17.5zM323 603q-71 0 -119 36.5t-65 103.5l97 25q25 -76 87 -76q32 0 53.5 19t33.5 57l97 -25q-17 -67 -65 -103.5t-119 -36.5z" />
    <glyph glyph-name="acircumflex.school" horiz-adv-x="648" 
d="M296 -7q-75 0 -136.5 36.5t-97.5 98t-36 137.5t36.5 137.5t99 97.5t139.5 36q37 0 71 -9t64 -26v28h162v-529h-160v39q-63 -46 -142 -46zM324 131q34 0 62 10.5t50 31.5v185q-21 20 -50 30.5t-62 10.5q-39 0 -70.5 -17.5t-50 -48t-18.5 -68.5t18.5 -68.5t50 -48
t70.5 -17.5zM391 609l-70 71l-70 -71h-129l119 141h164l119 -141h-133z" />
    <glyph glyph-name="adieresis.school" horiz-adv-x="648" 
d="M296 -7q-75 0 -136.5 36.5t-97.5 98t-36 137.5t36.5 137.5t99 97.5t139.5 36q37 0 71 -9t64 -26v28h162v-529h-160v39q-63 -46 -142 -46zM324 131q34 0 62 10.5t50 31.5v185q-21 20 -50 30.5t-62 10.5q-39 0 -70.5 -17.5t-50 -48t-18.5 -68.5t18.5 -68.5t50 -48
t70.5 -17.5zM201 602q-34 0 -57.5 23t-23.5 59t23.5 59t57.5 23q35 0 58 -23t23 -59t-23 -59t-58 -23zM445 602q-34 0 -57.5 23t-23.5 59t23.5 59t57.5 23q35 0 58 -23t23 -59t-23 -59t-58 -23z" />
    <glyph glyph-name="agrave.school" horiz-adv-x="648" 
d="M296 -7q-75 0 -136.5 36.5t-97.5 98t-36 137.5t36.5 137.5t99 97.5t139.5 36q37 0 71 -9t64 -26v28h162v-529h-160v39q-63 -46 -142 -46zM324 131q34 0 62 10.5t50 31.5v185q-21 20 -50 30.5t-62 10.5q-39 0 -70.5 -17.5t-50 -48t-18.5 -68.5t18.5 -68.5t50 -48
t70.5 -17.5zM269 611l-139 136h182l87 -136h-130z" />
    <glyph glyph-name="amacron.school" horiz-adv-x="648" 
d="M296 -7q-75 0 -136.5 36.5t-97.5 98t-36 137.5t36.5 137.5t99 97.5t139.5 36q37 0 71 -9t64 -26v28h162v-529h-160v39q-63 -46 -142 -46zM324 131q34 0 62 10.5t50 31.5v185q-21 20 -50 30.5t-62 10.5q-39 0 -70.5 -17.5t-50 -48t-18.5 -68.5t18.5 -68.5t50 -48
t70.5 -17.5zM156 626v100h334v-100h-334z" />
    <glyph glyph-name="aogonek.school" horiz-adv-x="648" 
d="M531 -221q-49 0 -78.5 26t-29.5 68q0 37 21 68t66 59h-72v39q-63 -46 -142 -46q-75 0 -136.5 36.5t-97.5 98t-36 137.5t36.5 137.5t99 97.5t139.5 36q37 0 71 -9t64 -26v28h162v-529q-43 -25 -63.5 -48.5t-20.5 -49.5q0 -19 12.5 -30t34.5 -11q9 0 19 3t17 8l21 -70
q-17 -10 -40 -16.5t-47 -6.5zM185 265q0 -38 18.5 -68.5t50 -48t70.5 -17.5q34 0 62 10.5t50 31.5v185q-21 20 -50 30.5t-62 10.5q-39 0 -70.5 -17.5t-50 -48t-18.5 -68.5z" />
    <glyph glyph-name="aring.school" horiz-adv-x="648" 
d="M296 -7q-75 0 -136.5 36.5t-97.5 98t-36 137.5t36.5 137.5t99 97.5t139.5 36q37 0 71 -9t64 -26v28h162v-529h-160v39q-63 -46 -142 -46zM324 131q34 0 62 10.5t50 31.5v185q-21 20 -50 30.5t-62 10.5q-39 0 -70.5 -17.5t-50 -48t-18.5 -68.5t18.5 -68.5t50 -48
t70.5 -17.5zM323 586q-35 0 -64 17t-46 45t-17 62t17 62t46 45t64 17t64 -17t46 -45t17 -62t-17 -62t-46 -45t-64 -17zM323 650q25 0 42.5 17.5t17.5 42.5t-17.5 42.5t-42.5 17.5t-42.5 -17.5t-17.5 -42.5t17.5 -42.5t42.5 -17.5z" />
    <glyph glyph-name="atilde.school" horiz-adv-x="648" 
d="M296 -7q-75 0 -136.5 36.5t-97.5 98t-36 137.5t36.5 137.5t99 97.5t139.5 36q37 0 71 -9t64 -26v28h162v-529h-160v39q-63 -46 -142 -46zM324 131q34 0 62 10.5t50 31.5v185q-21 20 -50 30.5t-62 10.5q-39 0 -70.5 -17.5t-50 -48t-18.5 -68.5t18.5 -68.5t50 -48
t70.5 -17.5zM216 598l-97 21q28 130 122 130q28 0 55 -12t51 -24t42 -12q17 0 26.5 11.5t16.5 40.5l95 -21q-13 -66 -43.5 -98t-77.5 -32q-27 0 -54.5 12t-51.5 24t-43 12q-16 0 -25.5 -12t-15.5 -40z" />
    <glyph glyph-name="g.alt" horiz-adv-x="627" 
d="M288 -214q-133 0 -202 31t-69 92q0 32 27 57.5t71 38.5q-33 29 -33 74q0 32 18.5 57.5t50.5 41.5q-45 27 -71.5 69t-26.5 92q0 56 32.5 101.5t88 72t124.5 26.5q46 0 86.5 -12t72.5 -34q26 38 58.5 56.5t69.5 18.5q11 0 20 -1.5t16 -4.5l2 -118q-7 2 -18 2.5t-22 0.5
q-39 0 -70 -10q14 -22 22 -46.5t8 -51.5q0 -56 -32.5 -101.5t-88 -72t-124.5 -26.5q-17 0 -34 2t-33 5q-11 -8 -11 -19q0 -29 53 -30l172 -3q80 -1 126 -35t46 -92q0 -55 -40.5 -96t-114 -63t-174.5 -22zM298 257q27 0 48.5 10.5t33.5 29.5t12 42q0 24 -12 42.5t-33.5 29
t-48.5 10.5t-48 -10.5t-33.5 -29t-12.5 -42.5q0 -23 12.5 -42t33.5 -29.5t48 -10.5zM288 -116q78 0 122.5 13.5t44.5 36.5q0 24 -35 24l-144 2q-20 0 -38 2t-35 5q-19 -4 -30 -13.5t-11 -23.5q0 -24 30.5 -35t95.5 -11z" />
    <glyph glyph-name="gbreve.alt" horiz-adv-x="627" 
d="M288 -214q-133 0 -202 31t-69 92q0 32 27 57.5t71 38.5q-33 29 -33 74q0 32 18.5 57.5t50.5 41.5q-45 27 -71.5 69t-26.5 92q0 56 32.5 101.5t88 72t124.5 26.5q46 0 86.5 -12t72.5 -34q26 38 58.5 56.5t69.5 18.5q11 0 20 -1.5t16 -4.5l2 -118q-7 2 -18 2.5t-22 0.5
q-39 0 -70 -10q14 -22 22 -46.5t8 -51.5q0 -56 -32.5 -101.5t-88 -72t-124.5 -26.5q-17 0 -34 2t-33 5q-11 -8 -11 -19q0 -29 53 -30l172 -3q80 -1 126 -35t46 -92q0 -55 -40.5 -96t-114 -63t-174.5 -22zM298 257q27 0 48.5 10.5t33.5 29.5t12 42q0 24 -12 42.5t-33.5 29
t-48.5 10.5t-48 -10.5t-33.5 -29t-12.5 -42.5q0 -23 12.5 -42t33.5 -29.5t48 -10.5zM288 -116q78 0 122.5 13.5t44.5 36.5q0 24 -35 24l-144 2q-20 0 -38 2t-35 5q-19 -4 -30 -13.5t-11 -23.5q0 -24 30.5 -35t95.5 -11zM298 603q-71 0 -119 36.5t-65 103.5l97 25
q25 -76 87 -76q32 0 53.5 19t33.5 57l97 -25q-17 -67 -65 -103.5t-119 -36.5z" />
    <glyph glyph-name="gcircumflex.alt" horiz-adv-x="627" 
d="M288 -214q-133 0 -202 31t-69 92q0 32 27 57.5t71 38.5q-33 29 -33 74q0 32 18.5 57.5t50.5 41.5q-45 27 -71.5 69t-26.5 92q0 56 32.5 101.5t88 72t124.5 26.5q46 0 86.5 -12t72.5 -34q26 38 58.5 56.5t69.5 18.5q11 0 20 -1.5t16 -4.5l2 -118q-7 2 -18 2.5t-22 0.5
q-39 0 -70 -10q14 -22 22 -46.5t8 -51.5q0 -56 -32.5 -101.5t-88 -72t-124.5 -26.5q-17 0 -34 2t-33 5q-11 -8 -11 -19q0 -29 53 -30l172 -3q80 -1 126 -35t46 -92q0 -55 -40.5 -96t-114 -63t-174.5 -22zM298 257q27 0 48.5 10.5t33.5 29.5t12 42q0 24 -12 42.5t-33.5 29
t-48.5 10.5t-48 -10.5t-33.5 -29t-12.5 -42.5q0 -23 12.5 -42t33.5 -29.5t48 -10.5zM288 -116q78 0 122.5 13.5t44.5 36.5q0 24 -35 24l-144 2q-20 0 -38 2t-35 5q-19 -4 -30 -13.5t-11 -23.5q0 -24 30.5 -35t95.5 -11zM366 609l-70 71l-70 -71h-129l119 141h164l119 -141
h-133z" />
    <glyph glyph-name="gcommaaccent.alt" horiz-adv-x="627" 
d="M288 -214q-133 0 -202 31t-69 92q0 32 27 57.5t71 38.5q-33 29 -33 74q0 32 18.5 57.5t50.5 41.5q-45 27 -71.5 69t-26.5 92q0 56 32.5 101.5t88 72t124.5 26.5q46 0 86.5 -12t72.5 -34q26 38 58.5 56.5t69.5 18.5q11 0 20 -1.5t16 -4.5l2 -118q-7 2 -18 2.5t-22 0.5
q-39 0 -70 -10q14 -22 22 -46.5t8 -51.5q0 -56 -32.5 -101.5t-88 -72t-124.5 -26.5q-17 0 -34 2t-33 5q-11 -8 -11 -19q0 -29 53 -30l172 -3q80 -1 126 -35t46 -92q0 -55 -40.5 -96t-114 -63t-174.5 -22zM298 257q27 0 48.5 10.5t33.5 29.5t12 42q0 24 -12 42.5t-33.5 29
t-48.5 10.5t-48 -10.5t-33.5 -29t-12.5 -42.5q0 -23 12.5 -42t33.5 -29.5t48 -10.5zM288 -116q78 0 122.5 13.5t44.5 36.5q0 24 -35 24l-144 2q-20 0 -38 2t-35 5q-19 -4 -30 -13.5t-11 -23.5q0 -24 30.5 -35t95.5 -11zM442 833l-55 -215h-151l89 215h117z" />
    <glyph glyph-name="gdotaccent.alt" horiz-adv-x="627" 
d="M288 -214q-133 0 -202 31t-69 92q0 32 27 57.5t71 38.5q-33 29 -33 74q0 32 18.5 57.5t50.5 41.5q-45 27 -71.5 69t-26.5 92q0 56 32.5 101.5t88 72t124.5 26.5q46 0 86.5 -12t72.5 -34q26 38 58.5 56.5t69.5 18.5q11 0 20 -1.5t16 -4.5l2 -118q-7 2 -18 2.5t-22 0.5
q-39 0 -70 -10q14 -22 22 -46.5t8 -51.5q0 -56 -32.5 -101.5t-88 -72t-124.5 -26.5q-17 0 -34 2t-33 5q-11 -8 -11 -19q0 -29 53 -30l172 -3q80 -1 126 -35t46 -92q0 -55 -40.5 -96t-114 -63t-174.5 -22zM298 257q27 0 48.5 10.5t33.5 29.5t12 42q0 24 -12 42.5t-33.5 29
t-48.5 10.5t-48 -10.5t-33.5 -29t-12.5 -42.5q0 -23 12.5 -42t33.5 -29.5t48 -10.5zM288 -116q78 0 122.5 13.5t44.5 36.5q0 24 -35 24l-144 2q-20 0 -38 2t-35 5q-19 -4 -30 -13.5t-11 -23.5q0 -24 30.5 -35t95.5 -11zM298 602q-37 0 -61 23.5t-24 58.5t24 58.5t61 23.5
t61 -23.5t24 -58.5t-24 -58.5t-61 -23.5z" />
    <glyph glyph-name="caronSlovak" 
d="M321 498l4 202l125 25l-40 -227h-89z" />
    <glyph glyph-name="commaaccent" 
d="M169 -295l55 215h151l-89 -215h-117z" />
    <glyph glyph-name="exclamdown.cap" horiz-adv-x="275" 
d="M208 484l20 -489h-164l20 489h124zM146 711q38 0 65.5 -27.5t27.5 -65.5t-27.5 -65.5t-65.5 -27.5t-65.5 27.5t-27.5 65.5t27.5 65.5t65.5 27.5z" />
    <glyph glyph-name="questiondown.cap" horiz-adv-x="537" 
d="M361 482q2 -47 -3.5 -78.5t-23 -56t-48.5 -47.5l-54 -40q-26 -19 -38 -36t-12 -33q0 -20 12 -35t32.5 -24t47.5 -9q43 0 78.5 23t50.5 61l131 -49q-19 -52 -58 -89.5t-92.5 -58.5t-115.5 -21q-70 0 -125 25.5t-87 68.5t-32 98q0 37 11.5 66t39 56.5t75.5 60.5l25 17
q29 19 40.5 41.5t10.5 59.5h135zM293 711q38 0 65.5 -27.5t27.5 -65.5t-27.5 -65.5t-65.5 -27.5t-65.5 27.5t-27.5 65.5t27.5 65.5t65.5 27.5z" />
    <glyph glyph-name="periodcentered.cap" horiz-adv-x="258" 
d="M125 259q-38 0 -65.5 27.5t-27.5 65.5t27.5 65.5t65.5 27.5t65.5 -27.5t27.5 -65.5t-27.5 -65.5t-65.5 -27.5z" />
    <glyph glyph-name="hyphen.cap" horiz-adv-x="463" 
d="M38 284v135h387v-135h-387z" />
    <glyph glyph-name="endash.cap" horiz-adv-x="563" 
d="M38 284v135h487v-135h-487z" />
    <glyph glyph-name="emdash.cap" horiz-adv-x="713" 
d="M38 284v135h637v-135h-637z" />
    <glyph glyph-name="uni2015.cap" horiz-adv-x="963" 
d="M38 284v135h887v-135h-887z" />
    <glyph glyph-name="at.cap" horiz-adv-x="807" 
d="M413 -15q-81 0 -149 26t-118.5 73.5t-78 111.5t-27.5 140q0 81 28 149.5t78.5 119.5t118.5 79t149 28q72 0 133.5 -23t108 -64.5t72.5 -97t26 -119.5q0 -68 -24.5 -121t-68.5 -82.5t-101 -29.5q-76 0 -106 41q-22 -19 -49 -29.5t-55 -10.5q-41 0 -74 21t-52.5 56.5
t-19.5 78.5q0 52 24 94t65 66.5t91 24.5q53 0 90 -31l4 18h103l-44 -208q-5 -23 5.5 -35.5t33.5 -12.5q30 0 53 19.5t35.5 54t12.5 79.5q0 71 -35 126.5t-95 88t-136 32.5q-63 0 -117 -23t-94 -64.5t-62.5 -97t-22.5 -120.5q0 -85 37.5 -150t104.5 -101.5t155 -36.5
q90 0 163 35l28 -62q-48 -22 -94 -32.5t-96 -10.5zM375 260q34 0 61 23q0 7 1 14l2 14l17 87q-11 16 -28 24t-40 8t-42.5 -12t-31 -32t-11.5 -45q0 -35 20.5 -58t51.5 -23z" />
    <glyph glyph-name="zero.tab" 
d="M300 -11q-82 0 -143.5 43t-95.5 123.5t-34 194.5t34 194.5t95.5 123.5t143.5 43t143.5 -43t95.5 -123.5t34 -194.5t-34 -194.5t-95.5 -123.5t-143.5 -43zM192 240l170 309q-13 13 -28.5 19.5t-33.5 6.5q-37 0 -64 -27.5t-41.5 -78t-14.5 -119.5q0 -31 3 -59t9 -51z
M300 125q37 0 64 27.5t41.5 78t14.5 119.5q0 32 -3 60t-9 51l-170 -310q26 -26 62 -26z" />
    <glyph glyph-name="one.tab" 
d="M52 0v131h177v409l-177 -73v136l234 97h97v-569h172v-131h-503z" />
    <glyph glyph-name="two.tab" 
d="M49 0v110l296 293q17 16 27 31.5t15 31.5t5 32q0 34 -29.5 56.5t-73.5 22.5q-47 0 -88 -19.5t-89 -66.5l-86 105q60 57 127.5 86t140.5 29q75 0 130.5 -25.5t86.5 -71t31 -106.5q0 -33 -9.5 -63.5t-29.5 -59.5t-52 -60l-202 -195l303 1v-131h-503z" />
    <glyph glyph-name="three.tab" 
d="M290 -11q-84 0 -156.5 30t-119.5 83l104 96q39 -42 75.5 -58t94.5 -16q38 0 66.5 10.5t44 30t15.5 45.5q0 23 -11.5 39t-32 25t-48.5 9h-90v127h74q43 0 67 20.5t24 57.5q0 25 -14.5 44.5t-39 30.5t-56.5 11q-51 0 -86.5 -17.5t-76.5 -62.5l-105 95q50 57 122.5 89.5
t151.5 32.5q77 0 135 -25.5t91 -71t33 -105.5q0 -57 -37 -100t-96 -60q69 -13 110 -53.5t41 -98.5q0 -60 -36 -107t-99 -74t-145 -27z" />
    <glyph glyph-name="four.tab" 
d="M363 0v157h-354v127l333 416h170v-412h78v-131h-78v-157h-149zM167 288h196v249z" />
    <glyph glyph-name="five.tab" 
d="M279 -11q-147 0 -256 94l92 107q44 -36 85 -52t87 -16q37 0 64 12.5t42.5 35.5t15.5 53q0 44 -36.5 73t-92.5 29q-29 0 -58 -8t-59 -25l-108 32l17 376h458v-131h-329l-7 -157q32 16 66 24t71 8q71 0 124 -26.5t82.5 -74.5t29.5 -112q0 -72 -36 -126.5t-101 -85
t-151 -30.5z" />
    <glyph glyph-name="six.tab" 
d="M325 -11q-92 0 -161.5 44t-108 122.5t-38.5 183.5q0 112 42.5 195.5t119 130t178.5 46.5q59 0 117.5 -20.5t95.5 -55.5l-89 -110q-29 25 -61.5 36.5t-74.5 11.5q-57 0 -96 -28t-59 -81t-20 -130q33 47 80 73t99 26q69 0 122 -27t83 -75t30 -110q0 -66 -33.5 -118.5
t-92 -83t-133.5 -30.5zM323 313q-43 0 -79.5 -16t-64.5 -45q10 -40 29.5 -69.5t47.5 -45.5t61 -16t59 12.5t41.5 34.5t15.5 50t-14 49.5t-38.5 33.5t-57.5 12z" />
    <glyph glyph-name="seven.tab" 
d="M106 0l300 564h-380v136h547v-115l-282 -585h-185z" />
    <glyph glyph-name="eight.tab" 
d="M300 -11q-81 0 -142.5 26.5t-96 73.5t-34.5 109q0 37 16.5 69t46.5 56t69 36q-50 20 -81 60t-31 89q0 58 33.5 104t90.5 72.5t129 26.5t129.5 -26.5t90.5 -72.5t33 -104q0 -49 -31 -89t-81 -60q59 -19 95.5 -62t36.5 -99q0 -62 -34.5 -109t-96 -73.5t-142.5 -26.5z
M300 411q29 0 52 11t36 30.5t13 44.5t-13 44.5t-36 30.5t-52 11t-52 -11t-36 -30.5t-13 -44.5t13 -44.5t36 -30.5t52 -11zM300 118q35 0 61 11.5t41 32.5t15 47q0 27 -15 47.5t-41 32t-61 11.5q-34 0 -60.5 -11.5t-41.5 -32t-15 -47.5q0 -26 15 -47t41.5 -32.5t60.5 -11.5z
" />
    <glyph glyph-name="nine.tab" 
d="M276 711q92 0 161.5 -44t108 -122.5t38.5 -183.5q0 -112 -42.5 -195.5t-119 -130t-178.5 -46.5q-59 0 -117.5 20.5t-95.5 55.5l89 110q29 -25 61.5 -36.5t74.5 -11.5q57 0 96 28t59 81t20 130q-33 -47 -80 -73t-99 -26q-69 0 -122 27t-83 75t-30 110q0 66 33.5 118.5
t92 83t133.5 30.5zM278 387q43 0 79.5 16t64.5 45q-10 40 -29.5 69.5t-47.5 45.5t-61 16t-59 -12.5t-41.5 -34.5t-15.5 -50t14 -49.5t38.5 -33.5t57.5 -12z" />
    </font>
</defs>
</svg>
