<?xml version="1.0" standalone="no"?>
<!DOCTYPE svg PUBLIC "-//W3C//DTD SVG 1.1//EN" "http://www.w3.org/Graphics/SVG/1.1/DTD/svg11.dtd" >
<svg xmlns="http://www.w3.org/2000/svg" xmlns:xlink="http://www.w3.org/1999/xlink" version="1.1">
<metadata>
Created by FontForge 20170731 at Thu Aug 12 12:51:54 2021
 By Aleksey,,,
Copyright 2021 The Red Hat Project Authors (https://github.com/RedHatOfficial/RedHatFont)
</metadata>
<defs>
<font id="RedHatDisplay-LightItalic" horiz-adv-x="600" >
  <font-face 
    font-family="Red Hat Display Light"
    font-weight="300"
    font-style="italic"
    font-stretch="normal"
    units-per-em="1000"
    panose-1="2 1 3 3 4 2 1 13 3 3"
    ascent="800"
    descent="-200"
    x-height="492"
    cap-height="700"
    bbox="-161 -254 1118 1002"
    underline-thickness="100"
    underline-position="-350"
    slope="-12"
    unicode-range="U+0020-FFFD"
  />
<missing-glyph horiz-adv-x="514" 
d="M61 -100v850h394v-850h-394z" />
    <glyph glyph-name=".notdef" horiz-adv-x="514" 
d="M61 -100v850h394v-850h-394z" />
    <glyph glyph-name=".null" horiz-adv-x="0" 
 />
    <glyph glyph-name="nonmarkingreturn" horiz-adv-x="333" 
 />
    <glyph glyph-name="space" unicode=" " horiz-adv-x="221" 
 />
    <glyph glyph-name="exclam" unicode="!" horiz-adv-x="174" 
d="M56 187l106 521h47l-116 -521h-37zM38 -5q-13 0 -23 10t-10 24q0 12 5.5 21t15 14.5t20.5 5.5q14 0 23.5 -10t9.5 -24q0 -11 -5.5 -20.5t-14.5 -15t-21 -5.5z" />
    <glyph glyph-name="quotedbl" unicode="&#x22;" horiz-adv-x="262" 
d="M122 530l28 170h48l-45 -170h-31zM224 530l28 170h48l-45 -170h-31z" />
    <glyph glyph-name="numbersign" unicode="#" horiz-adv-x="657" 
d="M28 0l113 230h-115l8 40h127l78 160h-122l9 40h133l113 230h44l-113 -230h213l113 230h44l-113 -230h115l-9 -40h-126l-78 -160h121l-9 -40h-132l-113 -230h-44l113 230h-213l-113 -230h-44zM205 270h213l78 160h-213z" />
    <glyph glyph-name="dollar" unicode="$" horiz-adv-x="540" 
d="M180 -67l19 90q-58 11 -107.5 43.5t-84.5 84.5l36 24q64 -93 165 -111l59 276l-26 8q-75 23 -110.5 59.5t-35.5 94.5q0 54 28.5 94.5t80 63t118.5 22.5l18 -1l18 86h42l-19 -91q48 -9 95.5 -33t88.5 -60l-30 -32q-76 69 -163 84l-56 -264l15 -4q93 -28 131.5 -62
t38.5 -93q0 -57 -31 -101t-85.5 -69t-126.5 -25l-18 1l-18 -85h-42zM276 381l55 259h-9q-84 0 -133.5 -38t-49.5 -100q0 -43 26.5 -69t87.5 -45zM249 59q60 0 107 17.5t74 51.5t27 84q0 30 -14 50t-46.5 36t-89.5 33z" />
    <glyph glyph-name="percent" unicode="%" horiz-adv-x="743" 
d="M208 345q-55 0 -88 37.5t-33 99.5q0 61 23 111.5t61 81t84 30.5q56 0 88.5 -37.5t32.5 -99.5q0 -61 -23 -111.5t-61 -81t-84 -30.5zM213 379q34 0 63 26.5t46.5 69.5t17.5 94q0 47 -24 74.5t-66 27.5q-34 0 -63 -26t-46.5 -69.5t-17.5 -94.5q0 -47 24 -74.5t66 -27.5z
M109 0l531 700h46l-531 -700h-46zM533 -5q-55 0 -88 37.5t-33 99.5q0 61 23 111.5t61 81t84 30.5q56 0 88.5 -37.5t32.5 -99.5q0 -61 -23 -111.5t-61 -81t-84 -30.5zM538 29q34 0 63 26.5t46.5 69.5t17.5 94q0 47 -24 74.5t-66 27.5q-34 0 -63 -26.5t-46.5 -69.5t-17.5 -94
q0 -47 24 -74.5t66 -27.5z" />
    <glyph glyph-name="ampersand" unicode="&#x26;" horiz-adv-x="626" 
d="M575 20l-30 -30q-22 20 -46 43.5t-47 48.5q-48 -45 -105 -69t-116 -24q-64 0 -113 23.5t-76.5 66t-27.5 97.5q0 45 19 81.5t65 71.5t126 73q-22 45 -30.5 74t-8.5 57q0 50 22.5 90.5t60.5 64t86 23.5q39 0 69 -16t47 -43.5t17 -64.5q0 -55 -33.5 -95t-109.5 -78l-61 -31
q41 -66 83.5 -125t86.5 -111q37 41 68 91t54 107l40 -16q-25 -61 -58.5 -116t-74.5 -99q23 -25 46.5 -49t46.5 -45zM229 533q0 -28 8 -53.5t27 -60.5l60 31q65 33 92 64.5t27 72.5q0 37 -24 59.5t-65 22.5q-35 0 -63.5 -18t-45 -48.5t-16.5 -69.5zM59 176q0 -65 47.5 -105
t124.5 -40q53 0 101 21t91 63q-43 51 -87 112t-94 138q-71 -33 -111 -62.5t-56 -60t-16 -66.5z" />
    <glyph glyph-name="quotesingle" unicode="'" horiz-adv-x="160" 
d="M122 530l28 170h48l-45 -170h-31z" />
    <glyph glyph-name="parenleft" unicode="(" horiz-adv-x="371" 
d="M211 -221q-73 66 -114.5 170t-41.5 225q0 120 43.5 227t122.5 189t185 125l14 -44q-70 -27 -128 -76.5t-101 -116.5t-66.5 -144.5t-23.5 -159.5q0 -115 37 -209.5t102 -148.5z" />
    <glyph glyph-name="parenright" unicode=")" horiz-adv-x="371" 
d="M161 715q74 -66 115 -170t41 -225q0 -119 -43.5 -226.5t-122.5 -189t-185 -125.5l-14 44q70 27 128 76.5t101 116.5t66.5 144.5t23.5 159.5q0 115 -37 209.5t-102 148.5z" />
    <glyph glyph-name="asterisk" unicode="*" horiz-adv-x="425" 
d="M216 352l33 148l-136 -68l-16 32l141 71l-103 80l22 28l105 -82l28 139h37l-31 -137l131 63l16 -32l-138 -67l107 -83l-22 -28l-107 84l-30 -148h-37z" />
    <glyph glyph-name="plus" unicode="+" 
d="M260 152l39 185h-168l9 41h168l38 182h41l-38 -182h168l-9 -41h-168l-39 -185h-41z" />
    <glyph glyph-name="comma" unicode="," horiz-adv-x="250" 
d="M-16 -131l91 188h53l-106 -188h-38z" />
    <glyph glyph-name="hyphen" unicode="-" horiz-adv-x="434" 
d="M64 302h330l-9 -44h-330z" />
    <glyph glyph-name="period" unicode="." horiz-adv-x="250" 
d="M76 -5q-13 0 -23 10t-10 25q0 12 5.5 21t15 14.5t20.5 5.5q14 0 23.5 -10t9.5 -24q0 -12 -5.5 -21.5t-14.5 -15t-21 -5.5z" />
    <glyph glyph-name="slash" unicode="/" horiz-adv-x="425" 
d="M-161 -204l601 904h50l-601 -904h-50z" />
    <glyph glyph-name="zero" unicode="0" horiz-adv-x="627" 
d="M278 -11q-66 0 -114.5 32t-74.5 91.5t-26 141.5q0 92 26.5 174t72.5 146t106 100.5t126 36.5t114.5 -32.5t74.5 -92t26 -142.5q0 -91 -26.5 -173t-73 -145.5t-106 -100t-125.5 -36.5zM286 32q54 0 103.5 34.5t89 93.5t62.5 134t23 155q0 104 -47 161.5t-131 57.5
q-54 0 -103.5 -35t-89 -94t-62.5 -133.5t-23 -154.5q0 -103 47 -161t131 -58z" />
    <glyph glyph-name="one" unicode="1" horiz-adv-x="257" 
d="M85 0l137 644l-117 -49l10 49l134 56h28l-149 -700h-43z" />
    <glyph glyph-name="two" unicode="2" horiz-adv-x="535" 
d="M-10 0l7 35l366 306q67 56 97.5 103t30.5 94q0 59 -40 95t-106 36q-47 0 -96 -19t-108 -61l-24 36q66 46 119.5 66t108.5 20q56 0 99 -21.5t67.5 -60t24.5 -88.5q0 -43 -13.5 -79t-45 -73t-84.5 -81l-319 -266h370l-8 -42h-446z" />
    <glyph glyph-name="three" unicode="3" horiz-adv-x="573" 
d="M244 -11q-79 0 -142 28.5t-108 86.5l34 26q38 -50 92 -74.5t124 -24.5q60 0 106.5 22.5t73 60t26.5 82.5q0 65 -46.5 106.5t-119.5 41.5h-56l8 38h57q62 0 106 21.5t67.5 56.5t23.5 74q0 61 -43 98t-113 37q-49 0 -96.5 -18t-101.5 -57l-24 34q59 43 113 63t111 20
q58 0 102.5 -22.5t70.5 -61.5t26 -89q0 -66 -42 -110.5t-118 -67.5q56 -20 88 -63t32 -98q0 -57 -32.5 -105t-89.5 -76.5t-129 -28.5z" />
    <glyph glyph-name="four" unicode="4" horiz-adv-x="582" 
d="M366 0l42 197h-392l7 35l490 468h45l-98 -461h81l-8 -42h-82l-42 -197h-43zM91 239h326l83 390z" />
    <glyph glyph-name="five" unicode="5" horiz-adv-x="558" 
d="M244 -11q-75 0 -135.5 29t-104.5 84l34 26q38 -49 89 -73t118 -24q63 0 112 26.5t77 71.5t28 101q0 76 -50 118t-142 42q-34 0 -70.5 -7t-76.5 -20l-21 13l83 324h388l-9 -42h-346l-63 -246q32 10 63 14.5t60 4.5q67 0 118.5 -22.5t81 -68t29.5 -113.5q0 -65 -33 -119
t-92.5 -86.5t-137.5 -32.5z" />
    <glyph glyph-name="six" unicode="6" horiz-adv-x="611" 
d="M297 -11q-68 0 -119.5 33t-80 93t-28.5 139q0 95 29 178t81 145.5t120.5 98t146.5 35.5q41 0 82.5 -12t80.5 -36l-28 -38q-32 20 -69.5 32t-69.5 12q-76 0 -141 -40t-111 -110.5t-65 -160.5q45 38 101.5 59.5t111.5 21.5q61 0 109.5 -27.5t77 -74.5t28.5 -107
q0 -50 -20 -93.5t-55 -77t-81.5 -52t-99.5 -18.5zM300 31q57 0 104.5 27.5t75.5 73t28 99.5q0 49 -23 86t-63.5 58.5t-92.5 21.5q-55 0 -111 -24.5t-101 -67.5q-10 -82 9.5 -143.5t64 -96t109.5 -34.5z" />
    <glyph glyph-name="seven" unicode="7" horiz-adv-x="542" 
d="M43 0l510 658h-440l9 42h498l-7 -35l-516 -665h-54z" />
    <glyph glyph-name="eight" unicode="8" horiz-adv-x="608" 
d="M277 -11q-68 0 -121.5 24t-84 66t-30.5 96q0 49 26.5 91t72 72t103.5 40q-47 21 -73.5 59t-26.5 84q0 53 31.5 96t84.5 68.5t117 25.5q59 0 105.5 -22t74 -60.5t27.5 -86.5q0 -41 -21.5 -77t-59 -61.5t-87.5 -37.5q59 -23 93.5 -66.5t34.5 -97.5q0 -59 -36 -107.5
t-96 -77t-134 -28.5zM350 392q53 0 95.5 20t68 54.5t25.5 75.5q0 36 -21.5 65t-58 45.5t-83.5 16.5q-52 0 -95 -20t-68.5 -53.5t-25.5 -74.5q0 -37 21.5 -66t58.5 -46t83 -17zM277 31q61 0 111 23t80 62t30 86q0 42 -25.5 75.5t-69.5 53t-99 19.5q-60 0 -109.5 -23.5
t-79 -63t-29.5 -88.5q0 -42 24.5 -74.5t68 -51t98.5 -18.5z" />
    <glyph glyph-name="nine" unicode="9" horiz-adv-x="611" 
d="M359 711q69 0 120 -33t79.5 -92.5t28.5 -139.5q0 -95 -29 -178t-81 -145.5t-120.5 -98t-146.5 -35.5q-41 0 -82.5 12t-80.5 36l28 38q32 -20 69.5 -32t69.5 -12q76 0 141 40t111.5 110.5t64.5 160.5q-45 -37 -101.5 -59t-111.5 -22q-61 0 -109.5 27.5t-77 75t-28.5 106.5
q0 50 20 93.5t55 77t81.5 52t99.5 18.5zM356 669q-57 0 -104 -27.5t-75.5 -72.5t-28.5 -100q0 -48 23 -85.5t63.5 -59t92.5 -21.5q55 0 111 24.5t101 67.5q10 82 -9.5 143.5t-64 96t-109.5 34.5z" />
    <glyph glyph-name="colon" unicode=":" horiz-adv-x="250" 
d="M76 -5q-13 0 -23 10t-10 25q0 12 5.5 21t15 14.5t20.5 5.5q14 0 23.5 -10t9.5 -24q0 -12 -5.5 -21.5t-14.5 -15t-21 -5.5zM167 422q-13 0 -23 10t-10 25q0 12 5.5 21t15 14.5t20.5 5.5q14 0 23.5 -10t9.5 -24q0 -12 -5.5 -21.5t-14.5 -15t-21 -5.5z" />
    <glyph glyph-name="semicolon" unicode=";" horiz-adv-x="250" 
d="M170 422q-13 0 -23 10t-10 25q0 12 5.5 21t15 14.5t20.5 5.5q14 0 23.5 -10t9.5 -24q0 -12 -5.5 -21.5t-14.5 -15t-21 -5.5zM-18 -131l91 188h53l-106 -188h-38z" />
    <glyph glyph-name="less" unicode="&#x3c;" 
d="M397 123l-256 226l345 226l20 -33l-302 -197l219 -192z" />
    <glyph glyph-name="equal" unicode="=" 
d="M116 263l8 41h377l-8 -41h-377zM148 412l8 41h377l-8 -41h-377z" />
    <glyph glyph-name="greater" unicode="&#x3e;" 
d="M203 575l256 -226l-345 -226l-20 33l302 197l-219 192z" />
    <glyph glyph-name="question" unicode="?" horiz-adv-x="487" 
d="M175 193q7 46 21 81.5t38.5 63t60.5 47.5l68 39q49 28 73 63t24 76q0 47 -39 76.5t-102 29.5q-47 0 -94.5 -20t-94.5 -59l-28 32q51 44 106.5 66.5t110.5 22.5q54 0 96 -19t65.5 -52t23.5 -77q0 -52 -30 -96.5t-89 -78.5l-68 -39q-44 -25 -68.5 -62t-33.5 -94h-40z
M160 -5q-13 0 -23 10t-10 24q0 12 5.5 21t15 14.5t20.5 5.5q14 0 23.5 -10t9.5 -24q0 -11 -5.5 -20.5t-14.5 -15t-21 -5.5z" />
    <glyph glyph-name="at" unicode="@" horiz-adv-x="771" 
d="M399 -144q-75 0 -139.5 26.5t-112.5 74t-75 111.5t-27 139q0 78 26.5 145t73.5 117t111 77.5t139 27.5q71 0 131 -23.5t104.5 -65t69.5 -98t25 -122.5q0 -62 -23.5 -108.5t-62.5 -72.5t-85 -26q-62 0 -87 42q-26 -24 -54 -36t-54 -12q-41 0 -73.5 19.5t-51 53.5t-18.5 77
q0 48 22.5 87.5t60.5 63t84 23.5q32 0 59.5 -12t45.5 -32l6 30h39l-37 -186q-9 -40 7.5 -61.5t53.5 -21.5q35 0 64 22t46.5 61.5t17.5 89.5q0 77 -38.5 138.5t-104.5 97t-149 35.5q-64 0 -120 -25.5t-98.5 -70t-66 -104.5t-23.5 -129q0 -90 41.5 -161t113.5 -112.5
t163 -41.5q96 0 173 43l15 -34q-42 -22 -91 -34t-101 -12zM366 87q53 0 90 42q-5 23 1 49l22 110q-14 24 -41 38.5t-59 14.5q-34 0 -62 -18.5t-44.5 -49.5t-16.5 -69q0 -52 30.5 -84.5t79.5 -32.5z" />
    <glyph glyph-name="A" unicode="A" horiz-adv-x="642" 
d="M-44 0l431 700h59l137 -700h-45l-46 237h-340l-145 -237h-51zM177 278h307l-74 381z" />
    <glyph glyph-name="B" unicode="B" horiz-adv-x="628" 
d="M29 0l149 700h237q89 0 141 -42t52 -113q0 -70 -43 -117.5t-118 -64.5q59 -16 91.5 -53.5t32.5 -91.5q0 -65 -32 -114t-89.5 -76.5t-133.5 -27.5h-287zM156 387h220q83 0 135 43t52 112q0 53 -39.5 84t-108.5 31h-201zM83 43h233q62 0 109 22t73.5 61t26.5 90
q0 59 -44.5 93.5t-121.5 34.5h-212z" />
    <glyph glyph-name="C" unicode="C" horiz-adv-x="710" 
d="M394 -11q-69 0 -128.5 25t-103.5 70t-68.5 105.5t-24.5 130.5q0 81 30 151.5t82 124.5t119.5 84.5t143.5 30.5q83 0 153 -31.5t115 -90.5l-34 -26q-40 50 -100.5 77.5t-136.5 27.5q-68 0 -127 -27.5t-104 -75.5t-70 -110.5t-25 -132.5q0 -78 35 -144t98.5 -106t148.5 -40
q65 0 127 23.5t112 67.5l28 -34q-55 -48 -125.5 -74t-144.5 -26z" />
    <glyph glyph-name="D" unicode="D" horiz-adv-x="699" 
d="M29 0l149 700h185q72 0 130 -21.5t99.5 -62t63.5 -97.5t22 -127q0 -83 -31.5 -154t-87 -124.5t-130.5 -83.5t-162 -30h-238zM83 43h192q74 0 139 27t114 75.5t76.5 112t27.5 136.5q0 80 -33 139t-93 91.5t-141 32.5h-151z" />
    <glyph glyph-name="E" unicode="E" horiz-adv-x="590" 
d="M29 0l149 700h475l-9 -43h-430l-60 -282h281l-9 -43h-281l-62 -289h434l-9 -43h-479z" />
    <glyph glyph-name="F" unicode="F" horiz-adv-x="580" 
d="M29 0l149 700h474l-9 -43h-429l-61 -287h280l-9 -43h-280l-70 -327h-45z" />
    <glyph glyph-name="G" unicode="G" horiz-adv-x="773" 
d="M394 -11q-69 0 -128.5 25t-103.5 70t-68.5 105.5t-24.5 130.5q0 81 30 151.5t82 124.5t119.5 84.5t143.5 30.5q83 0 153 -31.5t115 -90.5l-34 -26q-40 50 -100.5 77.5t-136.5 27.5q-68 0 -127 -27.5t-104 -75.5t-70 -110.5t-25 -132.5q0 -78 35 -144t98.5 -106t148.5 -40
q75 0 139 36.5t107 99.5t55 143h-264l4 43h310l-7 -45q-14 -90 -62.5 -162.5t-122 -115t-162.5 -42.5z" />
    <glyph glyph-name="H" unicode="H" horiz-adv-x="690" 
d="M29 0l149 700h45l-70 -327h438l70 327h45l-149 -700h-45l71 332h-438l-71 -332h-45z" />
    <glyph glyph-name="I" unicode="I" horiz-adv-x="207" 
d="M29 0l149 700h45l-149 -700h-45z" />
    <glyph glyph-name="J" unicode="J" horiz-adv-x="571" 
d="M225 -11q-82 0 -138.5 44.5t-76.5 122.5l38 16q38 -140 178 -140q93 0 154 63.5t83 166.5l93 438h45l-93 -438q-17 -83 -54.5 -144.5t-94 -95t-134.5 -33.5z" />
    <glyph glyph-name="K" unicode="K" horiz-adv-x="568" 
d="M29 0l149 700h45l-70 -330l444 330h71l-468 -345l323 -355h-60l-315 349l-74 -349h-45z" />
    <glyph glyph-name="L" unicode="L" horiz-adv-x="581" 
d="M29 0l149 700h45l-140 -657h424l-9 -43h-469z" />
    <glyph glyph-name="M" unicode="M" horiz-adv-x="814" 
d="M29 0l149 700h69l137 -550l373 550h73l-149 -700h-45l139 655l-410 -605l-152 605l-139 -655h-45z" />
    <glyph glyph-name="N" unicode="N" horiz-adv-x="699" 
d="M29 0l149 700h45l316 -624l133 624h43l-149 -700h-35l-323 638l-136 -638h-43z" />
    <glyph glyph-name="O" unicode="O" horiz-adv-x="793" 
d="M388 -11q-69 0 -127 24.5t-101.5 68.5t-67.5 103.5t-24 128.5q0 80 30.5 152t83.5 127t122 86.5t146 31.5q69 0 127 -24.5t101.5 -68.5t67.5 -103.5t24 -128.5q0 -79 -30 -150.5t-83 -127t-122 -87.5t-147 -32zM391 32q69 0 129.5 28t106 77t71.5 112.5t26 134.5
q0 77 -34 141.5t-96 103.5t-147 39q-69 0 -129.5 -28t-106 -77t-71.5 -112.5t-26 -134.5q0 -77 34 -141.5t96 -103.5t147 -39z" />
    <glyph glyph-name="P" unicode="P" horiz-adv-x="618" 
d="M29 0l149 700h256q61 0 105.5 -20.5t69 -59t24.5 -93.5q0 -63 -30.5 -112t-85 -77.5t-127.5 -28.5h-250l-66 -309h-45zM149 352h241q59 0 103 22.5t69 62t25 88.5q0 65 -40.5 98.5t-111.5 33.5h-221z" />
    <glyph glyph-name="Q" unicode="Q" horiz-adv-x="792" 
d="M388 -11q-69 0 -127 24.5t-101.5 68.5t-67.5 103.5t-24 128.5q0 80 30.5 152t83.5 127t122 86.5t146 31.5q69 0 127 -24.5t101.5 -68.5t67.5 -103.5t24 -128.5q0 -90 -39 -170t-104 -136l58 -91l-50 -4l-43 68q-44 -30 -96 -47t-108 -17zM391 32q50 0 95 15t84 42
l-80 126l49 4l66 -103q55 49 87 119t32 149q0 77 -34 141.5t-96 103.5t-147 39q-69 0 -129.5 -28t-106 -77t-71.5 -112.5t-26 -134.5q0 -77 34 -141.5t96 -103.5t147 -39z" />
    <glyph glyph-name="R" unicode="R" horiz-adv-x="616" 
d="M29 0l149 700h256q61 0 105 -20t68 -57.5t24 -88.5q0 -58 -25 -104.5t-69 -76t-103 -38.5l96 -315h-46l-95 312h-249l-66 -312h-45zM150 355h239q58 0 102 22.5t69 62.5t25 91q0 59 -40.5 92.5t-111.5 33.5h-219z" />
    <glyph glyph-name="S" unicode="S" horiz-adv-x="576" 
d="M283 -11q-86 0 -158.5 39.5t-122.5 114.5l38 26q44 -67 106 -102t136 -35q63 0 110.5 21t74 58t26.5 85q0 51 -36 80t-122 54l-74 21q-87 25 -130.5 66t-43.5 106q0 57 29.5 99.5t82.5 65.5t124 23q70 0 140 -29.5t127 -82.5l-30 -33q-52 49 -114.5 75.5t-124.5 26.5
q-87 0 -137.5 -40t-50.5 -105q0 -47 33.5 -77t106.5 -51l74 -21q99 -28 145.5 -68.5t46.5 -109.5q0 -62 -33 -108.5t-90.5 -72.5t-132.5 -26z" />
    <glyph glyph-name="T" unicode="T" horiz-adv-x="588" 
d="M220 0l140 657h-256l9 43h556l-9 -43h-255l-140 -657h-45z" />
    <glyph glyph-name="U" unicode="U" horiz-adv-x="680" 
d="M314 -11q-81 0 -142 36t-88 104t-7 163l87 408h45l-86 -403q-18 -85 2 -144t69 -90t119 -31q101 0 170.5 69.5t95.5 193.5l86 405h45l-86 -405q-20 -96 -62 -164.5t-104 -105t-144 -36.5z" />
    <glyph glyph-name="V" unicode="V" horiz-adv-x="642" 
d="M242 0l-137 700h45l128 -659l404 659h50l-431 -700h-59z" />
    <glyph glyph-name="W" unicode="W" horiz-adv-x="867" 
d="M165 0l-30 700h43l27 -619l302 619h46l40 -621l288 621h46l-327 -700h-42l-40 638l-311 -638h-42z" />
    <glyph glyph-name="X" unicode="X" horiz-adv-x="599" 
d="M-46 0l342 367l-173 333h50l155 -302l282 302h59l-320 -339l192 -361h-50l-174 329l-304 -329h-59z" />
    <glyph glyph-name="Y" unicode="Y" horiz-adv-x="597" 
d="M223 0l62 292l-181 408h48l162 -367l317 367h57l-359 -412l-61 -288h-45z" />
    <glyph glyph-name="Z" unicode="Z" horiz-adv-x="586" 
d="M-27 0l8 35l588 622h-452l8 43h519l-8 -35l-588 -622h466l-9 -43h-532z" />
    <glyph glyph-name="bracketleft" unicode="[" horiz-adv-x="320" 
d="M-41 -215l194 915h226l-8 -39h-182l-178 -837h182l-9 -39h-225z" />
    <glyph glyph-name="backslash" unicode="\" horiz-adv-x="367" 
d="M364 -204h-44l-219 904h44z" />
    <glyph glyph-name="bracketright" unicode="]" horiz-adv-x="320" 
d="M360 700l-194 -915h-226l8 39h182l178 837h-182l9 39h225z" />
    <glyph glyph-name="asciicircum" unicode="^" 
d="M117 350l258 350h41l110 -350h-44l-94 301l-222 -301h-49z" />
    <glyph glyph-name="underscore" unicode="_" horiz-adv-x="466" 
d="M-79 -124l9 44h468l-9 -44h-468z" />
    <glyph glyph-name="grave" unicode="`" 
d="M354 596l-116 110h65l93 -110h-42z" />
    <glyph glyph-name="a" unicode="a" horiz-adv-x="489" 
d="M187 -10q-75 0 -121 38t-46 102q0 49 25.5 84.5t70.5 55t101 19.5q47 0 91 -15t76 -41l17 81q15 71 -13.5 110t-102.5 39q-38 0 -76 -10.5t-85 -31.5l-15 38q51 23 92 33t80 10q58 0 99.5 -20.5t59.5 -61t5 -102.5l-68 -318h-43l9 43q-34 -25 -73 -39t-83 -14zM195 29
q46 0 85 16t74 47l21 100q-61 59 -162 59q-65 0 -107.5 -31.5t-42.5 -87.5q0 -45 33.5 -74t98.5 -29z" />
    <glyph glyph-name="b" unicode="b" horiz-adv-x="560" 
d="M249 -10q-54 0 -99.5 22t-74.5 60l-16 -72h-43l149 700l45 11l-55 -260q68 51 147 51q63 0 111.5 -29.5t76.5 -81t28 -117.5q0 -58 -21 -109.5t-58 -91t-85.5 -61.5t-104.5 -22zM248 32q63 0 114 32t81.5 86.5t30.5 120.5q0 56 -23 98.5t-63 66.5t-93 24
q-42 0 -81.5 -16.5t-70.5 -46.5l-57 -271q19 -41 64 -67.5t98 -26.5z" />
    <glyph glyph-name="c" unicode="c" horiz-adv-x="493" 
d="M258 -10q-60 0 -109 30.5t-77.5 82.5t-28.5 116q0 57 21.5 108t59 90.5t86 62t102.5 22.5q52 0 101 -25.5t82 -69.5l-33 -29q-27 38 -67.5 60t-86.5 22q-44 0 -83.5 -19.5t-70.5 -53t-49 -77t-18 -91.5q0 -53 22.5 -95.5t62.5 -67t90 -24.5q35 0 72.5 14t76.5 42l26 -36
q-87 -62 -179 -62z" />
    <glyph glyph-name="d" unicode="d" horiz-adv-x="560" 
d="M259 -10q-62 0 -111 29.5t-77 81.5t-28 117q0 59 21 110t58 90.5t86 61.5t104 22q54 0 100 -22t74 -60l60 280l45 11l-151 -711h-43l9 41q-67 -51 -147 -51zM266 32q42 0 81 16.5t70 46.5l58 271q-19 41 -64 67.5t-98 26.5q-63 0 -114 -32.5t-81.5 -86.5t-30.5 -120
q0 -55 23 -98t63.5 -67t92.5 -24z" />
    <glyph glyph-name="e" unicode="e" horiz-adv-x="539" 
d="M263 -10q-60 0 -110 30.5t-80 82.5t-30 116q0 59 20.5 110t56.5 90t84 61t102 22q58 0 102 -29t69 -79t25 -114q0 -5 -1 -22.5t-2 -23.5h-412q-2 -58 20.5 -104t63.5 -72t94 -26q39 0 76.5 12t70.5 32l24 -36q-37 -24 -82.5 -37t-90.5 -13zM93 276h366q2 50 -16.5 91.5
t-54.5 67t-86 25.5q-51 0 -94 -24t-73 -65.5t-42 -94.5z" />
    <glyph glyph-name="f" unicode="f" horiz-adv-x="341" 
d="M81 0l95 452h-116l9 40h116l25 119q14 64 50.5 96.5t94.5 32.5q20 0 36 -3t34 -11l-8 -42q-17 8 -31 11t-31 3q-43 0 -67.5 -22.5t-35.5 -72.5l-24 -111h149l-9 -40h-148l-96 -452h-43z" />
    <glyph glyph-name="g" unicode="g" horiz-adv-x="563" 
d="M237 -214q-51 0 -105.5 20t-95.5 54l28 32q43 -32 85 -48t85 -16q123 0 155 133l20 82q-70 -53 -150 -53q-62 0 -111 29.5t-77 81.5t-28 117q0 59 21 110t58 90.5t86 61.5t104 22q54 0 100 -22t75 -61l15 73h43l-114 -535q-18 -83 -67.5 -127t-126.5 -44zM266 32
q90 0 154 66l56 267q-19 42 -64 68.5t-99 26.5q-63 0 -114 -32.5t-81.5 -86.5t-30.5 -120q0 -55 23 -98t63.5 -67t92.5 -24z" />
    <glyph glyph-name="h" unicode="h" horiz-adv-x="519" 
d="M16 0l149 700l45 11l-59 -278q68 69 157 69q56 0 96 -26t57.5 -72t4.5 -107l-63 -297h-43l62 291q17 78 -17 124t-105 46q-47 0 -89 -22t-71 -60l-81 -379h-43z" />
    <glyph glyph-name="i" unicode="i" horiz-adv-x="179" 
d="M16 0l105 492h43l-105 -492h-43zM170 603q-14 0 -24 10t-10 25q0 12 5.5 21t15 14.5t20.5 5.5q14 0 24 -10t10 -24q0 -12 -5.5 -21.5t-15 -15t-20.5 -5.5z" />
    <glyph glyph-name="j" unicode="j" horiz-adv-x="178" 
d="M170 603q-14 0 -24 10t-10 24q0 12 5.5 21t15 14.5t20.5 5.5q14 0 24 -10t10 -24q0 -11 -5.5 -20.5t-15 -15t-20.5 -5.5zM-87 -214q-10 0 -20 1.5t-20 3.5l9 44q9 -4 19 -5t20 -1q32 0 50 19t26 57l124 587h43l-126 -597q-10 -51 -43 -80t-82 -29z" />
    <glyph glyph-name="k" unicode="k" horiz-adv-x="453" 
d="M16 0l149 700l45 11l-93 -437l306 218h71l-337 -236l245 -256h-59l-232 245l-52 -245h-43z" />
    <glyph glyph-name="l" unicode="l" horiz-adv-x="178" 
d="M16 0l149 700l45 11l-151 -711h-43z" />
    <glyph glyph-name="m" unicode="m" horiz-adv-x="821" 
d="M16 0l105 492h43l-13 -59q68 69 152 69q53 0 91 -27t51 -73q45 52 89 76t93 24q52 0 88 -25t51.5 -68.5t3.5 -101.5l-65 -307h-43l65 305q14 68 -16.5 112t-92.5 44q-91 0 -166 -99q1 -13 -0.5 -27t-4.5 -28l-65 -307h-43l63 296q16 75 -14.5 120t-93.5 45
q-45 0 -84.5 -22.5t-70.5 -62.5l-80 -376h-43z" />
    <glyph glyph-name="n" unicode="n" horiz-adv-x="519" 
d="M16 0l105 492h43l-12 -58q65 68 156 68q56 0 96 -25.5t57.5 -71.5t4.5 -108l-63 -297h-43l62 291q17 78 -17 124t-105 46q-47 0 -89 -21.5t-71 -59.5l-81 -380h-43z" />
    <glyph glyph-name="o" unicode="o" horiz-adv-x="569" 
d="M258 -10q-60 0 -109 30.5t-77.5 82.5t-28.5 116q0 57 21.5 108t59 90.5t86 62t102.5 22.5q61 0 109.5 -30.5t77 -82.5t28.5 -116q0 -57 -21 -108.5t-58.5 -90.5t-86 -61.5t-103.5 -22.5zM262 32q44 0 83.5 19.5t70.5 53t49 77t18 91.5q0 54 -22.5 96t-62 66.5t-90.5 24.5
q-44 0 -83.5 -19.5t-70.5 -53t-49 -77t-18 -91.5q0 -53 22.5 -95.5t62.5 -67t90 -24.5z" />
    <glyph glyph-name="p" unicode="p" horiz-adv-x="560" 
d="M-27 -204l148 696h43l-8 -41q66 51 146 51q63 0 111.5 -29.5t76.5 -81t28 -117.5q0 -58 -21 -109.5t-58 -91t-85.5 -61.5t-104.5 -22q-54 0 -99.5 22t-74.5 60l-59 -276h-43zM248 32q63 0 114 32t81.5 86.5t30.5 120.5q0 56 -23 98.5t-63 66.5t-93 24q-42 0 -81.5 -16.5
t-70.5 -46.5l-57 -271q19 -41 64 -67.5t98 -26.5z" />
    <glyph glyph-name="q" unicode="q" horiz-adv-x="560" 
d="M354 -204l52 245q-34 -25 -71 -38t-76 -13q-62 0 -111 29.5t-77 81.5t-28 117q0 59 21 110t58 90.5t86 61.5t104 22q54 0 100 -22t74 -60l16 72h43l-148 -696h-43zM266 32q42 0 81 16.5t70 46.5l58 272q-19 41 -64 67t-98 26q-63 0 -114 -32.5t-81.5 -86.5t-30.5 -120
q0 -55 23 -98t63.5 -67t92.5 -24z" />
    <glyph glyph-name="r" unicode="r" horiz-adv-x="312" 
d="M16 0l105 492h43l-15 -71q28 38 66 59.5t81 21.5q32 0 48 -6l-10 -45q-10 5 -22.5 7t-25.5 2q-92 0 -151 -105l-76 -355h-43z" />
    <glyph glyph-name="s" unicode="s" horiz-adv-x="417" 
d="M187 -12q-60 0 -111.5 25t-86.5 71l35 27q29 -38 71 -60t91 -22q63 0 104.5 31.5t41.5 77.5q0 32 -20.5 50.5t-70.5 30.5l-74 18q-63 15 -92 44t-29 77q0 43 22 75t61.5 50.5t89.5 18.5q51 0 99.5 -20.5t91.5 -60.5l-30 -32q-38 35 -78 53.5t-84 18.5q-58 0 -93 -28
t-35 -73q0 -31 19 -50t68 -31l74 -18q65 -16 95 -44t30 -77q0 -43 -25 -77.5t-67.5 -54.5t-96.5 -20z" />
    <glyph glyph-name="t" unicode="t" horiz-adv-x="330" 
d="M199 -10q-62 0 -90 30.5t-16 85.5l74 346h-107l9 40h106l27 124l46 14l-29 -138h146l-9 -40h-146l-72 -337q-10 -45 8 -64.5t69 -19.5q11 0 23.5 2.5t32.5 8.5l-9 -43q-16 -4 -31.5 -6.5t-31.5 -2.5z" />
    <glyph glyph-name="u" unicode="u" horiz-adv-x="519" 
d="M212 -10q-55 0 -95.5 25.5t-57.5 72t-4 107.5l62 297h43l-62 -290q-16 -78 18 -124.5t104 -46.5q47 0 89 22t71 60l81 379h43l-105 -492h-43l12 58q-66 -68 -156 -68z" />
    <glyph glyph-name="v" unicode="v" horiz-adv-x="473" 
d="M164 0l-104 492h45l90 -431l274 431h50l-315 -492h-40z" />
    <glyph glyph-name="w" unicode="w" horiz-adv-x="657" 
d="M111 0l-43 492h43l35 -425l213 425h43l31 -428l217 428h45l-252 -492h-44l-31 428l-214 -428h-43z" />
    <glyph glyph-name="x" unicode="x" horiz-adv-x="451" 
d="M-44 0l248 258l-126 234h49l108 -204l195 204h57l-232 -240l136 -252h-49l-117 222l-212 -222h-57z" />
    <glyph glyph-name="y" unicode="y" horiz-adv-x="471" 
d="M-17 -214q-9 0 -20.5 1.5t-23.5 4.5l9 44q8 -3 19.5 -4.5t21.5 -1.5q31 0 58 19.5t52 57.5l60 95l-99 490h45l88 -438l275 438h49l-372 -590q-39 -61 -77 -88.5t-85 -27.5z" />
    <glyph glyph-name="z" unicode="z" horiz-adv-x="437" 
d="M-20 0l8 39l393 411h-302l9 42h361l-8 -39l-393 -411h307l-9 -42h-366z" />
    <glyph glyph-name="braceleft" unicode="{" horiz-adv-x="352" 
d="M160 -214q-58 0 -89 27.5t-29 74t39 101.5l64 95q25 38 27.5 70t-14.5 51.5t-53 19.5h-71l8 42h72q54 0 82 39t18 101l-18 117q-8 54 5.5 96t44.5 66.5t75 24.5q19 0 40 -5t40 -15l-19 -35q-14 7 -30.5 10.5t-32.5 3.5q-45 0 -66.5 -35.5t-14.5 -91.5l20 -144
q5 -36 -5.5 -68t-34 -55t-58.5 -33q29 -15 42.5 -39.5t10.5 -55.5t-24 -64l-76 -122q-25 -40 -26.5 -71t18.5 -49t58 -18q12 0 21 2t23 6l4 -37q-16 -5 -28.5 -7t-22.5 -2z" />
    <glyph glyph-name="bar" unicode="|" horiz-adv-x="245" 
d="M7 -204l192 904h41l-192 -904h-41z" />
    <glyph glyph-name="braceright" unicode="}" horiz-adv-x="352" 
d="M193 711q59 0 89.5 -27.5t29 -73.5t-39.5 -102l-64 -95q-25 -37 -27.5 -69.5t15 -52t52.5 -19.5h71l-8 -42h-72q-54 0 -82 -39t-18 -101l18 -117q8 -53 -5.5 -95.5t-44 -67t-75.5 -24.5q-19 0 -40 5t-40 15l19 35q14 -7 30.5 -10.5t32.5 -3.5q45 0 67 35.5t14 91.5
l-20 144q-5 37 5.5 68.5t34.5 54.5t58 33q-29 15 -42.5 39.5t-10 55.5t23.5 64l76 122q25 40 26.5 71t-18 49t-58.5 18q-12 0 -21 -1.5t-23 -6.5l-4 37q17 5 29 7t22 2z" />
    <glyph glyph-name="asciitilde" unicode="~" 
d="M126 308l-36 6q14 65 53 99.5t77 34.5q26 0 46.5 -7.5t43.5 -22.5l63 -41q20 -13 35 -17t29 -4q31 0 56 23.5t39 72.5l36 -6q-13 -64 -52.5 -99t-77.5 -35q-26 0 -46.5 7.5t-43.5 22.5l-63 41q-19 13 -34.5 17t-29.5 4q-31 0 -56 -23.5t-39 -72.5z" />
    <glyph glyph-name="uni00A0" unicode="&#xa0;" horiz-adv-x="221" 
 />
    <glyph glyph-name="exclamdown" unicode="&#xa1;" horiz-adv-x="173" 
d="M120 317l-106 -521h-47l116 521h37zM138 509q14 0 23.5 -10t9.5 -24q0 -11 -5.5 -20.5t-14.5 -15t-21 -5.5q-13 0 -23 10t-10 24q0 12 5.5 21t15 14.5t20.5 5.5z" />
    <glyph glyph-name="cent" unicode="&#xa2;" horiz-adv-x="498" 
d="M179 -116l24 113q-47 13 -83.5 45t-56.5 78t-20 99q0 57 21.5 108t58.5 90.5t85 62t102 22.5l23 106h41l-23 -110q42 -7 79.5 -31t64.5 -60l-33 -29q-22 32 -53.5 52t-66.5 27l-90 -425q41 -1 78.5 12.5t80.5 43.5l26 -36q-47 -34 -95.5 -49.5t-98.5 -11.5l-23 -107h-41z
M212 39l89 421q-57 -2 -106 -36t-78.5 -88t-29.5 -117q0 -65 34 -114t91 -66z" />
    <glyph glyph-name="sterling" unicode="&#xa3;" horiz-adv-x="588" 
d="M409 -26q-14 0 -29.5 2t-32.5 6l-200 49q-13 3 -26 5t-25 2q-65 0 -104 -63l-34 26q27 42 64 61.5t83 18.5q22 8 36 35t16 66l6 132h-108l9 41h100l5 115q3 74 29.5 128t73.5 83.5t109 29.5q92 0 144 -50t59 -142l-43 -6q-9 156 -160 156q-75 0 -119.5 -53t-48.5 -148
l-5 -113h217l-10 -41h-208l-6 -134q-3 -72 -44 -107l200 -49q15 -4 28.5 -6t26.5 -2q53 0 93 46l34 -28q-27 -31 -59 -45.5t-71 -14.5z" />
    <glyph glyph-name="uni00A4" unicode="&#xa4;" horiz-adv-x="632" 
d="M58 71l-28 28l94 95q-27 34 -42 76.5t-15 89.5t15 89.5t42 76.5l-94 95l28 28l93 -94q32 29 74 46t91 17t91 -17t74 -46l93 94l28 -28l-94 -95q27 -34 42 -76.5t15 -89.5t-15 -89.5t-42 -76.5l94 -95l-28 -28l-93 94q-32 -29 -74 -46t-91 -17t-91 17t-74 46zM316 142
q59 0 105.5 29t74 78.5t27.5 110.5t-27.5 110.5t-74 78.5t-105.5 29q-58 0 -105 -29t-74.5 -78.5t-27.5 -110.5t27.5 -110.5t74.5 -78.5t105 -29z" />
    <glyph glyph-name="yen" unicode="&#xa5;" horiz-adv-x="630" 
d="M239 0l30 142h-188l8 41h189l18 86h-189l8 41h178l-173 390h48l162 -367l317 367h57l-340 -390h173l-8 -41h-188l-18 -86h188l-8 -41h-189l-30 -142h-45z" />
    <glyph glyph-name="uni00A6" unicode="&#xa6;" horiz-adv-x="245" 
d="M153 291h-41l87 409h41zM7 -204l86 409h41l-86 -409h-41z" />
    <glyph glyph-name="section" unicode="&#xa7;" horiz-adv-x="549" 
d="M242 -49q-44 0 -92 17t-92 48l26 34q40 -28 80 -42.5t78 -14.5q53 0 83 25.5t30 68.5q0 51 -63 80l-102 48q-55 25 -80.5 56t-25.5 72q0 53 42 90t111 47q-50 38 -50 95q0 41 19.5 71.5t55 47.5t82.5 17q44 0 92 -16.5t92 -48.5l-26 -34q-40 28 -80 42.5t-78 14.5
q-52 0 -82.5 -25t-30.5 -69q0 -51 63 -80l102 -48q55 -25 80.5 -56t25.5 -72q0 -53 -42 -89.5t-111 -47.5q50 -38 50 -95q0 -41 -19.5 -71.5t-55 -47.5t-82.5 -17zM304 208q69 1 111.5 31.5t42.5 79.5q0 28 -18.5 49t-61.5 41l-96 45q-69 -1 -111.5 -31.5t-42.5 -79.5
q0 -28 18.5 -49t61.5 -41z" />
    <glyph glyph-name="dieresis" unicode="&#xa8;" 
d="M302 603q-13 0 -23 10t-10 25q0 17 12 29t29 12q14 0 23.5 -10t9.5 -24q0 -18 -12 -30t-29 -12zM459 603q-13 0 -23 10t-10 25q0 17 12 29t29 12q14 0 23.5 -10t9.5 -24q0 -18 -12 -30t-29 -12z" />
    <glyph glyph-name="copyright" unicode="&#xa9;" horiz-adv-x="801" 
d="M396 -9q-95 0 -169.5 42t-117.5 115.5t-43 165.5q0 80 30 150.5t83 124.5t122 84.5t147 30.5q95 0 169.5 -42t117.5 -115t43 -166q0 -79 -30 -149.5t-83 -124.5t-122 -85t-147 -31zM396 27q71 0 133 28t109.5 77t74.5 113t27 136q0 84 -38 148.5t-103.5 101.5t-150.5 37
q-70 0 -132.5 -28t-110 -77t-74.5 -113t-27 -136q0 -84 38 -148.5t104 -101.5t150 -37zM416 168q-46 0 -82 21t-57 58t-21 83q0 41 15.5 78t42.5 65t62 44t74 16q45 0 81.5 -19.5t58.5 -51.5l-30 -20q-19 26 -48 40.5t-62 14.5q-42 0 -77.5 -23t-57 -61t-21.5 -83
q0 -55 35 -90.5t87 -35.5q51 0 100 35l22 -30q-28 -20 -59 -30.5t-63 -10.5z" />
    <glyph glyph-name="ordfeminine" unicode="&#xaa;" horiz-adv-x="386" 
d="M207 325q-57 0 -92 30t-35 78q0 53 41.5 85.5t108.5 32.5q35 0 67.5 -10t56.5 -28l11 54q24 110 -91 110q-26 0 -54.5 -6.5t-61.5 -20.5l-12 31q68 30 131 30q71 0 106 -38.5t21 -100.5l-51 -240h-38l7 33q-52 -40 -115 -40zM215 359q61 0 116 48l15 71q-43 40 -119 40
q-47 0 -77.5 -23t-30.5 -59q0 -37 25 -57t71 -20z" />
    <glyph glyph-name="guillemotleft" unicode="&#xab;" horiz-adv-x="554" 
d="M364 492l-280 -250l171 -242h-46l-174 246l275 246h54zM555 492l-280 -250l171 -242h-46l-174 246l275 246h54z" />
    <glyph glyph-name="uni00AC" unicode="&#xac;" 
d="M396 0l55 259h-396l9 41h437l-64 -300h-41z" />
    <glyph glyph-name="uni00AD" unicode="&#xad;" horiz-adv-x="500" 
d="M64 302h330l-9 -44h-330z" />
    <glyph glyph-name="registered" unicode="&#xae;" horiz-adv-x="480" 
d="M278 312q-51 0 -90.5 22.5t-62 62.5t-22.5 91q0 46 17 86t46 71t68 48.5t82 17.5q52 0 91 -22.5t61.5 -62t22.5 -91.5q0 -46 -17 -86t-46 -71t-67.5 -48.5t-82.5 -17.5zM278 342q50 0 91 26.5t65.5 70.5t24.5 96q0 65 -39.5 105.5t-103.5 40.5q-49 0 -90.5 -26.5t-66 -70
t-24.5 -96.5q0 -65 39.5 -105.5t103.5 -40.5zM212 419l40 188h64q27 0 41.5 -13.5t14.5 -39.5q0 -20 -13 -36t-33 -23l29 -76h-30l-30 72h-40l-15 -72h-28zM311 583h-35l-16 -68h44q18 0 29 10.5t11 26.5q0 31 -33 31z" />
    <glyph glyph-name="macron" unicode="&#xaf;" 
d="M250 620l7 37h262l-8 -37h-261z" />
    <glyph glyph-name="degree" unicode="&#xb0;" horiz-adv-x="386" 
d="M248 431q-35 0 -63.5 17t-45.5 45.5t-17 63.5q0 43 21 77.5t56 55.5t78 21q35 0 63.5 -17t45.5 -45.5t17 -63.5q0 -42 -21 -77t-56 -56t-78 -21zM250 469q31 0 56.5 15t41 40.5t15.5 56.5q0 38 -25.5 65t-62.5 27q-31 0 -56.5 -15t-41 -40.5t-15.5 -56.5q0 -38 25.5 -65
t62.5 -27z" />
    <glyph glyph-name="plusminus" unicode="&#xb1;" 
d="M59 -1l9 41h377l-9 -41h-377zM262 162l40 186h-169l9 40h168l39 183h41l-39 -183h168l-9 -40h-167l-40 -186h-41z" />
    <glyph glyph-name="twosuperior" unicode="&#xb2;" horiz-adv-x="279" 
d="M48 350l7 28l178 145q34 28 48 49t14 45q0 25 -19.5 40t-51.5 15q-23 0 -45.5 -9t-51.5 -30l-22 26q32 23 61 34.5t58 11.5q47 0 76.5 -24.5t29.5 -63.5q0 -31 -17.5 -58.5t-57.5 -59.5l-144 -116h175l-6 -33h-232z" />
    <glyph glyph-name="threesuperior" unicode="&#xb3;" horiz-adv-x="299" 
d="M181 345q-42 0 -73.5 15t-54.5 44l28 22q17 -24 42.5 -36t59.5 -12q40 0 67 20.5t27 51.5q0 27 -21 44t-55 17h-28l6 31h27q40 0 66.5 20t26.5 50q0 27 -20.5 43.5t-53.5 16.5q-48 0 -96 -37l-18 27q28 21 58 32t60 11q46 0 75.5 -25.5t29.5 -63.5q0 -31 -20.5 -55
t-56.5 -35q26 -10 40.5 -29t14.5 -45q0 -30 -17.5 -54.5t-47 -38.5t-66.5 -14z" />
    <glyph glyph-name="acute" unicode="&#xb4;" 
d="M347 596l117 110h68l-139 -110h-46z" />
    <glyph glyph-name="uni00B5" unicode="&#xb5;" horiz-adv-x="523" 
d="M-26 -204l147 696h43l-65 -309q-10 -70 24.5 -111t100.5 -41q47 0 89 22t71 60l81 379h43l-105 -492h-43l12 58q-66 -68 -156 -68q-49 0 -85.5 22t-54.5 61l-59 -277h-43z" />
    <glyph glyph-name="paragraph" unicode="&#xb6;" horiz-adv-x="616" 
d="M263 0l66 309h-34q-61 0 -105.5 20.5t-69 59.5t-24.5 93q0 63 30.5 112.5t85.5 77.5t127 28h293l-149 -700h-45l66 309h-130l-66 -309h-45zM384 352h129l65 305h-129zM294 352h45l65 305h-65q-58 0 -102.5 -22.5t-69.5 -61.5t-25 -89q0 -64 40.5 -98t111.5 -34z" />
    <glyph glyph-name="periodcentered" unicode="&#xb7;" horiz-adv-x="250" 
d="M124 242q-13 0 -23 10t-10 25q0 12 5.5 21t15 14.5t20.5 5.5q14 0 23.5 -10t9.5 -24q0 -12 -5.5 -21.5t-14.5 -15t-21 -5.5z" />
    <glyph glyph-name="cedilla" unicode="&#xb8;" 
d="M201 -224q-32 0 -60 12t-44 32l26 23q33 -36 78 -36q37 0 57 16.5t20 41.5q0 23 -19 34.5t-48 11.5h-24l43 89h32l-29 -60q39 -4 59 -22.5t20 -47.5q0 -28 -14.5 -49t-39.5 -33t-57 -12z" />
    <glyph glyph-name="onesuperior" unicode="&#xb9;" horiz-adv-x="148" 
d="M103 350l65 307l-65 -26l9 38l76 31h24l-74 -350h-35z" />
    <glyph glyph-name="ordmasculine" unicode="&#xba;" horiz-adv-x="446" 
d="M268 325q-46 0 -84.5 24t-61.5 64t-23 89q0 58 26.5 105t71 75.5t98.5 28.5q47 0 85 -24t61 -64t23 -89q0 -57 -26.5 -104.5t-71 -76t-98.5 -28.5zM270 363q43 0 78 23t56 61.5t21 85.5q0 39 -17.5 70.5t-47.5 50.5t-66 19q-43 0 -78.5 -23t-56.5 -61.5t-21 -85.5
q0 -39 18 -71t48 -50.5t66 -18.5z" />
    <glyph glyph-name="guillemotright" unicode="&#xbb;" horiz-adv-x="555" 
d="M191 0l280 250l-171 242h46l174 -246l-275 -246h-54zM0 0l280 250l-171 242h46l174 -246l-275 -246h-54z" />
    <glyph glyph-name="onequarter" unicode="&#xbc;" horiz-adv-x="575" 
d="M422 0l20 93h-196l6 28l241 229h40l-49 -224h42l-7 -33h-42l-20 -93h-35zM306 126h143l38 172zM103 350l65 307l-65 -26l9 38l76 31h24l-74 -350h-35zM-8 0l531 700h46l-531 -700h-46z" />
    <glyph glyph-name="onehalf" unicode="&#xbd;" horiz-adv-x="611" 
d="M103 350l65 307l-65 -26l9 38l76 31h24l-74 -350h-35zM-16 0l531 700h46l-531 -700h-46zM301 0l7 28l178 145q34 28 48 49t14 45q0 25 -19.5 40t-51.5 15q-23 0 -45.5 -9t-51.5 -30l-22 26q32 23 61 34.5t58 11.5q47 0 76.5 -24.5t29.5 -63.5q0 -31 -17.5 -58.5
t-57.5 -59.5l-144 -116h175l-6 -33h-232z" />
    <glyph glyph-name="threequarters" unicode="&#xbe;" horiz-adv-x="669" 
d="M181 345q-42 0 -73.5 15t-54.5 44l28 22q17 -24 42.5 -36t59.5 -12q40 0 67 20.5t27 51.5q0 27 -21 44t-55 17h-28l6 31h27q40 0 66.5 20t26.5 50q0 27 -20.5 43.5t-53.5 16.5q-48 0 -96 -37l-18 27q28 21 58 32t60 11q46 0 75.5 -25.5t29.5 -63.5q0 -31 -20.5 -55
t-56.5 -35q26 -10 40.5 -29t14.5 -45q0 -30 -17.5 -54.5t-47 -38.5t-66.5 -14zM516 0l20 93h-196l6 28l241 229h40l-49 -224h42l-7 -33h-42l-20 -93h-35zM400 126h143l38 172zM85 0l531 700h46l-531 -700h-46z" />
    <glyph glyph-name="questiondown" unicode="&#xbf;" horiz-adv-x="487" 
d="M313 304q-6 -46 -20.5 -81.5t-39 -62.5t-60.5 -48l-68 -39q-49 -28 -73 -63t-24 -76q0 -47 39 -76.5t102 -29.5q47 0 95 20t94 59l28 -32q-51 -43 -106.5 -66t-110.5 -23q-54 0 -95.5 19t-65.5 52.5t-24 76.5q0 53 30.5 97t88.5 78l68 39q44 26 68.5 62.5t33.5 93.5h40z
M328 502q14 0 23.5 -10t9.5 -24q0 -11 -5.5 -20.5t-14.5 -15t-21 -5.5q-13 0 -23 10t-10 24q0 12 5.5 21t15 14.5t20.5 5.5z" />
    <glyph glyph-name="Agrave" unicode="&#xc0;" horiz-adv-x="642" 
d="M-44 0l431 700h59l137 -700h-45l-46 237h-340l-145 -237h-51zM177 278h307l-74 381zM419 804l-116 110h65l93 -110h-42z" />
    <glyph glyph-name="Aacute" unicode="&#xc1;" horiz-adv-x="642" 
d="M-44 0l431 700h59l137 -700h-45l-46 237h-340l-145 -237h-51zM177 278h307l-74 381zM412 804l117 110h68l-139 -110h-46z" />
    <glyph glyph-name="Acircumflex" unicode="&#xc2;" horiz-adv-x="642" 
d="M-44 0l431 700h59l137 -700h-45l-46 237h-340l-145 -237h-51zM177 278h307l-74 381zM316 799l122 115h52l72 -115h-35l-67 83l-105 -83h-39z" />
    <glyph glyph-name="Atilde" unicode="&#xc3;" horiz-adv-x="642" 
d="M-44 0l431 700h59l137 -700h-45l-46 237h-340l-145 -237h-51zM177 278h307l-74 381zM326 806l-37 10q39 81 92 81q27 0 50 -14.5t45 -28.5t43 -14q17 0 28.5 12.5t24.5 40.5l37 -10q-19 -43 -42 -62t-52 -19q-26 0 -49.5 14t-45 28t-42.5 14q-16 0 -28 -12t-24 -40z" />
    <glyph glyph-name="Adieresis" unicode="&#xc4;" horiz-adv-x="642" 
d="M-44 0l431 700h59l137 -700h-45l-46 237h-340l-145 -237h-51zM177 278h307l-74 381zM367 811q-13 0 -23 10t-10 25q0 17 12 29t29 12q14 0 23.5 -10t9.5 -24q0 -18 -12 -30t-29 -12zM524 811q-13 0 -23 10t-10 25q0 17 12 29t29 12q14 0 23.5 -10t9.5 -24q0 -18 -12 -30
t-29 -12z" />
    <glyph glyph-name="Aring" unicode="&#xc5;" horiz-adv-x="642" 
d="M-44 0l431 700h59l137 -700h-45l-46 237h-340l-145 -237h-51zM177 278h307l-74 381zM444 789q-39 0 -66.5 27.5t-27.5 66.5q0 33 15.5 60t42 43t57.5 16q39 0 67 -27.5t28 -66.5q0 -33 -15.5 -60t-42 -43t-58.5 -16zM446 822q34 0 57.5 25t23.5 59q0 26 -18.5 44.5
t-44.5 18.5q-34 0 -57.5 -24.5t-23.5 -59.5q0 -26 18.5 -44.5t44.5 -18.5z" />
    <glyph glyph-name="AE" unicode="&#xc6;" horiz-adv-x="920" 
d="M-44 0l431 700h596l-9 -43h-520l56 -282h265l-9 -43h-248l57 -289h272l-9 -43h-300l-46 237h-340l-145 -237h-51zM177 278h307l-74 381z" />
    <glyph glyph-name="Ccedilla" unicode="&#xc7;" horiz-adv-x="710" 
d="M349 -224q-32 0 -60 12t-44 32l26 23q33 -36 78 -36q37 0 57 16.5t20 41.5q0 23 -19 34.5t-48 11.5h-24l38 79q-87 5 -155.5 49.5t-108.5 117.5t-40 163q0 81 30 151.5t82 124.5t119.5 84.5t143.5 30.5q83 0 153 -31.5t115 -90.5l-34 -26q-40 50 -100.5 77.5t-136.5 27.5
q-68 0 -127 -27.5t-104 -75.5t-70 -110.5t-25 -132.5q0 -78 35 -144t98.5 -106t148.5 -40q65 0 127 23.5t112 67.5l28 -34q-52 -46 -120 -72t-139 -28l-24 -49q39 -4 59 -22.5t20 -47.5q0 -28 -14.5 -49t-39.5 -33t-57 -12z" />
    <glyph glyph-name="Egrave" unicode="&#xc8;" horiz-adv-x="590" 
d="M29 0l149 700h475l-9 -43h-430l-60 -282h281l-9 -43h-281l-62 -289h434l-9 -43h-479zM393 804l-116 110h65l93 -110h-42z" />
    <glyph glyph-name="Eacute" unicode="&#xc9;" horiz-adv-x="590" 
d="M29 0l149 700h475l-9 -43h-430l-60 -282h281l-9 -43h-281l-62 -289h434l-9 -43h-479zM386 804l117 110h68l-139 -110h-46z" />
    <glyph glyph-name="Ecircumflex" unicode="&#xca;" horiz-adv-x="590" 
d="M29 0l149 700h475l-9 -43h-430l-60 -282h281l-9 -43h-281l-62 -289h434l-9 -43h-479zM290 799l122 115h52l72 -115h-35l-67 83l-105 -83h-39z" />
    <glyph glyph-name="Edieresis" unicode="&#xcb;" horiz-adv-x="590" 
d="M29 0l149 700h475l-9 -43h-430l-60 -282h281l-9 -43h-281l-62 -289h434l-9 -43h-479zM341 811q-13 0 -23 10t-10 25q0 17 12 29t29 12q14 0 23.5 -10t9.5 -24q0 -18 -12 -30t-29 -12zM498 811q-13 0 -23 10t-10 25q0 17 12 29t29 12q14 0 23.5 -10t9.5 -24q0 -18 -12 -30
t-29 -12z" />
    <glyph glyph-name="Igrave" unicode="&#xcc;" horiz-adv-x="207" 
d="M29 0l149 700h45l-149 -700h-45zM202 804l-116 110h65l93 -110h-42z" />
    <glyph glyph-name="Iacute" unicode="&#xcd;" horiz-adv-x="207" 
d="M29 0l149 700h45l-149 -700h-45zM195 804l117 110h68l-139 -110h-46z" />
    <glyph glyph-name="Icircumflex" unicode="&#xce;" horiz-adv-x="207" 
d="M29 0l149 700h45l-149 -700h-45zM99 799l122 115h52l72 -115h-35l-67 83l-105 -83h-39z" />
    <glyph glyph-name="Idieresis" unicode="&#xcf;" horiz-adv-x="207" 
d="M29 0l149 700h45l-149 -700h-45zM150 811q-13 0 -23 10t-10 25q0 17 12 29t29 12q14 0 23.5 -10t9.5 -24q0 -18 -12 -30t-29 -12zM307 811q-13 0 -23 10t-10 25q0 17 12 29t29 12q14 0 23.5 -10t9.5 -24q0 -18 -12 -30t-29 -12z" />
    <glyph glyph-name="Eth" unicode="&#xd0;" horiz-adv-x="699" 
d="M29 0l71 334h-70l8 41h71l69 325h185q72 0 130 -21.5t99.5 -62t63.5 -97.5t22 -127q0 -83 -31.5 -154t-87 -124.5t-130.5 -83.5t-162 -30h-238zM83 43h192q74 0 139 27t114 75.5t76.5 112t27.5 136.5q0 80 -33 139t-93 91.5t-141 32.5h-151l-60 -282h202l-8 -41h-203z
" />
    <glyph glyph-name="Ntilde" unicode="&#xd1;" horiz-adv-x="699" 
d="M29 0l149 700h45l316 -624l133 624h43l-149 -700h-35l-323 638l-136 -638h-43zM355 806l-37 10q39 81 92 81q27 0 50 -14.5t45 -28.5t43 -14q17 0 28.5 12.5t24.5 40.5l37 -10q-19 -43 -42 -62t-52 -19q-26 0 -49.5 14t-45 28t-42.5 14q-16 0 -28 -12t-24 -40z" />
    <glyph glyph-name="Ograve" unicode="&#xd2;" horiz-adv-x="793" 
d="M388 -11q-69 0 -127 24.5t-101.5 68.5t-67.5 103.5t-24 128.5q0 80 30.5 152t83.5 127t122 86.5t146 31.5q69 0 127 -24.5t101.5 -68.5t67.5 -103.5t24 -128.5q0 -79 -30 -150.5t-83 -127t-122 -87.5t-147 -32zM391 32q69 0 129.5 28t106 77t71.5 112.5t26 134.5
q0 77 -34 141.5t-96 103.5t-147 39q-69 0 -129.5 -28t-106 -77t-71.5 -112.5t-26 -134.5q0 -77 34 -141.5t96 -103.5t147 -39zM495 804l-116 110h65l93 -110h-42z" />
    <glyph glyph-name="Oacute" unicode="&#xd3;" horiz-adv-x="793" 
d="M388 -11q-69 0 -127 24.5t-101.5 68.5t-67.5 103.5t-24 128.5q0 80 30.5 152t83.5 127t122 86.5t146 31.5q69 0 127 -24.5t101.5 -68.5t67.5 -103.5t24 -128.5q0 -79 -30 -150.5t-83 -127t-122 -87.5t-147 -32zM391 32q69 0 129.5 28t106 77t71.5 112.5t26 134.5
q0 77 -34 141.5t-96 103.5t-147 39q-69 0 -129.5 -28t-106 -77t-71.5 -112.5t-26 -134.5q0 -77 34 -141.5t96 -103.5t147 -39zM488 804l117 110h68l-139 -110h-46z" />
    <glyph glyph-name="Ocircumflex" unicode="&#xd4;" horiz-adv-x="793" 
d="M388 -11q-69 0 -127 24.5t-101.5 68.5t-67.5 103.5t-24 128.5q0 80 30.5 152t83.5 127t122 86.5t146 31.5q69 0 127 -24.5t101.5 -68.5t67.5 -103.5t24 -128.5q0 -79 -30 -150.5t-83 -127t-122 -87.5t-147 -32zM391 32q69 0 129.5 28t106 77t71.5 112.5t26 134.5
q0 77 -34 141.5t-96 103.5t-147 39q-69 0 -129.5 -28t-106 -77t-71.5 -112.5t-26 -134.5q0 -77 34 -141.5t96 -103.5t147 -39zM392 799l122 115h52l72 -115h-35l-67 83l-105 -83h-39z" />
    <glyph glyph-name="Otilde" unicode="&#xd5;" horiz-adv-x="793" 
d="M388 -11q-69 0 -127 24.5t-101.5 68.5t-67.5 103.5t-24 128.5q0 80 30.5 152t83.5 127t122 86.5t146 31.5q69 0 127 -24.5t101.5 -68.5t67.5 -103.5t24 -128.5q0 -79 -30 -150.5t-83 -127t-122 -87.5t-147 -32zM391 32q69 0 129.5 28t106 77t71.5 112.5t26 134.5
q0 77 -34 141.5t-96 103.5t-147 39q-69 0 -129.5 -28t-106 -77t-71.5 -112.5t-26 -134.5q0 -77 34 -141.5t96 -103.5t147 -39zM402 806l-37 10q39 81 92 81q27 0 50 -14.5t45 -28.5t43 -14q17 0 28.5 12.5t24.5 40.5l37 -10q-19 -43 -42 -62t-52 -19q-26 0 -49.5 14t-45 28
t-42.5 14q-16 0 -28 -12t-24 -40z" />
    <glyph glyph-name="Odieresis" unicode="&#xd6;" horiz-adv-x="793" 
d="M388 -11q-69 0 -127 24.5t-101.5 68.5t-67.5 103.5t-24 128.5q0 80 30.5 152t83.5 127t122 86.5t146 31.5q69 0 127 -24.5t101.5 -68.5t67.5 -103.5t24 -128.5q0 -79 -30 -150.5t-83 -127t-122 -87.5t-147 -32zM391 32q69 0 129.5 28t106 77t71.5 112.5t26 134.5
q0 77 -34 141.5t-96 103.5t-147 39q-69 0 -129.5 -28t-106 -77t-71.5 -112.5t-26 -134.5q0 -77 34 -141.5t96 -103.5t147 -39zM443 811q-13 0 -23 10t-10 25q0 17 12 29t29 12q14 0 23.5 -10t9.5 -24q0 -18 -12 -30t-29 -12zM600 811q-13 0 -23 10t-10 25q0 17 12 29t29 12
q14 0 23.5 -10t9.5 -24q0 -18 -12 -30t-29 -12z" />
    <glyph glyph-name="multiply" unicode="&#xd7;" 
d="M137 174l-26 30l185 158l-115 160l33 24l113 -157l184 157l26 -30l-186 -159l114 -159l-33 -24l-113 156z" />
    <glyph glyph-name="Oslash" unicode="&#xd8;" horiz-adv-x="793" 
d="M388 -11q-65 0 -121 22t-98 62l-75 -73h-63l108 106q-34 41 -52.5 94t-18.5 114q0 80 30.5 152t83.5 127t122 86.5t146 31.5q65 0 121 -22t98 -62l75 73h63l-108 -106q34 -41 52.5 -94t18.5 -114q0 -79 -30 -150.5t-83 -127t-122 -87.5t-147 -32zM171 137l467 459
q-36 33 -84 52.5t-107 19.5q-69 0 -129.5 -28t-106 -77t-71.5 -112.5t-26 -134.5q0 -50 14.5 -95.5t42.5 -83.5zM391 32q69 0 129.5 28t106 77t71.5 112.5t26 134.5q0 50 -14.5 96t-42.5 83l-467 -459q36 -33 84.5 -52.5t106.5 -19.5z" />
    <glyph glyph-name="Ugrave" unicode="&#xd9;" horiz-adv-x="680" 
d="M314 -11q-81 0 -142 36t-88 104t-7 163l87 408h45l-86 -403q-18 -85 2 -144t69 -90t119 -31q101 0 170.5 69.5t95.5 193.5l86 405h45l-86 -405q-20 -96 -62 -164.5t-104 -105t-144 -36.5zM438 804l-116 110h65l93 -110h-42z" />
    <glyph glyph-name="Uacute" unicode="&#xda;" horiz-adv-x="680" 
d="M314 -11q-81 0 -142 36t-88 104t-7 163l87 408h45l-86 -403q-18 -85 2 -144t69 -90t119 -31q101 0 170.5 69.5t95.5 193.5l86 405h45l-86 -405q-20 -96 -62 -164.5t-104 -105t-144 -36.5zM431 804l117 110h68l-139 -110h-46z" />
    <glyph glyph-name="Ucircumflex" unicode="&#xdb;" horiz-adv-x="680" 
d="M314 -11q-81 0 -142 36t-88 104t-7 163l87 408h45l-86 -403q-18 -85 2 -144t69 -90t119 -31q101 0 170.5 69.5t95.5 193.5l86 405h45l-86 -405q-20 -96 -62 -164.5t-104 -105t-144 -36.5zM335 799l122 115h52l72 -115h-35l-67 83l-105 -83h-39z" />
    <glyph glyph-name="Udieresis" unicode="&#xdc;" horiz-adv-x="680" 
d="M314 -11q-81 0 -142 36t-88 104t-7 163l87 408h45l-86 -403q-18 -85 2 -144t69 -90t119 -31q101 0 170.5 69.5t95.5 193.5l86 405h45l-86 -405q-20 -96 -62 -164.5t-104 -105t-144 -36.5zM386 811q-13 0 -23 10t-10 25q0 17 12 29t29 12q14 0 23.5 -10t9.5 -24
q0 -18 -12 -30t-29 -12zM543 811q-13 0 -23 10t-10 25q0 17 12 29t29 12q14 0 23.5 -10t9.5 -24q0 -18 -12 -30t-29 -12z" />
    <glyph glyph-name="Yacute" unicode="&#xdd;" horiz-adv-x="597" 
d="M223 0l62 292l-181 408h48l162 -367l317 367h57l-359 -412l-61 -288h-45zM390 804l117 110h68l-139 -110h-46z" />
    <glyph glyph-name="Thorn" unicode="&#xde;" horiz-adv-x="620" 
d="M29 0l149 700h45l-31 -145h212q61 0 105.5 -20.5t69 -59t24.5 -93.5q0 -63 -30.5 -112t-85 -77.5t-127.5 -28.5h-251l-35 -164h-45zM118 207h242q59 0 103 22.5t69 62t25 88.5q0 65 -40.5 98.5t-111.5 33.5h-222z" />
    <glyph glyph-name="germandbls" unicode="&#xdf;" horiz-adv-x="567" 
d="M352 -10q-56 0 -101.5 20t-70.5 55l36 24q19 -27 54.5 -42t81.5 -15q57 0 93.5 28t36.5 72q0 32 -17 52.5t-58 37.5l-63 27q-34 15 -51.5 40.5t-17.5 59.5q0 33 16 55.5t41 38.5t53 29.5t53 29t41 36t16 51.5q0 32 -16 56.5t-43 38.5t-62 14q-81 0 -132 -45t-70 -134
l-111 -519h-45l112 527q22 104 85.5 158.5t160.5 54.5q47 0 84.5 -20t59 -54t21.5 -77q0 -38 -16 -64t-41 -44t-53 -32t-53 -28t-41 -31t-16 -41q0 -23 10.5 -37.5t32.5 -24.5l63 -27q53 -23 77 -53t24 -75q0 -41 -22.5 -73t-62 -50.5t-89.5 -18.5z" />
    <glyph glyph-name="agrave" unicode="&#xe0;" horiz-adv-x="489" 
d="M187 -10q-75 0 -121 38t-46 102q0 49 25.5 84.5t70.5 55t101 19.5q47 0 91 -15t76 -41l17 81q15 71 -13.5 110t-102.5 39q-38 0 -76 -10.5t-85 -31.5l-15 38q51 23 92 33t80 10q58 0 99.5 -20.5t59.5 -61t5 -102.5l-68 -318h-43l9 43q-34 -25 -73 -39t-83 -14zM195 29
q46 0 85 16t74 47l21 100q-61 59 -162 59q-65 0 -107.5 -31.5t-42.5 -87.5q0 -45 33.5 -74t98.5 -29zM283 596l-116 110h65l93 -110h-42z" />
    <glyph glyph-name="aacute" unicode="&#xe1;" horiz-adv-x="489" 
d="M187 -10q-75 0 -121 38t-46 102q0 49 25.5 84.5t70.5 55t101 19.5q47 0 91 -15t76 -41l17 81q15 71 -13.5 110t-102.5 39q-38 0 -76 -10.5t-85 -31.5l-15 38q51 23 92 33t80 10q58 0 99.5 -20.5t59.5 -61t5 -102.5l-68 -318h-43l9 43q-34 -25 -73 -39t-83 -14zM195 29
q46 0 85 16t74 47l21 100q-61 59 -162 59q-65 0 -107.5 -31.5t-42.5 -87.5q0 -45 33.5 -74t98.5 -29zM276 596l117 110h68l-139 -110h-46z" />
    <glyph glyph-name="acircumflex" unicode="&#xe2;" horiz-adv-x="489" 
d="M187 -10q-75 0 -121 38t-46 102q0 49 25.5 84.5t70.5 55t101 19.5q47 0 91 -15t76 -41l17 81q15 71 -13.5 110t-102.5 39q-38 0 -76 -10.5t-85 -31.5l-15 38q51 23 92 33t80 10q58 0 99.5 -20.5t59.5 -61t5 -102.5l-68 -318h-43l9 43q-34 -25 -73 -39t-83 -14zM195 29
q46 0 85 16t74 47l21 100q-61 59 -162 59q-65 0 -107.5 -31.5t-42.5 -87.5q0 -45 33.5 -74t98.5 -29zM180 591l122 115h52l72 -115h-35l-67 83l-105 -83h-39z" />
    <glyph glyph-name="atilde" unicode="&#xe3;" horiz-adv-x="489" 
d="M187 -10q-75 0 -121 38t-46 102q0 49 25.5 84.5t70.5 55t101 19.5q47 0 91 -15t76 -41l17 81q15 71 -13.5 110t-102.5 39q-38 0 -76 -10.5t-85 -31.5l-15 38q51 23 92 33t80 10q58 0 99.5 -20.5t59.5 -61t5 -102.5l-68 -318h-43l9 43q-34 -25 -73 -39t-83 -14zM195 29
q46 0 85 16t74 47l21 100q-61 59 -162 59q-65 0 -107.5 -31.5t-42.5 -87.5q0 -45 33.5 -74t98.5 -29zM190 598l-37 10q39 81 92 81q27 0 50 -14.5t45 -28.5t43 -14q17 0 28.5 12.5t24.5 40.5l37 -10q-19 -43 -42 -62t-52 -19q-26 0 -49.5 14t-45 28t-42.5 14q-16 0 -28 -12
t-24 -40z" />
    <glyph glyph-name="adieresis" unicode="&#xe4;" horiz-adv-x="489" 
d="M187 -10q-75 0 -121 38t-46 102q0 49 25.5 84.5t70.5 55t101 19.5q47 0 91 -15t76 -41l17 81q15 71 -13.5 110t-102.5 39q-38 0 -76 -10.5t-85 -31.5l-15 38q51 23 92 33t80 10q58 0 99.5 -20.5t59.5 -61t5 -102.5l-68 -318h-43l9 43q-34 -25 -73 -39t-83 -14zM195 29
q46 0 85 16t74 47l21 100q-61 59 -162 59q-65 0 -107.5 -31.5t-42.5 -87.5q0 -45 33.5 -74t98.5 -29zM231 603q-13 0 -23 10t-10 25q0 17 12 29t29 12q14 0 23.5 -10t9.5 -24q0 -18 -12 -30t-29 -12zM388 603q-13 0 -23 10t-10 25q0 17 12 29t29 12q14 0 23.5 -10t9.5 -24
q0 -18 -12 -30t-29 -12z" />
    <glyph glyph-name="aring" unicode="&#xe5;" horiz-adv-x="489" 
d="M187 -10q-75 0 -121 38t-46 102q0 49 25.5 84.5t70.5 55t101 19.5q47 0 91 -15t76 -41l17 81q15 71 -13.5 110t-102.5 39q-38 0 -76 -10.5t-85 -31.5l-15 38q51 23 92 33t80 10q58 0 99.5 -20.5t59.5 -61t5 -102.5l-68 -318h-43l9 43q-34 -25 -73 -39t-83 -14zM195 29
q46 0 85 16t74 47l21 100q-61 59 -162 59q-65 0 -107.5 -31.5t-42.5 -87.5q0 -45 33.5 -74t98.5 -29zM308 581q-39 0 -66.5 27.5t-27.5 66.5q0 33 15.5 60t42 43t57.5 16q39 0 67 -27.5t28 -66.5q0 -33 -15.5 -60t-42 -43t-58.5 -16zM310 614q34 0 57.5 25t23.5 59
q0 26 -18.5 44.5t-44.5 18.5q-34 0 -57.5 -24.5t-23.5 -59.5q0 -26 18.5 -44.5t44.5 -18.5z" />
    <glyph glyph-name="ae" unicode="&#xe6;" horiz-adv-x="866" 
d="M187 -10q-75 0 -121 38t-46 102q0 49 25.5 84.5t70.5 55t101 19.5q86 0 150 -44l14 69q14 71 -13.5 110t-100.5 39q-38 0 -76 -10.5t-85 -31.5l-15 38q51 23 92 33t80 10q65 0 108.5 -26.5t53.5 -80.5q37 49 90.5 78t115.5 29q58 0 102 -29t69 -79t25 -114q0 -5 -1 -22.5
t-2 -23.5h-412q-2 -58 20.5 -104t63.5 -72t94 -26q39 0 76.5 12t70.5 32l24 -36q-37 -24 -82.5 -37t-90.5 -13q-55 0 -102 26t-77 69q-46 -47 -103.5 -71t-118.5 -24zM418 276h366q3 50 -16 91.5t-55 67t-86 25.5t-93.5 -24t-73.5 -65.5t-42 -94.5zM195 29q56 0 104.5 23
t91.5 65q-9 18 -14.5 38.5t-7.5 42.5q-30 26 -69.5 39.5t-86.5 13.5q-65 0 -107.5 -31.5t-42.5 -87.5q0 -45 33.5 -74t98.5 -29z" />
    <glyph glyph-name="ccedilla" unicode="&#xe7;" horiz-adv-x="493" 
d="M216 -224q-32 0 -60 12t-44 32l26 23q33 -36 78 -36q37 0 57 16.5t20 41.5q0 23 -19 34.5t-48 11.5h-24l39 80q-56 5 -101 35.5t-71 81t-26 111.5q0 57 21.5 108t59 90.5t86 62t102.5 22.5q52 0 101 -25.5t82 -69.5l-33 -29q-27 38 -67.5 60t-86.5 22q-44 0 -83.5 -19.5
t-70.5 -53t-49 -77t-18 -91.5q0 -53 22.5 -95.5t62.5 -67t90 -24.5q35 0 72.5 14t76.5 42l26 -36q-80 -57 -165 -62l-24 -50q39 -4 59 -22.5t20 -47.5q0 -28 -14.5 -49t-39.5 -33t-57 -12z" />
    <glyph glyph-name="egrave" unicode="&#xe8;" horiz-adv-x="539" 
d="M263 -10q-60 0 -110 30.5t-80 82.5t-30 116q0 59 20.5 110t56.5 90t84 61t102 22q58 0 102 -29t69 -79t25 -114q0 -5 -1 -22.5t-2 -23.5h-412q-2 -58 20.5 -104t63.5 -72t94 -26q39 0 76.5 12t70.5 32l24 -36q-37 -24 -82.5 -37t-90.5 -13zM93 276h366q2 50 -16.5 91.5
t-54.5 67t-86 25.5q-51 0 -94 -24t-73 -65.5t-42 -94.5zM309 596l-116 110h65l93 -110h-42z" />
    <glyph glyph-name="eacute" unicode="&#xe9;" horiz-adv-x="539" 
d="M263 -10q-60 0 -110 30.5t-80 82.5t-30 116q0 59 20.5 110t56.5 90t84 61t102 22q58 0 102 -29t69 -79t25 -114q0 -5 -1 -22.5t-2 -23.5h-412q-2 -58 20.5 -104t63.5 -72t94 -26q39 0 76.5 12t70.5 32l24 -36q-37 -24 -82.5 -37t-90.5 -13zM93 276h366q2 50 -16.5 91.5
t-54.5 67t-86 25.5q-51 0 -94 -24t-73 -65.5t-42 -94.5zM302 596l117 110h68l-139 -110h-46z" />
    <glyph glyph-name="ecircumflex" unicode="&#xea;" horiz-adv-x="539" 
d="M263 -10q-60 0 -110 30.5t-80 82.5t-30 116q0 59 20.5 110t56.5 90t84 61t102 22q58 0 102 -29t69 -79t25 -114q0 -5 -1 -22.5t-2 -23.5h-412q-2 -58 20.5 -104t63.5 -72t94 -26q39 0 76.5 12t70.5 32l24 -36q-37 -24 -82.5 -37t-90.5 -13zM93 276h366q2 50 -16.5 91.5
t-54.5 67t-86 25.5q-51 0 -94 -24t-73 -65.5t-42 -94.5zM206 591l122 115h52l72 -115h-35l-67 83l-105 -83h-39z" />
    <glyph glyph-name="edieresis" unicode="&#xeb;" horiz-adv-x="539" 
d="M263 -10q-60 0 -110 30.5t-80 82.5t-30 116q0 59 20.5 110t56.5 90t84 61t102 22q58 0 102 -29t69 -79t25 -114q0 -5 -1 -22.5t-2 -23.5h-412q-2 -58 20.5 -104t63.5 -72t94 -26q39 0 76.5 12t70.5 32l24 -36q-37 -24 -82.5 -37t-90.5 -13zM93 276h366q2 50 -16.5 91.5
t-54.5 67t-86 25.5q-51 0 -94 -24t-73 -65.5t-42 -94.5zM257 603q-13 0 -23 10t-10 25q0 17 12 29t29 12q14 0 23.5 -10t9.5 -24q0 -18 -12 -30t-29 -12zM414 603q-13 0 -23 10t-10 25q0 17 12 29t29 12q14 0 23.5 -10t9.5 -24q0 -18 -12 -30t-29 -12z" />
    <glyph glyph-name="igrave" unicode="&#xec;" horiz-adv-x="178" 
d="M16 0l105 492h43l-105 -492h-43zM143 596l-116 110h65l93 -110h-42z" />
    <glyph glyph-name="iacute" unicode="&#xed;" horiz-adv-x="178" 
d="M16 0l105 492h43l-105 -492h-43zM136 596l117 110h68l-139 -110h-46z" />
    <glyph glyph-name="icircumflex" unicode="&#xee;" horiz-adv-x="178" 
d="M16 0l105 492h43l-105 -492h-43zM40 591l122 115h52l72 -115h-35l-67 83l-105 -83h-39z" />
    <glyph glyph-name="idieresis" unicode="&#xef;" horiz-adv-x="178" 
d="M16 0l105 492h43l-105 -492h-43zM91 603q-13 0 -23 10t-10 25q0 17 12 29t29 12q14 0 23.5 -10t9.5 -24q0 -18 -12 -30t-29 -12zM248 603q-13 0 -23 10t-10 25q0 17 12 29t29 12q14 0 23.5 -10t9.5 -24q0 -18 -12 -30t-29 -12z" />
    <glyph glyph-name="eth" unicode="&#xf0;" horiz-adv-x="591" 
d="M260 -10q-64 0 -113 29.5t-76 79.5t-27 113q0 58 20.5 109t57 90t85 61t104.5 22q70 0 124 -37.5t74 -105.5q3 71 -13.5 131.5t-52.5 106.5l-115 -53l-14 38l102 47q-21 19 -47 35.5t-52 26.5l17 34q71 -28 120 -78l132 61l14 -38l-119 -55q69 -94 69 -222
q0 -89 -20.5 -162t-59 -125t-91.5 -80t-119 -28zM263 32q60 0 110.5 32.5t81 87t30.5 118.5q0 52 -21.5 93t-60.5 65t-93 24q-60 0 -110.5 -32.5t-81 -86.5t-30.5 -119q0 -51 21.5 -92.5t61 -65.5t92.5 -24z" />
    <glyph glyph-name="ntilde" unicode="&#xf1;" horiz-adv-x="519" 
d="M16 0l105 492h43l-12 -58q65 68 156 68q56 0 96 -25.5t57.5 -71.5t4.5 -108l-63 -297h-43l62 291q17 78 -17 124t-105 46q-47 0 -89 -21.5t-71 -59.5l-81 -380h-43zM220 598l-37 10q39 81 92 81q27 0 50 -14.5t45 -28.5t43 -14q17 0 28.5 12.5t24.5 40.5l37 -10
q-19 -43 -42 -62t-52 -19q-26 0 -49.5 14t-45 28t-42.5 14q-16 0 -28 -12t-24 -40z" />
    <glyph glyph-name="ograve" unicode="&#xf2;" horiz-adv-x="569" 
d="M258 -10q-60 0 -109 30.5t-77.5 82.5t-28.5 116q0 57 21.5 108t59 90.5t86 62t102.5 22.5q61 0 109.5 -30.5t77 -82.5t28.5 -116q0 -57 -21 -108.5t-58.5 -90.5t-86 -61.5t-103.5 -22.5zM262 32q44 0 83.5 19.5t70.5 53t49 77t18 91.5q0 54 -22.5 96t-62 66.5t-90.5 24.5
q-44 0 -83.5 -19.5t-70.5 -53t-49 -77t-18 -91.5q0 -53 22.5 -95.5t62.5 -67t90 -24.5zM321 596l-116 110h65l93 -110h-42z" />
    <glyph glyph-name="oacute" unicode="&#xf3;" horiz-adv-x="569" 
d="M258 -10q-60 0 -109 30.5t-77.5 82.5t-28.5 116q0 57 21.5 108t59 90.5t86 62t102.5 22.5q61 0 109.5 -30.5t77 -82.5t28.5 -116q0 -57 -21 -108.5t-58.5 -90.5t-86 -61.5t-103.5 -22.5zM262 32q44 0 83.5 19.5t70.5 53t49 77t18 91.5q0 54 -22.5 96t-62 66.5t-90.5 24.5
q-44 0 -83.5 -19.5t-70.5 -53t-49 -77t-18 -91.5q0 -53 22.5 -95.5t62.5 -67t90 -24.5zM314 596l117 110h68l-139 -110h-46z" />
    <glyph glyph-name="ocircumflex" unicode="&#xf4;" horiz-adv-x="569" 
d="M258 -10q-60 0 -109 30.5t-77.5 82.5t-28.5 116q0 57 21.5 108t59 90.5t86 62t102.5 22.5q61 0 109.5 -30.5t77 -82.5t28.5 -116q0 -57 -21 -108.5t-58.5 -90.5t-86 -61.5t-103.5 -22.5zM262 32q44 0 83.5 19.5t70.5 53t49 77t18 91.5q0 54 -22.5 96t-62 66.5t-90.5 24.5
q-44 0 -83.5 -19.5t-70.5 -53t-49 -77t-18 -91.5q0 -53 22.5 -95.5t62.5 -67t90 -24.5zM218 591l122 115h52l72 -115h-35l-67 83l-105 -83h-39z" />
    <glyph glyph-name="otilde" unicode="&#xf5;" horiz-adv-x="569" 
d="M258 -10q-60 0 -109 30.5t-77.5 82.5t-28.5 116q0 57 21.5 108t59 90.5t86 62t102.5 22.5q61 0 109.5 -30.5t77 -82.5t28.5 -116q0 -57 -21 -108.5t-58.5 -90.5t-86 -61.5t-103.5 -22.5zM262 32q44 0 83.5 19.5t70.5 53t49 77t18 91.5q0 54 -22.5 96t-62 66.5t-90.5 24.5
q-44 0 -83.5 -19.5t-70.5 -53t-49 -77t-18 -91.5q0 -53 22.5 -95.5t62.5 -67t90 -24.5zM228 598l-37 10q39 81 92 81q27 0 50 -14.5t45 -28.5t43 -14q17 0 28.5 12.5t24.5 40.5l37 -10q-19 -43 -42 -62t-52 -19q-26 0 -49.5 14t-45 28t-42.5 14q-16 0 -28 -12t-24 -40z" />
    <glyph glyph-name="odieresis" unicode="&#xf6;" horiz-adv-x="569" 
d="M258 -10q-60 0 -109 30.5t-77.5 82.5t-28.5 116q0 57 21.5 108t59 90.5t86 62t102.5 22.5q61 0 109.5 -30.5t77 -82.5t28.5 -116q0 -57 -21 -108.5t-58.5 -90.5t-86 -61.5t-103.5 -22.5zM262 32q44 0 83.5 19.5t70.5 53t49 77t18 91.5q0 54 -22.5 96t-62 66.5t-90.5 24.5
q-44 0 -83.5 -19.5t-70.5 -53t-49 -77t-18 -91.5q0 -53 22.5 -95.5t62.5 -67t90 -24.5zM269 603q-13 0 -23 10t-10 25q0 17 12 29t29 12q14 0 23.5 -10t9.5 -24q0 -18 -12 -30t-29 -12zM426 603q-13 0 -23 10t-10 25q0 17 12 29t29 12q14 0 23.5 -10t9.5 -24q0 -18 -12 -30
t-29 -12z" />
    <glyph glyph-name="divide" unicode="&#xf7;" 
d="M132 337l8 41h377l-8 -41h-377zM282 147q-13 0 -23 10t-10 24q0 17 12 29t29 12q14 0 23.5 -10t9.5 -24q0 -17 -12 -29t-29 -12zM356 492q-13 0 -23 10t-10 23q0 17 12 29t29 12q14 0 23.5 -9.5t9.5 -23.5q0 -17 -12 -29t-29 -12z" />
    <glyph glyph-name="oslash" unicode="&#xf8;" horiz-adv-x="568" 
d="M258 -10q-43 0 -80.5 16t-66.5 44l-51 -50h-56l82 80q-20 29 -31.5 64t-11.5 75q0 57 21.5 108t59 90.5t86 62t102.5 22.5q43 0 80.5 -15.5t65.5 -44.5l51 50h57l-82 -80q20 -28 31.5 -63.5t11.5 -75.5q0 -57 -21 -108.5t-58.5 -90.5t-86 -61.5t-103.5 -22.5zM117 110
l310 303q-22 22 -53 34.5t-66 12.5q-44 0 -83.5 -19.5t-70.5 -53t-49 -77t-18 -91.5q0 -31 8 -58.5t22 -50.5zM262 32q44 0 83.5 19.5t70.5 53t49 77t18 91.5q0 31 -8 59t-22 50l-311 -302q23 -22 53.5 -35t66.5 -13z" />
    <glyph glyph-name="ugrave" unicode="&#xf9;" horiz-adv-x="519" 
d="M212 -10q-55 0 -95.5 25.5t-57.5 72t-4 107.5l62 297h43l-62 -290q-16 -78 18 -124.5t104 -46.5q47 0 89 22t71 60l81 379h43l-105 -492h-43l12 58q-66 -68 -156 -68zM313 596l-116 110h65l93 -110h-42z" />
    <glyph glyph-name="uacute" unicode="&#xfa;" horiz-adv-x="519" 
d="M212 -10q-55 0 -95.5 25.5t-57.5 72t-4 107.5l62 297h43l-62 -290q-16 -78 18 -124.5t104 -46.5q47 0 89 22t71 60l81 379h43l-105 -492h-43l12 58q-66 -68 -156 -68zM306 596l117 110h68l-139 -110h-46z" />
    <glyph glyph-name="ucircumflex" unicode="&#xfb;" horiz-adv-x="519" 
d="M212 -10q-55 0 -95.5 25.5t-57.5 72t-4 107.5l62 297h43l-62 -290q-16 -78 18 -124.5t104 -46.5q47 0 89 22t71 60l81 379h43l-105 -492h-43l12 58q-66 -68 -156 -68zM210 591l122 115h52l72 -115h-35l-67 83l-105 -83h-39z" />
    <glyph glyph-name="udieresis" unicode="&#xfc;" horiz-adv-x="519" 
d="M212 -10q-55 0 -95.5 25.5t-57.5 72t-4 107.5l62 297h43l-62 -290q-16 -78 18 -124.5t104 -46.5q47 0 89 22t71 60l81 379h43l-105 -492h-43l12 58q-66 -68 -156 -68zM261 603q-13 0 -23 10t-10 25q0 17 12 29t29 12q14 0 23.5 -10t9.5 -24q0 -18 -12 -30t-29 -12z
M418 603q-13 0 -23 10t-10 25q0 17 12 29t29 12q14 0 23.5 -10t9.5 -24q0 -18 -12 -30t-29 -12z" />
    <glyph glyph-name="yacute" unicode="&#xfd;" horiz-adv-x="471" 
d="M-17 -214q-9 0 -20.5 1.5t-23.5 4.5l9 44q8 -3 19.5 -4.5t21.5 -1.5q31 0 58 19.5t52 57.5l60 95l-99 490h45l88 -438l275 438h49l-372 -590q-39 -61 -77 -88.5t-85 -27.5zM282 596l117 110h68l-139 -110h-46z" />
    <glyph glyph-name="thorn" unicode="&#xfe;" horiz-adv-x="560" 
d="M-27 -204l192 904l45 11l-54 -259q67 50 146 50q63 0 111.5 -29.5t76.5 -81t28 -117.5q0 -58 -21 -109.5t-58 -91t-85.5 -61.5t-104.5 -22q-54 0 -99.5 22t-74.5 60l-59 -276h-43zM295 460q-42 0 -81.5 -16.5t-70.5 -46.5l-57 -271q19 -41 64 -67.5t98 -26.5q63 0 114 32
t81.5 86.5t30.5 120.5q0 56 -23 98.5t-63 66.5t-93 24z" />
    <glyph glyph-name="ydieresis" unicode="&#xff;" horiz-adv-x="471" 
d="M-17 -214q-9 0 -20.5 1.5t-23.5 4.5l9 44q8 -3 19.5 -4.5t21.5 -1.5q31 0 58 19.5t52 57.5l60 95l-99 490h45l88 -438l275 438h49l-372 -590q-39 -61 -77 -88.5t-85 -27.5zM237 603q-13 0 -23 10t-10 25q0 17 12 29t29 12q14 0 23.5 -10t9.5 -24q0 -18 -12 -30t-29 -12z
M394 603q-13 0 -23 10t-10 25q0 17 12 29t29 12q14 0 23.5 -10t9.5 -24q0 -18 -12 -30t-29 -12z" />
    <glyph glyph-name="Amacron" unicode="&#x100;" horiz-adv-x="642" 
d="M-44 0l431 700h59l137 -700h-45l-46 237h-340l-145 -237h-51zM177 278h307l-74 381zM315 828l7 37h262l-8 -37h-261z" />
    <glyph glyph-name="amacron" unicode="&#x101;" horiz-adv-x="489" 
d="M187 -10q-75 0 -121 38t-46 102q0 49 25.5 84.5t70.5 55t101 19.5q47 0 91 -15t76 -41l17 81q15 71 -13.5 110t-102.5 39q-38 0 -76 -10.5t-85 -31.5l-15 38q51 23 92 33t80 10q58 0 99.5 -20.5t59.5 -61t5 -102.5l-68 -318h-43l9 43q-34 -25 -73 -39t-83 -14zM195 29
q46 0 85 16t74 47l21 100q-61 59 -162 59q-65 0 -107.5 -31.5t-42.5 -87.5q0 -45 33.5 -74t98.5 -29zM179 620l7 37h262l-8 -37h-261z" />
    <glyph glyph-name="Abreve" unicode="&#x102;" horiz-adv-x="642" 
d="M-44 0l431 700h59l137 -700h-45l-46 237h-340l-145 -237h-51zM177 278h307l-74 381zM448 795q-53 0 -89.5 32.5t-35.5 90.5l36 5q1 -48 26.5 -70t65.5 -22q78 0 118 91l35 -11q-22 -53 -62.5 -84.5t-93.5 -31.5z" />
    <glyph glyph-name="abreve" unicode="&#x103;" horiz-adv-x="489" 
d="M187 -10q-75 0 -121 38t-46 102q0 49 25.5 84.5t70.5 55t101 19.5q47 0 91 -15t76 -41l17 81q15 71 -13.5 110t-102.5 39q-38 0 -76 -10.5t-85 -31.5l-15 38q51 23 92 33t80 10q58 0 99.5 -20.5t59.5 -61t5 -102.5l-68 -318h-43l9 43q-34 -25 -73 -39t-83 -14zM195 29
q46 0 85 16t74 47l21 100q-61 59 -162 59q-65 0 -107.5 -31.5t-42.5 -87.5q0 -45 33.5 -74t98.5 -29zM312 587q-53 0 -89.5 32.5t-35.5 90.5l36 5q1 -48 26.5 -70t65.5 -22q78 0 118 91l35 -11q-22 -53 -62.5 -84.5t-93.5 -31.5z" />
    <glyph glyph-name="Aogonek" unicode="&#x104;" horiz-adv-x="642" 
d="M-44 0l431 700h59l137 -700q-81 -41 -110 -75.5t-29 -67.5q0 -20 15 -33t39 -13q25 0 49 11l4 -31q-13 -6 -27.5 -9.5t-31.5 -3.5q-39 0 -63 20t-24 53q0 41 35.5 81t98.5 68h-1l-46 237h-340l-145 -237h-51zM177 278h307l-74 381z" />
    <glyph glyph-name="aogonek" unicode="&#x105;" horiz-adv-x="489" 
d="M286 -222q-39 0 -63 20t-24 53q0 41 36 81t100 68h-1l9 43q-34 -25 -73 -39t-83 -14q-75 0 -121 38t-46 102q0 49 25.5 84.5t70.5 55t101 19.5q47 0 91 -15t76 -41l17 81q15 71 -13.5 110t-102.5 39q-38 0 -76 -10.5t-85 -31.5l-15 38q51 23 92 33t80 10q58 0 99.5 -20.5
t59.5 -61t5 -102.5l-68 -318q-81 -41 -110 -75.5t-29 -67.5q0 -20 15 -33t39 -13q25 0 49 11l4 -31q-13 -6 -27.5 -9.5t-31.5 -3.5zM195 29q46 0 85 16t74 47l21 100q-61 59 -162 59q-65 0 -107.5 -31.5t-42.5 -87.5q0 -45 33.5 -74t98.5 -29z" />
    <glyph glyph-name="Cacute" unicode="&#x106;" horiz-adv-x="710" 
d="M394 -11q-69 0 -128.5 25t-103.5 70t-68.5 105.5t-24.5 130.5q0 81 30 151.5t82 124.5t119.5 84.5t143.5 30.5q83 0 153 -31.5t115 -90.5l-34 -26q-40 50 -100.5 77.5t-136.5 27.5q-68 0 -127 -27.5t-104 -75.5t-70 -110.5t-25 -132.5q0 -78 35 -144t98.5 -106t148.5 -40
q65 0 127 23.5t112 67.5l28 -34q-55 -48 -125.5 -74t-144.5 -26zM446 804l117 110h68l-139 -110h-46z" />
    <glyph glyph-name="cacute" unicode="&#x107;" horiz-adv-x="493" 
d="M258 -10q-60 0 -109 30.5t-77.5 82.5t-28.5 116q0 57 21.5 108t59 90.5t86 62t102.5 22.5q52 0 101 -25.5t82 -69.5l-33 -29q-27 38 -67.5 60t-86.5 22q-44 0 -83.5 -19.5t-70.5 -53t-49 -77t-18 -91.5q0 -53 22.5 -95.5t62.5 -67t90 -24.5q35 0 72.5 14t76.5 42l26 -36
q-87 -62 -179 -62zM305 596l117 110h68l-139 -110h-46z" />
    <glyph glyph-name="Ccircumflex" unicode="&#x108;" horiz-adv-x="710" 
d="M394 -11q-69 0 -128.5 25t-103.5 70t-68.5 105.5t-24.5 130.5q0 81 30 151.5t82 124.5t119.5 84.5t143.5 30.5q83 0 153 -31.5t115 -90.5l-34 -26q-40 50 -100.5 77.5t-136.5 27.5q-68 0 -127 -27.5t-104 -75.5t-70 -110.5t-25 -132.5q0 -78 35 -144t98.5 -106t148.5 -40
q65 0 127 23.5t112 67.5l28 -34q-55 -48 -125.5 -74t-144.5 -26zM350 799l122 115h52l72 -115h-35l-67 83l-105 -83h-39z" />
    <glyph glyph-name="ccircumflex" unicode="&#x109;" horiz-adv-x="493" 
d="M258 -10q-60 0 -109 30.5t-77.5 82.5t-28.5 116q0 57 21.5 108t59 90.5t86 62t102.5 22.5q52 0 101 -25.5t82 -69.5l-33 -29q-27 38 -67.5 60t-86.5 22q-44 0 -83.5 -19.5t-70.5 -53t-49 -77t-18 -91.5q0 -53 22.5 -95.5t62.5 -67t90 -24.5q35 0 72.5 14t76.5 42l26 -36
q-87 -62 -179 -62zM209 591l122 115h52l72 -115h-35l-67 83l-105 -83h-39z" />
    <glyph glyph-name="Cdotaccent" unicode="&#x10a;" horiz-adv-x="710" 
d="M394 -11q-69 0 -128.5 25t-103.5 70t-68.5 105.5t-24.5 130.5q0 81 30 151.5t82 124.5t119.5 84.5t143.5 30.5q83 0 153 -31.5t115 -90.5l-34 -26q-40 50 -100.5 77.5t-136.5 27.5q-68 0 -127 -27.5t-104 -75.5t-70 -110.5t-25 -132.5q0 -78 35 -144t98.5 -106t148.5 -40
q65 0 127 23.5t112 67.5l28 -34q-55 -48 -125.5 -74t-144.5 -26zM479 811q-13 0 -23 10t-10 25q0 17 12 29t29 12q14 0 23.5 -10t9.5 -24q0 -18 -12 -30t-29 -12z" />
    <glyph glyph-name="cdotaccent" unicode="&#x10b;" horiz-adv-x="493" 
d="M258 -10q-60 0 -109 30.5t-77.5 82.5t-28.5 116q0 57 21.5 108t59 90.5t86 62t102.5 22.5q52 0 101 -25.5t82 -69.5l-33 -29q-27 38 -67.5 60t-86.5 22q-44 0 -83.5 -19.5t-70.5 -53t-49 -77t-18 -91.5q0 -53 22.5 -95.5t62.5 -67t90 -24.5q35 0 72.5 14t76.5 42l26 -36
q-87 -62 -179 -62zM338 603q-13 0 -23 10t-10 25q0 17 12 29t29 12q14 0 23.5 -10t9.5 -24q0 -18 -12 -30t-29 -12z" />
    <glyph glyph-name="Ccaron" unicode="&#x10c;" horiz-adv-x="710" 
d="M394 -11q-69 0 -128.5 25t-103.5 70t-68.5 105.5t-24.5 130.5q0 81 30 151.5t82 124.5t119.5 84.5t143.5 30.5q83 0 153 -31.5t115 -90.5l-34 -26q-40 50 -100.5 77.5t-136.5 27.5q-68 0 -127 -27.5t-104 -75.5t-70 -110.5t-25 -132.5q0 -78 35 -144t98.5 -106t148.5 -40
q65 0 127 23.5t112 67.5l28 -34q-55 -48 -125.5 -74t-144.5 -26zM446 802l-72 114h37l66 -83l101 83h42l-122 -114h-52z" />
    <glyph glyph-name="ccaron" unicode="&#x10d;" horiz-adv-x="493" 
d="M258 -10q-60 0 -109 30.5t-77.5 82.5t-28.5 116q0 57 21.5 108t59 90.5t86 62t102.5 22.5q52 0 101 -25.5t82 -69.5l-33 -29q-27 38 -67.5 60t-86.5 22q-44 0 -83.5 -19.5t-70.5 -53t-49 -77t-18 -91.5q0 -53 22.5 -95.5t62.5 -67t90 -24.5q35 0 72.5 14t76.5 42l26 -36
q-87 -62 -179 -62zM305 594l-72 114h37l66 -83l101 83h42l-122 -114h-52z" />
    <glyph glyph-name="Dcaron" unicode="&#x10e;" horiz-adv-x="699" 
d="M29 0l149 700h185q72 0 130 -21.5t99.5 -62t63.5 -97.5t22 -127q0 -83 -31.5 -154t-87 -124.5t-130.5 -83.5t-162 -30h-238zM83 43h192q74 0 139 27t114 75.5t76.5 112t27.5 136.5q0 80 -33 139t-93 91.5t-141 32.5h-151zM441 802l-72 114h37l66 -83l101 83h42l-122 -114
h-52z" />
    <glyph glyph-name="dcaron" unicode="&#x10f;" horiz-adv-x="641" 
d="M259 -10q-62 0 -111 29.5t-77 81.5t-28 117q0 59 21 110t58 90.5t86 61.5t104 22q54 0 100 -22t74 -60l60 280l45 11l-151 -711h-43l9 41q-67 -51 -147 -51zM266 32q42 0 81 16.5t70 46.5l58 271q-19 41 -64 67.5t-98 26.5q-63 0 -114 -32.5t-81.5 -86.5t-30.5 -120
q0 -55 23 -98t63.5 -67t92.5 -24zM639 532l38 168l50 11l-58 -179h-30z" />
    <glyph glyph-name="Dcroat" unicode="&#x110;" horiz-adv-x="699" 
d="M29 0l71 334h-70l8 41h71l69 325h185q72 0 130 -21.5t99.5 -62t63.5 -97.5t22 -127q0 -83 -31.5 -154t-87 -124.5t-130.5 -83.5t-162 -30h-238zM83 43h192q74 0 139 27t114 75.5t76.5 112t27.5 136.5q0 80 -33 139t-93 91.5t-141 32.5h-151l-60 -282h202l-8 -41h-203z
" />
    <glyph glyph-name="dcroat" unicode="&#x111;" horiz-adv-x="560" 
d="M259 -10q-62 0 -111 29.5t-77 81.5t-28 117q0 59 21 110t58 90.5t86 61.5t104 22q54 0 100 -22t74 -60l36 170h-172l8 37h172l16 73l45 11l-18 -84h66l-8 -37h-66l-125 -590h-43l9 41q-67 -51 -147 -51zM266 32q42 0 81 16.5t70 46.5l58 271q-19 41 -64 67.5t-98 26.5
q-63 0 -114 -32.5t-81.5 -86.5t-30.5 -120q0 -55 23 -98t63.5 -67t92.5 -24z" />
    <glyph glyph-name="Emacron" unicode="&#x112;" horiz-adv-x="590" 
d="M29 0l149 700h475l-9 -43h-430l-60 -282h281l-9 -43h-281l-62 -289h434l-9 -43h-479zM289 828l7 37h262l-8 -37h-261z" />
    <glyph glyph-name="emacron" unicode="&#x113;" horiz-adv-x="539" 
d="M263 -10q-60 0 -110 30.5t-80 82.5t-30 116q0 59 20.5 110t56.5 90t84 61t102 22q58 0 102 -29t69 -79t25 -114q0 -5 -1 -22.5t-2 -23.5h-412q-2 -58 20.5 -104t63.5 -72t94 -26q39 0 76.5 12t70.5 32l24 -36q-37 -24 -82.5 -37t-90.5 -13zM93 276h366q2 50 -16.5 91.5
t-54.5 67t-86 25.5q-51 0 -94 -24t-73 -65.5t-42 -94.5zM205 620l7 37h262l-8 -37h-261z" />
    <glyph glyph-name="Ebreve" unicode="&#x114;" horiz-adv-x="590" 
d="M29 0l149 700h475l-9 -43h-430l-60 -282h281l-9 -43h-281l-62 -289h434l-9 -43h-479zM422 795q-53 0 -89.5 32.5t-35.5 90.5l36 5q1 -48 26.5 -70t65.5 -22q78 0 118 91l35 -11q-22 -53 -62.5 -84.5t-93.5 -31.5z" />
    <glyph glyph-name="ebreve" unicode="&#x115;" horiz-adv-x="539" 
d="M263 -10q-60 0 -110 30.5t-80 82.5t-30 116q0 59 20.5 110t56.5 90t84 61t102 22q58 0 102 -29t69 -79t25 -114q0 -5 -1 -22.5t-2 -23.5h-412q-2 -58 20.5 -104t63.5 -72t94 -26q39 0 76.5 12t70.5 32l24 -36q-37 -24 -82.5 -37t-90.5 -13zM93 276h366q2 50 -16.5 91.5
t-54.5 67t-86 25.5q-51 0 -94 -24t-73 -65.5t-42 -94.5zM338 587q-53 0 -89.5 32.5t-35.5 90.5l36 5q1 -48 26.5 -70t65.5 -22q78 0 118 91l35 -11q-22 -53 -62.5 -84.5t-93.5 -31.5z" />
    <glyph glyph-name="Edotaccent" unicode="&#x116;" horiz-adv-x="590" 
d="M29 0l149 700h475l-9 -43h-430l-60 -282h281l-9 -43h-281l-62 -289h434l-9 -43h-479zM419 811q-13 0 -23 10t-10 25q0 17 12 29t29 12q14 0 23.5 -10t9.5 -24q0 -18 -12 -30t-29 -12z" />
    <glyph glyph-name="edotaccent" unicode="&#x117;" horiz-adv-x="539" 
d="M263 -10q-60 0 -110 30.5t-80 82.5t-30 116q0 59 20.5 110t56.5 90t84 61t102 22q58 0 102 -29t69 -79t25 -114q0 -5 -1 -22.5t-2 -23.5h-412q-2 -58 20.5 -104t63.5 -72t94 -26q39 0 76.5 12t70.5 32l24 -36q-37 -24 -82.5 -37t-90.5 -13zM93 276h366q2 50 -16.5 91.5
t-54.5 67t-86 25.5q-51 0 -94 -24t-73 -65.5t-42 -94.5zM335 603q-13 0 -23 10t-10 25q0 17 12 29t29 12q14 0 23.5 -10t9.5 -24q0 -18 -12 -30t-29 -12z" />
    <glyph glyph-name="Eogonek" unicode="&#x118;" horiz-adv-x="590" 
d="M417 -222q-39 0 -63 20t-24 53t26.5 71t96.5 78h-424l149 700h475l-9 -43h-430l-60 -282h281l-9 -43h-281l-62 -289h434l-9 -43q-81 -41 -110 -75.5t-29 -67.5q0 -20 15 -33t39 -13q25 0 49 11l4 -31q-15 -7 -29.5 -10t-29.5 -3z" />
    <glyph glyph-name="eogonek" unicode="&#x119;" horiz-adv-x="539" 
d="M249 -222q-44 0 -65.5 22.5t-21.5 50.5q0 31 23 66t83 73q-62 -1 -113 29t-81.5 82.5t-30.5 117.5q0 59 20.5 110t56.5 90t84 61t102 22q58 0 102 -29t69 -79t25 -114q0 -5 -1 -22.5t-2 -23.5h-412q-2 -56 20.5 -102t63.5 -73t94 -27q39 0 76.5 12t70.5 32l24 -36
q-22 -14 -46.5 -24.5t-50.5 -16.5q-80 -40 -109 -74.5t-29 -67.5q0 -20 15 -33t39 -13q25 0 49 11l4 -31q-13 -6 -27.5 -9.5t-31.5 -3.5zM93 276h366q2 50 -16.5 91.5t-54.5 67t-86 25.5q-51 0 -94 -24t-73 -65.5t-42 -94.5z" />
    <glyph glyph-name="Ecaron" unicode="&#x11a;" horiz-adv-x="590" 
d="M29 0l149 700h475l-9 -43h-430l-60 -282h281l-9 -43h-281l-62 -289h434l-9 -43h-479zM386 802l-72 114h37l66 -83l101 83h42l-122 -114h-52z" />
    <glyph glyph-name="ecaron" unicode="&#x11b;" horiz-adv-x="539" 
d="M263 -10q-60 0 -110 30.5t-80 82.5t-30 116q0 59 20.5 110t56.5 90t84 61t102 22q58 0 102 -29t69 -79t25 -114q0 -5 -1 -22.5t-2 -23.5h-412q-2 -58 20.5 -104t63.5 -72t94 -26q39 0 76.5 12t70.5 32l24 -36q-37 -24 -82.5 -37t-90.5 -13zM93 276h366q2 50 -16.5 91.5
t-54.5 67t-86 25.5q-51 0 -94 -24t-73 -65.5t-42 -94.5zM302 594l-72 114h37l66 -83l101 83h42l-122 -114h-52z" />
    <glyph glyph-name="Gcircumflex" unicode="&#x11c;" horiz-adv-x="773" 
d="M394 -11q-69 0 -128.5 25t-103.5 70t-68.5 105.5t-24.5 130.5q0 81 30 151.5t82 124.5t119.5 84.5t143.5 30.5q83 0 153 -31.5t115 -90.5l-34 -26q-40 50 -100.5 77.5t-136.5 27.5q-68 0 -127 -27.5t-104 -75.5t-70 -110.5t-25 -132.5q0 -78 35 -144t98.5 -106t148.5 -40
q75 0 139 36.5t107 99.5t55 143h-264l4 43h310l-7 -45q-14 -90 -62.5 -162.5t-122 -115t-162.5 -42.5zM340 799l122 115h52l72 -115h-35l-67 83l-105 -83h-39z" />
    <glyph glyph-name="gcircumflex" unicode="&#x11d;" horiz-adv-x="563" 
d="M237 -214q-51 0 -105.5 20t-95.5 54l28 32q43 -32 85 -48t85 -16q123 0 155 133l20 82q-70 -53 -150 -53q-62 0 -111 29.5t-77 81.5t-28 117q0 59 21 110t58 90.5t86 61.5t104 22q54 0 100 -22t75 -61l15 73h43l-114 -535q-18 -83 -67.5 -127t-126.5 -44zM266 32
q90 0 154 66l56 267q-19 42 -64 68.5t-99 26.5q-63 0 -114 -32.5t-81.5 -86.5t-30.5 -120q0 -55 23 -98t63.5 -67t92.5 -24zM213 591l122 115h52l72 -115h-35l-67 83l-105 -83h-39z" />
    <glyph glyph-name="Gbreve" unicode="&#x11e;" horiz-adv-x="773" 
d="M394 -11q-69 0 -128.5 25t-103.5 70t-68.5 105.5t-24.5 130.5q0 81 30 151.5t82 124.5t119.5 84.5t143.5 30.5q83 0 153 -31.5t115 -90.5l-34 -26q-40 50 -100.5 77.5t-136.5 27.5q-68 0 -127 -27.5t-104 -75.5t-70 -110.5t-25 -132.5q0 -78 35 -144t98.5 -106t148.5 -40
q75 0 139 36.5t107 99.5t55 143h-264l4 43h310l-7 -45q-14 -90 -62.5 -162.5t-122 -115t-162.5 -42.5zM472 795q-53 0 -89.5 32.5t-35.5 90.5l36 5q1 -48 26.5 -70t65.5 -22q78 0 118 91l35 -11q-22 -53 -62.5 -84.5t-93.5 -31.5z" />
    <glyph glyph-name="gbreve" unicode="&#x11f;" horiz-adv-x="563" 
d="M237 -214q-51 0 -105.5 20t-95.5 54l28 32q43 -32 85 -48t85 -16q123 0 155 133l20 82q-70 -53 -150 -53q-62 0 -111 29.5t-77 81.5t-28 117q0 59 21 110t58 90.5t86 61.5t104 22q54 0 100 -22t75 -61l15 73h43l-114 -535q-18 -83 -67.5 -127t-126.5 -44zM266 32
q90 0 154 66l56 267q-19 42 -64 68.5t-99 26.5q-63 0 -114 -32.5t-81.5 -86.5t-30.5 -120q0 -55 23 -98t63.5 -67t92.5 -24zM345 587q-53 0 -89.5 32.5t-35.5 90.5l36 5q1 -48 26.5 -70t65.5 -22q78 0 118 91l35 -11q-22 -53 -62.5 -84.5t-93.5 -31.5z" />
    <glyph glyph-name="Gdotaccent" unicode="&#x120;" horiz-adv-x="773" 
d="M394 -11q-69 0 -128.5 25t-103.5 70t-68.5 105.5t-24.5 130.5q0 81 30 151.5t82 124.5t119.5 84.5t143.5 30.5q83 0 153 -31.5t115 -90.5l-34 -26q-40 50 -100.5 77.5t-136.5 27.5q-68 0 -127 -27.5t-104 -75.5t-70 -110.5t-25 -132.5q0 -78 35 -144t98.5 -106t148.5 -40
q75 0 139 36.5t107 99.5t55 143h-264l4 43h310l-7 -45q-14 -90 -62.5 -162.5t-122 -115t-162.5 -42.5zM469 811q-13 0 -23 10t-10 25q0 17 12 29t29 12q14 0 23.5 -10t9.5 -24q0 -18 -12 -30t-29 -12z" />
    <glyph glyph-name="gdotaccent" unicode="&#x121;" horiz-adv-x="563" 
d="M237 -214q-51 0 -105.5 20t-95.5 54l28 32q43 -32 85 -48t85 -16q123 0 155 133l20 82q-70 -53 -150 -53q-62 0 -111 29.5t-77 81.5t-28 117q0 59 21 110t58 90.5t86 61.5t104 22q54 0 100 -22t75 -61l15 73h43l-114 -535q-18 -83 -67.5 -127t-126.5 -44zM266 32
q90 0 154 66l56 267q-19 42 -64 68.5t-99 26.5q-63 0 -114 -32.5t-81.5 -86.5t-30.5 -120q0 -55 23 -98t63.5 -67t92.5 -24zM342 603q-13 0 -23 10t-10 25q0 17 12 29t29 12q14 0 23.5 -10t9.5 -24q0 -18 -12 -30t-29 -12z" />
    <glyph glyph-name="Gcommaaccent" unicode="&#x122;" horiz-adv-x="773" 
d="M394 -11q-69 0 -128.5 25t-103.5 70t-68.5 105.5t-24.5 130.5q0 81 30 151.5t82 124.5t119.5 84.5t143.5 30.5q83 0 153 -31.5t115 -90.5l-34 -26q-40 50 -100.5 77.5t-136.5 27.5q-68 0 -127 -27.5t-104 -75.5t-70 -110.5t-25 -132.5q0 -78 35 -144t98.5 -106t148.5 -40
q75 0 139 36.5t107 99.5t55 143h-264l4 43h310l-7 -45q-14 -90 -62.5 -162.5t-122 -115t-162.5 -42.5zM293 -254l72 168h51l-87 -168h-36z" />
    <glyph glyph-name="gcommaaccent" unicode="&#x123;" horiz-adv-x="564" 
d="M436 772l-72 -168h-51l87 168h36zM237 -214q-51 0 -105.5 20t-95.5 54l28 32q43 -32 85 -48t85 -16q123 0 155 133l20 82q-70 -53 -150 -53q-62 0 -111 29.5t-77 81.5t-28 117q0 59 21 110t58 90.5t86 61.5t104 22q54 0 100 -22t75 -61l15 73h43l-114 -535
q-18 -83 -67.5 -127t-126.5 -44zM266 32q90 0 154 66l56 267q-19 42 -64 68.5t-99 26.5q-63 0 -114 -32.5t-81.5 -86.5t-30.5 -120q0 -55 23 -98t63.5 -67t92.5 -24z" />
    <glyph glyph-name="Hcircumflex" unicode="&#x124;" horiz-adv-x="690" 
d="M29 0l149 700h45l-70 -327h438l70 327h45l-149 -700h-45l71 332h-438l-71 -332h-45zM340 799l122 115h52l72 -115h-35l-67 83l-105 -83h-39z" />
    <glyph glyph-name="hcircumflex" unicode="&#x125;" horiz-adv-x="519" 
d="M84 799l122 115h52l72 -115h-35l-67 83l-105 -83h-39zM16 0l149 700h43l-57 -266q68 68 157 68q56 0 96 -26t57.5 -72t4.5 -107l-63 -297h-43l62 291q17 78 -17 124t-105 46q-47 0 -89 -22t-71 -60l-81 -379h-43z" />
    <glyph glyph-name="Hbar" unicode="&#x126;" horiz-adv-x="690" 
d="M29 0l113 529h-69l9 41h68l28 130h45l-28 -130h438l28 130h45l-28 -130h68l-9 -41h-67l-113 -529h-45l71 332h-438l-71 -332h-45zM153 373h438l33 156h-438z" />
    <glyph glyph-name="hbar" unicode="&#x127;" horiz-adv-x="519" 
d="M16 0l126 590h-67l8 37h66l16 73l45 11l-18 -84h172l-8 -37h-172l-33 -157q68 69 157 69q56 0 96 -26t57.5 -72t4.5 -107l-63 -297h-43l62 291q17 78 -17 124t-105 46q-47 0 -89 -22t-71 -60l-81 -379h-43z" />
    <glyph glyph-name="Itilde" unicode="&#x128;" horiz-adv-x="207" 
d="M29 0l149 700h45l-149 -700h-45zM109 806l-37 10q39 81 92 81q27 0 50 -14.5t45 -28.5t43 -14q17 0 28.5 12.5t24.5 40.5l37 -10q-19 -43 -42 -62t-52 -19q-26 0 -49.5 14t-45 28t-42.5 14q-16 0 -28 -12t-24 -40z" />
    <glyph glyph-name="itilde" unicode="&#x129;" horiz-adv-x="178" 
d="M16 0l105 492h43l-105 -492h-43zM50 598l-37 10q39 81 92 81q27 0 50 -14.5t45 -28.5t43 -14q17 0 28.5 12.5t24.5 40.5l37 -10q-19 -43 -42 -62t-52 -19q-26 0 -49.5 14t-45 28t-42.5 14q-16 0 -28 -12t-24 -40z" />
    <glyph glyph-name="Imacron" unicode="&#x12a;" horiz-adv-x="207" 
d="M29 0l149 700h45l-149 -700h-45zM98 828l7 37h262l-8 -37h-261z" />
    <glyph glyph-name="imacron" unicode="&#x12b;" horiz-adv-x="178" 
d="M16 0l105 492h43l-105 -492h-43zM39 620l7 37h262l-8 -37h-261z" />
    <glyph glyph-name="Ibreve" unicode="&#x12c;" horiz-adv-x="207" 
d="M29 0l149 700h45l-149 -700h-45zM231 795q-53 0 -89.5 32.5t-35.5 90.5l36 5q1 -48 26.5 -70t65.5 -22q78 0 118 91l35 -11q-22 -53 -62.5 -84.5t-93.5 -31.5z" />
    <glyph glyph-name="ibreve" unicode="&#x12d;" horiz-adv-x="178" 
d="M16 0l105 492h43l-105 -492h-43zM172 587q-53 0 -89.5 32.5t-35.5 90.5l36 5q1 -48 26.5 -70t65.5 -22q78 0 118 91l35 -11q-22 -53 -62.5 -84.5t-93.5 -31.5z" />
    <glyph glyph-name="Iogonek" unicode="&#x12e;" horiz-adv-x="207" 
d="M-17 -222q-44 0 -65.5 22.5t-21.5 50.5q0 41 35.5 81t98.5 68h-1l149 700h45l-149 -700q-81 -41 -110 -75.5t-29 -67.5q0 -20 15 -33t39 -13q25 0 49 11l4 -31q-13 -6 -27.5 -9.5t-31.5 -3.5z" />
    <glyph glyph-name="iogonek" unicode="&#x12f;" horiz-adv-x="179" 
d="M170 603q-14 0 -24 10t-10 25q0 12 5.5 21t15 14.5t20.5 5.5q14 0 24 -10t10 -24q0 -11 -5.5 -21t-14.5 -15.5t-21 -5.5zM-32 -222q-39 0 -63 20t-24 53q0 41 36 81t100 68h-1l105 492h43l-105 -492q-72 -37 -105.5 -71t-33.5 -72q0 -20 15 -33t39 -13q25 0 49 11l4 -31
q-15 -7 -29.5 -10t-29.5 -3z" />
    <glyph glyph-name="Idotaccent" unicode="&#x130;" horiz-adv-x="207" 
d="M29 0l149 700h45l-149 -700h-45zM228 811q-13 0 -23 10t-10 25q0 17 12 29t29 12q14 0 23.5 -10t9.5 -24q0 -18 -12 -30t-29 -12z" />
    <glyph glyph-name="dotlessi" unicode="&#x131;" horiz-adv-x="178" 
d="M16 0l105 492h43l-105 -492h-43z" />
    <glyph glyph-name="IJ" unicode="&#x132;" horiz-adv-x="795" 
d="M29 0l149 700h45l-149 -700h-45zM438 -11q-82 0 -138.5 44.5t-76.5 122.5l38 16q38 -140 178 -140q93 0 154 63.5t83 166.5l93 438h45l-93 -438q-17 -83 -54.5 -144.5t-94 -95t-134.5 -33.5z" />
    <glyph glyph-name="ij" unicode="&#x133;" horiz-adv-x="357" 
d="M16 0l105 492h43l-105 -492h-43zM170 603q-14 0 -24 10t-10 25q0 12 5.5 21t15 14.5t20.5 5.5q14 0 24 -10t10 -24q0 -12 -5.5 -21.5t-15 -15t-20.5 -5.5zM348 603q-14 0 -24 10t-10 24q0 12 5.5 21t15 14.5t20.5 5.5q14 0 24 -10t10 -24q0 -11 -5.5 -20.5t-15 -15
t-20.5 -5.5zM91 -214q-10 0 -20 1.5t-20 3.5l9 44q9 -4 19 -5t20 -1q32 0 50 19t26 57l124 587h43l-126 -597q-10 -51 -43 -80t-82 -29z" />
    <glyph glyph-name="Jcircumflex" unicode="&#x134;" horiz-adv-x="571" 
d="M225 -11q-82 0 -138.5 44.5t-76.5 122.5l38 16q38 -140 178 -140q93 0 154 63.5t83 166.5l93 438h45l-93 -438q-17 -83 -54.5 -144.5t-94 -95t-134.5 -33.5zM478 799l122 115h52l72 -115h-35l-67 83l-105 -83h-39z" />
    <glyph glyph-name="jcircumflex" unicode="&#x135;" horiz-adv-x="178" 
d="M-87 -214q-10 0 -20 1.5t-20 3.5l9 44q9 -4 19 -5t20 -1q32 0 50 19t26 57l124 587h43l-126 -597q-10 -51 -43 -80t-82 -29zM40 591l122 115h52l72 -115h-35l-67 83l-105 -83h-39z" />
    <glyph glyph-name="Kcommaaccent" unicode="&#x136;" horiz-adv-x="568" 
d="M29 0l149 700h45l-70 -330l444 330h71l-468 -345l323 -355h-60l-315 349l-74 -349h-45zM128 -254l72 168h51l-87 -168h-36z" />
    <glyph glyph-name="kcommaaccent" unicode="&#x137;" horiz-adv-x="453" 
d="M16 0l149 700l45 11l-93 -437l306 218h71l-337 -236l245 -256h-59l-232 245l-52 -245h-43zM71 -254l72 168h51l-87 -168h-36z" />
    <glyph glyph-name="kgreenlandic" unicode="&#x138;" horiz-adv-x="453" 
d="M16 0l105 492h43l-47 -218l316 218h71l-347 -236l245 -256h-59l-232 245l-52 -245h-43z" />
    <glyph glyph-name="Lacute" unicode="&#x139;" horiz-adv-x="581" 
d="M29 0l149 700h45l-140 -657h424l-9 -43h-469zM192 804l117 110h68l-139 -110h-46z" />
    <glyph glyph-name="lacute" unicode="&#x13a;" horiz-adv-x="178" 
d="M180 804l117 110h68l-139 -110h-46zM16 0l149 700h43l-149 -700h-43z" />
    <glyph glyph-name="Lcommaaccent" unicode="&#x13b;" horiz-adv-x="581" 
d="M29 0l149 700h45l-140 -657h424l-9 -43h-469zM135 -254l72 168h51l-87 -168h-36z" />
    <glyph glyph-name="lcommaaccent" unicode="&#x13c;" horiz-adv-x="178" 
d="M16 0l149 700l45 11l-151 -711h-43zM-67 -254l72 168h51l-87 -168h-36z" />
    <glyph glyph-name="Lcaron" unicode="&#x13d;" horiz-adv-x="581" 
d="M29 0l149 700h45l-140 -657h424l-9 -43h-469zM436 532l38 168l50 11l-58 -179h-30z" />
    <glyph glyph-name="lcaron" unicode="&#x13e;" horiz-adv-x="259" 
d="M16 0l149 700l45 11l-151 -711h-43zM258 532l38 168l50 11l-58 -179h-30z" />
    <glyph glyph-name="Ldot" unicode="&#x13f;" horiz-adv-x="581" 
d="M29 0l149 700h45l-140 -657h424l-9 -43h-469zM411 312q-13 0 -23 10t-10 25q0 17 12 29t29 12q14 0 23.5 -10t9.5 -24q0 -18 -12 -30t-29 -12z" />
    <glyph glyph-name="ldot" unicode="&#x140;" horiz-adv-x="248" 
d="M16 0l149 700l45 11l-151 -711h-43zM232 313q-13 0 -23 10t-10 25q0 17 12 29t29 12q14 0 23.5 -10t9.5 -24q0 -18 -12 -30t-29 -12z" />
    <glyph glyph-name="Lslash" unicode="&#x141;" horiz-adv-x="590" 
d="M38 0l51 241l-93 -66l11 55l94 67l86 403h45l-78 -366l243 172l-11 -55l-244 -173l-50 -235h424l-9 -43h-469z" />
    <glyph glyph-name="lslash" unicode="&#x142;" horiz-adv-x="214" 
d="M36 0l72 339l-87 -65l11 52l87 65l66 309l45 11l-60 -283l97 72l-11 -51l-97 -72l-80 -377h-43z" />
    <glyph glyph-name="Nacute" unicode="&#x143;" horiz-adv-x="699" 
d="M29 0l149 700h45l316 -624l133 624h43l-149 -700h-35l-323 638l-136 -638h-43zM441 804l117 110h68l-139 -110h-46z" />
    <glyph glyph-name="nacute" unicode="&#x144;" horiz-adv-x="519" 
d="M16 0l105 492h43l-12 -58q65 68 156 68q56 0 96 -25.5t57.5 -71.5t4.5 -108l-63 -297h-43l62 291q17 78 -17 124t-105 46q-47 0 -89 -21.5t-71 -59.5l-81 -380h-43zM306 596l117 110h68l-139 -110h-46z" />
    <glyph glyph-name="Ncommaaccent" unicode="&#x145;" horiz-adv-x="699" 
d="M29 0l149 700h45l316 -624l133 624h43l-149 -700h-35l-323 638l-136 -638h-43zM194 -254l72 168h51l-87 -168h-36z" />
    <glyph glyph-name="ncommaaccent" unicode="&#x146;" horiz-adv-x="519" 
d="M16 0l105 492h43l-12 -58q65 68 156 68q56 0 96 -25.5t57.5 -71.5t4.5 -108l-63 -297h-43l62 291q17 78 -17 124t-105 46q-47 0 -89 -21.5t-71 -59.5l-81 -380h-43zM104 -254l72 168h51l-87 -168h-36z" />
    <glyph glyph-name="Ncaron" unicode="&#x147;" horiz-adv-x="699" 
d="M29 0l149 700h45l316 -624l133 624h43l-149 -700h-35l-323 638l-136 -638h-43zM441 802l-72 114h37l66 -83l101 83h42l-122 -114h-52z" />
    <glyph glyph-name="ncaron" unicode="&#x148;" horiz-adv-x="519" 
d="M16 0l105 492h43l-12 -58q65 68 156 68q56 0 96 -25.5t57.5 -71.5t4.5 -108l-63 -297h-43l62 291q17 78 -17 124t-105 46q-47 0 -89 -21.5t-71 -59.5l-81 -380h-43zM306 594l-72 114h37l66 -83l101 83h42l-122 -114h-52z" />
    <glyph glyph-name="Eng" unicode="&#x14a;" horiz-adv-x="699" 
d="M419 -214q-10 0 -20 1.5t-20 3.5l9 44q9 -4 19 -5t20 -1q32 0 50 19t26 57l23 106l-318 627l-136 -638h-43l149 700h45l316 -624l133 624h43l-171 -805q-10 -51 -43 -80t-82 -29z" />
    <glyph glyph-name="eng" unicode="&#x14b;" horiz-adv-x="519" 
d="M256 -214q-10 0 -20 1.5t-20 3.5l9 44q9 -4 19 -5t20 -1q32 0 50 18.5t26 57.5l82 386q17 78 -17 124t-105 46q-47 0 -89 -21.5t-71 -59.5l-81 -380h-43l105 492h43l-12 -58q65 68 156 68q56 0 96 -25.5t57.5 -71.5t4.5 -108l-85 -402q-10 -51 -43 -80t-82 -29z" />
    <glyph glyph-name="Omacron" unicode="&#x14c;" horiz-adv-x="793" 
d="M388 -11q-69 0 -127 24.5t-101.5 68.5t-67.5 103.5t-24 128.5q0 80 30.5 152t83.5 127t122 86.5t146 31.5q69 0 127 -24.5t101.5 -68.5t67.5 -103.5t24 -128.5q0 -79 -30 -150.5t-83 -127t-122 -87.5t-147 -32zM391 32q69 0 129.5 28t106 77t71.5 112.5t26 134.5
q0 77 -34 141.5t-96 103.5t-147 39q-69 0 -129.5 -28t-106 -77t-71.5 -112.5t-26 -134.5q0 -77 34 -141.5t96 -103.5t147 -39zM391 828l7 37h262l-8 -37h-261z" />
    <glyph glyph-name="omacron" unicode="&#x14d;" horiz-adv-x="569" 
d="M258 -10q-60 0 -109 30.5t-77.5 82.5t-28.5 116q0 57 21.5 108t59 90.5t86 62t102.5 22.5q61 0 109.5 -30.5t77 -82.5t28.5 -116q0 -57 -21 -108.5t-58.5 -90.5t-86 -61.5t-103.5 -22.5zM262 32q44 0 83.5 19.5t70.5 53t49 77t18 91.5q0 54 -22.5 96t-62 66.5t-90.5 24.5
q-44 0 -83.5 -19.5t-70.5 -53t-49 -77t-18 -91.5q0 -53 22.5 -95.5t62.5 -67t90 -24.5zM217 620l7 37h262l-8 -37h-261z" />
    <glyph glyph-name="Obreve" unicode="&#x14e;" horiz-adv-x="793" 
d="M388 -11q-69 0 -127 24.5t-101.5 68.5t-67.5 103.5t-24 128.5q0 80 30.5 152t83.5 127t122 86.5t146 31.5q69 0 127 -24.5t101.5 -68.5t67.5 -103.5t24 -128.5q0 -79 -30 -150.5t-83 -127t-122 -87.5t-147 -32zM391 32q69 0 129.5 28t106 77t71.5 112.5t26 134.5
q0 77 -34 141.5t-96 103.5t-147 39q-69 0 -129.5 -28t-106 -77t-71.5 -112.5t-26 -134.5q0 -77 34 -141.5t96 -103.5t147 -39zM524 795q-53 0 -89.5 32.5t-35.5 90.5l36 5q1 -48 26.5 -70t65.5 -22q78 0 118 91l35 -11q-22 -53 -62.5 -84.5t-93.5 -31.5z" />
    <glyph glyph-name="obreve" unicode="&#x14f;" horiz-adv-x="569" 
d="M258 -10q-60 0 -109 30.5t-77.5 82.5t-28.5 116q0 57 21.5 108t59 90.5t86 62t102.5 22.5q61 0 109.5 -30.5t77 -82.5t28.5 -116q0 -57 -21 -108.5t-58.5 -90.5t-86 -61.5t-103.5 -22.5zM262 32q44 0 83.5 19.5t70.5 53t49 77t18 91.5q0 54 -22.5 96t-62 66.5t-90.5 24.5
q-44 0 -83.5 -19.5t-70.5 -53t-49 -77t-18 -91.5q0 -53 22.5 -95.5t62.5 -67t90 -24.5zM350 587q-53 0 -89.5 32.5t-35.5 90.5l36 5q1 -48 26.5 -70t65.5 -22q78 0 118 91l35 -11q-22 -53 -62.5 -84.5t-93.5 -31.5z" />
    <glyph glyph-name="Ohungarumlaut" unicode="&#x150;" horiz-adv-x="793" 
d="M388 -11q-69 0 -127 24.5t-101.5 68.5t-67.5 103.5t-24 128.5q0 80 30.5 152t83.5 127t122 86.5t146 31.5q69 0 127 -24.5t101.5 -68.5t67.5 -103.5t24 -128.5q0 -79 -30 -150.5t-83 -127t-122 -87.5t-147 -32zM391 32q69 0 129.5 28t106 77t71.5 112.5t26 134.5
q0 77 -34 141.5t-96 103.5t-147 39q-69 0 -129.5 -28t-106 -77t-71.5 -112.5t-26 -134.5q0 -77 34 -141.5t96 -103.5t147 -39zM528 914h64l-144 -107h-46zM671 914h64l-143 -107h-47z" />
    <glyph glyph-name="ohungarumlaut" unicode="&#x151;" horiz-adv-x="569" 
d="M258 -10q-60 0 -109 30.5t-77.5 82.5t-28.5 116q0 57 21.5 108t59 90.5t86 62t102.5 22.5q61 0 109.5 -30.5t77 -82.5t28.5 -116q0 -57 -21 -108.5t-58.5 -90.5t-86 -61.5t-103.5 -22.5zM262 32q44 0 83.5 19.5t70.5 53t49 77t18 91.5q0 54 -22.5 96t-62 66.5t-90.5 24.5
q-44 0 -83.5 -19.5t-70.5 -53t-49 -77t-18 -91.5q0 -53 22.5 -95.5t62.5 -67t90 -24.5zM354 706h64l-144 -107h-46zM497 706h64l-143 -107h-47z" />
    <glyph glyph-name="OE" unicode="&#x152;" horiz-adv-x="1055" 
d="M368 0q-65 0 -120 24t-95.5 67.5t-63 100.5t-22.5 123q0 79 30 149t83 123t121 83t143 30h674l-9 -43h-515q69 -40 111 -113t40 -169h180l-9 -43h-175q-13 -95 -70 -171.5t-139 -117.5h450l-9 -43h-605zM373 43q66 0 124.5 27.5t104 75t71.5 109.5t26 132q0 77 -33.5 138
t-91.5 96.5t-134 35.5q-66 0 -125 -27.5t-104.5 -75t-71.5 -109.5t-26 -132q0 -77 33.5 -138t92 -96.5t134.5 -35.5z" />
    <glyph glyph-name="oe" unicode="&#x153;" horiz-adv-x="979" 
d="M258 -10q-60 0 -109 30.5t-77.5 82.5t-28.5 116q0 57 21.5 108t59 90.5t86 62t102.5 22.5q71 0 125.5 -43t76.5 -111q32 68 94 111t138 43q58 0 102 -29t69 -79t25 -114q0 -5 -1 -22.5t-2 -23.5h-412q-2 -58 20.5 -104t63.5 -72t94 -26q39 0 76.5 12t70.5 32l24 -36
q-37 -24 -82.5 -37t-90.5 -13q-48 0 -90 20t-72.5 55.5t-44.5 81.5q-34 -69 -97.5 -113t-140.5 -44zM533 276h366q3 50 -16 91.5t-55 67t-86 25.5t-93.5 -24t-73.5 -65.5t-42 -94.5zM262 32q44 0 83.5 19.5t70.5 53t49 77t18 91.5q0 54 -22.5 96t-62 66.5t-90.5 24.5
q-44 0 -83.5 -19.5t-70.5 -53t-49 -77t-18 -91.5q0 -53 22.5 -95.5t62.5 -67t90 -24.5z" />
    <glyph glyph-name="Racute" unicode="&#x154;" horiz-adv-x="616" 
d="M29 0l149 700h256q61 0 105 -20t68 -57.5t24 -88.5q0 -58 -25 -104.5t-69 -76t-103 -38.5l96 -315h-46l-95 312h-249l-66 -312h-45zM150 355h239q58 0 102 22.5t69 62.5t25 91q0 59 -40.5 92.5t-111.5 33.5h-219zM399 804l117 110h68l-139 -110h-46z" />
    <glyph glyph-name="racute" unicode="&#x155;" horiz-adv-x="312" 
d="M16 0l105 492h43l-15 -71q28 38 66 59.5t81 21.5q32 0 48 -6l-10 -45q-10 5 -22.5 7t-25.5 2q-92 0 -151 -105l-76 -355h-43zM202 596l117 110h68l-139 -110h-46z" />
    <glyph glyph-name="Rcommaaccent" unicode="&#x156;" horiz-adv-x="616" 
d="M29 0l149 700h256q61 0 105 -20t68 -57.5t24 -88.5q0 -58 -25 -104.5t-69 -76t-103 -38.5l96 -315h-46l-95 312h-249l-66 -312h-45zM150 355h239q58 0 102 22.5t69 62.5t25 91q0 59 -40.5 92.5t-111.5 33.5h-219zM152 -254l72 168h51l-87 -168h-36z" />
    <glyph glyph-name="rcommaaccent" unicode="&#x157;" horiz-adv-x="312" 
d="M16 0l105 492h43l-15 -71q28 38 66 59.5t81 21.5q32 0 48 -6l-10 -45q-10 5 -22.5 7t-25.5 2q-92 0 -151 -105l-76 -355h-43zM-67 -254l72 168h51l-87 -168h-36z" />
    <glyph glyph-name="Rcaron" unicode="&#x158;" horiz-adv-x="616" 
d="M29 0l149 700h256q61 0 105 -20t68 -57.5t24 -88.5q0 -58 -25 -104.5t-69 -76t-103 -38.5l96 -315h-46l-95 312h-249l-66 -312h-45zM150 355h239q58 0 102 22.5t69 62.5t25 91q0 59 -40.5 92.5t-111.5 33.5h-219zM399 802l-72 114h37l66 -83l101 83h42l-122 -114h-52z
" />
    <glyph glyph-name="rcaron" unicode="&#x159;" horiz-adv-x="312" 
d="M16 0l105 492h43l-15 -71q28 38 66 59.5t81 21.5q32 0 48 -6l-10 -45q-10 5 -22.5 7t-25.5 2q-92 0 -151 -105l-76 -355h-43zM202 594l-72 114h37l66 -83l101 83h42l-122 -114h-52z" />
    <glyph glyph-name="Sacute" unicode="&#x15a;" horiz-adv-x="576" 
d="M283 -11q-86 0 -158.5 39.5t-122.5 114.5l38 26q44 -67 106 -102t136 -35q63 0 110.5 21t74 58t26.5 85q0 51 -36 80t-122 54l-74 21q-87 25 -130.5 66t-43.5 106q0 57 29.5 99.5t82.5 65.5t124 23q70 0 140 -29.5t127 -82.5l-30 -33q-52 49 -114.5 75.5t-124.5 26.5
q-87 0 -137.5 -40t-50.5 -105q0 -47 33.5 -77t106.5 -51l74 -21q99 -28 145.5 -68.5t46.5 -109.5q0 -62 -33 -108.5t-90.5 -72.5t-132.5 -26zM329 804l117 110h68l-139 -110h-46z" />
    <glyph glyph-name="sacute" unicode="&#x15b;" horiz-adv-x="417" 
d="M187 -12q-60 0 -111.5 25t-86.5 71l35 27q29 -38 71 -60t91 -22q63 0 104.5 31.5t41.5 77.5q0 32 -20.5 50.5t-70.5 30.5l-74 18q-63 15 -92 44t-29 77q0 43 22 75t61.5 50.5t89.5 18.5q51 0 99.5 -20.5t91.5 -60.5l-30 -32q-38 35 -78 53.5t-84 18.5q-58 0 -93 -28
t-35 -73q0 -31 19 -50t68 -31l74 -18q65 -16 95 -44t30 -77q0 -43 -25 -77.5t-67.5 -54.5t-96.5 -20zM235 596l117 110h68l-139 -110h-46z" />
    <glyph glyph-name="Scircumflex" unicode="&#x15c;" horiz-adv-x="576" 
d="M283 -11q-86 0 -158.5 39.5t-122.5 114.5l38 26q44 -67 106 -102t136 -35q63 0 110.5 21t74 58t26.5 85q0 51 -36 80t-122 54l-74 21q-87 25 -130.5 66t-43.5 106q0 57 29.5 99.5t82.5 65.5t124 23q70 0 140 -29.5t127 -82.5l-30 -33q-52 49 -114.5 75.5t-124.5 26.5
q-87 0 -137.5 -40t-50.5 -105q0 -47 33.5 -77t106.5 -51l74 -21q99 -28 145.5 -68.5t46.5 -109.5q0 -62 -33 -108.5t-90.5 -72.5t-132.5 -26zM233 799l122 115h52l72 -115h-35l-67 83l-105 -83h-39z" />
    <glyph glyph-name="scircumflex" unicode="&#x15d;" horiz-adv-x="417" 
d="M187 -12q-60 0 -111.5 25t-86.5 71l35 27q29 -38 71 -60t91 -22q63 0 104.5 31.5t41.5 77.5q0 32 -20.5 50.5t-70.5 30.5l-74 18q-63 15 -92 44t-29 77q0 43 22 75t61.5 50.5t89.5 18.5q51 0 99.5 -20.5t91.5 -60.5l-30 -32q-38 35 -78 53.5t-84 18.5q-58 0 -93 -28
t-35 -73q0 -31 19 -50t68 -31l74 -18q65 -16 95 -44t30 -77q0 -43 -25 -77.5t-67.5 -54.5t-96.5 -20zM139 591l122 115h52l72 -115h-35l-67 83l-105 -83h-39z" />
    <glyph glyph-name="Scedilla" unicode="&#x15e;" horiz-adv-x="576" 
d="M239 -224q-32 0 -60 12t-44 32l26 23q33 -36 78 -36q37 0 57 16.5t20 41.5q0 23 -19 34.5t-48 11.5h-24l38 79q-79 5 -145 45t-113 110l38 24q44 -67 106 -102t136 -35q63 0 110.5 21t74 58t26.5 85q0 51 -36 81t-122 53l-79 21q-88 23 -131 65t-43 107q0 57 29 99.5
t82 65.5t123 23q71 0 141 -29.5t128 -83.5l-30 -32q-52 49 -114.5 75.5t-124.5 26.5q-87 0 -137.5 -40t-50.5 -105q0 -47 33.5 -77.5t106.5 -50.5l79 -21q100 -26 146 -67.5t46 -110.5q0 -60 -31.5 -106t-87 -72.5t-128.5 -28.5l-24 -49q39 -4 59 -22.5t20 -47.5
q0 -28 -14.5 -49t-39.5 -33t-57 -12z" />
    <glyph glyph-name="scedilla" unicode="&#x15f;" horiz-adv-x="417" 
d="M142 -224q-32 0 -60 12t-44 32l26 23q33 -36 78 -36q37 0 57 16.5t20 41.5q0 23 -19 34.5t-48 11.5h-24l38 78q-52 5 -98 30t-77 66l35 26q28 -37 71 -58t92 -21q63 0 104 31t41 77q0 32 -20.5 49.5t-70.5 29.5l-77 18q-63 15 -92 44t-29 77q0 43 22 75t61.5 50.5
t89.5 18.5t99 -20.5t92 -60.5l-30 -32q-38 35 -77.5 53t-83.5 18q-58 0 -93.5 -28.5t-35.5 -73.5q0 -31 19 -49.5t68 -29.5l77 -18q65 -15 95 -43.5t30 -77.5q0 -42 -24 -76t-64.5 -54t-92.5 -22l-23 -48q39 -4 59 -22.5t20 -47.5q0 -28 -14.5 -49t-39.5 -33t-57 -12z" />
    <glyph glyph-name="Scaron" unicode="&#x160;" horiz-adv-x="576" 
d="M283 -11q-86 0 -158.5 39.5t-122.5 114.5l38 26q44 -67 106 -102t136 -35q63 0 110.5 21t74 58t26.5 85q0 51 -36 80t-122 54l-74 21q-87 25 -130.5 66t-43.5 106q0 57 29.5 99.5t82.5 65.5t124 23q70 0 140 -29.5t127 -82.5l-30 -33q-52 49 -114.5 75.5t-124.5 26.5
q-87 0 -137.5 -40t-50.5 -105q0 -47 33.5 -77t106.5 -51l74 -21q99 -28 145.5 -68.5t46.5 -109.5q0 -62 -33 -108.5t-90.5 -72.5t-132.5 -26zM329 802l-72 114h37l66 -83l101 83h42l-122 -114h-52z" />
    <glyph glyph-name="scaron" unicode="&#x161;" horiz-adv-x="417" 
d="M187 -12q-60 0 -111.5 25t-86.5 71l35 27q29 -38 71 -60t91 -22q63 0 104.5 31.5t41.5 77.5q0 32 -20.5 50.5t-70.5 30.5l-74 18q-63 15 -92 44t-29 77q0 43 22 75t61.5 50.5t89.5 18.5q51 0 99.5 -20.5t91.5 -60.5l-30 -32q-38 35 -78 53.5t-84 18.5q-58 0 -93 -28
t-35 -73q0 -31 19 -50t68 -31l74 -18q65 -16 95 -44t30 -77q0 -43 -25 -77.5t-67.5 -54.5t-96.5 -20zM235 594l-72 114h37l66 -83l101 83h42l-122 -114h-52z" />
    <glyph glyph-name="Tcedilla" unicode="&#x162;" horiz-adv-x="588" 
d="M198 -224q-32 0 -60 12t-44 32l26 23q33 -36 78 -36q37 0 57 16.5t20 41.5q0 23 -19 34.5t-48 11.5h-24l43 89h-7l140 657h-256l9 43h556l-9 -43h-255l-140 -657h-6l-29 -60q39 -4 59 -22.5t20 -47.5q0 -28 -14.5 -49t-39.5 -33t-57 -12z" />
    <glyph glyph-name="tcedilla" unicode="&#x163;" horiz-adv-x="330" 
d="M138 -224q-32 0 -60 12t-44 32l26 23q33 -36 78 -36q37 0 57 16.5t20 41.5q0 23 -19 34.5t-48 11.5h-24l40 82q-44 8 -62.5 37t-8.5 76l74 346h-107l9 40h106l27 124l46 14l-29 -138h146l-9 -40h-146l-72 -337q-10 -45 8 -64.5t69 -19.5q11 0 23.5 2.5t32.5 8.5l-9 -43
q-14 -4 -33 -6.5t-35 -2.5l-24 -50q39 -4 59 -22.5t20 -47.5q0 -28 -14.5 -49t-39.5 -33t-57 -12z" />
    <glyph glyph-name="Tcaron" unicode="&#x164;" horiz-adv-x="588" 
d="M220 0l140 657h-256l9 43h556l-9 -43h-255l-140 -657h-45zM385 802l-72 114h37l66 -83l101 83h42l-122 -114h-52z" />
    <glyph glyph-name="tcaron" unicode="&#x165;" horiz-adv-x="330" 
d="M199 -10q-62 0 -90 30.5t-16 85.5l74 346h-107l9 40h106l27 124l46 14l-29 -138h146l-9 -40h-146l-72 -337q-10 -45 8 -64.5t69 -19.5q11 0 23.5 2.5t32.5 8.5l-9 -43q-16 -4 -31.5 -6.5t-31.5 -2.5zM295 552l34 148l50 11l-54 -159h-30z" />
    <glyph glyph-name="Tbar" unicode="&#x166;" horiz-adv-x="588" 
d="M220 0l71 334h-160l8 41h161l60 282h-256l9 43h556l-9 -43h-255l-60 -282h159l-8 -41h-160l-71 -334h-45z" />
    <glyph glyph-name="tbar" unicode="&#x167;" horiz-adv-x="330" 
d="M199 -10q-62 0 -90 30.5t-16 85.5l35 163h-105l8 37h105l31 146h-107l9 40h106l27 124l46 14l-29 -138h146l-9 -40h-146l-31 -146h147l-8 -37h-147l-33 -154q-10 -45 8 -64.5t69 -19.5q11 0 23.5 2.5t32.5 8.5l-9 -43q-16 -4 -31.5 -6.5t-31.5 -2.5z" />
    <glyph glyph-name="Utilde" unicode="&#x168;" horiz-adv-x="680" 
d="M314 -11q-81 0 -142 36t-88 104t-7 163l87 408h45l-86 -403q-18 -85 2 -144t69 -90t119 -31q101 0 170.5 69.5t95.5 193.5l86 405h45l-86 -405q-20 -96 -62 -164.5t-104 -105t-144 -36.5zM345 806l-37 10q39 81 92 81q27 0 50 -14.5t45 -28.5t43 -14q17 0 28.5 12.5
t24.5 40.5l37 -10q-19 -43 -42 -62t-52 -19q-26 0 -49.5 14t-45 28t-42.5 14q-16 0 -28 -12t-24 -40z" />
    <glyph glyph-name="utilde" unicode="&#x169;" horiz-adv-x="519" 
d="M212 -10q-55 0 -95.5 25.5t-57.5 72t-4 107.5l62 297h43l-62 -290q-16 -78 18 -124.5t104 -46.5q47 0 89 22t71 60l81 379h43l-105 -492h-43l12 58q-66 -68 -156 -68zM220 598l-37 10q39 81 92 81q27 0 50 -14.5t45 -28.5t43 -14q17 0 28.5 12.5t24.5 40.5l37 -10
q-19 -43 -42 -62t-52 -19q-26 0 -49.5 14t-45 28t-42.5 14q-16 0 -28 -12t-24 -40z" />
    <glyph glyph-name="Umacron" unicode="&#x16a;" horiz-adv-x="680" 
d="M314 -11q-81 0 -142 36t-88 104t-7 163l87 408h45l-86 -403q-18 -85 2 -144t69 -90t119 -31q101 0 170.5 69.5t95.5 193.5l86 405h45l-86 -405q-20 -96 -62 -164.5t-104 -105t-144 -36.5zM334 828l7 37h262l-8 -37h-261z" />
    <glyph glyph-name="umacron" unicode="&#x16b;" horiz-adv-x="519" 
d="M212 -10q-55 0 -95.5 25.5t-57.5 72t-4 107.5l62 297h43l-62 -290q-16 -78 18 -124.5t104 -46.5q47 0 89 22t71 60l81 379h43l-105 -492h-43l12 58q-66 -68 -156 -68zM209 620l7 37h262l-8 -37h-261z" />
    <glyph glyph-name="Ubreve" unicode="&#x16c;" horiz-adv-x="680" 
d="M314 -11q-81 0 -142 36t-88 104t-7 163l87 408h45l-86 -403q-18 -85 2 -144t69 -90t119 -31q101 0 170.5 69.5t95.5 193.5l86 405h45l-86 -405q-20 -96 -62 -164.5t-104 -105t-144 -36.5zM467 795q-53 0 -89.5 32.5t-35.5 90.5l36 5q1 -48 26.5 -70t65.5 -22q78 0 118 91
l35 -11q-22 -53 -62.5 -84.5t-93.5 -31.5z" />
    <glyph glyph-name="ubreve" unicode="&#x16d;" horiz-adv-x="519" 
d="M212 -10q-55 0 -95.5 25.5t-57.5 72t-4 107.5l62 297h43l-62 -290q-16 -78 18 -124.5t104 -46.5q47 0 89 22t71 60l81 379h43l-105 -492h-43l12 58q-66 -68 -156 -68zM342 587q-53 0 -89.5 32.5t-35.5 90.5l36 5q1 -48 26.5 -70t65.5 -22q78 0 118 91l35 -11
q-22 -53 -62.5 -84.5t-93.5 -31.5z" />
    <glyph glyph-name="Uring" unicode="&#x16e;" horiz-adv-x="680" 
d="M314 -11q-81 0 -142 36t-88 104t-7 163l87 408h45l-86 -403q-18 -85 2 -144t69 -90t119 -31q101 0 170.5 69.5t95.5 193.5l86 405h45l-86 -405q-20 -96 -62 -164.5t-104 -105t-144 -36.5zM463 789q-39 0 -66.5 27.5t-27.5 66.5q0 33 15.5 60t42 43t57.5 16q39 0 67 -27.5
t28 -66.5q0 -33 -15.5 -60t-42 -43t-58.5 -16zM465 822q34 0 57.5 25t23.5 59q0 26 -18.5 44.5t-44.5 18.5q-34 0 -57.5 -24.5t-23.5 -59.5q0 -26 18.5 -44.5t44.5 -18.5z" />
    <glyph glyph-name="uring" unicode="&#x16f;" horiz-adv-x="519" 
d="M212 -10q-55 0 -95.5 25.5t-57.5 72t-4 107.5l62 297h43l-62 -290q-16 -78 18 -124.5t104 -46.5q47 0 89 22t71 60l81 379h43l-105 -492h-43l12 58q-66 -68 -156 -68zM338 581q-39 0 -66.5 27.5t-27.5 66.5q0 33 15.5 60t42 43t57.5 16q39 0 67 -27.5t28 -66.5
q0 -33 -15.5 -60t-42 -43t-58.5 -16zM340 614q34 0 57.5 25t23.5 59q0 26 -18.5 44.5t-44.5 18.5q-34 0 -57.5 -24.5t-23.5 -59.5q0 -26 18.5 -44.5t44.5 -18.5z" />
    <glyph glyph-name="Uhungarumlaut" unicode="&#x170;" horiz-adv-x="680" 
d="M314 -11q-81 0 -142 36t-88 104t-7 163l87 408h45l-86 -403q-18 -85 2 -144t69 -90t119 -31q101 0 170.5 69.5t95.5 193.5l86 405h45l-86 -405q-20 -96 -62 -164.5t-104 -105t-144 -36.5zM471 914h64l-144 -107h-46zM614 914h64l-143 -107h-47z" />
    <glyph glyph-name="uhungarumlaut" unicode="&#x171;" horiz-adv-x="519" 
d="M212 -10q-55 0 -95.5 25.5t-57.5 72t-4 107.5l62 297h43l-62 -290q-16 -78 18 -124.5t104 -46.5q47 0 89 22t71 60l81 379h43l-105 -492h-43l12 58q-66 -68 -156 -68zM346 706h64l-144 -107h-46zM489 706h64l-143 -107h-47z" />
    <glyph glyph-name="Uogonek" unicode="&#x172;" horiz-adv-x="680" 
d="M305 -222q-44 0 -65.5 22.5t-21.5 50.5q0 32 23 66.5t82 71.5q-84 -2 -147 33.5t-91.5 104t-7.5 165.5l87 408h45l-86 -403q-18 -85 2 -144t69 -90t119 -31q101 0 170.5 69.5t95.5 193.5l86 405h45l-86 -405q-25 -119 -82.5 -195.5t-146.5 -100.5q-80 -40 -109 -74.5
t-29 -67.5q0 -20 15 -33t39 -13q25 0 49 11l4 -31q-13 -6 -27.5 -9.5t-31.5 -3.5z" />
    <glyph glyph-name="uogonek" unicode="&#x173;" horiz-adv-x="519" 
d="M308 -222q-39 0 -63 20t-24 53q0 41 36 81t100 68h-1l12 58q-66 -68 -156 -68q-55 0 -95.5 25.5t-57.5 72t-4 107.5l62 297h43l-62 -290q-16 -78 18 -124.5t104 -46.5q47 0 89 22t71 60l81 379h43l-105 -492q-81 -41 -110 -75.5t-29 -67.5q0 -20 15 -33t39 -13
q25 0 49 11l4 -31q-13 -6 -27.5 -9.5t-31.5 -3.5z" />
    <glyph glyph-name="Wcircumflex" unicode="&#x174;" horiz-adv-x="867" 
d="M165 0l-30 700h43l27 -619l302 619h46l40 -621l288 621h46l-327 -700h-42l-40 638l-311 -638h-42zM429 799l122 115h52l72 -115h-35l-67 83l-105 -83h-39z" />
    <glyph glyph-name="wcircumflex" unicode="&#x175;" horiz-adv-x="658" 
d="M111 0l-43 492h43l35 -425l213 425h43l31 -428l217 428h45l-252 -492h-44l-31 428l-214 -428h-43zM279 591l122 115h52l72 -115h-35l-67 83l-105 -83h-39z" />
    <glyph glyph-name="Ycircumflex" unicode="&#x176;" horiz-adv-x="597" 
d="M223 0l62 292l-181 408h48l162 -367l317 367h57l-359 -412l-61 -288h-45zM294 799l122 115h52l72 -115h-35l-67 83l-105 -83h-39z" />
    <glyph glyph-name="ycircumflex" unicode="&#x177;" horiz-adv-x="471" 
d="M-17 -214q-9 0 -20.5 1.5t-23.5 4.5l9 44q8 -3 19.5 -4.5t21.5 -1.5q31 0 58 19.5t52 57.5l60 95l-99 490h45l88 -438l275 438h49l-372 -590q-39 -61 -77 -88.5t-85 -27.5zM186 591l122 115h52l72 -115h-35l-67 83l-105 -83h-39z" />
    <glyph glyph-name="Ydieresis" unicode="&#x178;" horiz-adv-x="597" 
d="M223 0l62 292l-181 408h48l162 -367l317 367h57l-359 -412l-61 -288h-45zM345 811q-13 0 -23 10t-10 25q0 17 12 29t29 12q14 0 23.5 -10t9.5 -24q0 -18 -12 -30t-29 -12zM502 811q-13 0 -23 10t-10 25q0 17 12 29t29 12q14 0 23.5 -10t9.5 -24q0 -18 -12 -30t-29 -12z
" />
    <glyph glyph-name="Zacute" unicode="&#x179;" horiz-adv-x="586" 
d="M-27 0l8 35l588 622h-452l8 43h519l-8 -35l-588 -622h466l-9 -43h-532zM384 804l117 110h68l-139 -110h-46z" />
    <glyph glyph-name="zacute" unicode="&#x17a;" horiz-adv-x="437" 
d="M-20 0l8 39l393 411h-302l9 42h361l-8 -39l-393 -411h307l-9 -42h-366zM265 596l117 110h68l-139 -110h-46z" />
    <glyph glyph-name="Zdotaccent" unicode="&#x17b;" horiz-adv-x="586" 
d="M-27 0l8 35l588 622h-452l8 43h519l-8 -35l-588 -622h466l-9 -43h-532zM417 811q-13 0 -23 10t-10 25q0 17 12 29t29 12q14 0 23.5 -10t9.5 -24q0 -18 -12 -30t-29 -12z" />
    <glyph glyph-name="zdotaccent" unicode="&#x17c;" horiz-adv-x="437" 
d="M-20 0l8 39l393 411h-302l9 42h361l-8 -39l-393 -411h307l-9 -42h-366zM298 603q-13 0 -23 10t-10 25q0 17 12 29t29 12q14 0 23.5 -10t9.5 -24q0 -18 -12 -30t-29 -12z" />
    <glyph glyph-name="Zcaron" unicode="&#x17d;" horiz-adv-x="586" 
d="M-27 0l8 35l588 622h-452l8 43h519l-8 -35l-588 -622h466l-9 -43h-532zM384 802l-72 114h37l66 -83l101 83h42l-122 -114h-52z" />
    <glyph glyph-name="zcaron" unicode="&#x17e;" horiz-adv-x="437" 
d="M-20 0l8 39l393 411h-302l9 42h361l-8 -39l-393 -411h307l-9 -42h-366zM265 594l-72 114h37l66 -83l101 83h42l-122 -114h-52z" />
    <glyph glyph-name="Scommaaccent" unicode="&#x218;" horiz-adv-x="576" 
d="M283 -11q-86 0 -158.5 39.5t-122.5 114.5l38 26q44 -67 106 -102t136 -35q63 0 110.5 21t74 58t26.5 85q0 51 -36 80t-122 54l-74 21q-87 25 -130.5 66t-43.5 106q0 57 29.5 99.5t82.5 65.5t124 23q70 0 140 -29.5t127 -82.5l-30 -33q-52 49 -114.5 75.5t-124.5 26.5
q-87 0 -137.5 -40t-50.5 -105q0 -47 33.5 -77t106.5 -51l74 -21q99 -28 145.5 -68.5t46.5 -109.5q0 -62 -33 -108.5t-90.5 -72.5t-132.5 -26zM182 -254l72 168h51l-87 -168h-36z" />
    <glyph glyph-name="scommaaccent" unicode="&#x219;" horiz-adv-x="417" 
d="M187 -12q-60 0 -111.5 25t-86.5 71l35 27q29 -38 71 -60t91 -22q63 0 104.5 31.5t41.5 77.5q0 32 -20.5 50.5t-70.5 30.5l-74 18q-63 15 -92 44t-29 77q0 43 22 75t61.5 50.5t89.5 18.5q51 0 99.5 -20.5t91.5 -60.5l-30 -32q-38 35 -78 53.5t-84 18.5q-58 0 -93 -28
t-35 -73q0 -31 19 -50t68 -31l74 -18q65 -16 95 -44t30 -77q0 -43 -25 -77.5t-67.5 -54.5t-96.5 -20zM83 -254l72 168h51l-87 -168h-36z" />
    <glyph glyph-name="uni021A" unicode="&#x21a;" horiz-adv-x="588" 
d="M220 0l140 657h-256l9 43h556l-9 -43h-255l-140 -657h-45zM138 -254l72 168h51l-87 -168h-36z" />
    <glyph glyph-name="uni021B" unicode="&#x21b;" horiz-adv-x="330" 
d="M199 -10q-62 0 -90 30.5t-16 85.5l74 346h-107l9 40h106l27 124l46 14l-29 -138h146l-9 -40h-146l-72 -337q-10 -45 8 -64.5t69 -19.5q11 0 23.5 2.5t32.5 8.5l-9 -43q-16 -4 -31.5 -6.5t-31.5 -2.5zM79 -254l72 168h51l-87 -168h-36z" />
    <glyph glyph-name="dotlessj" unicode="&#x237;" horiz-adv-x="178" 
d="M-87 -214q-10 0 -20 1.5t-20 3.5l9 44q9 -4 19 -5t20 -1q32 0 50 19t26 57l124 587h43l-126 -597q-10 -51 -43 -80t-82 -29z" />
    <glyph glyph-name="uni02BB" unicode="&#x2bb;" horiz-adv-x="250" 
d="M288 724l-91 -188h-53l106 188h38z" />
    <glyph glyph-name="uni02BC" unicode="&#x2bc;" horiz-adv-x="250" 
d="M133 521l91 188h53l-106 -188h-38z" />
    <glyph glyph-name="circumflex" unicode="&#x2c6;" 
d="M251 591l122 115h52l72 -115h-35l-67 83l-105 -83h-39z" />
    <glyph glyph-name="caron" unicode="&#x2c7;" 
d="M347 594l-72 114h37l66 -83l101 83h42l-122 -114h-52z" />
    <glyph glyph-name="breve" unicode="&#x2d8;" 
d="M383 587q-53 0 -89.5 32.5t-35.5 90.5l36 5q1 -48 26.5 -70t65.5 -22q78 0 118 91l35 -11q-22 -53 -62.5 -84.5t-93.5 -31.5z" />
    <glyph glyph-name="dotaccent" unicode="&#x2d9;" 
d="M380 603q-13 0 -23 10t-10 25q0 17 12 29t29 12q14 0 23.5 -10t9.5 -24q0 -18 -12 -30t-29 -12z" />
    <glyph glyph-name="ring" unicode="&#x2da;" 
d="M379 581q-39 0 -66.5 27.5t-27.5 66.5q0 33 15.5 60t42 43t57.5 16q39 0 67 -27.5t28 -66.5q0 -33 -15.5 -60t-42 -43t-58.5 -16zM381 614q34 0 57.5 25t23.5 59q0 26 -18.5 44.5t-44.5 18.5q-34 0 -57.5 -24.5t-23.5 -59.5q0 -26 18.5 -44.5t44.5 -18.5z" />
    <glyph glyph-name="ogonek" unicode="&#x2db;" 
d="M208 -222q-39 0 -63 20t-24 53q0 37 33 78.5t121 87.5l24 -17q-81 -41 -110 -75.5t-29 -67.5q0 -20 15 -33t39 -13q25 0 49 11l4 -31q-15 -7 -29.5 -10t-29.5 -3z" />
    <glyph glyph-name="tilde" unicode="&#x2dc;" 
d="M261 598l-37 10q39 81 92 81q27 0 50 -14.5t45 -28.5t43 -14q17 0 28.5 12.5t24.5 40.5l37 -10q-19 -43 -42 -62t-52 -19q-26 0 -49.5 14t-45 28t-42.5 14q-16 0 -28 -12t-24 -40z" />
    <glyph glyph-name="hungarumlaut" unicode="&#x2dd;" 
d="M387 706h64l-144 -107h-46zM530 706h64l-143 -107h-47z" />
    <glyph glyph-name="Wgrave" unicode="&#x1e80;" horiz-adv-x="867" 
d="M165 0l-30 700h43l27 -619l302 619h46l40 -621l288 621h46l-327 -700h-42l-40 638l-311 -638h-42zM532 804l-116 110h65l93 -110h-42z" />
    <glyph glyph-name="wgrave" unicode="&#x1e81;" horiz-adv-x="658" 
d="M111 0l-43 492h43l35 -425l213 425h43l31 -428l217 428h45l-252 -492h-44l-31 428l-214 -428h-43zM382 596l-116 110h65l93 -110h-42z" />
    <glyph glyph-name="Wacute" unicode="&#x1e82;" horiz-adv-x="867" 
d="M165 0l-30 700h43l27 -619l302 619h46l40 -621l288 621h46l-327 -700h-42l-40 638l-311 -638h-42zM525 804l117 110h68l-139 -110h-46z" />
    <glyph glyph-name="wacute" unicode="&#x1e83;" horiz-adv-x="658" 
d="M111 0l-43 492h43l35 -425l213 425h43l31 -428l217 428h45l-252 -492h-44l-31 428l-214 -428h-43zM375 596l117 110h68l-139 -110h-46z" />
    <glyph glyph-name="Wdieresis" unicode="&#x1e84;" horiz-adv-x="867" 
d="M165 0l-30 700h43l27 -619l302 619h46l40 -621l288 621h46l-327 -700h-42l-40 638l-311 -638h-42zM480 811q-13 0 -23 10t-10 25q0 17 12 29t29 12q14 0 23.5 -10t9.5 -24q0 -18 -12 -30t-29 -12zM637 811q-13 0 -23 10t-10 25q0 17 12 29t29 12q14 0 23.5 -10t9.5 -24
q0 -18 -12 -30t-29 -12z" />
    <glyph glyph-name="wdieresis" unicode="&#x1e85;" horiz-adv-x="658" 
d="M111 0l-43 492h43l35 -425l213 425h43l31 -428l217 428h45l-252 -492h-44l-31 428l-214 -428h-43zM330 603q-13 0 -23 10t-10 25q0 17 12 29t29 12q14 0 23.5 -10t9.5 -24q0 -18 -12 -30t-29 -12zM487 603q-13 0 -23 10t-10 25q0 17 12 29t29 12q14 0 23.5 -10t9.5 -24
q0 -18 -12 -30t-29 -12z" />
    <glyph glyph-name="Ygrave" unicode="&#x1ef2;" horiz-adv-x="597" 
d="M223 0l62 292l-181 408h48l162 -367l317 367h57l-359 -412l-61 -288h-45zM397 804l-116 110h65l93 -110h-42z" />
    <glyph glyph-name="ygrave" unicode="&#x1ef3;" horiz-adv-x="471" 
d="M-17 -214q-9 0 -20.5 1.5t-23.5 4.5l9 44q8 -3 19.5 -4.5t21.5 -1.5q31 0 58 19.5t52 57.5l60 95l-99 490h45l88 -438l275 438h49l-372 -590q-39 -61 -77 -88.5t-85 -27.5zM289 596l-116 110h65l93 -110h-42z" />
    <glyph glyph-name="enspace" unicode="&#x2002;" horiz-adv-x="500" 
 />
    <glyph glyph-name="emspace" unicode="&#x2003;" horiz-adv-x="1000" 
 />
    <glyph glyph-name="thinspace" unicode="&#x2009;" horiz-adv-x="175" 
 />
    <glyph glyph-name="hairspace" unicode="&#x200a;" horiz-adv-x="100" 
 />
    <glyph glyph-name="zerowidthspace" unicode="&#x200b;" horiz-adv-x="0" 
 />
    <glyph glyph-name="endash" unicode="&#x2013;" horiz-adv-x="532" 
d="M64 302h428l-9 -44h-428z" />
    <glyph glyph-name="emdash" unicode="&#x2014;" horiz-adv-x="678" 
d="M64 302h575l-9 -44h-575z" />
    <glyph glyph-name="uni2015" unicode="&#x2015;" horiz-adv-x="924" 
d="M64 302h820l-9 -44h-820z" />
    <glyph glyph-name="quoteleft" unicode="&#x2018;" horiz-adv-x="250" 
d="M285 709l-91 -188h-53l106 188h38z" />
    <glyph glyph-name="quoteright" unicode="&#x2019;" horiz-adv-x="250" 
d="M133 521l91 188h53l-106 -188h-38z" />
    <glyph glyph-name="quotesinglbase" unicode="&#x201a;" horiz-adv-x="250" 
d="M-16 -131l91 188h53l-106 -188h-38z" />
    <glyph glyph-name="quotedblleft" unicode="&#x201c;" horiz-adv-x="360" 
d="M285 709l-91 -188h-53l106 188h38zM395 709l-91 -188h-53l106 188h38z" />
    <glyph glyph-name="quotedblright" unicode="&#x201d;" horiz-adv-x="360" 
d="M251 521l91 188h53l-106 -188h-38zM141 521l91 188h53l-106 -188h-38z" />
    <glyph glyph-name="quotedblbase" unicode="&#x201e;" horiz-adv-x="360" 
d="M94 -131l91 188h53l-106 -188h-38zM-16 -131l91 188h53l-106 -188h-38z" />
    <glyph glyph-name="dagger" unicode="&#x2020;" horiz-adv-x="405" 
d="M128 0l97 455h-126l9 40h125l44 205h44l-44 -205h127l-9 -40h-126l-97 -455h-44z" />
    <glyph glyph-name="daggerdbl" unicode="&#x2021;" horiz-adv-x="405" 
d="M128 0l44 206h-126l9 40h125l45 209h-126l9 40h125l44 205h44l-44 -205h127l-9 -40h-126l-45 -209h127l-9 -40h-126l-44 -206h-44z" />
    <glyph glyph-name="bullet" unicode="&#x2022;" horiz-adv-x="311" 
d="M171 267q-34 0 -58 24.5t-24 58.5q0 30 13.5 54t36.5 38.5t51 14.5q34 0 58 -24t24 -59q0 -29 -13.5 -53.5t-36.5 -39t-51 -14.5z" />
    <glyph glyph-name="ellipsis" unicode="&#x2026;" horiz-adv-x="599" 
d="M76 -5q-13 0 -23 10t-10 25q0 12 5.5 21t15 14.5t20.5 5.5q14 0 23.5 -10t9.5 -24q0 -12 -5.5 -21.5t-14.5 -15t-21 -5.5zM250 -5q-13 0 -23 10t-10 25q0 12 5.5 21t15 14.5t20.5 5.5q14 0 23.5 -10t9.5 -24q0 -12 -5.5 -21.5t-14.5 -15t-21 -5.5zM425 -5q-13 0 -23 10
t-10 25q0 12 5.5 21t15 14.5t20.5 5.5q14 0 23.5 -10t9.5 -24q0 -12 -5.5 -21.5t-14.5 -15t-21 -5.5z" />
    <glyph glyph-name="perthousand" unicode="&#x2030;" horiz-adv-x="1077" 
d="M208 345q-55 0 -88 37.5t-33 99.5q0 61 23 111.5t61 81t84 30.5q56 0 88.5 -37.5t32.5 -99.5q0 -61 -23 -111.5t-61 -81t-84 -30.5zM213 379q34 0 63 26.5t46.5 69.5t17.5 94q0 47 -24 74.5t-66 27.5q-34 0 -63 -26t-46.5 -69.5t-17.5 -94.5q0 -47 24 -74.5t66 -27.5z
M109 0l531 700h46l-531 -700h-46zM533 -5q-55 0 -88 37.5t-33 99.5q0 61 23 111.5t61 81t84 30.5q56 0 88.5 -37.5t32.5 -99.5q0 -61 -23 -111.5t-61 -81t-84 -30.5zM538 29q34 0 63 26.5t46.5 69.5t17.5 94q0 47 -24 74.5t-66 27.5q-34 0 -63 -26.5t-46.5 -69.5t-17.5 -94
q0 -47 24 -74.5t66 -27.5zM867 -5q-55 0 -88 37.5t-33 99.5q0 61 23 111.5t61 81t84 30.5q56 0 88.5 -37.5t32.5 -99.5q0 -61 -23 -111.5t-61 -81t-84 -30.5zM872 29q34 0 63 26.5t46.5 69.5t17.5 94q0 47 -24 74.5t-66 27.5q-34 0 -63 -26.5t-46.5 -69.5t-17.5 -94
q0 -47 24 -74.5t66 -27.5z" />
    <glyph glyph-name="uni2032" unicode="&#x2032;" horiz-adv-x="250" 
d="M133 521l91 188h53l-106 -188h-38z" />
    <glyph glyph-name="uni2033" unicode="&#x2033;" horiz-adv-x="360" 
d="M243 521l91 188h53l-106 -188h-38zM133 521l91 188h53l-106 -188h-38z" />
    <glyph glyph-name="guilsinglleft" unicode="&#x2039;" horiz-adv-x="363" 
d="M364 492l-280 -250l171 -242h-46l-174 246l275 246h54z" />
    <glyph glyph-name="guilsinglright" unicode="&#x203a;" horiz-adv-x="364" 
d="M0 0l280 250l-171 242h46l174 -246l-275 -246h-54z" />
    <glyph glyph-name="fraction" unicode="&#x2044;" horiz-adv-x="566" 
d="M18 0l531 700h46l-531 -700h-46z" />
    <glyph glyph-name="uni2070" unicode="&#x2070;" horiz-adv-x="342" 
d="M208 345q-55 0 -88 37.5t-33 99.5q0 61 23 111.5t61 81t84 30.5q56 0 88.5 -37.5t32.5 -99.5q0 -61 -23 -111.5t-61 -81t-84 -30.5zM213 379q34 0 63 26.5t46.5 69.5t17.5 94q0 47 -24 74.5t-66 27.5q-34 0 -63 -26t-46.5 -69.5t-17.5 -94.5q0 -47 24 -74.5t66 -27.5z
" />
    <glyph glyph-name="uni2074" unicode="&#x2074;" horiz-adv-x="312" 
d="M239 350l20 93h-196l6 28l241 229h40l-49 -224h42l-7 -33h-42l-20 -93h-35zM123 476h143l38 172z" />
    <glyph glyph-name="uni2075" unicode="&#x2075;" horiz-adv-x="290" 
d="M177 345q-34 0 -67 13.5t-56 42.5l26 24q19 -23 42.5 -35t56.5 -12q44 0 72 25t28 62q0 33 -23.5 52t-66.5 19q-16 0 -33.5 -2.5t-36.5 -8.5l-19 9l42 166h203l-6 -33h-170l-28 -109q14 4 28.5 6.5t29.5 2.5q52 0 83.5 -28t31.5 -72q0 -34 -17 -61.5t-48 -44t-72 -16.5z
" />
    <glyph glyph-name="uni2076" unicode="&#x2076;" horiz-adv-x="317" 
d="M205 345q-54 0 -86.5 37t-32.5 98q0 64 25.5 114.5t68.5 80.5t97 30q23 0 47 -7.5t43 -21.5l-25 -27q-33 23 -69 23q-54 0 -94.5 -41t-52.5 -105q22 20 49.5 31.5t54.5 11.5q45 0 76.5 -29.5t31.5 -73.5q0 -33 -18 -60.5t-48 -44t-67 -16.5zM207 378q39 0 67 25.5
t28 61.5q0 32 -23 52.5t-58 20.5q-53 0 -99 -44q-4 -52 19 -84t66 -32z" />
    <glyph glyph-name="uni2077" unicode="&#x2077;" horiz-adv-x="283" 
d="M75 350l244 317h-213l6 33h257l-5 -29l-246 -321h-43z" />
    <glyph glyph-name="uni2078" unicode="&#x2078;" horiz-adv-x="317" 
d="M194 345q-53 0 -87.5 26.5t-34.5 67.5q0 35 26 62.5t65 37.5q-43 22 -43 68q0 27 16.5 49.5t44.5 35.5t61 13q47 0 78 -24.5t31 -61.5q0 -29 -21 -54t-56 -35q26 -11 41 -31.5t15 -45.5q0 -30 -18.5 -54.5t-49 -39t-68.5 -14.5zM229 549q36 0 61.5 20t25.5 48
q0 25 -21 40.5t-53 15.5q-36 0 -61.5 -19.5t-25.5 -48.5q0 -25 21 -40.5t53 -15.5zM194 377q42 0 71.5 22.5t29.5 55.5q0 29 -24 46.5t-63 17.5q-42 0 -71.5 -22.5t-29.5 -55.5q0 -28 24 -46t63 -18z" />
    <glyph glyph-name="uni2079" unicode="&#x2079;" horiz-adv-x="317" 
d="M230 704q54 0 86.5 -36.5t32.5 -98.5q0 -64 -25 -114.5t-68.5 -80.5t-97.5 -30q-23 0 -46.5 7.5t-43.5 21.5l25 27q33 -23 69 -23q54 0 94.5 41t52.5 105q-22 -19 -49.5 -31t-54.5 -12q-45 0 -76.5 30t-31.5 73q0 33 18 60.5t48.5 44t66.5 16.5zM228 671q-39 0 -67 -25.5
t-28 -61.5q0 -32 23 -52.5t58 -20.5q53 0 99 44q5 53 -18 84.5t-67 31.5z" />
    <glyph glyph-name="uni2080" unicode="&#x2080;" horiz-adv-x="343" 
d="M134 -5q-55 0 -88 37.5t-33 99.5q0 61 23 111.5t61 81t84 30.5q56 0 88.5 -37.5t32.5 -99.5q0 -61 -23 -111.5t-61 -81t-84 -30.5zM139 29q34 0 63 26.5t46.5 69.5t17.5 94q0 47 -24 74.5t-66 27.5q-34 0 -63 -26.5t-46.5 -69.5t-17.5 -94q0 -47 24 -74.5t66 -27.5z" />
    <glyph glyph-name="uni2081" unicode="&#x2081;" horiz-adv-x="148" 
d="M29 0l65 307l-65 -26l9 38l76 31h24l-74 -350h-35z" />
    <glyph glyph-name="uni2082" unicode="&#x2082;" horiz-adv-x="279" 
d="M-26 0l7 28l178 145q34 28 48 49t14 45q0 25 -19.5 40t-51.5 15q-23 0 -45.5 -9t-51.5 -30l-22 26q32 23 61 34.5t58 11.5q47 0 76.5 -24.5t29.5 -63.5q0 -31 -17.5 -58.5t-57.5 -59.5l-144 -116h175l-6 -33h-232z" />
    <glyph glyph-name="uni2083" unicode="&#x2083;" horiz-adv-x="299" 
d="M107 -5q-42 0 -73.5 15t-54.5 44l28 22q17 -24 42.5 -36t59.5 -12q40 0 67 20.5t27 51.5q0 27 -21 44t-55 17h-28l6 31h27q40 0 66.5 20t26.5 50q0 27 -20.5 43.5t-53.5 16.5q-48 0 -96 -37l-18 27q28 21 58 32t60 11q46 0 75.5 -25.5t29.5 -63.5q0 -31 -20.5 -55
t-56.5 -35q26 -10 40.5 -29t14.5 -45q0 -30 -17.5 -54.5t-47 -38.5t-66.5 -14z" />
    <glyph glyph-name="uni2084" unicode="&#x2084;" horiz-adv-x="312" 
d="M165 0l20 93h-196l6 28l241 229h40l-49 -224h42l-7 -33h-42l-20 -93h-35zM49 126h143l38 172z" />
    <glyph glyph-name="uni2085" unicode="&#x2085;" horiz-adv-x="290" 
d="M103 -5q-34 0 -67 13.5t-56 42.5l26 24q19 -23 42.5 -35t56.5 -12q44 0 72 25t28 62q0 33 -23.5 52t-66.5 19q-16 0 -33.5 -2.5t-36.5 -8.5l-19 9l42 166h203l-6 -33h-170l-28 -109q14 4 28.5 6.5t29.5 2.5q52 0 83.5 -28t31.5 -72q0 -34 -17 -61.5t-48 -44t-72 -16.5z
" />
    <glyph glyph-name="uni2086" unicode="&#x2086;" horiz-adv-x="317" 
d="M131 -5q-54 0 -86.5 37t-32.5 98q0 64 25.5 114.5t68.5 80.5t97 30q23 0 47 -7.5t43 -21.5l-25 -27q-33 23 -69 23q-54 0 -94.5 -41t-52.5 -105q22 20 49.5 31.5t54.5 11.5q45 0 76.5 -29.5t31.5 -73.5q0 -33 -18 -60.5t-48 -44t-67 -16.5zM133 28q39 0 67 25.5t28 61.5
q0 32 -23 52.5t-58 20.5q-53 0 -99 -44q-4 -52 19 -84t66 -32z" />
    <glyph glyph-name="uni2087" unicode="&#x2087;" horiz-adv-x="283" 
d="M1 0l244 317h-213l6 33h257l-5 -29l-246 -321h-43z" />
    <glyph glyph-name="uni2088" unicode="&#x2088;" horiz-adv-x="317" 
d="M120 -5q-53 0 -87.5 26.5t-34.5 67.5q0 35 26 62.5t65 37.5q-43 22 -43 68q0 27 16.5 49.5t44.5 35.5t61 13q47 0 78 -24.5t31 -61.5q0 -29 -21 -54t-56 -35q26 -11 41 -31.5t15 -45.5q0 -30 -18.5 -54.5t-49 -39t-68.5 -14.5zM155 199q36 0 61.5 20t25.5 48
q0 25 -21 40.5t-53 15.5q-36 0 -61.5 -19.5t-25.5 -48.5q0 -25 21 -40.5t53 -15.5zM120 27q42 0 71.5 22.5t29.5 55.5q0 29 -24 46.5t-63 17.5q-42 0 -71.5 -22.5t-29.5 -55.5q0 -28 24 -46t63 -18z" />
    <glyph glyph-name="uni2089" unicode="&#x2089;" horiz-adv-x="317" 
d="M156 354q54 0 86.5 -36.5t32.5 -98.5q0 -63 -25 -114t-68.5 -81t-97.5 -30q-23 0 -46.5 7.5t-43.5 21.5l25 27q33 -23 69 -23q54 0 94.5 41t52.5 105q-22 -19 -49.5 -31t-54.5 -12q-45 0 -76.5 30t-31.5 73q0 33 18 60.5t48 44t67 16.5zM154 321q-39 0 -67 -25.5
t-28 -61.5q0 -32 23 -52.5t58 -20.5q53 0 99 44q5 53 -18 84.5t-67 31.5z" />
    <glyph glyph-name="Euro" unicode="&#x20ac;" horiz-adv-x="753" 
d="M431 -11q-82 0 -145 34t-100 95.5t-41 143.5h-110l9 41h102q1 24 4.5 48t8.5 46h-96l10 41h99q28 80 80.5 141.5t122 96.5t148.5 35q84 0 151.5 -38.5t103.5 -109.5l-38 -20q-31 61 -87.5 93t-129.5 32q-66 0 -125.5 -29.5t-105 -81t-72.5 -119.5h294l-23 -41h-284
q-7 -22 -10.5 -45.5t-4.5 -48.5h247l-21 -41h-227q4 -70 34.5 -121.5t83.5 -80t122 -28.5q61 0 116.5 23.5t101.5 69.5l29 -32q-50 -50 -114.5 -77t-132.5 -27z" />
    <glyph glyph-name="trademark" unicode="&#x2122;" horiz-adv-x="656" 
d="M356 425l58 275h37l56 -196l134 196h39l-58 -275h-31l49 234l-147 -215l-58 208l-48 -227h-31zM174 425l52 247h-99l6 28h229l-6 -28h-99l-52 -247h-31z" />
    <glyph glyph-name="uni2191" unicode="&#x2191;" horiz-adv-x="598" 
d="M279 0v652l-173 -231l-33 23l227 306l225 -306l-31 -20l-175 236v-660h-40z" />
    <glyph glyph-name="uni2193" unicode="&#x2193;" horiz-adv-x="598" 
d="M319 700v-652l173 231l33 -23l-227 -306l-225 306l31 20l175 -236v660h40z" />
    <glyph glyph-name="minus" unicode="&#x2212;" 
d="M131 337l8 41h377l-8 -41h-377z" />
    <glyph glyph-name="uni2215" unicode="&#x2215;" horiz-adv-x="566" 
d="M18 0l531 700h46l-531 -700h-46z" />
    <glyph glyph-name="notequal" unicode="&#x2260;" 
d="M86 147l116 116h-86l8 41h119l109 108h-204l8 41h237l116 116h53l-116 -116h87l-8 -41h-120l-109 -108h205l-8 -41h-238l-116 -116h-53z" />
    <glyph glyph-name="fi" unicode="&#xfb01;" horiz-adv-x="519" 
d="M81 0l95 452h-116l9 40h116l25 119q14 64 50.5 96.5t94.5 32.5q20 0 36 -3t34 -11l-8 -42q-17 8 -31 11t-31 3q-43 0 -67.5 -22.5t-35.5 -72.5l-24 -111h149l-9 -40h-148l-96 -452h-43zM357 0l105 492h43l-105 -492h-43zM511 603q-14 0 -24 10t-10 25q0 12 5.5 21
t15 14.5t20.5 5.5q14 0 24 -10t10 -24q0 -12 -5.5 -21.5t-15 -15t-20.5 -5.5z" />
    <glyph glyph-name="fl" unicode="&#xfb02;" horiz-adv-x="519" 
d="M81 0l95 452h-116l9 40h116l25 119q14 64 50.5 96.5t94.5 32.5q20 0 36 -3t34 -11l-8 -42q-17 8 -31 11t-31 3q-43 0 -67.5 -22.5t-35.5 -72.5l-24 -111h149l-9 -40h-148l-96 -452h-43zM357 0l149 700l45 11l-151 -711h-43z" />
    <glyph glyph-name="uniFEFF" unicode="&#xfeff;" horiz-adv-x="0" 
 />
    <glyph glyph-name="uniFFFD" unicode="&#xfffd;" horiz-adv-x="514" 
d="M61 -100v850h394v-850h-394z" />
    <glyph glyph-name="NULL" horiz-adv-x="221" 
 />
    <glyph glyph-name="CR" horiz-adv-x="221" 
 />
    <glyph glyph-name="idotaccent" horiz-adv-x="178" 
d="M16 0l105 492h43l-105 -492h-43zM170 603q-14 0 -24 10t-10 25q0 12 5.5 21t15 14.5t20.5 5.5q14 0 24 -10t10 -24q0 -12 -5.5 -21.5t-15 -15t-20.5 -5.5z" />
    <glyph glyph-name="a.school" horiz-adv-x="560" 
d="M259 -10q-62 0 -111 29.5t-77 81.5t-28 117q0 59 21 110t58 90.5t86 61.5t104 22q54 0 100 -22t75 -60l15 72h43l-105 -492h-43l9 41q-67 -51 -147 -51zM266 32q42 0 81 16.5t70 46.5l58 271q-19 41 -64 67.5t-98 26.5q-63 0 -114 -32.5t-81.5 -86.5t-30.5 -120
q0 -55 23 -98t63.5 -67t92.5 -24z" />
    <glyph glyph-name="aacute.school" horiz-adv-x="560" 
d="M259 -10q-62 0 -111 29.5t-77 81.5t-28 117q0 59 21 110t58 90.5t86 61.5t104 22q54 0 100 -22t75 -60l15 72h43l-105 -492h-43l9 41q-67 -51 -147 -51zM266 32q42 0 81 16.5t70 46.5l58 271q-19 41 -64 67.5t-98 26.5q-63 0 -114 -32.5t-81.5 -86.5t-30.5 -120
q0 -55 23 -98t63.5 -67t92.5 -24zM314 596l117 110h68l-139 -110h-46z" />
    <glyph glyph-name="abreve.school" horiz-adv-x="560" 
d="M259 -10q-62 0 -111 29.5t-77 81.5t-28 117q0 59 21 110t58 90.5t86 61.5t104 22q54 0 100 -22t75 -60l15 72h43l-105 -492h-43l9 41q-67 -51 -147 -51zM266 32q42 0 81 16.5t70 46.5l58 271q-19 41 -64 67.5t-98 26.5q-63 0 -114 -32.5t-81.5 -86.5t-30.5 -120
q0 -55 23 -98t63.5 -67t92.5 -24zM350 587q-53 0 -89.5 32.5t-35.5 90.5l36 5q1 -48 26.5 -70t65.5 -22q78 0 118 91l35 -11q-22 -53 -62.5 -84.5t-93.5 -31.5z" />
    <glyph glyph-name="acircumflex.school" horiz-adv-x="560" 
d="M259 -10q-62 0 -111 29.5t-77 81.5t-28 117q0 59 21 110t58 90.5t86 61.5t104 22q54 0 100 -22t75 -60l15 72h43l-105 -492h-43l9 41q-67 -51 -147 -51zM266 32q42 0 81 16.5t70 46.5l58 271q-19 41 -64 67.5t-98 26.5q-63 0 -114 -32.5t-81.5 -86.5t-30.5 -120
q0 -55 23 -98t63.5 -67t92.5 -24zM218 591l122 115h52l72 -115h-35l-67 83l-105 -83h-39z" />
    <glyph glyph-name="adieresis.school" horiz-adv-x="560" 
d="M259 -10q-62 0 -111 29.5t-77 81.5t-28 117q0 59 21 110t58 90.5t86 61.5t104 22q54 0 100 -22t75 -60l15 72h43l-105 -492h-43l9 41q-67 -51 -147 -51zM266 32q42 0 81 16.5t70 46.5l58 271q-19 41 -64 67.5t-98 26.5q-63 0 -114 -32.5t-81.5 -86.5t-30.5 -120
q0 -55 23 -98t63.5 -67t92.5 -24zM269 603q-13 0 -23 10t-10 25q0 17 12 29t29 12q14 0 23.5 -10t9.5 -24q0 -18 -12 -30t-29 -12zM426 603q-13 0 -23 10t-10 25q0 17 12 29t29 12q14 0 23.5 -10t9.5 -24q0 -18 -12 -30t-29 -12z" />
    <glyph glyph-name="agrave.school" horiz-adv-x="560" 
d="M259 -10q-62 0 -111 29.5t-77 81.5t-28 117q0 59 21 110t58 90.5t86 61.5t104 22q54 0 100 -22t75 -60l15 72h43l-105 -492h-43l9 41q-67 -51 -147 -51zM266 32q42 0 81 16.5t70 46.5l58 271q-19 41 -64 67.5t-98 26.5q-63 0 -114 -32.5t-81.5 -86.5t-30.5 -120
q0 -55 23 -98t63.5 -67t92.5 -24zM321 596l-116 110h65l93 -110h-42z" />
    <glyph glyph-name="amacron.school" horiz-adv-x="560" 
d="M259 -10q-62 0 -111 29.5t-77 81.5t-28 117q0 59 21 110t58 90.5t86 61.5t104 22q54 0 100 -22t75 -60l15 72h43l-105 -492h-43l9 41q-67 -51 -147 -51zM266 32q42 0 81 16.5t70 46.5l58 271q-19 41 -64 67.5t-98 26.5q-63 0 -114 -32.5t-81.5 -86.5t-30.5 -120
q0 -55 23 -98t63.5 -67t92.5 -24zM217 620l7 37h262l-8 -37h-261z" />
    <glyph glyph-name="aogonek.school" horiz-adv-x="560" 
d="M349 -222q-39 0 -63 20t-24 53q0 42 36.5 82t99.5 67h-1l9 41q-67 -51 -147 -51q-62 0 -111 29.5t-77 81.5t-28 117q0 59 21 110t58 90.5t86 61.5t104 22q53 0 99 -21.5t76 -60.5l15 72h43l-105 -492q-72 -37 -105.5 -71t-33.5 -72q0 -20 15 -33t39 -13q25 0 49 11l4 -31
q-15 -7 -29.5 -10t-29.5 -3zM266 32q86 0 151 63l58 271q-19 41 -64 67.5t-98 26.5q-63 0 -114 -32.5t-81.5 -86.5t-30.5 -120q0 -55 23 -98t63.5 -67t92.5 -24z" />
    <glyph glyph-name="aring.school" horiz-adv-x="560" 
d="M259 -10q-62 0 -111 29.5t-77 81.5t-28 117q0 59 21 110t58 90.5t86 61.5t104 22q54 0 100 -22t75 -60l15 72h43l-105 -492h-43l9 41q-67 -51 -147 -51zM266 32q42 0 81 16.5t70 46.5l58 271q-19 41 -64 67.5t-98 26.5q-63 0 -114 -32.5t-81.5 -86.5t-30.5 -120
q0 -55 23 -98t63.5 -67t92.5 -24zM346 581q-39 0 -66.5 27.5t-27.5 66.5q0 33 15.5 60t42 43t57.5 16q39 0 67 -27.5t28 -66.5q0 -33 -15.5 -60t-42 -43t-58.5 -16zM348 614q34 0 57.5 25t23.5 59q0 26 -18.5 44.5t-44.5 18.5q-34 0 -57.5 -24.5t-23.5 -59.5
q0 -26 18.5 -44.5t44.5 -18.5z" />
    <glyph glyph-name="atilde.school" horiz-adv-x="560" 
d="M259 -10q-62 0 -111 29.5t-77 81.5t-28 117q0 59 21 110t58 90.5t86 61.5t104 22q54 0 100 -22t75 -60l15 72h43l-105 -492h-43l9 41q-67 -51 -147 -51zM266 32q42 0 81 16.5t70 46.5l58 271q-19 41 -64 67.5t-98 26.5q-63 0 -114 -32.5t-81.5 -86.5t-30.5 -120
q0 -55 23 -98t63.5 -67t92.5 -24zM228 598l-37 10q39 81 92 81q27 0 50 -14.5t45 -28.5t43 -14q17 0 28.5 12.5t24.5 40.5l37 -10q-19 -43 -42 -62t-52 -19q-26 0 -49.5 14t-45 28t-42.5 14q-16 0 -28 -12t-24 -40z" />
    <glyph glyph-name="g.alt" horiz-adv-x="489" 
d="M190 -214q-103 0 -164 31.5t-61 84.5q0 38 29.5 68t84.5 48q-29 23 -29 57q0 29 25.5 55t65.5 37q-35 23 -56 59t-21 79q0 55 28.5 99.5t77 71t107.5 26.5q37 0 69 -13t57 -36q15 30 46.5 49t67.5 19q7 0 14 -0.5t13 -1.5l-6 -47q-10 2 -18.5 3.5t-16.5 1.5
q-54 0 -83 -43q35 -45 35 -100t-28.5 -100t-77 -71.5t-107.5 -26.5q-33 0 -64 11q-36 -6 -58.5 -23.5t-22.5 -41.5q0 -37 54 -43l163 -20q51 -6 78.5 -30t27.5 -65t-28.5 -72.5t-80 -48.5t-121.5 -17zM242 178q47 0 85 21t61 56.5t23 78.5q0 34 -18 62.5t-48.5 46
t-67.5 17.5q-46 0 -84.5 -20.5t-61.5 -55.5t-23 -79q0 -34 18 -63t48.5 -46.5t67.5 -17.5zM194 -174q80 0 130 25.5t50 65.5q0 24 -17.5 39.5t-52.5 19.5l-164 20q-4 1 -8 1.5t-8 1.5q-54 -11 -83.5 -34.5t-29.5 -54.5q0 -38 49 -61t134 -23z" />
    <glyph glyph-name="gbreve.alt" horiz-adv-x="489" 
d="M190 -214q-103 0 -164 31.5t-61 84.5q0 38 29.5 68t84.5 48q-29 23 -29 57q0 29 25.5 55t65.5 37q-35 23 -56 59t-21 79q0 55 28.5 99.5t77 71t107.5 26.5q37 0 69 -13t57 -36q15 30 46.5 49t67.5 19q7 0 14 -0.5t13 -1.5l-6 -47q-10 2 -18.5 3.5t-16.5 1.5
q-54 0 -83 -43q35 -45 35 -100t-28.5 -100t-77 -71.5t-107.5 -26.5q-33 0 -64 11q-36 -6 -58.5 -23.5t-22.5 -41.5q0 -37 54 -43l163 -20q51 -6 78.5 -30t27.5 -65t-28.5 -72.5t-80 -48.5t-121.5 -17zM242 178q47 0 85 21t61 56.5t23 78.5q0 34 -18 62.5t-48.5 46
t-67.5 17.5q-46 0 -84.5 -20.5t-61.5 -55.5t-23 -79q0 -34 18 -63t48.5 -46.5t67.5 -17.5zM194 -174q80 0 130 25.5t50 65.5q0 24 -17.5 39.5t-52.5 19.5l-164 20q-4 1 -8 1.5t-8 1.5q-54 -11 -83.5 -34.5t-29.5 -54.5q0 -38 49 -61t134 -23zM311 587q-53 0 -89.5 32.5
t-35.5 90.5l36 5q1 -48 26.5 -70t65.5 -22q78 0 118 91l35 -11q-22 -53 -62.5 -84.5t-93.5 -31.5z" />
    <glyph glyph-name="gcircumflex.alt" horiz-adv-x="489" 
d="M190 -214q-103 0 -164 31.5t-61 84.5q0 38 29.5 68t84.5 48q-29 23 -29 57q0 29 25.5 55t65.5 37q-35 23 -56 59t-21 79q0 55 28.5 99.5t77 71t107.5 26.5q37 0 69 -13t57 -36q15 30 46.5 49t67.5 19q7 0 14 -0.5t13 -1.5l-6 -47q-10 2 -18.5 3.5t-16.5 1.5
q-54 0 -83 -43q35 -45 35 -100t-28.5 -100t-77 -71.5t-107.5 -26.5q-33 0 -64 11q-36 -6 -58.5 -23.5t-22.5 -41.5q0 -37 54 -43l163 -20q51 -6 78.5 -30t27.5 -65t-28.5 -72.5t-80 -48.5t-121.5 -17zM242 178q47 0 85 21t61 56.5t23 78.5q0 34 -18 62.5t-48.5 46
t-67.5 17.5q-46 0 -84.5 -20.5t-61.5 -55.5t-23 -79q0 -34 18 -63t48.5 -46.5t67.5 -17.5zM194 -174q80 0 130 25.5t50 65.5q0 24 -17.5 39.5t-52.5 19.5l-164 20q-4 1 -8 1.5t-8 1.5q-54 -11 -83.5 -34.5t-29.5 -54.5q0 -38 49 -61t134 -23zM179 591l122 115h52l72 -115
h-35l-67 83l-105 -83h-39z" />
    <glyph glyph-name="gcommaaccent.alt" horiz-adv-x="489" 
d="M384 757l-72 -168h-51l87 168h36zM190 -214q-103 0 -164 31.5t-61 84.5q0 38 29.5 68t84.5 48q-29 23 -29 57q0 29 25.5 55t65.5 37q-35 23 -56 59t-21 79q0 55 28.5 99.5t77 71t107.5 26.5q37 0 69 -13t57 -36q15 30 46.5 49t67.5 19q7 0 14 -0.5t13 -1.5l-6 -47
q-10 2 -18.5 3.5t-16.5 1.5q-54 0 -83 -43q35 -45 35 -100t-28.5 -100t-77 -71.5t-107.5 -26.5q-33 0 -64 11q-36 -6 -58.5 -23.5t-22.5 -41.5q0 -37 54 -43l163 -20q51 -6 78.5 -30t27.5 -65t-28.5 -72.5t-80 -48.5t-121.5 -17zM242 178q47 0 85 21t61 56.5t23 78.5
q0 34 -18 62.5t-48.5 46t-67.5 17.5q-46 0 -84.5 -20.5t-61.5 -55.5t-23 -79q0 -34 18 -63t48.5 -46.5t67.5 -17.5zM194 -174q80 0 130 25.5t50 65.5q0 24 -17.5 39.5t-52.5 19.5l-164 20q-4 1 -8 1.5t-8 1.5q-54 -11 -83.5 -34.5t-29.5 -54.5q0 -38 49 -61t134 -23z" />
    <glyph glyph-name="gdotaccent.alt" horiz-adv-x="489" 
d="M190 -214q-103 0 -164 31.5t-61 84.5q0 38 29.5 68t84.5 48q-29 23 -29 57q0 29 25.5 55t65.5 37q-35 23 -56 59t-21 79q0 55 28.5 99.5t77 71t107.5 26.5q37 0 69 -13t57 -36q15 30 46.5 49t67.5 19q7 0 14 -0.5t13 -1.5l-6 -47q-10 2 -18.5 3.5t-16.5 1.5
q-54 0 -83 -43q35 -45 35 -100t-28.5 -100t-77 -71.5t-107.5 -26.5q-33 0 -64 11q-36 -6 -58.5 -23.5t-22.5 -41.5q0 -37 54 -43l163 -20q51 -6 78.5 -30t27.5 -65t-28.5 -72.5t-80 -48.5t-121.5 -17zM242 178q47 0 85 21t61 56.5t23 78.5q0 34 -18 62.5t-48.5 46
t-67.5 17.5q-46 0 -84.5 -20.5t-61.5 -55.5t-23 -79q0 -34 18 -63t48.5 -46.5t67.5 -17.5zM194 -174q80 0 130 25.5t50 65.5q0 24 -17.5 39.5t-52.5 19.5l-164 20q-4 1 -8 1.5t-8 1.5q-54 -11 -83.5 -34.5t-29.5 -54.5q0 -38 49 -61t134 -23zM308 603q-13 0 -23 10t-10 25
q0 17 12 29t29 12q14 0 23.5 -10t9.5 -24q0 -18 -12 -30t-29 -12z" />
    <glyph glyph-name="caronSlovak" 
d="M335 532l38 168l50 11l-58 -179h-30z" />
    <glyph glyph-name="commaaccent" 
d="M138 -254l72 168h51l-87 -168h-36z" />
    <glyph glyph-name="exclamdown.cap" horiz-adv-x="173" 
d="M163 518l-106 -521h-47l116 521h37zM181 710q14 0 23.5 -10t9.5 -24q0 -11 -5.5 -20.5t-14.5 -15t-21 -5.5q-13 0 -23 10t-10 24q0 12 5.5 21t15 14.5t20.5 5.5z" />
    <glyph glyph-name="questiondown.cap" horiz-adv-x="487" 
d="M357 511q-6 -46 -20.5 -81.5t-39 -62.5t-60.5 -48l-68 -39q-49 -28 -73 -63t-24 -76q0 -47 39 -76.5t102 -29.5q47 0 95 20t94 59l28 -32q-51 -43 -106.5 -66t-110.5 -23q-54 0 -95.5 19t-65.5 52.5t-24 76.5q0 53 30.5 97t88.5 78l68 39q44 26 68.5 62.5t33.5 93.5h40z
M372 709q14 0 23.5 -10t9.5 -24q0 -11 -5.5 -20.5t-14.5 -15t-21 -5.5q-13 0 -23 10t-10 24q0 12 5.5 21t15 14.5t20.5 5.5z" />
    <glyph glyph-name="periodcentered.cap" horiz-adv-x="250" 
d="M134 307q-13 0 -23 10t-10 25q0 12 5.5 21t15 14.5t20.5 5.5q14 0 23.5 -10t9.5 -24q0 -12 -5.5 -21.5t-14.5 -15t-21 -5.5z" />
    <glyph glyph-name="hyphen.cap" horiz-adv-x="441" 
d="M83 367h330l-9 -44h-330z" />
    <glyph glyph-name="endash.cap" horiz-adv-x="541" 
d="M84 367h428l-9 -44h-428z" />
    <glyph glyph-name="emdash.cap" horiz-adv-x="692" 
d="M86 367h575l-9 -44h-575z" />
    <glyph glyph-name="uni2015.cap" horiz-adv-x="941" 
d="M88 367h820l-9 -44h-820z" />
    <glyph glyph-name="at.cap" horiz-adv-x="767" 
d="M427 -8q-75 0 -139.5 26.5t-112.5 74t-75 111.5t-27 139q0 78 26.5 145t73.5 117t111 77.5t139 27.5q71 0 131 -23.5t104.5 -65t69.5 -98t25 -122.5q0 -62 -23.5 -108.5t-62.5 -72.5t-85 -26q-62 0 -87 42q-26 -24 -54 -36t-54 -12q-41 0 -73.5 19.5t-51 53.5t-18.5 77
q0 48 22.5 87.5t60.5 63t84 23.5q32 0 59.5 -12t45.5 -32l6 30h39l-37 -186q-9 -40 7.5 -61.5t53.5 -21.5q35 0 64 22t46.5 61.5t17.5 89.5q0 77 -38.5 138.5t-104.5 97t-149 35.5q-64 0 -120 -25.5t-98.5 -70t-66 -104.5t-23.5 -129q0 -90 41.5 -161t113.5 -112.5
t163 -41.5q96 0 173 43l15 -34q-42 -22 -91 -34t-101 -12zM394 223q53 0 90 42q-5 23 1 49l22 110q-14 24 -41 38.5t-59 14.5q-34 0 -62 -18.5t-44.5 -49.5t-16.5 -69q0 -52 30.5 -84.5t79.5 -32.5z" />
    <glyph glyph-name="zero.tab" 
d="M267 -11q-64 0 -108.5 29t-68 85t-23.5 136q0 98 24 183.5t67 150.5t99.5 101.5t120.5 36.5t108.5 -29t68 -84.5t23.5 -136.5q0 -98 -24 -183.5t-67 -150.5t-99 -101.5t-121 -36.5zM133 117l359 501q-40 51 -116 51q-54 0 -101.5 -33.5t-84 -93t-57.5 -137t-21 -165.5
q0 -75 21 -123zM269 31q54 0 102 33.5t84.5 93t57 137t20.5 165.5q0 71 -20 120l-358 -500q39 -49 114 -49z" />
    <glyph glyph-name="one.tab" 
d="M44 0l9 42h192l128 604l-209 -81l10 47l227 88h26l-139 -658h200l-9 -42h-435z" />
    <glyph glyph-name="two.tab" 
d="M17 0l7 35l366 306q67 56 97.5 103t30.5 94q0 59 -40 95t-106 36q-47 0 -96 -19t-108 -61l-24 36q66 46 119.5 66t108.5 20q56 0 99 -21.5t67.5 -60t24.5 -88.5q0 -43 -13.5 -79t-45 -73t-84.5 -81l-319 -266h370l-8 -42h-446z" />
    <glyph glyph-name="three.tab" 
d="M269 -11q-79 0 -142 28.5t-108 86.5l34 26q38 -50 92 -74.5t124 -24.5q60 0 106.5 22.5t73 60t26.5 82.5q0 65 -46.5 106.5t-119.5 41.5h-56l8 38h57q62 0 106 21.5t67.5 56.5t23.5 74q0 61 -43 98t-113 37q-49 0 -96.5 -18t-101.5 -57l-24 34q59 43 113 63t111 20
q58 0 102.5 -22.5t70.5 -61.5t26 -89q0 -66 -42 -110.5t-118 -67.5q56 -20 88 -63t32 -98q0 -57 -32.5 -105t-89.5 -76.5t-129 -28.5z" />
    <glyph glyph-name="four.tab" 
d="M389 0l42 197h-402l7 35l500 468h45l-98 -461h81l-8 -42h-82l-42 -197h-43zM105 239h335l83 391z" />
    <glyph glyph-name="five.tab" 
d="M267 -11q-75 0 -135.5 29t-104.5 84l34 26q38 -49 89 -73t118 -24q63 0 112 26.5t77 71.5t28 101q0 76 -50 118t-142 42q-34 0 -70.5 -7t-76.5 -20l-21 13l83 324h388l-9 -42h-346l-63 -246q32 10 63 14.5t60 4.5q67 0 118.5 -22.5t81 -68t29.5 -113.5q0 -65 -33 -119
t-92.5 -86.5t-137.5 -32.5z" />
    <glyph glyph-name="six.tab" 
d="M294 -11q-68 0 -119.5 33t-80 93t-28.5 139q0 95 29 178t81 145.5t120.5 98t146.5 35.5q41 0 82.5 -12t80.5 -36l-28 -38q-32 20 -69.5 32t-69.5 12q-76 0 -141 -40t-111 -110.5t-65 -160.5q45 38 101.5 59.5t111.5 21.5q61 0 109.5 -27.5t77 -74.5t28.5 -107
q0 -50 -20 -93.5t-55 -77t-81.5 -52t-99.5 -18.5zM297 31q57 0 104.5 27.5t75.5 73t28 99.5q0 49 -23 86t-63.5 58.5t-92.5 21.5q-55 0 -111 -24.5t-101 -67.5q-10 -82 9.5 -143.5t64 -96t109.5 -34.5z" />
    <glyph glyph-name="seven.tab" 
d="M61 0l510 658h-440l9 42h498l-7 -35l-516 -665h-54z" />
    <glyph glyph-name="eight.tab" 
d="M273 -11q-68 0 -121.5 24t-84 66t-30.5 96q0 49 26.5 91t72 72t103.5 40q-47 21 -73.5 59t-26.5 84q0 53 31.5 96t84.5 68.5t117 25.5q59 0 105.5 -22t74 -60.5t27.5 -86.5q0 -41 -21.5 -77t-59 -61.5t-87.5 -37.5q59 -23 93.5 -66.5t34.5 -97.5q0 -59 -36 -107.5
t-96 -77t-134 -28.5zM346 392q53 0 95.5 20t68 54.5t25.5 75.5q0 36 -21.5 65t-58 45.5t-83.5 16.5q-52 0 -95 -20t-68.5 -53.5t-25.5 -74.5q0 -37 21.5 -66t58.5 -46t83 -17zM273 31q61 0 111 23t80 62t30 86q0 42 -25.5 75.5t-69.5 53t-99 19.5q-60 0 -109.5 -23.5
t-79 -63t-29.5 -88.5q0 -42 24.5 -74.5t68 -51t98.5 -18.5z" />
    <glyph glyph-name="nine.tab" 
d="M347 711q68 0 119.5 -33t80 -93t28.5 -139q0 -95 -29 -178t-81 -145.5t-120.5 -98t-146.5 -35.5q-41 0 -82.5 12t-80.5 36l28 38q32 -20 69.5 -32t69.5 -12q76 0 141 40t111 110.5t65 160.5q-45 -38 -101.5 -59.5t-111.5 -21.5q-61 0 -109.5 27.5t-77 74.5t-28.5 107
q0 50 20 93.5t55 77t81.5 52t99.5 18.5zM344 669q-57 0 -104.5 -27.5t-75.5 -73t-28 -99.5q0 -49 23 -86t63.5 -58.5t92.5 -21.5q55 0 111 24.5t101 67.5q10 82 -9.5 143.5t-64 96t-109.5 34.5z" />
    </font>
</defs>
</svg>
