<?xml version="1.0" standalone="no"?>
<!DOCTYPE svg PUBLIC "-//W3C//DTD SVG 1.1//EN" "http://www.w3.org/Graphics/SVG/1.1/DTD/svg11.dtd" >
<svg xmlns="http://www.w3.org/2000/svg" xmlns:xlink="http://www.w3.org/1999/xlink" version="1.1">
<metadata>
Created by FontForge 20170731 at Thu Aug 12 12:51:55 2021
 By Aleksey,,,
Copyright 2021 The Red Hat Project Authors (https://github.com/RedHatOfficial/RedHatFont)
</metadata>
<defs>
<font id="RedHatDisplay-Regular" horiz-adv-x="600" >
  <font-face 
    font-family="Red Hat Display"
    font-weight="400"
    font-stretch="normal"
    units-per-em="1000"
    panose-1="2 1 3 3 4 2 1 6 3 3"
    ascent="800"
    descent="-200"
    x-height="501"
    cap-height="700"
    bbox="-68 -264 1058 1004"
    underline-thickness="100"
    underline-position="-350"
    unicode-range="U+0020-FFFD"
  />
<missing-glyph horiz-adv-x="514" 
d="M60 -100v850h394v-850h-394z" />
    <glyph glyph-name=".notdef" horiz-adv-x="514" 
d="M60 -100v850h394v-850h-394z" />
    <glyph glyph-name=".null" horiz-adv-x="0" 
 />
    <glyph glyph-name="nonmarkingreturn" horiz-adv-x="333" 
 />
    <glyph glyph-name="space" unicode=" " horiz-adv-x="215" 
 />
    <glyph glyph-name="exclam" unicode="!" horiz-adv-x="198" 
d="M69 194l-9 511h77l-9 -511h-59zM99 -6q-21 0 -36 15t-15 36t15 36t36 15t36 -15t15 -36t-15 -36t-36 -15z" />
    <glyph glyph-name="quotedbl" unicode="&#x22;" horiz-adv-x="318" 
d="M69 497l-11 204h75l-11 -204h-53zM197 497l-11 204h75l-11 -204h-53z" />
    <glyph glyph-name="numbersign" unicode="#" horiz-adv-x="692" 
d="M79 0l63 219h-112v58h128l42 146h-120v58h136l63 219h68l-63 -219h198l63 219h68l-63 -219h112v-58h-128l-42 -146h120v-58h-136l-63 -219h-68l63 219h-198l-63 -219h-68zM226 277h198l42 146h-198z" />
    <glyph glyph-name="dollar" unicode="$" horiz-adv-x="567" 
d="M256 -67v88q-69 6 -129 34.5t-105 77.5l46 49q80 -86 188 -101v246l-35 7q-100 22 -142 60.5t-42 109.5q0 53 28 93t77.5 62.5t113.5 22.5v85h51v-87q58 -7 113.5 -28.5t103.5 -56.5l-38 -56q-46 32 -90.5 51t-88.5 26v-231l34 -7q108 -24 152 -63t44 -110q0 -53 -29 -94
t-81 -65t-120 -27v-86h-51zM256 395v225q-67 -1 -108.5 -31t-41.5 -79q0 -31 12.5 -52t41.5 -35t80 -25zM307 79q70 4 114.5 37.5t44.5 85.5q0 31 -13 51.5t-44 35t-87 25.5l-15 3v-238z" />
    <glyph glyph-name="percent" unicode="%" horiz-adv-x="739" 
d="M176 345q-67 0 -108 50t-41 130t41 130t108 50q65 0 106 -50t42 -130q-1 -80 -42 -130t-106 -50zM176 391q44 0 70.5 36.5t26.5 97.5q0 62 -26.5 98.5t-70.5 36.5q-45 0 -71 -36.5t-27 -98.5q1 -61 27 -97.5t71 -36.5zM142 0l393 700h62l-394 -700h-61zM566 -5
q-67 0 -108 50t-41 130t41 130t108 50q65 0 106 -50t42 -130q-1 -80 -42 -130t-106 -50zM566 41q44 0 70.5 36.5t26.5 97.5q0 62 -26.5 98.5t-70.5 36.5q-45 0 -71 -36.5t-27 -98.5q1 -61 27 -97.5t71 -36.5z" />
    <glyph glyph-name="ampersand" unicode="&#x26;" horiz-adv-x="653" 
d="M257 -11q-69 0 -121 25t-81 70t-29 104q0 42 14.5 75.5t48.5 63.5t92 62q-35 44 -49.5 80.5t-14.5 76.5q0 47 22 84.5t60.5 59t86.5 21.5q46 0 81.5 -18.5t56 -51t20.5 -75.5q0 -49 -27 -88t-85 -73l-50 -30q41 -46 90 -94t100 -95q25 40 41.5 88t26.5 100l68 -11
q-13 -64 -34 -119.5t-52 -102.5q32 -28 64 -53.5t60 -47.5l-45 -53q-28 22 -58.5 46.5t-61.5 50.5q-43 -46 -100.5 -70.5t-123.5 -24.5zM243 421l57 33q37 22 55.5 49t18.5 61q0 37 -26 62t-64 25q-42 0 -69.5 -29t-27.5 -75q0 -31 12.5 -59.5t43.5 -66.5zM261 52
q50 0 93.5 19.5t77.5 56.5q-58 53 -113 107.5t-99 105.5q-47 -25 -74.5 -48t-38.5 -47.5t-11 -55.5q0 -62 45.5 -100t119.5 -38z" />
    <glyph glyph-name="quotesingle" unicode="'" horiz-adv-x="191" 
d="M69 497l-11 204h75l-11 -204h-53z" />
    <glyph glyph-name="parenleft" unicode="(" horiz-adv-x="389" 
d="M313 -213q-121 72 -185 190.5t-64 271.5t64 271.5t185 189.5l39 -50q-104 -61 -160.5 -168t-56.5 -243t56.5 -243.5t160.5 -167.5z" />
    <glyph glyph-name="parenright" unicode=")" horiz-adv-x="389" 
d="M76 716q121 -72 185 -190.5t64 -271.5t-64 -271.5t-185 -189.5l-39 50q104 61 160.5 168t56.5 243t-56.5 243.5t-160.5 167.5z" />
    <glyph glyph-name="asterisk" unicode="*" horiz-adv-x="446" 
d="M196 341l2 138l-119 -73l-29 45l124 73l-120 72l29 44l114 -71l-1 131h54l-1 -130l113 70l30 -44l-120 -72l125 -73l-31 -45l-118 73l2 -138h-54z" />
    <glyph glyph-name="plus" unicode="+" 
d="M269 145v181h-167v60h167v181h62v-181h167v-60h-167v-181h-62z" />
    <glyph glyph-name="comma" unicode="," horiz-adv-x="250" 
d="M44 -137l58 211h80l-80 -211h-58z" />
    <glyph glyph-name="hyphen" unicode="-" horiz-adv-x="447" 
d="M49 248v66h349v-66h-349z" />
    <glyph glyph-name="period" unicode="." horiz-adv-x="250" 
d="M125 -6q-21 0 -36 15t-15 36t15 36t36 15t36 -15t15 -36t-15 -36t-36 -15z" />
    <glyph glyph-name="slash" unicode="/" horiz-adv-x="457" 
d="M-67 -204l421 904h75l-422 -904h-74z" />
    <glyph glyph-name="zero" unicode="0" horiz-adv-x="662" 
d="M331 -11q-84 0 -148 46t-100.5 127.5t-36.5 187.5t36.5 187.5t100.5 127.5t148 46t148 -46t100.5 -127.5t36.5 -187.5t-36.5 -187.5t-100.5 -127.5t-148 -46zM331 54q65 0 112.5 36.5t73.5 103.5t26 156q0 90 -26 156.5t-73.5 103t-112.5 36.5q-64 0 -112 -36.5t-74 -103
t-26 -156.5q0 -89 26 -156t74 -103.5t112 -36.5z" />
    <glyph glyph-name="one" unicode="1" horiz-adv-x="289" 
d="M146 0v623l-118 -52v67l144 62h47v-700h-73z" />
    <glyph glyph-name="two" unicode="2" horiz-adv-x="542" 
d="M49 0v53l280 306q33 36 51.5 63.5t26 51.5t7.5 51q0 53 -41.5 87.5t-105.5 34.5q-49 0 -91 -19t-94 -66l-42 50q55 50 111 74.5t117 24.5q63 0 112 -23.5t77 -64.5t28 -94q0 -35 -9 -64.5t-32 -63t-66 -80.5l-239 -259l361 1v-63h-451z" />
    <glyph glyph-name="three" unicode="3" horiz-adv-x="582" 
d="M284 -11q-72 0 -134.5 25t-110.5 74l48 47q44 -44 90.5 -63.5t105.5 -19.5q51 0 90.5 18t61.5 50t22 73q0 39 -19.5 69.5t-53.5 47.5t-78 17h-83v62h80q57 0 92.5 35t35.5 91q0 37 -20 67t-54.5 47.5t-77.5 17.5q-54 0 -96.5 -19.5t-86.5 -65.5l-48 48q47 50 106 75.5
t126 25.5q64 0 114.5 -25t79.5 -68.5t29 -98.5t-36 -98.5t-95 -60.5q71 -16 114 -62t43 -107q0 -58 -31.5 -104t-87 -72t-126.5 -26z" />
    <glyph glyph-name="four" unicode="4" horiz-adv-x="619" 
d="M425 0v187h-398v58l393 455h78v-450h84v-63h-84v-187h-73zM117 250h308v357z" />
    <glyph glyph-name="five" unicode="5" horiz-adv-x="568" 
d="M277 -11q-138 0 -238 95l45 49q46 -43 91.5 -62.5t102.5 -19.5q51 0 90 21t60.5 59t21.5 87q0 70 -47.5 113t-124.5 43q-40 0 -78 -9.5t-79 -30.5l-50 16l16 350h398v-63h-336l-11 -242q40 20 77 28.5t78 8.5q69 0 120.5 -26.5t80 -74t28.5 -110.5q0 -69 -31 -121
t-86 -81.5t-128 -29.5z" />
    <glyph glyph-name="six" unicode="6" horiz-adv-x="612" 
d="M331 -10q-81 0 -142.5 43t-96.5 118.5t-35 174.5q0 116 39 202.5t110 134.5t165 48q44 0 87 -12t77 -35l-36 -56q-31 18 -65 28t-69 10q-72 0 -124.5 -37.5t-81 -107.5t-30.5 -168q39 50 93 78t112 28q68 0 121 -28t83 -77.5t30 -112.5q0 -66 -31 -118.5t-84.5 -82.5
t-121.5 -30zM324 380q-55 0 -105.5 -27.5t-87.5 -75.5q8 -67 34.5 -117.5t69 -78.5t95.5 -28q48 0 85.5 21.5t59 59.5t21.5 85t-22 83.5t-60.5 57t-89.5 20.5z" />
    <glyph glyph-name="seven" unicode="7" horiz-adv-x="555" 
d="M103 0l348 637h-420v63h498v-56l-344 -644h-82z" />
    <glyph glyph-name="eight" unicode="8" horiz-adv-x="615" 
d="M300 -11q-72 0 -128 26t-88.5 71.5t-32.5 102.5q0 43 21 79.5t58.5 63t85.5 37.5q-61 17 -99.5 61t-38.5 99q0 52 29 93t79.5 65t113.5 24q64 0 114 -24t79 -65t29 -93q0 -55 -38 -99t-100 -61q73 -17 119 -66.5t46 -113.5q0 -57 -32 -102.5t-88.5 -71.5t-128.5 -26z
M300 399q43 0 77.5 17t54.5 45.5t20 64.5t-20 65t-54.5 45.5t-77.5 16.5t-77.5 -16.5t-54.5 -45.5t-20 -65t20 -64.5t54.5 -45.5t77.5 -17zM300 47q51 0 91 19t63.5 52t23.5 74t-23.5 74t-63.5 52t-91 19t-91 -19t-63.5 -52t-23.5 -74t23.5 -74t63.5 -52t91 -19z" />
    <glyph glyph-name="nine" unicode="9" horiz-adv-x="612" 
d="M281 711q81 0 142.5 -43t96.5 -118.5t35 -174.5q0 -116 -39 -202.5t-109.5 -134.5t-165.5 -48q-43 0 -86.5 12.5t-77.5 34.5l36 56q31 -18 65.5 -28t68.5 -10q72 0 124.5 37.5t81.5 108t30 167.5q-39 -50 -93 -78t-112 -28q-68 0 -121 28.5t-83 77.5t-30 112q0 67 31 119
t84.5 82t121.5 30zM288 321q55 0 105.5 27.5t87.5 75.5q-7 68 -34 118t-69 78t-96 28q-47 0 -85 -21.5t-59.5 -59t-21.5 -85.5q0 -47 22 -83.5t61 -57t89 -20.5z" />
    <glyph glyph-name="colon" unicode=":" horiz-adv-x="250" 
d="M125 -6q-21 0 -36 15t-15 36t15 36t36 15t36 -15t15 -36t-15 -36t-36 -15zM125 410q-21 0 -36 15t-15 36t15 36t36 15t36 -15t15 -36t-15 -36t-36 -15z" />
    <glyph glyph-name="semicolon" unicode=";" horiz-adv-x="250" 
d="M133 410q-21 0 -36 15t-15 36t15 36t36 15t36 -15t15 -36t-15 -36t-36 -15zM37 -137l58 211h80l-80 -211h-58z" />
    <glyph glyph-name="less" unicode="&#x3c;" 
d="M423 103l-316 246l317 245l37 -47l-261 -197l261 -199z" />
    <glyph glyph-name="equal" unicode="=" 
d="M102 245v60h396v-60h-396zM102 408v60h396v-60h-396z" />
    <glyph glyph-name="greater" unicode="&#x3e;" 
d="M177 594l316 -246l-317 -245l-37 47l261 197l-261 199z" />
    <glyph glyph-name="question" unicode="?" horiz-adv-x="506" 
d="M188 199q-2 46 5 79.5t26 60t51 49.5l44 31q44 32 61.5 58t17.5 60q0 31 -19.5 55t-52 38.5t-73.5 14.5q-49 0 -92.5 -23t-77.5 -67l-58 38q29 38 65.5 64.5t78.5 40t88 13.5q61 0 109.5 -22.5t76.5 -61.5t28 -89q0 -34 -10.5 -61.5t-36 -53.5t-70.5 -57l-34 -24
q-37 -25 -52 -59t-11 -84h-64zM220 -6q-21 0 -36 15t-15 36t15 36t36 15t36 -15t15 -36t-15 -36t-36 -15z" />
    <glyph glyph-name="at" unicode="@" horiz-adv-x="776" 
d="M403 -144q-77 0 -142.5 26.5t-114 74t-75.5 111.5t-27 139q0 79 27 146t75 117t113 78t141 28q71 0 131.5 -23.5t105.5 -65t70.5 -97.5t25.5 -121q0 -61 -23 -109.5t-63 -76.5t-91 -28q-65 0 -93 41q-25 -22 -52 -33.5t-54 -11.5q-41 0 -73.5 20t-51 54t-18.5 77
q0 49 22.5 89t61 64t85.5 24q62 0 101 -39l5 26h56l-39 -192q-7 -36 7.5 -55.5t48.5 -19.5q35 0 63 22t44 60.5t16 85.5q0 76 -38 136t-102.5 94.5t-146.5 34.5q-64 0 -119.5 -24.5t-97.5 -68.5t-65 -103t-23 -127q0 -89 40.5 -158.5t111.5 -109.5t161 -40q94 0 170 41
l18 -41q-43 -22 -91.5 -33.5t-99.5 -11.5zM369 98q46 0 81 35q-1 11 -1 22t3 24l21 106q-14 22 -38 34t-53 12q-31 0 -56.5 -17t-41 -45.5t-15.5 -62.5q0 -48 28 -78t72 -30z" />
    <glyph glyph-name="A" unicode="A" horiz-adv-x="679" 
d="M4 0l290 700h93l288 -700h-84l-88 220h-330l-89 -220h-80zM200 286h276l-138 343z" />
    <glyph glyph-name="B" unicode="B" horiz-adv-x="657" 
d="M77 0v700h284q68 0 117.5 -22t76.5 -62.5t27 -95.5q0 -54 -28.5 -94t-78.5 -61q63 -19 99.5 -63t36.5 -105q0 -60 -29.5 -104.5t-83 -68.5t-125.5 -24h-296zM154 395h203q68 0 108.5 32t40.5 87t-40.5 87t-108.5 32h-203v-238zM154 67h213q76 0 121 36t45 96t-45 96
t-121 36h-213v-264z" />
    <glyph glyph-name="C" unicode="C" horiz-adv-x="722" 
d="M407 -11q-76 0 -142 27.5t-116 77t-77.5 115t-27.5 141.5t27.5 141.5t77.5 115t116 77t142 27.5q55 0 105.5 -13.5t94 -39t77.5 -62.5l-51 -54q-41 47 -101 72.5t-125 25.5q-61 0 -113 -22t-90.5 -61.5t-60 -92t-21.5 -114.5q0 -61 21.5 -114t60.5 -92.5t91.5 -61.5
t113.5 -22q65 0 124 25.5t99 70.5l50 -52q-35 -36 -78.5 -62t-93.5 -39.5t-103 -13.5z" />
    <glyph glyph-name="D" unicode="D" horiz-adv-x="720" 
d="M154 70h158q61 0 113 21t91 59t60.5 89t21.5 111t-21.5 111t-60.5 89t-91 59t-113 21h-158v-560zM77 0v700h231q80 0 147 -26t116.5 -73t77 -111t27.5 -140t-27 -140t-76.5 -111t-117 -73t-147.5 -26h-231z" />
    <glyph glyph-name="E" unicode="E" horiz-adv-x="616" 
d="M77 0v700h501v-68h-424v-245h277v-67h-277v-252h428v-68h-505z" />
    <glyph glyph-name="F" unicode="F" horiz-adv-x="607" 
d="M77 0v700h501v-68h-424v-250h278v-67h-278v-315h-77z" />
    <glyph glyph-name="G" unicode="G" horiz-adv-x="788" 
d="M406 -11q-76 0 -141.5 28t-115 77.5t-77.5 115t-28 140.5t27.5 140.5t77 115t115 77.5t141.5 28q81 0 153 -30t123 -85l-52 -53q-40 46 -99.5 71.5t-124.5 25.5q-60 0 -111.5 -22t-90 -61.5t-60 -92t-21.5 -114.5q0 -61 21.5 -114t60 -92.5t90 -61.5t111.5 -22
q71 0 128.5 31t93 85t41.5 122h-251v68h329v-31q0 -73 -26 -136t-72 -110t-108 -73.5t-134 -26.5z" />
    <glyph glyph-name="H" unicode="H" horiz-adv-x="715" 
d="M77 0v700h77v-313h407v313h77v-700h-77v318h-407v-318h-77z" />
    <glyph glyph-name="I" unicode="I" horiz-adv-x="231" 
d="M77 0v700h77v-700h-77z" />
    <glyph glyph-name="J" unicode="J" 
d="M271 -11q-90 0 -156.5 47t-97.5 132l70 29q27 -69 73.5 -103t111.5 -34q86 0 137 55.5t51 149.5v435h77v-436q0 -84 -32.5 -146t-92 -95.5t-141.5 -33.5z" />
    <glyph glyph-name="K" unicode="K" horiz-adv-x="617" 
d="M77 0v700h77v-332l362 332h101l-380 -343l388 -357h-108l-363 336v-336h-77z" />
    <glyph glyph-name="L" unicode="L" horiz-adv-x="604" 
d="M77 0v700h77v-631h417v-69h-494z" />
    <glyph glyph-name="M" unicode="M" horiz-adv-x="847" 
d="M77 0v700h108l239 -497l238 497h108v-700h-73v612l-274 -562l-274 561v-611h-72z" />
    <glyph glyph-name="N" unicode="N" horiz-adv-x="725" 
d="M77 0v700h77l421 -568v568h73v-700h-68l-430 583v-583h-73z" />
    <glyph glyph-name="O" unicode="O" horiz-adv-x="809" 
d="M405 -11q-76 0 -141.5 27.5t-115 77t-77 115t-27.5 141.5t27.5 141.5t77 115t115 77t141.5 27.5q75 0 140.5 -27.5t115 -77t77 -115t27.5 -141.5t-27.5 -141.5t-77 -115t-115 -77t-140.5 -27.5zM405 60q60 0 111 22t89.5 61.5t60 92.5t21.5 114q0 62 -21.5 114.5t-60 92
t-89.5 61.5t-111 22t-111.5 -22t-90 -61.5t-60 -92t-21.5 -113.5q0 -62 21.5 -115t60 -92.5t90 -61.5t111.5 -22z" />
    <glyph glyph-name="P" unicode="P" horiz-adv-x="647" 
d="M77 0v700h304q69 0 119.5 -25t78.5 -70.5t28 -106.5t-28 -106.5t-79 -71t-119 -25.5h-227v-295h-77zM154 362h221q71 0 113 36.5t42 98.5t-42 98t-113 36h-221v-269z" />
    <glyph glyph-name="Q" unicode="Q" horiz-adv-x="809" 
d="M645 -16l-49 59q-41 -25 -89.5 -39.5t-101.5 -14.5q-76 0 -141.5 27.5t-115 77t-77 115t-27.5 141.5t27.5 141.5t77 115t115 77t141.5 27.5q75 0 140.5 -27.5t115 -77t77 -115t27.5 -141.5q0 -79 -31 -148t-84 -118l74 -89zM405 60q40 0 76 10t67 29l-100 119l79 12
l75 -90q40 40 62.5 94t22.5 116t-21.5 114.5t-60 92t-89.5 61.5t-111 22t-111.5 -22t-90 -61.5t-60 -92t-21.5 -114.5q0 -61 21.5 -114t60 -92.5t90 -61.5t111.5 -22z" />
    <glyph glyph-name="R" unicode="R" horiz-adv-x="645" 
d="M77 0v700h300q69 0 120 -25t79.5 -70t28.5 -106q0 -69 -40.5 -118.5t-108.5 -69.5l157 -311h-85l-150 301h-224v-301h-77zM154 366h218q71 0 113.5 36t42.5 97q0 60 -42.5 96t-113.5 36h-218v-265z" />
    <glyph glyph-name="S" unicode="S" 
d="M304 -10q-83 0 -159 33.5t-134 96.5l51 53q54 -58 115.5 -87t129.5 -29q55 0 97.5 17.5t66.5 49t24 71.5q0 54 -37.5 83t-123.5 43l-101 16q-101 17 -149 60t-48 117q0 58 31 102t86.5 68.5t128.5 24.5q74 0 145.5 -24t130.5 -69l-44 -60q-115 87 -235 87
q-50 0 -88 -15.5t-59 -43t-21 -64.5q0 -49 33 -75t109 -38l100 -16q115 -19 167 -64.5t52 -127.5q0 -61 -34 -108.5t-94.5 -74t-139.5 -26.5z" />
    <glyph glyph-name="T" unicode="T" horiz-adv-x="617" 
d="M270 0v631h-253v69h583v-69h-253v-631h-77z" />
    <glyph glyph-name="U" unicode="U" horiz-adv-x="704" 
d="M352 -11q-89 0 -154 37.5t-100 106.5t-35 163v404h77v-404q0 -72 26 -125t74 -82t112 -29q65 0 112.5 29t73.5 82t26 125v404h77v-404q0 -94 -35.5 -163t-100 -106.5t-153.5 -37.5z" />
    <glyph glyph-name="V" unicode="V" horiz-adv-x="679" 
d="M291 0l-287 700h83l253 -628l257 628h78l-291 -700h-93z" />
    <glyph glyph-name="W" unicode="W" horiz-adv-x="882" 
d="M186 0l-151 700h78l119 -578l173 578h75l173 -576l120 576h75l-151 -700h-78l-177 593l-178 -593h-78z" />
    <glyph glyph-name="X" unicode="X" horiz-adv-x="638" 
d="M3 0l270 363l-253 337h94l205 -278l205 278h90l-250 -336l271 -364h-93l-224 305l-225 -305h-90z" />
    <glyph glyph-name="Y" unicode="Y" horiz-adv-x="639" 
d="M281 0v285l-278 415h90l229 -347l228 347h87l-279 -418v-282h-77z" />
    <glyph glyph-name="Z" unicode="Z" horiz-adv-x="604" 
d="M24 0v55l445 577h-441v68h542v-55l-447 -577h455v-68h-554z" />
    <glyph glyph-name="bracketleft" unicode="[" horiz-adv-x="347" 
d="M57 -207v907h252v-60h-181v-787h181v-60h-252z" />
    <glyph glyph-name="backslash" unicode="\" horiz-adv-x="462" 
d="M451 -204l-421 904h77l422 -904h-78z" />
    <glyph glyph-name="bracketright" unicode="]" horiz-adv-x="347" 
d="M290 700v-907h-252v60h181v787h-181v60h252z" />
    <glyph glyph-name="asciicircum" unicode="^" horiz-adv-x="536" 
d="M49 350l187 350h65l187 -350h-69l-151 285l-151 -285h-68z" />
    <glyph glyph-name="underscore" unicode="_" horiz-adv-x="482" 
d="M-1 -137v57h484v-57h-484z" />
    <glyph glyph-name="grave" unicode="`" 
d="M290 600l-123 116h96l92 -116h-65z" />
    <glyph glyph-name="a" unicode="a" horiz-adv-x="516" 
d="M221 -9q-55 0 -96.5 19t-65 53t-23.5 79q0 71 54 112t146 41q81 0 147 -34v66q0 60 -34 90.5t-99 30.5q-37 0 -74.5 -10.5t-82.5 -33.5l-28 57q54 26 100 38t92 12q95 0 146.5 -45t51.5 -129v-337h-72v49q-34 -29 -74.5 -43.5t-87.5 -14.5zM107 144q0 -42 35.5 -68.5
t91.5 -26.5q45 0 82 14t67 44v94q-31 21 -66 30.5t-79 9.5q-60 0 -95.5 -26.5t-35.5 -70.5z" />
    <glyph glyph-name="b" unicode="b" horiz-adv-x="590" 
d="M63 0v700l74 17v-269q64 61 161 61q71 0 128 -34.5t90.5 -92.5t33.5 -131t-33.5 -131.5t-90.5 -93t-129 -34.5q-44 0 -85.5 15t-75.5 43v-50h-73zM291 57q53 0 95 25.5t66.5 69t24.5 98.5t-24.5 99t-66.5 69.5t-95 25.5q-47 0 -87.5 -18.5t-66.5 -51.5v-248
q26 -32 67 -50.5t87 -18.5z" />
    <glyph glyph-name="c" unicode="c" horiz-adv-x="513" 
d="M295 -9q-71 0 -129 34.5t-92 93.5t-34 132t34 131.5t92 93.5t129 35q55 0 106 -20.5t90 -58.5l-47 -54q-30 32 -68.5 48.5t-79.5 16.5q-51 0 -92.5 -25.5t-66 -69t-24.5 -97.5t24.5 -98t66.5 -69.5t93 -25.5q41 0 77.5 16t68.5 47l46 -50q-40 -38 -90 -59t-104 -21z" />
    <glyph glyph-name="d" unicode="d" horiz-adv-x="590" 
d="M292 -8q-70 0 -127.5 34.5t-91 93t-33.5 131.5t33.5 131t91 92.5t128.5 34.5q44 0 85 -14.5t75 -42.5v248l74 17v-717h-73v53q-66 -61 -162 -61zM299 57q47 0 87.5 18.5t66.5 51.5v248q-26 32 -66.5 50.5t-87.5 18.5q-52 0 -94.5 -25t-67 -68.5t-24.5 -98.5t24.5 -99
t67 -70t94.5 -26z" />
    <glyph glyph-name="e" unicode="e" horiz-adv-x="564" 
d="M298 -9q-72 0 -130.5 34.5t-93 93.5t-34.5 132q0 72 33 130.5t89 93t125 34.5q67 0 120.5 -34.5t85 -93t31.5 -130.5v-23h-411q6 -49 31.5 -88t66.5 -61.5t90 -22.5q39 0 76 12t62 34l46 -49q-42 -31 -87.5 -46.5t-99.5 -15.5zM115 287h335q-6 45 -29.5 80.5t-58.5 56
t-77 20.5q-43 0 -79 -20t-60 -55.5t-31 -81.5z" />
    <glyph glyph-name="f" unicode="f" horiz-adv-x="374" 
d="M135 0v438h-118v63h118v95q0 74 40 113t115 39q20 0 36 -2t31 -7v-66q-17 5 -31 7.5t-31 2.5q-44 0 -65.5 -21.5t-21.5 -67.5v-93h149v-63h-149v-438h-73z" />
    <glyph glyph-name="g" unicode="g" horiz-adv-x="586" 
d="M307 -214q-52 0 -103 13.5t-93 38.5l32 58q45 -24 83.5 -35t77.5 -11q71 0 108 34t37 100v70q-69 -58 -159 -58q-69 0 -126 34t-90.5 92.5t-33.5 130.5t33.5 130.5t90.5 92.5t128 34q43 0 83.5 -15t74.5 -44v50h73v-516q0 -96 -56 -147.5t-160 -51.5zM296 61q48 0 88 18
t65 51v246q-25 32 -65.5 50t-87.5 18q-52 0 -93.5 -25t-65.5 -68.5t-24 -97.5t24.5 -97.5t66 -69t92.5 -25.5z" />
    <glyph glyph-name="h" unicode="h" horiz-adv-x="549" 
d="M63 0v700l74 17v-275q59 69 158 69q57 0 100.5 -24.5t68 -68t24.5 -101.5v-317h-73v302q0 67 -37.5 105.5t-102.5 38.5q-45 0 -80 -20t-58 -57v-369h-74z" />
    <glyph glyph-name="i" unicode="i" horiz-adv-x="200" 
d="M63 0v501h74v-501h-74zM100 597q-20 0 -35 15t-15 36q0 20 15 34.5t35 14.5q21 0 35.5 -14.5t14.5 -35.5q0 -20 -14.5 -35t-35.5 -15z" />
    <glyph glyph-name="j" unicode="j" horiz-adv-x="200" 
d="M100 597q-20 0 -35 15t-15 35q0 21 15 35.5t35 14.5q21 0 35.5 -14.5t14.5 -35.5q0 -20 -14.5 -35t-35.5 -15zM8 -214q-14 0 -26 2t-20 4v62q16 -4 37 -4q35 0 49.5 16t14.5 52v583h74v-589q0 -61 -33.5 -93.5t-95.5 -32.5z" />
    <glyph glyph-name="k" unicode="k" horiz-adv-x="494" 
d="M63 0v700l74 17v-442l262 226h90l-275 -238l288 -263h-101l-264 240v-240h-74z" />
    <glyph glyph-name="l" unicode="l" horiz-adv-x="200" 
d="M63 0v700l74 17v-717h-74z" />
    <glyph glyph-name="m" unicode="m" horiz-adv-x="859" 
d="M63 0v501h74v-55q57 65 147 65q53 0 94 -24.5t64 -66.5q31 46 74 68.5t98 22.5t96 -24.5t64.5 -68t23.5 -101.5v-317h-73v302q0 67 -35 105.5t-95 38.5q-41 0 -75 -20.5t-58 -61.5q2 -11 3.5 -22.5t1.5 -24.5v-317h-73v302q0 67 -35 105.5t-94 38.5q-40 0 -72.5 -18.5
t-55.5 -54.5v-373h-74z" />
    <glyph glyph-name="n" unicode="n" horiz-adv-x="549" 
d="M63 0v501h74v-59q59 69 158 69q57 0 100.5 -24.5t68 -68t24.5 -101.5v-317h-73v302q0 67 -37.5 105.5t-102.5 38.5q-45 0 -80 -20t-58 -57v-369h-74z" />
    <glyph glyph-name="o" unicode="o" horiz-adv-x="592" 
d="M296 -10q-71 0 -129.5 34.5t-92.5 93.5t-34 132t34 132t92.5 93.5t129.5 34.5q72 0 130 -34.5t92 -93.5t34 -132t-34 -132t-92 -93.5t-130 -34.5zM296 56q51 0 92.5 26t66 70t24.5 98q0 55 -24.5 98.5t-66 69.5t-92.5 26t-92.5 -26t-66 -69.5t-24.5 -98.5q0 -54 24.5 -98
t66 -70t92.5 -26z" />
    <glyph glyph-name="p" unicode="p" horiz-adv-x="590" 
d="M63 -204v705h73v-54q65 62 162 62q71 0 128 -34.5t90.5 -92.5t33.5 -131t-33.5 -131.5t-90.5 -93t-129 -34.5q-44 0 -85 15t-75 43v-254h-74zM291 57q53 0 95 25.5t66.5 69t24.5 98.5t-24.5 99t-66.5 69.5t-95 25.5q-47 0 -87.5 -18.5t-66.5 -51.5v-248q26 -32 67 -50.5
t87 -18.5z" />
    <glyph glyph-name="q" unicode="q" horiz-adv-x="590" 
d="M453 -204v256q-66 -60 -161 -60q-70 0 -127.5 34.5t-91 93t-33.5 131.5t33.5 131t91 92.5t128.5 34.5q45 0 86.5 -15t74.5 -42v49h73v-705h-74zM299 57q47 0 87.5 18.5t66.5 51.5v248q-26 32 -66.5 50.5t-87.5 18.5q-52 0 -94.5 -25t-67 -68.5t-24.5 -98.5t24.5 -99
t67 -70t94.5 -26z" />
    <glyph glyph-name="r" unicode="r" horiz-adv-x="346" 
d="M63 0v501h74v-71q23 39 58.5 60.5t81.5 21.5q26 0 47 -7v-68q-13 5 -26 7t-26 2q-46 0 -80.5 -26.5t-54.5 -76.5v-343h-74z" />
    <glyph glyph-name="s" unicode="s" horiz-adv-x="446" 
d="M223 -10q-62 0 -116.5 20.5t-94.5 57.5l45 48q35 -32 77 -49.5t86 -17.5q60 0 98 25t38 65q0 33 -22.5 51.5t-70.5 25.5l-87 12q-75 11 -111.5 45t-36.5 92q0 42 24 75t66.5 52t97.5 19t103 -16t94 -50l-39 -50q-42 29 -81.5 42.5t-80.5 13.5q-52 0 -84 -23t-32 -60
q0 -34 22 -51.5t71 -24.5l87 -12q75 -10 112.5 -44t37.5 -93q0 -43 -27 -78t-72.5 -55t-103.5 -20z" />
    <glyph glyph-name="t" unicode="t" horiz-adv-x="365" 
d="M260 -10q-65 0 -100 31t-35 90v327h-108v63h108v127l73 19v-146h151v-63h-151v-308q0 -40 18 -57.5t59 -17.5q21 0 37.5 3t35.5 10v-65q-19 -7 -42.5 -10t-45.5 -3z" />
    <glyph glyph-name="u" unicode="u" horiz-adv-x="549" 
d="M255 -10q-57 0 -101 24.5t-68.5 68t-24.5 101.5v317h73v-302q0 -67 38 -105.5t102 -38.5q45 0 80.5 20.5t57.5 57.5v368h74v-501h-74v58q-59 -68 -157 -68z" />
    <glyph glyph-name="v" unicode="v" horiz-adv-x="513" 
d="M222 0l-217 501h82l171 -405l171 405h79l-216 -501h-70z" />
    <glyph glyph-name="w" unicode="w" horiz-adv-x="703" 
d="M155 0l-141 501h73l108 -400l125 400h66l124 -400l109 400h70l-142 -501h-71l-124 401l-125 -401h-72z" />
    <glyph glyph-name="x" unicode="x" horiz-adv-x="491" 
d="M5 0l197 258l-187 243h88l142 -188l142 188h85l-185 -242l198 -259h-88l-153 204l-155 -204h-84z" />
    <glyph glyph-name="y" unicode="y" horiz-adv-x="510" 
d="M84 -214q-14 0 -26.5 1.5t-20.5 3.5v67q17 -4 42 -4q66 0 100 78l30 69l-204 500h82l162 -411l175 411h80l-250 -579q-21 -48 -45 -78t-54.5 -44t-70.5 -14z" />
    <glyph glyph-name="z" unicode="z" horiz-adv-x="463" 
d="M31 0v58l302 377h-299v66h389v-57l-303 -378h306v-66h-395z" />
    <glyph glyph-name="braceleft" unicode="{" horiz-adv-x="382" 
d="M262 -214q-58 0 -94 26.5t-44.5 71.5t14.5 100l42 101q23 56 2.5 94.5t-75.5 38.5h-79v61h79q55 0 75.5 39.5t-2.5 94.5l-42 99q-23 56 -14.5 101t44.5 71.5t94 26.5q20 0 39 -3.5t41 -11.5l-15 -56q-17 6 -31.5 8.5t-30.5 2.5q-49 0 -66.5 -34t3.5 -87l48 -121
q22 -55 -1 -100t-78 -60q56 -16 78 -61.5t1 -98.5l-48 -122q-21 -52 -3.5 -86.5t66.5 -34.5q16 0 30.5 2.5t31.5 8.5l15 -56q-22 -8 -41 -11.5t-39 -3.5z" />
    <glyph glyph-name="bar" unicode="|" horiz-adv-x="274" 
d="M103 -204v904h68v-904h-68z" />
    <glyph glyph-name="braceright" unicode="}" horiz-adv-x="382" 
d="M120 711q58 0 94 -26.5t44.5 -71.5t-14.5 -100l-42 -101q-23 -56 -2.5 -94.5t75.5 -38.5h79v-61h-79q-55 0 -75.5 -39.5t2.5 -94.5l42 -99q23 -56 14.5 -101t-44.5 -71.5t-94 -26.5q-20 0 -39 3.5t-41 11.5l15 56q17 -6 31.5 -8.5t30.5 -2.5q49 0 66.5 34t-3.5 87
l-48 121q-22 55 1 100t78 60q-56 16 -78 61.5t-1 98.5l48 122q21 52 3.5 86.5t-66.5 34.5q-16 0 -30.5 -2.5t-31.5 -8.5l-15 56q22 8 41 11.5t39 3.5z" />
    <glyph glyph-name="asciitilde" unicode="~" horiz-adv-x="578" 
d="M97 301l-57 7q9 70 42 108t85 38q20 0 42.5 -6.5t50.5 -22.5l80 -40q24 -12 39 -17t28 -5q62 0 75 91l56 -7q-8 -70 -41.5 -108t-85.5 -38q-19 0 -41.5 6.5t-51.5 21.5l-80 40q-26 14 -40 18.5t-27 4.5q-61 0 -74 -91z" />
    <glyph glyph-name="uni00A0" unicode="&#xa0;" horiz-adv-x="215" 
 />
    <glyph glyph-name="exclamdown" unicode="&#xa1;" horiz-adv-x="198" 
d="M129 303l9 -511h-77l9 511h59zM99 503q21 0 36 -15t15 -36t-15 -36t-36 -15t-36 15t-15 36t15 36t36 15z" />
    <glyph glyph-name="cent" unicode="&#xa2;" horiz-adv-x="515" 
d="M263 -118v111q-63 8 -113.5 43.5t-80 91.5t-29.5 123t29.5 122.5t80 91.5t113.5 44v100h51v-99q50 -3 96 -23t81 -55l-47 -54q-27 28 -60.5 44.5t-69.5 19.5v-383q35 3 68 18.5t61 43.5l46 -50q-36 -34 -81 -55t-94 -24v-110h-51zM113 251q0 -48 19.5 -88.5t53.5 -67
t77 -34.5v379q-43 -8 -77 -35t-53.5 -66.5t-19.5 -87.5z" />
    <glyph glyph-name="sterling" unicode="&#xa3;" horiz-adv-x="615" 
d="M457 -20q-13 0 -27.5 1.5t-29.5 4.5l-199 41q-10 2 -20 3t-19 1q-35 0 -59 -16.5t-41 -51.5l-54 36q25 45 58.5 68.5t77.5 26.5q26 20 26 63q0 3 -0.5 8.5t-2.5 20t-7.5 44.5t-14.5 82h-105v57h95q-8 45 -12 70t-5 38t-1 22q0 65 26 112.5t74 73.5t115 26q89 0 146.5 -44
t77.5 -130l-64 -19q-15 63 -56 96.5t-104 33.5q-70 0 -107 -38.5t-37 -107.5q0 -8 1 -19.5t5.5 -37.5t12.5 -76h210v-57h-200q8 -45 12.5 -72t7 -41.5t3 -21t0.5 -10.5q0 -49 -26 -78l199 -40q11 -2 21.5 -3.5t20.5 -1.5q62 0 94 60l55 -35q-52 -89 -147 -89z" />
    <glyph glyph-name="uni00A4" unicode="&#xa4;" horiz-adv-x="682" 
d="M85 64l-39 40l93 94q-25 33 -39.5 75t-14.5 88q0 47 14.5 88t40.5 74l-94 95l40 41l94 -95q33 27 74 42t87 15t87 -15t74 -42l94 95l39 -40l-95 -95q26 -33 41 -74.5t15 -88.5q0 -46 -14 -87.5t-40 -74.5l94 -95l-40 -41l-94 94q-33 -27 -74 -42t-87 -15t-88 15.5
t-75 42.5zM341 167q51 0 92.5 26t66 70t24.5 98q0 55 -24.5 98.5t-66 69.5t-92.5 26t-92.5 -26t-66 -69.5t-24.5 -98.5q0 -54 24.5 -98t66 -70t92.5 -26z" />
    <glyph glyph-name="yen" unicode="&#xa5;" horiz-adv-x="641" 
d="M282 0v134h-187v54h187v75h-187v54h166l-253 383h90l225 -347l223 347h87l-251 -383h164v-54h-187v-75h187v-54h-187v-134h-77z" />
    <glyph glyph-name="uni00A6" unicode="&#xa6;" horiz-adv-x="274" 
d="M103 288v412h68v-412h-68zM103 -204v412h68v-412h-68z" />
    <glyph glyph-name="section" unicode="&#xa7;" horiz-adv-x="566" 
d="M280 -50q-43 0 -89 12.5t-90 35.5l29 53q87 -46 150 -46q49 0 76.5 21t27.5 58q0 29 -18 48.5t-58 32.5l-110 36q-76 25 -107.5 57.5t-31.5 86.5q0 47 28 80.5t76 46.5q-50 38 -50 101q0 62 47.5 99.5t125.5 37.5q43 0 89 -13t90 -36l-30 -53q-83 47 -150 47
q-49 0 -76.5 -21t-27.5 -58q0 -29 18.5 -48.5t58.5 -32.5l109 -36q77 -25 108.5 -57.5t31.5 -87.5q0 -46 -28 -79.5t-77 -47.5q50 -38 50 -101q0 -61 -47.5 -98.5t-124.5 -37.5zM340 219q47 5 74.5 29t27.5 61q0 32 -21.5 53t-69.5 37l-115 37q-3 1 -5.5 2t-4.5 2
q-48 -5 -75.5 -29t-27.5 -61q0 -31 21.5 -52t69.5 -38l115 -37q3 -1 5.5 -1.5t5.5 -2.5z" />
    <glyph glyph-name="dieresis" unicode="&#xa8;" 
d="M213 611q-21 0 -35.5 14t-14.5 34t14.5 34t35.5 14t35.5 -14t14.5 -34t-14.5 -34t-35.5 -14zM387 611q-21 0 -35.5 14t-14.5 34t14.5 34t35.5 14t35.5 -14t14.5 -34t-14.5 -34t-35.5 -14z" />
    <glyph glyph-name="copyright" unicode="&#xa9;" horiz-adv-x="804" 
d="M413 166q-51 0 -92 24.5t-65 66.5t-24 93q0 52 24 93.5t65 66.5t92 25q40 0 76.5 -15t63.5 -43l-36 -40q-21 23 -48 34.5t-55 11.5q-35 0 -63.5 -17.5t-45 -47.5t-16.5 -68q0 -37 16.5 -67t45 -47.5t63.5 -17.5q58 0 102 44l36 -39q-28 -28 -63.5 -42.5t-75.5 -14.5z
M402 -11q-76 0 -141 27.5t-114 77t-76 115t-27 141.5t27 141.5t76 115t114 77t141 27.5t141 -27.5t114 -76.5t76 -114.5t27 -142.5q0 -76 -27 -142t-76 -115t-114 -76.5t-141 -27.5zM402 32q65 0 122 24.5t99.5 68t66.5 101.5t24 124t-24 124t-66.5 101.5t-99.5 68
t-122 24.5t-121 -24.5t-98.5 -68t-66.5 -101.5t-24 -124t24 -124t66.5 -101.5t98.5 -68t121 -24.5z" />
    <glyph glyph-name="ordfeminine" unicode="&#xaa;" horiz-adv-x="408" 
d="M173 319q-62 0 -101 31.5t-39 82.5q0 53 41.5 84t111.5 31q29 0 56 -6t51 -17v46q0 87 -97 87q-27 0 -55 -7.5t-63 -24.5l-23 47q41 20 77 29t71 9q73 0 112 -34.5t39 -98.5v-252h-61v35q-51 -42 -120 -42zM185 367q32 0 59 10t49 29v71q-22 14 -47.5 20.5t-57.5 6.5
q-43 0 -69 -18.5t-26 -50.5q0 -31 25.5 -49.5t66.5 -18.5z" />
    <glyph glyph-name="guillemotleft" unicode="&#xab;" horiz-adv-x="598" 
d="M265 0l-234 251l234 250h79l-228 -248l231 -253h-82zM473 0l-234 251l234 250h79l-228 -248l231 -253h-82z" />
    <glyph glyph-name="uni00AC" unicode="&#xac;" horiz-adv-x="583" 
d="M462 0v254h-395v60h457v-314h-62z" />
    <glyph glyph-name="uni00AD" unicode="&#xad;" horiz-adv-x="455" 
d="M49 248v66h349v-66h-349z" />
    <glyph glyph-name="registered" unicode="&#xae;" horiz-adv-x="489" 
d="M244 311q-56 0 -101 26.5t-71.5 72.5t-26.5 102q0 57 26.5 102.5t71.5 72t101 26.5t101.5 -26.5t72 -72t26.5 -102.5q0 -56 -26.5 -102t-72 -72.5t-101.5 -26.5zM244 345q48 0 84.5 21.5t57.5 59.5t21 86t-21 86t-57.5 59.5t-84.5 21.5q-46 0 -83 -21.5t-58 -59.5
t-21 -85q0 -48 21 -86t58 -60t83 -22zM178 419v188h74q30 0 47 -15t17 -42q0 -17 -9.5 -31t-25.5 -22l46 -78h-37l-42 71h-36v-71h-34zM248 579h-36v-63h35q35 0 35 32q0 15 -8.5 23t-25.5 8z" />
    <glyph glyph-name="macron" unicode="&#xaf;" 
d="M158 621v53h284v-53h-284z" />
    <glyph glyph-name="degree" unicode="&#xb0;" horiz-adv-x="404" 
d="M202 423q-39 0 -71.5 19.5t-52 52.5t-19.5 72q0 40 19.5 72.5t52 52t71.5 19.5q40 0 72 -19.5t51.5 -52t19.5 -72.5q0 -39 -19.5 -72t-51.5 -52.5t-72 -19.5zM202 472q38 0 65.5 28t27.5 67t-27.5 67t-65.5 28t-65.5 -28t-27.5 -67t27.5 -67t65.5 -28z" />
    <glyph glyph-name="plusminus" unicode="&#xb1;" 
d="M102 -1v60h396v-60h-396zM269 173v176h-167v60h167v176h62v-176h167v-60h-167v-176h-62z" />
    <glyph glyph-name="twosuperior" unicode="&#xb2;" horiz-adv-x="291" 
d="M26 350v38l136 125q29 28 40.5 46.5t11.5 38.5q0 27 -20 44.5t-52 17.5q-25 0 -47 -10t-49 -33l-29 35q29 26 60.5 39.5t65.5 13.5q53 0 87.5 -29t34.5 -74q0 -31 -15 -56.5t-55 -62.5l-97 -89h172v-44h-244z" />
    <glyph glyph-name="threesuperior" unicode="&#xb3;" horiz-adv-x="313" 
d="M151 345q-39 0 -73.5 13.5t-59.5 38.5l35 33q22 -22 44.5 -31t53.5 -9q37 0 59 16.5t22 43.5q0 24 -21.5 38.5t-56.5 14.5h-31v42h27q30 0 50 17.5t20 42.5q0 24 -20 39.5t-51 15.5q-28 0 -48.5 -9.5t-43.5 -32.5l-35 33q26 26 59 40.5t70 14.5q53 0 87.5 -27.5
t33.5 -69.5q1 -26 -14.5 -47.5t-42.5 -33.5q32 -10 51 -31.5t19 -50.5q0 -44 -37.5 -72.5t-96.5 -28.5z" />
    <glyph glyph-name="acute" unicode="&#xb4;" 
d="M236 600l94 116h95l-124 -116h-65z" />
    <glyph glyph-name="uni00B5" unicode="&#xb5;" horiz-adv-x="551" 
d="M63 -204v705h73v-302q0 -67 38 -105.5t102 -38.5q45 0 80.5 20.5t57.5 57.5v368h74v-501h-74v58q-29 -34 -68.5 -51t-88.5 -17q-35 0 -66 9.5t-55 27.5v-231h-73z" />
    <glyph glyph-name="paragraph" unicode="&#xb6;" horiz-adv-x="651" 
d="M318 0v289h-59q-65 0 -115 26t-78 72.5t-28 106.5q0 62 28 108t77.5 72t114.5 26h316v-700h-69v289h-119v-289h-68zM386 352h119v285h-119v-285zM259 352h59v285h-59q-67 0 -108.5 -39t-41.5 -103q0 -65 41.5 -104t108.5 -39z" />
    <glyph glyph-name="periodcentered" unicode="&#xb7;" horiz-adv-x="250" 
d="M125 231q-21 0 -36 15t-15 36t15 36t36 15t36 -15t15 -36t-15 -36t-36 -15z" />
    <glyph glyph-name="cedilla" unicode="&#xb8;" 
d="M280 -228q-69 0 -113 41l30 32q38 -32 83 -32q30 0 47 13.5t17 35.5t-18.5 34.5t-50.5 12.5h-29l26 91h43l-15 -55q44 -2 69.5 -24t25.5 -58q0 -40 -32.5 -65.5t-82.5 -25.5z" />
    <glyph glyph-name="onesuperior" unicode="&#xb9;" horiz-adv-x="165" 
d="M83 350v296l-63 -26v45l82 35h33v-350h-52z" />
    <glyph glyph-name="ordmasculine" unicode="&#xba;" horiz-adv-x="464" 
d="M232 317q-54 0 -98 26.5t-70 71t-26 99.5t26 99.5t70 71t98 26.5t98 -26.5t70 -71t26 -99.5t-26 -99.5t-70 -71t-98 -26.5zM232 372q37 0 67 19t47.5 51t17.5 72t-17.5 72t-47.5 51t-67 19t-67 -19t-47.5 -51t-17.5 -72t17.5 -72t47.5 -51t67 -19z" />
    <glyph glyph-name="guillemotright" unicode="&#xbb;" horiz-adv-x="598" 
d="M333 501l234 -251l-234 -250h-79l228 248l-231 253h82zM124 501l234 -251l-234 -250h-79l228 248l-231 253h82z" />
    <glyph glyph-name="onequarter" unicode="&#xbc;" horiz-adv-x="603" 
d="M492 0v88h-198v42l192 220h58v-218h43v-44h-43v-88h-52zM355 132h137v157zM83 350v296l-63 -26v45l82 35h33v-350h-52zM38 1l393 700h62l-394 -700h-61z" />
    <glyph glyph-name="onehalf" unicode="&#xbd;" horiz-adv-x="637" 
d="M83 350v296l-63 -26v45l82 35h33v-350h-52zM38 0l393 700h62l-394 -700h-61zM372 0v38l136 125q29 28 40.5 46.5t11.5 38.5q0 27 -20 44.5t-52 17.5q-25 0 -47 -10t-49 -33l-29 35q29 26 60.5 39.5t65.5 13.5q53 0 87.5 -29t34.5 -74q0 -31 -15 -56.5t-55 -62.5l-97 -89
h172v-44h-244z" />
    <glyph glyph-name="threequarters" unicode="&#xbe;" horiz-adv-x="697" 
d="M586 0v88h-198v42l192 220h58v-218h43v-44h-43v-88h-52zM449 132h137v157zM151 345q-39 0 -73.5 13.5t-59.5 38.5l35 33q22 -22 44.5 -31t53.5 -9q37 0 59 16.5t22 43.5q0 24 -21.5 38.5t-56.5 14.5h-31v42h27q30 0 50 17.5t20 42.5q0 24 -20 39.5t-51 15.5
q-28 0 -48.5 -9.5t-43.5 -32.5l-35 33q26 26 59 40.5t70 14.5q53 0 87.5 -27.5t33.5 -69.5q1 -26 -14.5 -47.5t-42.5 -33.5q32 -10 51 -31.5t19 -50.5q0 -44 -37.5 -72.5t-96.5 -28.5zM132 0l393 700h62l-394 -700h-61z" />
    <glyph glyph-name="questiondown" unicode="&#xbf;" horiz-adv-x="506" 
d="M318 298q2 -46 -5 -79.5t-26 -60t-51 -49.5l-44 -31q-44 -32 -61.5 -58t-17.5 -60q0 -31 19.5 -55t52 -38.5t73.5 -14.5q49 0 92.5 23t77.5 67l58 -38q-29 -38 -65.5 -64.5t-78.5 -40t-88 -13.5q-61 0 -109.5 22.5t-76.5 61.5t-28 89q0 34 10.5 61.5t36 53.5t70.5 57
l34 24q37 25 52 59t11 84h64zM286 503q21 0 36 -15t15 -36t-15 -36t-36 -15t-36 15t-15 36t15 36t36 15z" />
    <glyph glyph-name="Agrave" unicode="&#xc0;" horiz-adv-x="679" 
d="M4 0l290 700h93l288 -700h-84l-88 220h-330l-89 -220h-80zM200 286h276l-138 343zM330 799l-123 116h96l92 -116h-65z" />
    <glyph glyph-name="Aacute" unicode="&#xc1;" horiz-adv-x="679" 
d="M4 0l290 700h93l288 -700h-84l-88 220h-330l-89 -220h-80zM200 286h276l-138 343zM276 799l94 116h95l-124 -116h-65z" />
    <glyph glyph-name="Acircumflex" unicode="&#xc2;" horiz-adv-x="679" 
d="M4 0l290 700h93l288 -700h-84l-88 220h-330l-89 -220h-80zM200 286h276l-138 343zM423 795l-84 80l-83 -80h-60l104 121h80l104 -121h-61z" />
    <glyph glyph-name="Atilde" unicode="&#xc3;" horiz-adv-x="679" 
d="M4 0l290 700h93l288 -700h-84l-88 220h-330l-89 -220h-80zM200 286h276l-138 343zM224 794l-52 10q22 100 94 100q27 0 52.5 -13.5t48.5 -27.5t44 -14q17 0 27.5 13t17.5 44l51 -10q-10 -50 -34 -75t-60 -25q-26 0 -51.5 14t-49 27.5t-44.5 13.5q-18 0 -28 -13t-16 -44z
" />
    <glyph glyph-name="Adieresis" unicode="&#xc4;" horiz-adv-x="679" 
d="M4 0l290 700h93l288 -700h-84l-88 220h-330l-89 -220h-80zM200 286h276l-138 343zM253 810q-21 0 -35.5 14t-14.5 34t14.5 34t35.5 14t35.5 -14t14.5 -34t-14.5 -34t-35.5 -14zM427 810q-21 0 -35.5 14t-14.5 34t14.5 34t35.5 14t35.5 -14t14.5 -34t-14.5 -34t-35.5 -14z
" />
    <glyph glyph-name="Aring" unicode="&#xc5;" horiz-adv-x="679" 
d="M4 0l290 700h93l288 -700h-84l-88 220h-330l-89 -220h-80zM200 286h276l-138 343zM340 782q-31 0 -56.5 15t-40.5 40.5t-15 55.5q0 31 15 56t40.5 40t56.5 15t56.5 -15t40.5 -40t15 -56q0 -30 -15 -55.5t-40.5 -40.5t-56.5 -15zM340 823q29 0 49.5 20.5t20.5 49.5
t-20.5 49.5t-49.5 20.5t-49.5 -20.5t-20.5 -49.5t20.5 -49.5t49.5 -20.5z" />
    <glyph glyph-name="AE" unicode="&#xc6;" horiz-adv-x="953" 
d="M4 0l291 700h624v-68h-501l99 -245h261v-67h-234l101 -252h274v-68h-328l-88 220h-330l-89 -220h-80zM200 286h276l-137 342z" />
    <glyph glyph-name="Ccedilla" unicode="&#xc7;" horiz-adv-x="722" 
d="M393 -228q-69 0 -113 41l30 32q38 -32 83 -32q30 0 47 13.5t17 35.5t-18.5 34.5t-50.5 12.5h-29l23 81q-72 5 -133.5 34t-107.5 77.5t-71.5 112t-25.5 136.5q0 76 27.5 141.5t77.5 115t116 77t142 27.5q55 0 105.5 -13.5t94 -39t77.5 -62.5l-51 -54q-41 47 -101 72.5
t-125 25.5q-61 0 -113 -22t-90.5 -61.5t-60 -92t-21.5 -114.5q0 -61 21.5 -114t60.5 -92.5t91.5 -61.5t113.5 -22q65 0 124 25.5t99 70.5l50 -52q-49 -52 -116 -81.5t-141 -33.5l-12 -44q44 -2 69.5 -24t25.5 -58q0 -40 -32.5 -65.5t-82.5 -25.5z" />
    <glyph glyph-name="Egrave" unicode="&#xc8;" horiz-adv-x="616" 
d="M77 0v700h501v-68h-424v-245h277v-67h-277v-252h428v-68h-505zM330 799l-123 116h96l92 -116h-65z" />
    <glyph glyph-name="Eacute" unicode="&#xc9;" horiz-adv-x="616" 
d="M77 0v700h501v-68h-424v-245h277v-67h-277v-252h428v-68h-505zM276 799l94 116h95l-124 -116h-65z" />
    <glyph glyph-name="Ecircumflex" unicode="&#xca;" horiz-adv-x="616" 
d="M77 0v700h501v-68h-424v-245h277v-67h-277v-252h428v-68h-505zM423 795l-84 80l-83 -80h-60l104 121h80l104 -121h-61z" />
    <glyph glyph-name="Edieresis" unicode="&#xcb;" horiz-adv-x="616" 
d="M77 0v700h501v-68h-424v-245h277v-67h-277v-252h428v-68h-505zM253 810q-21 0 -35.5 14t-14.5 34t14.5 34t35.5 14t35.5 -14t14.5 -34t-14.5 -34t-35.5 -14zM427 810q-21 0 -35.5 14t-14.5 34t14.5 34t35.5 14t35.5 -14t14.5 -34t-14.5 -34t-35.5 -14z" />
    <glyph glyph-name="Igrave" unicode="&#xcc;" horiz-adv-x="231" 
d="M77 0v700h77v-700h-77zM106 799l-123 116h96l92 -116h-65z" />
    <glyph glyph-name="Iacute" unicode="&#xcd;" horiz-adv-x="231" 
d="M77 0v700h77v-700h-77zM52 799l94 116h95l-124 -116h-65z" />
    <glyph glyph-name="Icircumflex" unicode="&#xce;" horiz-adv-x="231" 
d="M77 0v700h77v-700h-77zM199 795l-84 80l-83 -80h-60l104 121h80l104 -121h-61z" />
    <glyph glyph-name="Idieresis" unicode="&#xcf;" horiz-adv-x="231" 
d="M77 0v700h77v-700h-77zM29 810q-21 0 -35.5 14t-14.5 34t14.5 34t35.5 14t35.5 -14t14.5 -34t-14.5 -34t-35.5 -14zM203 810q-21 0 -35.5 14t-14.5 34t14.5 34t35.5 14t35.5 -14t14.5 -34t-14.5 -34t-35.5 -14z" />
    <glyph glyph-name="Eth" unicode="&#xd0;" horiz-adv-x="744" 
d="M100 0v317h-87v66h87v317h231q80 0 147 -26t116.5 -73t77 -111t27.5 -140t-27 -140t-76.5 -111t-117 -73t-147.5 -26h-231zM177 70h158q61 0 113 21t91 59t60.5 89t21.5 111t-21.5 111t-60.5 89t-91 59t-113 21h-158v-247h189v-66h-189v-247z" />
    <glyph glyph-name="Ntilde" unicode="&#xd1;" horiz-adv-x="725" 
d="M77 0v700h77l421 -568v568h73v-700h-68l-430 583v-583h-73zM246 794l-52 10q22 100 94 100q27 0 52.5 -13.5t48.5 -27.5t44 -14q17 0 27.5 13t17.5 44l51 -10q-10 -50 -34 -75t-60 -25q-26 0 -51.5 14t-49 27.5t-44.5 13.5q-18 0 -28 -13t-16 -44z" />
    <glyph glyph-name="Ograve" unicode="&#xd2;" horiz-adv-x="809" 
d="M405 -11q-76 0 -141.5 27.5t-115 77t-77 115t-27.5 141.5t27.5 141.5t77 115t115 77t141.5 27.5q75 0 140.5 -27.5t115 -77t77 -115t27.5 -141.5t-27.5 -141.5t-77 -115t-115 -77t-140.5 -27.5zM405 60q60 0 111 22t89.5 61.5t60 92.5t21.5 114q0 62 -21.5 114.5t-60 92
t-89.5 61.5t-111 22t-111.5 -22t-90 -61.5t-60 -92t-21.5 -113.5q0 -62 21.5 -115t60 -92.5t90 -61.5t111.5 -22zM395 799l-123 116h96l92 -116h-65z" />
    <glyph glyph-name="Oacute" unicode="&#xd3;" horiz-adv-x="809" 
d="M405 -11q-76 0 -141.5 27.5t-115 77t-77 115t-27.5 141.5t27.5 141.5t77 115t115 77t141.5 27.5q75 0 140.5 -27.5t115 -77t77 -115t27.5 -141.5t-27.5 -141.5t-77 -115t-115 -77t-140.5 -27.5zM405 60q60 0 111 22t89.5 61.5t60 92.5t21.5 114q0 62 -21.5 114.5t-60 92
t-89.5 61.5t-111 22t-111.5 -22t-90 -61.5t-60 -92t-21.5 -113.5q0 -62 21.5 -115t60 -92.5t90 -61.5t111.5 -22zM341 799l94 116h95l-124 -116h-65z" />
    <glyph glyph-name="Ocircumflex" unicode="&#xd4;" horiz-adv-x="809" 
d="M405 -11q-76 0 -141.5 27.5t-115 77t-77 115t-27.5 141.5t27.5 141.5t77 115t115 77t141.5 27.5q75 0 140.5 -27.5t115 -77t77 -115t27.5 -141.5t-27.5 -141.5t-77 -115t-115 -77t-140.5 -27.5zM405 60q60 0 111 22t89.5 61.5t60 92.5t21.5 114q0 62 -21.5 114.5t-60 92
t-89.5 61.5t-111 22t-111.5 -22t-90 -61.5t-60 -92t-21.5 -113.5q0 -62 21.5 -115t60 -92.5t90 -61.5t111.5 -22zM488 795l-84 80l-83 -80h-60l104 121h80l104 -121h-61z" />
    <glyph glyph-name="Otilde" unicode="&#xd5;" horiz-adv-x="809" 
d="M405 -11q-76 0 -141.5 27.5t-115 77t-77 115t-27.5 141.5t27.5 141.5t77 115t115 77t141.5 27.5q75 0 140.5 -27.5t115 -77t77 -115t27.5 -141.5t-27.5 -141.5t-77 -115t-115 -77t-140.5 -27.5zM405 60q60 0 111 22t89.5 61.5t60 92.5t21.5 114q0 62 -21.5 114.5t-60 92
t-89.5 61.5t-111 22t-111.5 -22t-90 -61.5t-60 -92t-21.5 -113.5q0 -62 21.5 -115t60 -92.5t90 -61.5t111.5 -22zM289 794l-52 10q22 100 94 100q27 0 52.5 -13.5t48.5 -27.5t44 -14q17 0 27.5 13t17.5 44l51 -10q-10 -50 -34 -75t-60 -25q-26 0 -51.5 14t-49 27.5
t-44.5 13.5q-18 0 -28 -13t-16 -44z" />
    <glyph glyph-name="Odieresis" unicode="&#xd6;" horiz-adv-x="809" 
d="M405 -11q-76 0 -141.5 27.5t-115 77t-77 115t-27.5 141.5t27.5 141.5t77 115t115 77t141.5 27.5q75 0 140.5 -27.5t115 -77t77 -115t27.5 -141.5t-27.5 -141.5t-77 -115t-115 -77t-140.5 -27.5zM405 60q60 0 111 22t89.5 61.5t60 92.5t21.5 114q0 62 -21.5 114.5t-60 92
t-89.5 61.5t-111 22t-111.5 -22t-90 -61.5t-60 -92t-21.5 -113.5q0 -62 21.5 -115t60 -92.5t90 -61.5t111.5 -22zM318 810q-21 0 -35.5 14t-14.5 34t14.5 34t35.5 14t35.5 -14t14.5 -34t-14.5 -34t-35.5 -14zM492 810q-21 0 -35.5 14t-14.5 34t14.5 34t35.5 14t35.5 -14
t14.5 -34t-14.5 -34t-35.5 -14z" />
    <glyph glyph-name="multiply" unicode="&#xd7;" 
d="M152 162l-37 40l146 156l-147 158l38 41l148 -157l147 157l39 -40l-148 -157l148 -158l-40 -41l-147 157z" />
    <glyph glyph-name="Oslash" unicode="&#xd8;" horiz-adv-x="809" 
d="M405 -11q-58 0 -111.5 17t-97.5 48l-45 -54h-79l77 93q-49 49 -77 115t-28 142t27.5 141.5t77 115t115 77t141.5 27.5q57 0 109 -16.5t95 -45.5l42 51h81l-75 -90q50 -49 79 -116t29 -144q0 -76 -27.5 -141.5t-77 -115t-115 -77t-140.5 -27.5zM197 151l365 442
q-33 23 -73 35t-84 12q-60 0 -111.5 -22t-90 -61.5t-60 -92t-21.5 -114.5q0 -58 20 -109.5t55 -89.5zM405 60q60 0 111 22t89.5 61.5t60 92.5t21.5 114q0 60 -20.5 112t-56.5 90l-367 -442q34 -23 75 -36.5t87 -13.5z" />
    <glyph glyph-name="Ugrave" unicode="&#xd9;" horiz-adv-x="704" 
d="M352 -11q-89 0 -154 37.5t-100 106.5t-35 163v404h77v-404q0 -72 26 -125t74 -82t112 -29q65 0 112.5 29t73.5 82t26 125v404h77v-404q0 -94 -35.5 -163t-100 -106.5t-153.5 -37.5zM342 799l-123 116h96l92 -116h-65z" />
    <glyph glyph-name="Uacute" unicode="&#xda;" horiz-adv-x="704" 
d="M352 -11q-89 0 -154 37.5t-100 106.5t-35 163v404h77v-404q0 -72 26 -125t74 -82t112 -29q65 0 112.5 29t73.5 82t26 125v404h77v-404q0 -94 -35.5 -163t-100 -106.5t-153.5 -37.5zM288 799l94 116h95l-124 -116h-65z" />
    <glyph glyph-name="Ucircumflex" unicode="&#xdb;" horiz-adv-x="704" 
d="M352 -11q-89 0 -154 37.5t-100 106.5t-35 163v404h77v-404q0 -72 26 -125t74 -82t112 -29q65 0 112.5 29t73.5 82t26 125v404h77v-404q0 -94 -35.5 -163t-100 -106.5t-153.5 -37.5zM435 795l-84 80l-83 -80h-60l104 121h80l104 -121h-61z" />
    <glyph glyph-name="Udieresis" unicode="&#xdc;" horiz-adv-x="704" 
d="M352 -11q-89 0 -154 37.5t-100 106.5t-35 163v404h77v-404q0 -72 26 -125t74 -82t112 -29q65 0 112.5 29t73.5 82t26 125v404h77v-404q0 -94 -35.5 -163t-100 -106.5t-153.5 -37.5zM265 810q-21 0 -35.5 14t-14.5 34t14.5 34t35.5 14t35.5 -14t14.5 -34t-14.5 -34
t-35.5 -14zM439 810q-21 0 -35.5 14t-14.5 34t14.5 34t35.5 14t35.5 -14t14.5 -34t-14.5 -34t-35.5 -14z" />
    <glyph glyph-name="Yacute" unicode="&#xdd;" horiz-adv-x="639" 
d="M281 0v285l-278 415h90l229 -347l228 347h87l-279 -418v-282h-77zM256 799l94 116h95l-124 -116h-65z" />
    <glyph glyph-name="Thorn" unicode="&#xde;" horiz-adv-x="637" 
d="M77 0v700h77v-141h229q62 0 110.5 -27.5t76.5 -74.5t28 -108q0 -59 -28 -106t-76.5 -74t-110.5 -27h-229v-142h-77zM154 209h221q41 0 74 18.5t52 50t19 71.5q0 41 -19 73t-52 50.5t-74 17.5h-221v-281z" />
    <glyph glyph-name="germandbls" unicode="&#xdf;" horiz-adv-x="628" 
d="M424 -11q-113 0 -196 81l45 43q66 -67 150 -67q52 0 83 21.5t31 56.5q0 34 -18.5 54t-64.5 35l-80 26q-60 20 -84.5 43.5t-24.5 60.5q0 35 19.5 57t48.5 37.5t58 30t48.5 34t19.5 49.5q0 44 -42.5 71t-109.5 27q-83 0 -127 -45t-44 -130v-474h-73v472q0 113 64 176
t178 63q69 0 119.5 -19t78.5 -53.5t28 -81.5q0 -41 -19.5 -67.5t-48.5 -44t-58 -30.5t-48.5 -27.5t-19.5 -35.5q0 -19 14 -31t54 -26l77 -26q66 -22 95 -54.5t29 -83.5q0 -64 -50 -103t-132 -39z" />
    <glyph glyph-name="agrave" unicode="&#xe0;" horiz-adv-x="516" 
d="M221 -9q-55 0 -96.5 19t-65 53t-23.5 79q0 71 54 112t146 41q81 0 147 -34v66q0 60 -34 90.5t-99 30.5q-37 0 -74.5 -10.5t-82.5 -33.5l-28 57q54 26 100 38t92 12q95 0 146.5 -45t51.5 -129v-337h-72v49q-34 -29 -74.5 -43.5t-87.5 -14.5zM107 144q0 -42 35.5 -68.5
t91.5 -26.5q45 0 82 14t67 44v94q-31 21 -66 30.5t-79 9.5q-60 0 -95.5 -26.5t-35.5 -70.5zM239 600l-123 116h96l92 -116h-65z" />
    <glyph glyph-name="aacute" unicode="&#xe1;" horiz-adv-x="516" 
d="M221 -9q-55 0 -96.5 19t-65 53t-23.5 79q0 71 54 112t146 41q81 0 147 -34v66q0 60 -34 90.5t-99 30.5q-37 0 -74.5 -10.5t-82.5 -33.5l-28 57q54 26 100 38t92 12q95 0 146.5 -45t51.5 -129v-337h-72v49q-34 -29 -74.5 -43.5t-87.5 -14.5zM107 144q0 -42 35.5 -68.5
t91.5 -26.5q45 0 82 14t67 44v94q-31 21 -66 30.5t-79 9.5q-60 0 -95.5 -26.5t-35.5 -70.5zM185 600l94 116h95l-124 -116h-65z" />
    <glyph glyph-name="acircumflex" unicode="&#xe2;" horiz-adv-x="516" 
d="M221 -9q-55 0 -96.5 19t-65 53t-23.5 79q0 71 54 112t146 41q81 0 147 -34v66q0 60 -34 90.5t-99 30.5q-37 0 -74.5 -10.5t-82.5 -33.5l-28 57q54 26 100 38t92 12q95 0 146.5 -45t51.5 -129v-337h-72v49q-34 -29 -74.5 -43.5t-87.5 -14.5zM107 144q0 -42 35.5 -68.5
t91.5 -26.5q45 0 82 14t67 44v94q-31 21 -66 30.5t-79 9.5q-60 0 -95.5 -26.5t-35.5 -70.5zM332 596l-84 80l-83 -80h-60l104 121h80l104 -121h-61z" />
    <glyph glyph-name="atilde" unicode="&#xe3;" horiz-adv-x="516" 
d="M221 -9q-55 0 -96.5 19t-65 53t-23.5 79q0 71 54 112t146 41q81 0 147 -34v66q0 60 -34 90.5t-99 30.5q-37 0 -74.5 -10.5t-82.5 -33.5l-28 57q54 26 100 38t92 12q95 0 146.5 -45t51.5 -129v-337h-72v49q-34 -29 -74.5 -43.5t-87.5 -14.5zM107 144q0 -42 35.5 -68.5
t91.5 -26.5q45 0 82 14t67 44v94q-31 21 -66 30.5t-79 9.5q-60 0 -95.5 -26.5t-35.5 -70.5zM133 595l-52 10q22 100 94 100q27 0 52.5 -13.5t48.5 -27.5t44 -14q17 0 27.5 13t17.5 44l51 -10q-10 -50 -34 -75t-60 -25q-26 0 -51.5 14t-49 27.5t-44.5 13.5q-18 0 -28 -13
t-16 -44z" />
    <glyph glyph-name="adieresis" unicode="&#xe4;" horiz-adv-x="516" 
d="M221 -9q-55 0 -96.5 19t-65 53t-23.5 79q0 71 54 112t146 41q81 0 147 -34v66q0 60 -34 90.5t-99 30.5q-37 0 -74.5 -10.5t-82.5 -33.5l-28 57q54 26 100 38t92 12q95 0 146.5 -45t51.5 -129v-337h-72v49q-34 -29 -74.5 -43.5t-87.5 -14.5zM107 144q0 -42 35.5 -68.5
t91.5 -26.5q45 0 82 14t67 44v94q-31 21 -66 30.5t-79 9.5q-60 0 -95.5 -26.5t-35.5 -70.5zM162 611q-21 0 -35.5 14t-14.5 34t14.5 34t35.5 14t35.5 -14t14.5 -34t-14.5 -34t-35.5 -14zM336 611q-21 0 -35.5 14t-14.5 34t14.5 34t35.5 14t35.5 -14t14.5 -34t-14.5 -34
t-35.5 -14z" />
    <glyph glyph-name="aring" unicode="&#xe5;" horiz-adv-x="516" 
d="M221 -9q-55 0 -96.5 19t-65 53t-23.5 79q0 71 54 112t146 41q81 0 147 -34v66q0 60 -34 90.5t-99 30.5q-37 0 -74.5 -10.5t-82.5 -33.5l-28 57q54 26 100 38t92 12q95 0 146.5 -45t51.5 -129v-337h-72v49q-34 -29 -74.5 -43.5t-87.5 -14.5zM107 144q0 -42 35.5 -68.5
t91.5 -26.5q45 0 82 14t67 44v94q-31 21 -66 30.5t-79 9.5q-60 0 -95.5 -26.5t-35.5 -70.5zM249 583q-31 0 -56.5 15t-40.5 40.5t-15 55.5q0 31 15 56t40.5 40t56.5 15t56.5 -15t40.5 -40t15 -56q0 -30 -15 -55.5t-40.5 -40.5t-56.5 -15zM249 624q29 0 49.5 20.5t20.5 49.5
t-20.5 49.5t-49.5 20.5t-49.5 -20.5t-20.5 -49.5t20.5 -49.5t49.5 -20.5z" />
    <glyph glyph-name="ae" unicode="&#xe6;" horiz-adv-x="907" 
d="M221 -9q-55 0 -96.5 19t-64.5 53t-23 79q0 70 55 111.5t147 41.5q80 0 144 -32v64q0 60 -34 90.5t-99 30.5q-37 0 -74.5 -10.5t-82.5 -33.5l-28 57q54 26 100 38t92 12q71 0 117.5 -25t65.5 -73q33 45 82.5 70.5t107.5 25.5q67 0 120.5 -34.5t85 -93t31.5 -130.5v-23
h-411q6 -49 31.5 -88t66.5 -61.5t90 -22.5q39 0 76 12t62 34l46 -49q-42 -31 -87.5 -46.5t-99.5 -15.5q-64 0 -117.5 27.5t-88.5 73.5q-41 -49 -95 -75t-119 -26zM458 287h335q-6 45 -29.5 80.5t-58.5 56t-77 20.5q-43 0 -79 -20t-60 -55.5t-31 -81.5zM234 49q52 0 95 22
t79 66q-7 15 -12 31t-9 33q-31 21 -66.5 30.5t-79.5 9.5q-60 0 -96.5 -26.5t-36.5 -70.5q0 -42 35.5 -68.5t90.5 -26.5z" />
    <glyph glyph-name="ccedilla" unicode="&#xe7;" horiz-adv-x="513" 
d="M282 -228q-69 0 -113 41l30 32q38 -32 83 -32q30 0 47 13.5t17 35.5t-18.5 34.5t-50.5 12.5h-29l24 83q-66 6 -118.5 41.5t-83 92t-30.5 125.5q0 73 34 131.5t92 93.5t129 35q55 0 106 -20.5t90 -58.5l-47 -54q-30 32 -68.5 48.5t-79.5 16.5q-51 0 -92.5 -25.5t-66 -69
t-24.5 -97.5t24.5 -98t66.5 -69.5t93 -25.5q41 0 77.5 16t68.5 47l46 -50q-36 -34 -80.5 -54.5t-93.5 -24.5l-13 -47q44 -2 69.5 -24t25.5 -58q0 -40 -32.5 -65.5t-82.5 -25.5z" />
    <glyph glyph-name="egrave" unicode="&#xe8;" horiz-adv-x="564" 
d="M298 -9q-72 0 -130.5 34.5t-93 93.5t-34.5 132q0 72 33 130.5t89 93t125 34.5q67 0 120.5 -34.5t85 -93t31.5 -130.5v-23h-411q6 -49 31.5 -88t66.5 -61.5t90 -22.5q39 0 76 12t62 34l46 -49q-42 -31 -87.5 -46.5t-99.5 -15.5zM115 287h335q-6 45 -29.5 80.5t-58.5 56
t-77 20.5q-43 0 -79 -20t-60 -55.5t-31 -81.5zM276 600l-123 116h96l92 -116h-65z" />
    <glyph glyph-name="eacute" unicode="&#xe9;" horiz-adv-x="564" 
d="M298 -9q-72 0 -130.5 34.5t-93 93.5t-34.5 132q0 72 33 130.5t89 93t125 34.5q67 0 120.5 -34.5t85 -93t31.5 -130.5v-23h-411q6 -49 31.5 -88t66.5 -61.5t90 -22.5q39 0 76 12t62 34l46 -49q-42 -31 -87.5 -46.5t-99.5 -15.5zM115 287h335q-6 45 -29.5 80.5t-58.5 56
t-77 20.5q-43 0 -79 -20t-60 -55.5t-31 -81.5zM222 600l94 116h95l-124 -116h-65z" />
    <glyph glyph-name="ecircumflex" unicode="&#xea;" horiz-adv-x="564" 
d="M298 -9q-72 0 -130.5 34.5t-93 93.5t-34.5 132q0 72 33 130.5t89 93t125 34.5q67 0 120.5 -34.5t85 -93t31.5 -130.5v-23h-411q6 -49 31.5 -88t66.5 -61.5t90 -22.5q39 0 76 12t62 34l46 -49q-42 -31 -87.5 -46.5t-99.5 -15.5zM115 287h335q-6 45 -29.5 80.5t-58.5 56
t-77 20.5q-43 0 -79 -20t-60 -55.5t-31 -81.5zM369 596l-84 80l-83 -80h-60l104 121h80l104 -121h-61z" />
    <glyph glyph-name="edieresis" unicode="&#xeb;" horiz-adv-x="564" 
d="M298 -9q-72 0 -130.5 34.5t-93 93.5t-34.5 132q0 72 33 130.5t89 93t125 34.5q67 0 120.5 -34.5t85 -93t31.5 -130.5v-23h-411q6 -49 31.5 -88t66.5 -61.5t90 -22.5q39 0 76 12t62 34l46 -49q-42 -31 -87.5 -46.5t-99.5 -15.5zM115 287h335q-6 45 -29.5 80.5t-58.5 56
t-77 20.5q-43 0 -79 -20t-60 -55.5t-31 -81.5zM199 611q-21 0 -35.5 14t-14.5 34t14.5 34t35.5 14t35.5 -14t14.5 -34t-14.5 -34t-35.5 -14zM373 611q-21 0 -35.5 14t-14.5 34t14.5 34t35.5 14t35.5 -14t14.5 -34t-14.5 -34t-35.5 -14z" />
    <glyph glyph-name="igrave" unicode="&#xec;" horiz-adv-x="200" 
d="M63 0v501h74v-501h-74zM90 600l-123 116h96l92 -116h-65z" />
    <glyph glyph-name="iacute" unicode="&#xed;" horiz-adv-x="200" 
d="M63 0v501h74v-501h-74zM36 600l94 116h95l-124 -116h-65z" />
    <glyph glyph-name="icircumflex" unicode="&#xee;" horiz-adv-x="200" 
d="M63 0v501h74v-501h-74zM183 596l-84 80l-83 -80h-60l104 121h80l104 -121h-61z" />
    <glyph glyph-name="idieresis" unicode="&#xef;" horiz-adv-x="200" 
d="M63 0v501h74v-501h-74zM13 611q-21 0 -35.5 14t-14.5 34t14.5 34t35.5 14t35.5 -14t14.5 -34t-14.5 -34t-35.5 -14zM187 611q-21 0 -35.5 14t-14.5 34t14.5 34t35.5 14t35.5 -14t14.5 -34t-14.5 -34t-35.5 -14z" />
    <glyph glyph-name="eth" unicode="&#xf0;" horiz-adv-x="601" 
d="M290 -10q-70 0 -126.5 34t-89.5 92t-33 130q0 51 18.5 95.5t52 78t78 52t95.5 18.5q62 0 110.5 -28.5t76.5 -77.5q-10 62 -37.5 115t-69.5 93l-102 -64l-31 46l87 54q-23 17 -50 29t-57 20l30 54q38 -12 72.5 -28.5t63.5 -38.5l110 69l31 -46l-97 -60q62 -60 94 -144.5
t32 -190.5q0 -91 -32 -159t-90 -105.5t-136 -37.5zM292 57q50 0 90.5 24.5t64 66.5t23.5 94t-23.5 93.5t-64 66t-90.5 24.5q-51 0 -91.5 -24.5t-64 -66t-23.5 -93.5t23.5 -94t64 -66.5t91.5 -24.5z" />
    <glyph glyph-name="ntilde" unicode="&#xf1;" horiz-adv-x="549" 
d="M63 0v501h74v-59q59 69 158 69q57 0 100.5 -24.5t68 -68t24.5 -101.5v-317h-73v302q0 67 -37.5 105.5t-102.5 38.5q-45 0 -80 -20t-58 -57v-369h-74zM160 595l-52 10q22 100 94 100q27 0 52.5 -13.5t48.5 -27.5t44 -14q17 0 27.5 13t17.5 44l51 -10q-10 -50 -34 -75
t-60 -25q-26 0 -51.5 14t-49 27.5t-44.5 13.5q-18 0 -28 -13t-16 -44z" />
    <glyph glyph-name="ograve" unicode="&#xf2;" horiz-adv-x="592" 
d="M296 -10q-71 0 -129.5 34.5t-92.5 93.5t-34 132t34 132t92.5 93.5t129.5 34.5q72 0 130 -34.5t92 -93.5t34 -132t-34 -132t-92 -93.5t-130 -34.5zM296 56q51 0 92.5 26t66 70t24.5 98q0 55 -24.5 98.5t-66 69.5t-92.5 26t-92.5 -26t-66 -69.5t-24.5 -98.5q0 -54 24.5 -98
t66 -70t92.5 -26zM286 600l-123 116h96l92 -116h-65z" />
    <glyph glyph-name="oacute" unicode="&#xf3;" horiz-adv-x="592" 
d="M296 -10q-71 0 -129.5 34.5t-92.5 93.5t-34 132t34 132t92.5 93.5t129.5 34.5q72 0 130 -34.5t92 -93.5t34 -132t-34 -132t-92 -93.5t-130 -34.5zM296 56q51 0 92.5 26t66 70t24.5 98q0 55 -24.5 98.5t-66 69.5t-92.5 26t-92.5 -26t-66 -69.5t-24.5 -98.5q0 -54 24.5 -98
t66 -70t92.5 -26zM232 600l94 116h95l-124 -116h-65z" />
    <glyph glyph-name="ocircumflex" unicode="&#xf4;" horiz-adv-x="592" 
d="M296 -10q-71 0 -129.5 34.5t-92.5 93.5t-34 132t34 132t92.5 93.5t129.5 34.5q72 0 130 -34.5t92 -93.5t34 -132t-34 -132t-92 -93.5t-130 -34.5zM296 56q51 0 92.5 26t66 70t24.5 98q0 55 -24.5 98.5t-66 69.5t-92.5 26t-92.5 -26t-66 -69.5t-24.5 -98.5q0 -54 24.5 -98
t66 -70t92.5 -26zM379 596l-84 80l-83 -80h-60l104 121h80l104 -121h-61z" />
    <glyph glyph-name="otilde" unicode="&#xf5;" horiz-adv-x="592" 
d="M296 -10q-71 0 -129.5 34.5t-92.5 93.5t-34 132t34 132t92.5 93.5t129.5 34.5q72 0 130 -34.5t92 -93.5t34 -132t-34 -132t-92 -93.5t-130 -34.5zM296 56q51 0 92.5 26t66 70t24.5 98q0 55 -24.5 98.5t-66 69.5t-92.5 26t-92.5 -26t-66 -69.5t-24.5 -98.5q0 -54 24.5 -98
t66 -70t92.5 -26zM180 595l-52 10q22 100 94 100q27 0 52.5 -13.5t48.5 -27.5t44 -14q17 0 27.5 13t17.5 44l51 -10q-10 -50 -34 -75t-60 -25q-26 0 -51.5 14t-49 27.5t-44.5 13.5q-18 0 -28 -13t-16 -44z" />
    <glyph glyph-name="odieresis" unicode="&#xf6;" horiz-adv-x="592" 
d="M296 -10q-71 0 -129.5 34.5t-92.5 93.5t-34 132t34 132t92.5 93.5t129.5 34.5q72 0 130 -34.5t92 -93.5t34 -132t-34 -132t-92 -93.5t-130 -34.5zM296 56q51 0 92.5 26t66 70t24.5 98q0 55 -24.5 98.5t-66 69.5t-92.5 26t-92.5 -26t-66 -69.5t-24.5 -98.5q0 -54 24.5 -98
t66 -70t92.5 -26zM209 611q-21 0 -35.5 14t-14.5 34t14.5 34t35.5 14t35.5 -14t14.5 -34t-14.5 -34t-35.5 -14zM383 611q-21 0 -35.5 14t-14.5 34t14.5 34t35.5 14t35.5 -14t14.5 -34t-14.5 -34t-35.5 -14z" />
    <glyph glyph-name="divide" unicode="&#xf7;" 
d="M300 489q-22 0 -37.5 15.5t-15.5 37.5t15.5 37.5t37.5 15.5t37.5 -15.5t15.5 -37.5t-15.5 -37.5t-37.5 -15.5zM300 121q-22 0 -37.5 15.5t-15.5 37.5t15.5 37.5t37.5 15.5t37.5 -15.5t15.5 -37.5t-15.5 -37.5t-37.5 -15.5zM102 328v60h396v-60h-396z" />
    <glyph glyph-name="oslash" unicode="&#xf8;" horiz-adv-x="592" 
d="M296 -10q-41 0 -78.5 12t-68.5 34l-30 -36h-66l58 69q-33 35 -52 81.5t-19 100.5q0 73 34 132t92.5 93.5t129.5 34.5q41 0 77.5 -12t67.5 -33l30 35h66l-57 -68q33 -35 52 -82t19 -100q0 -73 -34 -132.5t-92 -94t-129 -34.5zM156 124l242 289q-22 15 -47.5 23.5
t-54.5 8.5q-51 0 -92.5 -26t-66 -69.5t-24.5 -98.5q0 -37 11.5 -69t31.5 -58zM296 56q51 0 92.5 26t65.5 70.5t24 98.5q0 37 -11.5 69.5t-31.5 57.5l-242 -289q22 -16 48 -24.5t55 -8.5z" />
    <glyph glyph-name="ugrave" unicode="&#xf9;" horiz-adv-x="549" 
d="M255 -10q-57 0 -101 24.5t-68.5 68t-24.5 101.5v317h73v-302q0 -67 38 -105.5t102 -38.5q45 0 80.5 20.5t57.5 57.5v368h74v-501h-74v58q-59 -68 -157 -68zM264 600l-123 116h96l92 -116h-65z" />
    <glyph glyph-name="uacute" unicode="&#xfa;" horiz-adv-x="549" 
d="M255 -10q-57 0 -101 24.5t-68.5 68t-24.5 101.5v317h73v-302q0 -67 38 -105.5t102 -38.5q45 0 80.5 20.5t57.5 57.5v368h74v-501h-74v58q-59 -68 -157 -68zM210 600l94 116h95l-124 -116h-65z" />
    <glyph glyph-name="ucircumflex" unicode="&#xfb;" horiz-adv-x="549" 
d="M255 -10q-57 0 -101 24.5t-68.5 68t-24.5 101.5v317h73v-302q0 -67 38 -105.5t102 -38.5q45 0 80.5 20.5t57.5 57.5v368h74v-501h-74v58q-59 -68 -157 -68zM357 596l-84 80l-83 -80h-60l104 121h80l104 -121h-61z" />
    <glyph glyph-name="udieresis" unicode="&#xfc;" horiz-adv-x="549" 
d="M255 -10q-57 0 -101 24.5t-68.5 68t-24.5 101.5v317h73v-302q0 -67 38 -105.5t102 -38.5q45 0 80.5 20.5t57.5 57.5v368h74v-501h-74v58q-59 -68 -157 -68zM187 611q-21 0 -35.5 14t-14.5 34t14.5 34t35.5 14t35.5 -14t14.5 -34t-14.5 -34t-35.5 -14zM361 611
q-21 0 -35.5 14t-14.5 34t14.5 34t35.5 14t35.5 -14t14.5 -34t-14.5 -34t-35.5 -14z" />
    <glyph glyph-name="yacute" unicode="&#xfd;" horiz-adv-x="510" 
d="M84 -214q-14 0 -26.5 1.5t-20.5 3.5v67q17 -4 42 -4q66 0 100 78l30 69l-204 500h82l162 -411l175 411h80l-250 -579q-21 -48 -45 -78t-54.5 -44t-70.5 -14zM186 600l94 116h95l-124 -116h-65z" />
    <glyph glyph-name="thorn" unicode="&#xfe;" horiz-adv-x="591" 
d="M63 -204v904l74 17v-269q64 61 161 61q71 0 128 -34.5t90.5 -92.5t33.5 -131t-33.5 -131.5t-90.5 -93t-129 -34.5q-44 0 -85 15t-75 43v-254h-74zM291 444q-47 0 -87.5 -18.5t-66.5 -51.5v-248q26 -32 67 -50.5t87 -18.5q53 0 95 25.5t66.5 69t24.5 98.5t-24.5 99
t-66.5 69.5t-95 25.5z" />
    <glyph glyph-name="ydieresis" unicode="&#xff;" horiz-adv-x="510" 
d="M84 -214q-14 0 -26.5 1.5t-20.5 3.5v67q17 -4 42 -4q66 0 100 78l30 69l-204 500h82l162 -411l175 411h80l-250 -579q-21 -48 -45 -78t-54.5 -44t-70.5 -14zM163 611q-21 0 -35.5 14t-14.5 34t14.5 34t35.5 14t35.5 -14t14.5 -34t-14.5 -34t-35.5 -14zM337 611
q-21 0 -35.5 14t-14.5 34t14.5 34t35.5 14t35.5 -14t14.5 -34t-14.5 -34t-35.5 -14z" />
    <glyph glyph-name="Amacron" unicode="&#x100;" horiz-adv-x="679" 
d="M4 0l290 700h93l288 -700h-84l-88 220h-330l-89 -220h-80zM200 286h276l-138 343zM198 820v53h284v-53h-284z" />
    <glyph glyph-name="amacron" unicode="&#x101;" horiz-adv-x="516" 
d="M221 -9q-55 0 -96.5 19t-65 53t-23.5 79q0 71 54 112t146 41q81 0 147 -34v66q0 60 -34 90.5t-99 30.5q-37 0 -74.5 -10.5t-82.5 -33.5l-28 57q54 26 100 38t92 12q95 0 146.5 -45t51.5 -129v-337h-72v49q-34 -29 -74.5 -43.5t-87.5 -14.5zM107 144q0 -42 35.5 -68.5
t91.5 -26.5q45 0 82 14t67 44v94q-31 21 -66 30.5t-79 9.5q-60 0 -95.5 -26.5t-35.5 -70.5zM107 621v53h284v-53h-284z" />
    <glyph glyph-name="Abreve" unicode="&#x102;" horiz-adv-x="679" 
d="M4 0l290 700h93l288 -700h-84l-88 220h-330l-89 -220h-80zM200 286h276l-138 343zM340 791q-60 0 -100.5 32.5t-53.5 90.5l52 13q21 -87 102 -87q38 0 64.5 22t37.5 65l52 -13q-13 -58 -54 -90.5t-100 -32.5z" />
    <glyph glyph-name="abreve" unicode="&#x103;" horiz-adv-x="516" 
d="M221 -9q-55 0 -96.5 19t-65 53t-23.5 79q0 71 54 112t146 41q81 0 147 -34v66q0 60 -34 90.5t-99 30.5q-37 0 -74.5 -10.5t-82.5 -33.5l-28 57q54 26 100 38t92 12q95 0 146.5 -45t51.5 -129v-337h-72v49q-34 -29 -74.5 -43.5t-87.5 -14.5zM107 144q0 -42 35.5 -68.5
t91.5 -26.5q45 0 82 14t67 44v94q-31 21 -66 30.5t-79 9.5q-60 0 -95.5 -26.5t-35.5 -70.5zM249 592q-60 0 -100.5 32.5t-53.5 90.5l52 13q21 -87 102 -87q38 0 64.5 22t37.5 65l52 -13q-13 -58 -54 -90.5t-100 -32.5z" />
    <glyph glyph-name="Aogonek" unicode="&#x104;" horiz-adv-x="679" 
d="M617 -221q-44 0 -71 23.5t-27 62.5q0 35 23.5 67t75.5 68h-27l-88 220h-330l-89 -220h-80l291 700h93l288 -700q-55 -34 -80.5 -64t-25.5 -59q0 -25 15 -38.5t43 -13.5q13 0 25.5 3.5t22.5 10.5l15 -39q-16 -10 -34.5 -15.5t-39.5 -5.5zM200 286h276l-137 342z" />
    <glyph glyph-name="aogonek" unicode="&#x105;" horiz-adv-x="516" 
d="M397 -221q-44 0 -71 23.5t-27 62.5q0 35 23.5 67t75.5 68h-15v49q-34 -29 -74.5 -43.5t-87.5 -14.5q-55 0 -96.5 19t-65 53t-23.5 79q0 71 54 112t146 41q81 0 147 -34v66q0 60 -34 90.5t-99 30.5q-37 0 -74.5 -10.5t-82.5 -33.5l-28 57q54 26 100 38t92 12
q95 0 146.5 -45t51.5 -129v-337q-55 -34 -80 -64t-25 -59q0 -25 15 -38.5t43 -13.5q13 0 25.5 3.5t22.5 10.5l15 -39q-16 -10 -34.5 -15.5t-39.5 -5.5zM234 49q45 0 82 14t67 44v94q-31 21 -66 30.5t-79 9.5q-60 0 -95.5 -26.5t-35.5 -70.5q0 -42 35.5 -68.5t91.5 -26.5z
" />
    <glyph glyph-name="Cacute" unicode="&#x106;" horiz-adv-x="722" 
d="M407 -11q-76 0 -142 27.5t-116 77t-77.5 115t-27.5 141.5t27.5 141.5t77.5 115t116 77t142 27.5q55 0 105.5 -13.5t94 -39t77.5 -62.5l-51 -54q-41 47 -101 72.5t-125 25.5q-61 0 -113 -22t-90.5 -61.5t-60 -92t-21.5 -114.5q0 -61 21.5 -114t60.5 -92.5t91.5 -61.5
t113.5 -22q65 0 124 25.5t99 70.5l50 -52q-35 -36 -78.5 -62t-93.5 -39.5t-103 -13.5zM339 799l94 116h95l-124 -116h-65z" />
    <glyph glyph-name="cacute" unicode="&#x107;" horiz-adv-x="513" 
d="M295 -9q-71 0 -129 34.5t-92 93.5t-34 132t34 131.5t92 93.5t129 35q55 0 106 -20.5t90 -58.5l-47 -54q-30 32 -68.5 48.5t-79.5 16.5q-51 0 -92.5 -25.5t-66 -69t-24.5 -97.5t24.5 -98t66.5 -69.5t93 -25.5q41 0 77.5 16t68.5 47l46 -50q-40 -38 -90 -59t-104 -21z
M230 600l94 116h95l-124 -116h-65z" />
    <glyph glyph-name="Ccircumflex" unicode="&#x108;" horiz-adv-x="722" 
d="M407 -11q-76 0 -142 27.5t-116 77t-77.5 115t-27.5 141.5t27.5 141.5t77.5 115t116 77t142 27.5q55 0 105.5 -13.5t94 -39t77.5 -62.5l-51 -54q-41 47 -101 72.5t-125 25.5q-61 0 -113 -22t-90.5 -61.5t-60 -92t-21.5 -114.5q0 -61 21.5 -114t60.5 -92.5t91.5 -61.5
t113.5 -22q65 0 124 25.5t99 70.5l50 -52q-35 -36 -78.5 -62t-93.5 -39.5t-103 -13.5zM486 795l-84 80l-83 -80h-60l104 121h80l104 -121h-61z" />
    <glyph glyph-name="ccircumflex" unicode="&#x109;" horiz-adv-x="513" 
d="M295 -9q-71 0 -129 34.5t-92 93.5t-34 132t34 131.5t92 93.5t129 35q55 0 106 -20.5t90 -58.5l-47 -54q-30 32 -68.5 48.5t-79.5 16.5q-51 0 -92.5 -25.5t-66 -69t-24.5 -97.5t24.5 -98t66.5 -69.5t93 -25.5q41 0 77.5 16t68.5 47l46 -50q-40 -38 -90 -59t-104 -21z
M377 596l-84 80l-83 -80h-60l104 121h80l104 -121h-61z" />
    <glyph glyph-name="Cdotaccent" unicode="&#x10a;" horiz-adv-x="722" 
d="M407 -11q-76 0 -142 27.5t-116 77t-77.5 115t-27.5 141.5t27.5 141.5t77.5 115t116 77t142 27.5q55 0 105.5 -13.5t94 -39t77.5 -62.5l-51 -54q-41 47 -101 72.5t-125 25.5q-61 0 -113 -22t-90.5 -61.5t-60 -92t-21.5 -114.5q0 -61 21.5 -114t60.5 -92.5t91.5 -61.5
t113.5 -22q65 0 124 25.5t99 70.5l50 -52q-35 -36 -78.5 -62t-93.5 -39.5t-103 -13.5zM403 801q-20 0 -34.5 14.5t-14.5 34.5t14.5 34.5t34.5 14.5t34.5 -14.5t14.5 -34.5t-14.5 -34.5t-34.5 -14.5z" />
    <glyph glyph-name="cdotaccent" unicode="&#x10b;" horiz-adv-x="513" 
d="M295 -9q-71 0 -129 34.5t-92 93.5t-34 132t34 131.5t92 93.5t129 35q55 0 106 -20.5t90 -58.5l-47 -54q-30 32 -68.5 48.5t-79.5 16.5q-51 0 -92.5 -25.5t-66 -69t-24.5 -97.5t24.5 -98t66.5 -69.5t93 -25.5q41 0 77.5 16t68.5 47l46 -50q-40 -38 -90 -59t-104 -21z
M294 602q-20 0 -34.5 14.5t-14.5 34.5t14.5 34.5t34.5 14.5t34.5 -14.5t14.5 -34.5t-14.5 -34.5t-34.5 -14.5z" />
    <glyph glyph-name="Ccaron" unicode="&#x10c;" horiz-adv-x="722" 
d="M407 -11q-76 0 -142 27.5t-116 77t-77.5 115t-27.5 141.5t27.5 141.5t77.5 115t116 77t142 27.5q55 0 105.5 -13.5t94 -39t77.5 -62.5l-51 -54q-41 47 -101 72.5t-125 25.5q-61 0 -113 -22t-90.5 -61.5t-60 -92t-21.5 -114.5q0 -61 21.5 -114t60.5 -92.5t91.5 -61.5
t113.5 -22q65 0 124 25.5t99 70.5l50 -52q-35 -36 -78.5 -62t-93.5 -39.5t-103 -13.5zM321 917l82 -79l82 79h62l-104 -120h-80l-104 120h62z" />
    <glyph glyph-name="ccaron" unicode="&#x10d;" horiz-adv-x="513" 
d="M295 -9q-71 0 -129 34.5t-92 93.5t-34 132t34 131.5t92 93.5t129 35q55 0 106 -20.5t90 -58.5l-47 -54q-30 32 -68.5 48.5t-79.5 16.5q-51 0 -92.5 -25.5t-66 -69t-24.5 -97.5t24.5 -98t66.5 -69.5t93 -25.5q41 0 77.5 16t68.5 47l46 -50q-40 -38 -90 -59t-104 -21z
M212 718l82 -79l82 79h62l-104 -120h-80l-104 120h62z" />
    <glyph glyph-name="Dcaron" unicode="&#x10e;" horiz-adv-x="720" 
d="M154 70h158q61 0 113 21t91 59t60.5 89t21.5 111t-21.5 111t-60.5 89t-91 59t-113 21h-158v-560zM77 0v700h231q80 0 147 -26t116.5 -73t77 -111t27.5 -140t-27 -140t-76.5 -111t-117 -73t-147.5 -26h-231zM278 917l82 -79l82 79h62l-104 -120h-80l-104 120h62z" />
    <glyph glyph-name="dcaron" unicode="&#x10f;" horiz-adv-x="647" 
d="M292 -8q-70 0 -127.5 34.5t-91 93t-33.5 131.5t33.5 131t91 92.5t128.5 34.5q44 0 85 -14.5t75 -42.5v248l74 17v-717h-73v53q-66 -61 -162 -61zM299 57q47 0 87.5 18.5t66.5 51.5v248q-26 32 -66.5 50.5t-87.5 18.5q-52 0 -94.5 -25t-67 -68.5t-24.5 -98.5t24.5 -99
t67 -70t94.5 -26zM595 508l5 192l76 11l-25 -203h-56z" />
    <glyph glyph-name="Dcroat" unicode="&#x110;" horiz-adv-x="744" 
d="M100 0v317h-87v66h87v317h231q80 0 147 -26t116.5 -73t77 -111t27.5 -140t-27 -140t-76.5 -111t-117 -73t-147.5 -26h-231zM177 70h158q61 0 113 21t91 59t60.5 89t21.5 111t-21.5 111t-60.5 89t-91 59t-113 21h-158v-247h189v-66h-189v-247z" />
    <glyph glyph-name="dcroat" unicode="&#x111;" horiz-adv-x="589" 
d="M292 -8q-70 0 -127.5 34.5t-91 93t-33.5 131.5t33.5 131t91 92.5t128.5 34.5q44 0 85 -14.5t75 -42.5v134h-164v58h164v56l74 17v-73h62v-58h-62v-586h-73v53q-66 -61 -162 -61zM299 57q47 0 87.5 18.5t66.5 51.5v248q-26 32 -66.5 50.5t-87.5 18.5q-52 0 -94.5 -25
t-67 -68.5t-24.5 -98.5t24.5 -99t67 -70t94.5 -26z" />
    <glyph glyph-name="Emacron" unicode="&#x112;" horiz-adv-x="616" 
d="M77 0v700h501v-68h-424v-245h277v-67h-277v-252h428v-68h-505zM198 820v53h284v-53h-284z" />
    <glyph glyph-name="emacron" unicode="&#x113;" horiz-adv-x="564" 
d="M298 -9q-72 0 -130.5 34.5t-93 93.5t-34.5 132q0 72 33 130.5t89 93t125 34.5q67 0 120.5 -34.5t85 -93t31.5 -130.5v-23h-411q6 -49 31.5 -88t66.5 -61.5t90 -22.5q39 0 76 12t62 34l46 -49q-42 -31 -87.5 -46.5t-99.5 -15.5zM115 287h335q-6 45 -29.5 80.5t-58.5 56
t-77 20.5q-43 0 -79 -20t-60 -55.5t-31 -81.5zM144 621v53h284v-53h-284z" />
    <glyph glyph-name="Ebreve" unicode="&#x114;" horiz-adv-x="616" 
d="M77 0v700h501v-68h-424v-245h277v-67h-277v-252h428v-68h-505zM340 791q-60 0 -100.5 32.5t-53.5 90.5l52 13q21 -87 102 -87q38 0 64.5 22t37.5 65l52 -13q-13 -58 -54 -90.5t-100 -32.5z" />
    <glyph glyph-name="ebreve" unicode="&#x115;" horiz-adv-x="564" 
d="M298 -9q-72 0 -130.5 34.5t-93 93.5t-34.5 132q0 72 33 130.5t89 93t125 34.5q67 0 120.5 -34.5t85 -93t31.5 -130.5v-23h-411q6 -49 31.5 -88t66.5 -61.5t90 -22.5q39 0 76 12t62 34l46 -49q-42 -31 -87.5 -46.5t-99.5 -15.5zM115 287h335q-6 45 -29.5 80.5t-58.5 56
t-77 20.5q-43 0 -79 -20t-60 -55.5t-31 -81.5zM286 592q-60 0 -100.5 32.5t-53.5 90.5l52 13q21 -87 102 -87q38 0 64.5 22t37.5 65l52 -13q-13 -58 -54 -90.5t-100 -32.5z" />
    <glyph glyph-name="Edotaccent" unicode="&#x116;" horiz-adv-x="616" 
d="M77 0v700h501v-68h-424v-245h277v-67h-277v-252h428v-68h-505zM340 801q-20 0 -34.5 14.5t-14.5 34.5t14.5 34.5t34.5 14.5t34.5 -14.5t14.5 -34.5t-14.5 -34.5t-34.5 -14.5z" />
    <glyph glyph-name="edotaccent" unicode="&#x117;" horiz-adv-x="564" 
d="M298 -9q-72 0 -130.5 34.5t-93 93.5t-34.5 132q0 72 33 130.5t89 93t125 34.5q67 0 120.5 -34.5t85 -93t31.5 -130.5v-23h-411q6 -49 31.5 -88t66.5 -61.5t90 -22.5q39 0 76 12t62 34l46 -49q-42 -31 -87.5 -46.5t-99.5 -15.5zM115 287h335q-6 45 -29.5 80.5t-58.5 56
t-77 20.5q-43 0 -79 -20t-60 -55.5t-31 -81.5zM286 602q-20 0 -34.5 14.5t-14.5 34.5t14.5 34.5t34.5 14.5t34.5 -14.5t14.5 -34.5t-14.5 -34.5t-34.5 -14.5z" />
    <glyph glyph-name="Eogonek" unicode="&#x118;" horiz-adv-x="616" 
d="M597 -200q-16 -10 -34.5 -15.5t-39.5 -5.5q-44 0 -71 23.5t-27 62.5q0 35 23.5 67t75.5 68h-447v700h501v-68h-424v-245h277v-67h-277v-252h428v-68q-55 -34 -80.5 -64t-25.5 -59q0 -25 15 -38.5t43 -13.5q13 0 25.5 3.5t22.5 10.5z" />
    <glyph glyph-name="eogonek" unicode="&#x119;" horiz-adv-x="564" 
d="M315 -221q-44 0 -71 23.5t-27 62.5q0 33 20.5 63t65.5 63q-75 0 -134.5 34.5t-94 93.5t-34.5 132q0 72 33 130.5t89 93t125 34.5q67 0 120.5 -34.5t85 -93t31.5 -130.5v-23h-411q6 -49 31.5 -88t66.5 -61.5t90 -22.5q39 0 76 12t62 34l46 -49q-26 -20 -54 -33t-58 -21
q-54 -34 -79.5 -63.5t-25.5 -58.5q0 -25 15 -38.5t43 -13.5q13 0 25.5 3.5t22.5 10.5l15 -39q-16 -10 -34.5 -15.5t-39.5 -5.5zM115 287h335q-6 45 -29.5 80.5t-58.5 56t-77 20.5q-43 0 -79 -20t-60 -55.5t-31 -81.5z" />
    <glyph glyph-name="Ecaron" unicode="&#x11a;" horiz-adv-x="616" 
d="M77 0v700h501v-68h-424v-245h277v-67h-277v-252h428v-68h-505zM258 917l82 -79l82 79h62l-104 -120h-80l-104 120h62z" />
    <glyph glyph-name="ecaron" unicode="&#x11b;" horiz-adv-x="564" 
d="M298 -9q-72 0 -130.5 34.5t-93 93.5t-34.5 132q0 72 33 130.5t89 93t125 34.5q67 0 120.5 -34.5t85 -93t31.5 -130.5v-23h-411q6 -49 31.5 -88t66.5 -61.5t90 -22.5q39 0 76 12t62 34l46 -49q-42 -31 -87.5 -46.5t-99.5 -15.5zM115 287h335q-6 45 -29.5 80.5t-58.5 56
t-77 20.5q-43 0 -79 -20t-60 -55.5t-31 -81.5zM204 718l82 -79l82 79h62l-104 -120h-80l-104 120h62z" />
    <glyph glyph-name="Gcircumflex" unicode="&#x11c;" horiz-adv-x="788" 
d="M406 -11q-76 0 -141.5 28t-115 77.5t-77.5 115t-28 140.5t27.5 140.5t77 115t115 77.5t141.5 28q81 0 153 -30t123 -85l-52 -53q-40 46 -99.5 71.5t-124.5 25.5q-60 0 -111.5 -22t-90 -61.5t-60 -92t-21.5 -114.5q0 -61 21.5 -114t60 -92.5t90 -61.5t111.5 -22
q71 0 128.5 31t93 85t41.5 122h-251v68h329v-31q0 -73 -26 -136t-72 -110t-108 -73.5t-134 -26.5zM487 795l-84 80l-83 -80h-60l104 121h80l104 -121h-61z" />
    <glyph glyph-name="gcircumflex" unicode="&#x11d;" horiz-adv-x="586" 
d="M307 -214q-52 0 -103 13.5t-93 38.5l32 58q45 -24 83.5 -35t77.5 -11q71 0 108 34t37 100v70q-69 -58 -159 -58q-69 0 -126 34t-90.5 92.5t-33.5 130.5t33.5 130.5t90.5 92.5t128 34q43 0 83.5 -15t74.5 -44v50h73v-516q0 -96 -56 -147.5t-160 -51.5zM296 61q48 0 88 18
t65 51v246q-25 32 -65.5 50t-87.5 18q-52 0 -93.5 -25t-65.5 -68.5t-24 -97.5t24.5 -97.5t66 -69t92.5 -25.5zM375 596l-84 80l-83 -80h-60l104 121h80l104 -121h-61z" />
    <glyph glyph-name="Gbreve" unicode="&#x11e;" horiz-adv-x="788" 
d="M406 -11q-76 0 -141.5 28t-115 77.5t-77.5 115t-28 140.5t27.5 140.5t77 115t115 77.5t141.5 28q81 0 153 -30t123 -85l-52 -53q-40 46 -99.5 71.5t-124.5 25.5q-60 0 -111.5 -22t-90 -61.5t-60 -92t-21.5 -114.5q0 -61 21.5 -114t60 -92.5t90 -61.5t111.5 -22
q71 0 128.5 31t93 85t41.5 122h-251v68h329v-31q0 -73 -26 -136t-72 -110t-108 -73.5t-134 -26.5zM404 791q-60 0 -100.5 32.5t-53.5 90.5l52 13q21 -87 102 -87q38 0 64.5 22t37.5 65l52 -13q-13 -58 -54 -90.5t-100 -32.5z" />
    <glyph glyph-name="gbreve" unicode="&#x11f;" horiz-adv-x="586" 
d="M307 -214q-52 0 -103 13.5t-93 38.5l32 58q45 -24 83.5 -35t77.5 -11q71 0 108 34t37 100v70q-69 -58 -159 -58q-69 0 -126 34t-90.5 92.5t-33.5 130.5t33.5 130.5t90.5 92.5t128 34q43 0 83.5 -15t74.5 -44v50h73v-516q0 -96 -56 -147.5t-160 -51.5zM296 61q48 0 88 18
t65 51v246q-25 32 -65.5 50t-87.5 18q-52 0 -93.5 -25t-65.5 -68.5t-24 -97.5t24.5 -97.5t66 -69t92.5 -25.5zM292 592q-60 0 -100.5 32.5t-53.5 90.5l52 13q21 -87 102 -87q38 0 64.5 22t37.5 65l52 -13q-13 -58 -54 -90.5t-100 -32.5z" />
    <glyph glyph-name="Gdotaccent" unicode="&#x120;" horiz-adv-x="788" 
d="M406 -11q-76 0 -141.5 28t-115 77.5t-77.5 115t-28 140.5t27.5 140.5t77 115t115 77.5t141.5 28q81 0 153 -30t123 -85l-52 -53q-40 46 -99.5 71.5t-124.5 25.5q-60 0 -111.5 -22t-90 -61.5t-60 -92t-21.5 -114.5q0 -61 21.5 -114t60 -92.5t90 -61.5t111.5 -22
q71 0 128.5 31t93 85t41.5 122h-251v68h329v-31q0 -73 -26 -136t-72 -110t-108 -73.5t-134 -26.5zM404 801q-20 0 -34.5 14.5t-14.5 34.5t14.5 34.5t34.5 14.5t34.5 -14.5t14.5 -34.5t-14.5 -34.5t-34.5 -14.5z" />
    <glyph glyph-name="gdotaccent" unicode="&#x121;" horiz-adv-x="586" 
d="M307 -214q-52 0 -103 13.5t-93 38.5l32 58q45 -24 83.5 -35t77.5 -11q71 0 108 34t37 100v70q-69 -58 -159 -58q-69 0 -126 34t-90.5 92.5t-33.5 130.5t33.5 130.5t90.5 92.5t128 34q43 0 83.5 -15t74.5 -44v50h73v-516q0 -96 -56 -147.5t-160 -51.5zM296 61q48 0 88 18
t65 51v246q-25 32 -65.5 50t-87.5 18q-52 0 -93.5 -25t-65.5 -68.5t-24 -97.5t24.5 -97.5t66 -69t92.5 -25.5zM292 602q-20 0 -34.5 14.5t-14.5 34.5t14.5 34.5t34.5 14.5t34.5 -14.5t14.5 -34.5t-14.5 -34.5t-34.5 -14.5z" />
    <glyph glyph-name="Gcommaaccent" unicode="&#x122;" horiz-adv-x="788" 
d="M406 -11q-76 0 -141.5 28t-115 77.5t-77.5 115t-28 140.5t27.5 140.5t77 115t115 77.5t141.5 28q81 0 153 -30t123 -85l-52 -53q-40 46 -99.5 71.5t-124.5 25.5q-60 0 -111.5 -22t-90 -61.5t-60 -92t-21.5 -114.5q0 -61 21.5 -114t60 -92.5t90 -61.5t111.5 -22
q71 0 128.5 31t93 85t41.5 122h-251v68h329v-31q0 -73 -26 -136t-72 -110t-108 -73.5t-134 -26.5zM331 -264l41 179h74l-60 -179h-55z" />
    <glyph glyph-name="gcommaaccent" unicode="&#x123;" horiz-adv-x="585" 
d="M307 -214q-52 0 -103 13.5t-93 38.5l32 58q45 -24 83.5 -35t77.5 -11q71 0 108 34t37 100v70q-69 -58 -159 -58q-69 0 -126 34t-90.5 92.5t-33.5 130.5t33.5 130.5t90.5 92.5t128 34q43 0 83.5 -15t74.5 -44v50h73v-516q0 -96 -56 -147.5t-160 -51.5zM296 61q48 0 88 18
t65 51v246q-25 32 -65.5 50t-87.5 18q-52 0 -93.5 -25t-65.5 -68.5t-24 -97.5t24.5 -97.5t66 -69t92.5 -25.5zM367 787l-41 -179h-74l60 179h55z" />
    <glyph glyph-name="Hcircumflex" unicode="&#x124;" horiz-adv-x="715" 
d="M77 0v700h77v-313h407v313h77v-700h-77v318h-407v-318h-77zM440 795l-84 80l-83 -80h-60l104 121h80l104 -121h-61z" />
    <glyph glyph-name="hcircumflex" unicode="&#x125;" horiz-adv-x="549" 
d="M63 0v705h74v-263q59 69 158 69q57 0 100.5 -24.5t68 -68t24.5 -101.5v-317h-73v302q0 67 -37.5 105.5t-102.5 38.5q-45 0 -80 -20t-58 -57v-369h-74zM-44 795l104 121h80l104 -121h-61l-84 80l-83 -80h-60z" />
    <glyph glyph-name="Hbar" unicode="&#x126;" horiz-adv-x="727" 
d="M83 0v521h-68v61h68v118h77v-118h407v118h77v-118h68v-61h-68v-521h-77v318h-407v-318h-77zM160 386h407v135h-407v-135z" />
    <glyph glyph-name="hbar" unicode="&#x127;" horiz-adv-x="549" 
d="M63 0v586h-63v58h63v56l74 17v-73h163v-58h-163v-144q59 69 158 69q57 0 100.5 -24.5t68 -68t24.5 -101.5v-317h-73v302q0 67 -37.5 105.5t-102.5 38.5q-45 0 -80 -20t-58 -57v-369h-74z" />
    <glyph glyph-name="Itilde" unicode="&#x128;" horiz-adv-x="231" 
d="M77 0v700h77v-700h-77zM0 794l-52 10q22 100 94 100q27 0 52.5 -13.5t48.5 -27.5t44 -14q17 0 27.5 13t17.5 44l51 -10q-10 -50 -34 -75t-60 -25q-26 0 -51.5 14t-49 27.5t-44.5 13.5q-18 0 -28 -13t-16 -44z" />
    <glyph glyph-name="itilde" unicode="&#x129;" horiz-adv-x="200" 
d="M63 0v501h74v-501h-74zM-16 595l-52 10q22 100 94 100q27 0 52.5 -13.5t48.5 -27.5t44 -14q17 0 27.5 13t17.5 44l51 -10q-10 -50 -34 -75t-60 -25q-26 0 -51.5 14t-49 27.5t-44.5 13.5q-18 0 -28 -13t-16 -44z" />
    <glyph glyph-name="Imacron" unicode="&#x12a;" horiz-adv-x="231" 
d="M77 0v700h77v-700h-77zM-26 820v53h284v-53h-284z" />
    <glyph glyph-name="imacron" unicode="&#x12b;" horiz-adv-x="200" 
d="M63 0v501h74v-501h-74zM-42 621v53h284v-53h-284z" />
    <glyph glyph-name="Ibreve" unicode="&#x12c;" horiz-adv-x="231" 
d="M77 0v700h77v-700h-77zM116 791q-60 0 -100.5 32.5t-53.5 90.5l52 13q21 -87 102 -87q38 0 64.5 22t37.5 65l52 -13q-13 -58 -54 -90.5t-100 -32.5z" />
    <glyph glyph-name="ibreve" unicode="&#x12d;" horiz-adv-x="200" 
d="M63 0v501h74v-501h-74zM100 592q-60 0 -100.5 32.5t-53.5 90.5l52 13q21 -87 102 -87q38 0 64.5 22t37.5 65l52 -13q-13 -58 -54 -90.5t-100 -32.5z" />
    <glyph glyph-name="Iogonek" unicode="&#x12e;" horiz-adv-x="231" 
d="M95 -221q-44 0 -71 23.5t-27 62.5q0 35 23.5 67t75.5 68h-19v700h77v-700q-55 -34 -80.5 -64t-25.5 -59q0 -25 15 -38.5t43 -13.5q13 0 25.5 3.5t22.5 10.5l15 -39q-16 -10 -34.5 -15.5t-39.5 -5.5z" />
    <glyph glyph-name="iogonek" unicode="&#x12f;" horiz-adv-x="200" 
d="M100 597q-20 0 -35 15t-15 35q0 21 15 35.5t35 14.5q21 0 35.5 -14.5t14.5 -35.5q0 -20 -14.5 -35t-35.5 -15zM78 -221q-44 0 -71 23.5t-27 62.5q0 35 23.5 67t75.5 68h-16v501h74v-501q-55 -34 -80.5 -64t-25.5 -59q0 -25 15 -38.5t43 -13.5q13 0 25.5 3.5t22.5 10.5
l15 -39q-16 -10 -34.5 -15.5t-39.5 -5.5z" />
    <glyph glyph-name="Idotaccent" unicode="&#x130;" horiz-adv-x="231" 
d="M77 0v700h77v-700h-77zM116 801q-20 0 -34.5 14.5t-14.5 34.5t14.5 34.5t34.5 14.5t34.5 -14.5t14.5 -34.5t-14.5 -34.5t-34.5 -14.5z" />
    <glyph glyph-name="dotlessi" unicode="&#x131;" horiz-adv-x="200" 
d="M63 0v501h74v-501h-74z" />
    <glyph glyph-name="IJ" unicode="&#x132;" horiz-adv-x="831" 
d="M77 0v700h77v-700h-77zM502 -11q-90 0 -156.5 47t-97.5 132l70 29q27 -69 73.5 -103t111.5 -34q86 0 137 55.5t51 149.5v435h77v-436q0 -84 -32.5 -146t-92 -95.5t-141.5 -33.5z" />
    <glyph glyph-name="ij" unicode="&#x133;" horiz-adv-x="396" 
d="M63 0v501h74v-501h-74zM100 597q-20 0 -35 15t-15 36q0 20 15 34.5t35 14.5q21 0 35.5 -14.5t14.5 -35.5q0 -20 -14.5 -35t-35.5 -15zM298 597q-20 0 -35 15t-15 35q0 21 15 35.5t35 14.5q21 0 35.5 -14.5t14.5 -35.5q0 -20 -14.5 -35t-35.5 -15zM206 -214q-14 0 -26 2
t-20 4v62q16 -4 37 -4q35 0 49.5 16t14.5 52v583h74v-589q0 -61 -33.5 -93.5t-95.5 -32.5z" />
    <glyph glyph-name="Jcircumflex" unicode="&#x134;" 
d="M271 -11q-90 0 -156.5 47t-97.5 132l70 29q27 -69 73.5 -103t111.5 -34q86 0 137 55.5t51 149.5v435h77v-436q0 -84 -32.5 -146t-92 -95.5t-141.5 -33.5zM582 795l-84 80l-83 -80h-60l104 121h80l104 -121h-61z" />
    <glyph glyph-name="jcircumflex" unicode="&#x135;" horiz-adv-x="200" 
d="M9 -214q-13 0 -24.5 2t-22.5 4v62q17 -4 38 -4q34 0 48.5 16t14.5 52v583h74v-590q0 -59 -33 -92t-95 -33zM183 596l-84 80l-83 -80h-60l104 121h80l104 -121h-61z" />
    <glyph glyph-name="Kcommaaccent" unicode="&#x136;" horiz-adv-x="617" 
d="M77 0v700h77v-332l362 332h101l-380 -343l388 -357h-108l-363 336v-336h-77zM252 -264l41 179h74l-60 -179h-55z" />
    <glyph glyph-name="kcommaaccent" unicode="&#x137;" horiz-adv-x="494" 
d="M63 0v700l74 17v-442l262 226h90l-275 -238l288 -263h-101l-264 240v-240h-74zM170 -264l41 179h74l-60 -179h-55z" />
    <glyph glyph-name="kgreenlandic" unicode="&#x138;" horiz-adv-x="494" 
d="M63 0v501h74v-226l262 226h90l-275 -238l288 -263h-101l-264 240v-240h-74z" />
    <glyph glyph-name="Lacute" unicode="&#x139;" horiz-adv-x="604" 
d="M77 0v700h77v-631h417v-69h-494zM51 799l94 116h95l-124 -116h-65z" />
    <glyph glyph-name="lacute" unicode="&#x13a;" horiz-adv-x="200" 
d="M63 0v705h74v-705h-74zM46 799l94 116h95l-124 -116h-65z" />
    <glyph glyph-name="Lcommaaccent" unicode="&#x13b;" horiz-adv-x="604" 
d="M77 0v700h77v-631h417v-69h-494zM265 -264l41 179h74l-60 -179h-55z" />
    <glyph glyph-name="lcommaaccent" unicode="&#x13c;" horiz-adv-x="200" 
d="M63 0v700l74 17v-717h-74zM22 -264l41 179h74l-60 -179h-55z" />
    <glyph glyph-name="Lcaron" unicode="&#x13d;" horiz-adv-x="599" 
d="M77 0v700h77v-631h417v-69h-494zM399 508l5 192l76 11l-25 -203h-56z" />
    <glyph glyph-name="lcaron" unicode="&#x13e;" horiz-adv-x="256" 
d="M63 0v700l74 17v-717h-74zM204 508l5 192l76 11l-25 -203h-56z" />
    <glyph glyph-name="Ldot" unicode="&#x13f;" horiz-adv-x="599" 
d="M77 0v700h77v-631h417v-69h-494zM409 306q-20 0 -34.5 14.5t-14.5 34.5t14.5 34.5t34.5 14.5t34.5 -14.5t14.5 -34.5t-14.5 -34.5t-34.5 -14.5z" />
    <glyph glyph-name="ldot" unicode="&#x140;" horiz-adv-x="295" 
d="M63 0v700l74 17v-717h-74zM250 303q-20 0 -34.5 14.5t-14.5 34.5t14.5 34.5t34.5 14.5t34.5 -14.5t14.5 -34.5t-14.5 -34.5t-34.5 -14.5z" />
    <glyph glyph-name="Lslash" unicode="&#x141;" horiz-adv-x="613" 
d="M91 0v232l-80 -61v74l80 61v394h77v-336l200 151v-74l-200 -151v-221h417v-69h-494z" />
    <glyph glyph-name="lslash" unicode="&#x142;" horiz-adv-x="240" 
d="M84 0v315l-75 -61v74l75 61v311l74 17v-268l75 61v-75l-75 -61v-374h-74z" />
    <glyph glyph-name="Nacute" unicode="&#x143;" horiz-adv-x="725" 
d="M77 0v700h77l421 -568v568h73v-700h-68l-430 583v-583h-73zM298 799l94 116h95l-124 -116h-65z" />
    <glyph glyph-name="nacute" unicode="&#x144;" horiz-adv-x="549" 
d="M63 0v501h74v-59q59 69 158 69q57 0 100.5 -24.5t68 -68t24.5 -101.5v-317h-73v302q0 67 -37.5 105.5t-102.5 38.5q-45 0 -80 -20t-58 -57v-369h-74zM212 600l94 116h95l-124 -116h-65z" />
    <glyph glyph-name="Ncommaaccent" unicode="&#x145;" horiz-adv-x="725" 
d="M77 0v700h77l421 -568v568h73v-700h-68l-430 583v-583h-73zM284 -264l41 179h74l-60 -179h-55z" />
    <glyph glyph-name="ncommaaccent" unicode="&#x146;" horiz-adv-x="549" 
d="M63 0v501h74v-59q59 69 158 69q57 0 100.5 -24.5t68 -68t24.5 -101.5v-317h-73v302q0 67 -37.5 105.5t-102.5 38.5q-45 0 -80 -20t-58 -57v-369h-74zM198 -264l41 179h74l-60 -179h-55z" />
    <glyph glyph-name="Ncaron" unicode="&#x147;" horiz-adv-x="725" 
d="M77 0v700h77l421 -568v568h73v-700h-68l-430 583v-583h-73zM280 917l82 -79l82 79h62l-104 -120h-80l-104 120h62z" />
    <glyph glyph-name="ncaron" unicode="&#x148;" horiz-adv-x="549" 
d="M63 0v501h74v-59q59 69 158 69q57 0 100.5 -24.5t68 -68t24.5 -101.5v-317h-73v302q0 67 -37.5 105.5t-102.5 38.5q-45 0 -80 -20t-58 -57v-369h-74zM194 718l82 -79l82 79h62l-104 -120h-80l-104 120h62z" />
    <glyph glyph-name="Eng" unicode="&#x14a;" horiz-adv-x="725" 
d="M520 -208q-10 0 -24.5 2t-22.5 4v62q17 -4 38 -4q34 0 49 16t15 52v76l-425 577v-577h-73v700h72l426 -576v576h73v-783q0 -60 -33 -92.5t-95 -32.5z" />
    <glyph glyph-name="eng" unicode="&#x14b;" horiz-adv-x="549" 
d="M360 -208q-12 0 -24 2t-23 4v62q17 -4 39 -4q33 0 48 16t15 52v378q0 67 -37.5 105.5t-102.5 38.5q-45 0 -80 -20t-58 -57v-369h-74v501h74v-59q59 69 158 69q57 0 100.5 -24.5t68 -68t24.5 -101.5v-400q0 -59 -33 -92t-95 -33z" />
    <glyph glyph-name="Omacron" unicode="&#x14c;" horiz-adv-x="809" 
d="M405 -11q-76 0 -141.5 27.5t-115 77t-77 115t-27.5 141.5t27.5 141.5t77 115t115 77t141.5 27.5q75 0 140.5 -27.5t115 -77t77 -115t27.5 -141.5t-27.5 -141.5t-77 -115t-115 -77t-140.5 -27.5zM405 60q60 0 111 22t89.5 61.5t60 92.5t21.5 114q0 62 -21.5 114.5t-60 92
t-89.5 61.5t-111 22t-111.5 -22t-90 -61.5t-60 -92t-21.5 -113.5q0 -62 21.5 -115t60 -92.5t90 -61.5t111.5 -22zM263 820v53h284v-53h-284z" />
    <glyph glyph-name="omacron" unicode="&#x14d;" horiz-adv-x="592" 
d="M296 -10q-71 0 -129.5 34.5t-92.5 93.5t-34 132t34 132t92.5 93.5t129.5 34.5q72 0 130 -34.5t92 -93.5t34 -132t-34 -132t-92 -93.5t-130 -34.5zM296 56q51 0 92.5 26t66 70t24.5 98q0 55 -24.5 98.5t-66 69.5t-92.5 26t-92.5 -26t-66 -69.5t-24.5 -98.5q0 -54 24.5 -98
t66 -70t92.5 -26zM154 621v53h284v-53h-284z" />
    <glyph glyph-name="Obreve" unicode="&#x14e;" horiz-adv-x="809" 
d="M405 -11q-76 0 -141.5 27.5t-115 77t-77 115t-27.5 141.5t27.5 141.5t77 115t115 77t141.5 27.5q75 0 140.5 -27.5t115 -77t77 -115t27.5 -141.5t-27.5 -141.5t-77 -115t-115 -77t-140.5 -27.5zM405 60q60 0 111 22t89.5 61.5t60 92.5t21.5 114q0 62 -21.5 114.5t-60 92
t-89.5 61.5t-111 22t-111.5 -22t-90 -61.5t-60 -92t-21.5 -113.5q0 -62 21.5 -115t60 -92.5t90 -61.5t111.5 -22zM405 791q-60 0 -100.5 32.5t-53.5 90.5l52 13q21 -87 102 -87q38 0 64.5 22t37.5 65l52 -13q-13 -58 -54 -90.5t-100 -32.5z" />
    <glyph glyph-name="obreve" unicode="&#x14f;" horiz-adv-x="592" 
d="M296 -10q-71 0 -129.5 34.5t-92.5 93.5t-34 132t34 132t92.5 93.5t129.5 34.5q72 0 130 -34.5t92 -93.5t34 -132t-34 -132t-92 -93.5t-130 -34.5zM296 56q51 0 92.5 26t66 70t24.5 98q0 55 -24.5 98.5t-66 69.5t-92.5 26t-92.5 -26t-66 -69.5t-24.5 -98.5q0 -54 24.5 -98
t66 -70t92.5 -26zM296 592q-60 0 -100.5 32.5t-53.5 90.5l52 13q21 -87 102 -87q38 0 64.5 22t37.5 65l52 -13q-13 -58 -54 -90.5t-100 -32.5z" />
    <glyph glyph-name="Ohungarumlaut" unicode="&#x150;" horiz-adv-x="809" 
d="M405 -11q-76 0 -141.5 27.5t-115 77t-77 115t-27.5 141.5t27.5 141.5t77 115t115 77t141.5 27.5q75 0 140.5 -27.5t115 -77t77 -115t27.5 -141.5t-27.5 -141.5t-77 -115t-115 -77t-140.5 -27.5zM405 60q60 0 111 22t89.5 61.5t60 92.5t21.5 114q0 62 -21.5 114.5t-60 92
t-89.5 61.5t-111 22t-111.5 -22t-90 -61.5t-60 -92t-21.5 -113.5q0 -62 21.5 -115t60 -92.5t90 -61.5t111.5 -22zM288 802l104 113h86l-127 -113h-63zM453 802l104 113h87l-130 -113h-61z" />
    <glyph glyph-name="ohungarumlaut" unicode="&#x151;" horiz-adv-x="592" 
d="M296 -10q-71 0 -129.5 34.5t-92.5 93.5t-34 132t34 132t92.5 93.5t129.5 34.5q72 0 130 -34.5t92 -93.5t34 -132t-34 -132t-92 -93.5t-130 -34.5zM296 56q51 0 92.5 26t66 70t24.5 98q0 55 -24.5 98.5t-66 69.5t-92.5 26t-92.5 -26t-66 -69.5t-24.5 -98.5q0 -54 24.5 -98
t66 -70t92.5 -26zM179 603l104 113h86l-127 -113h-63zM344 603l104 113h87l-130 -113h-61z" />
    <glyph glyph-name="OE" unicode="&#x152;" horiz-adv-x="1085" 
d="M394 0q-73 0 -136.5 27t-111 75t-74.5 111.5t-27 136.5t27 136.5t74.5 111.5t111 75t136.5 27h656v-68h-455q61 -40 99.5 -104.5t46.5 -140.5h181v-67h-180q-7 -78 -45.5 -144t-100.5 -108h454v-68h-656zM394 70q57 0 106.5 21.5t86.5 59.5t57.5 89t20.5 110t-20.5 110
t-57.5 89t-86.5 59.5t-106.5 21.5t-106 -21.5t-86.5 -59.5t-58 -89t-20.5 -110t20.5 -110t58 -89t86.5 -59.5t106 -21.5z" />
    <glyph glyph-name="oe" unicode="&#x153;" horiz-adv-x="1003" 
d="M296 -10q-71 0 -129.5 34.5t-92.5 94t-34 132.5t34 132t92.5 93.5t129.5 34.5t128.5 -35t89.5 -94q32 57 87.5 92t124.5 35q66 0 119.5 -34.5t85 -93t31.5 -130.5v-23h-410q6 -49 31.5 -88t66.5 -61.5t90 -22.5q39 0 75.5 12t62.5 34l46 -49q-42 -31 -88 -46.5t-99 -15.5
q-73 0 -132 35.5t-91 93.5q-32 -59 -89.5 -94.5t-128.5 -35.5zM296 56q51 0 92.5 26t65.5 70.5t24 98.5q0 55 -24 98.5t-65.5 69.5t-92.5 26t-92.5 -26t-66 -69.5t-24.5 -98.5q0 -54 24.5 -98.5t66 -70.5t92.5 -26zM554 287h335q-7 45 -30.5 80.5t-58.5 56t-77 20.5
q-43 0 -79 -20t-59.5 -55.5t-30.5 -81.5z" />
    <glyph glyph-name="Racute" unicode="&#x154;" horiz-adv-x="645" 
d="M77 0v700h300q69 0 120 -25t79.5 -70t28.5 -106q0 -69 -40.5 -118.5t-108.5 -69.5l157 -311h-85l-150 301h-224v-301h-77zM154 366h218q71 0 113.5 36t42.5 97q0 60 -42.5 96t-113.5 36h-218v-265zM253 799l94 116h95l-124 -116h-65z" />
    <glyph glyph-name="racute" unicode="&#x155;" horiz-adv-x="346" 
d="M63 0v501h74v-71q23 39 58.5 60.5t81.5 21.5q26 0 47 -7v-68q-13 5 -26 7t-26 2q-46 0 -80.5 -26.5t-54.5 -76.5v-343h-74zM117 600l94 116h95l-124 -116h-65z" />
    <glyph glyph-name="Rcommaaccent" unicode="&#x156;" horiz-adv-x="645" 
d="M77 0v700h300q69 0 120 -25t79.5 -70t28.5 -106q0 -69 -40.5 -118.5t-108.5 -69.5l157 -311h-85l-150 301h-224v-301h-77zM154 366h218q71 0 113.5 36t42.5 97q0 60 -42.5 96t-113.5 36h-218v-265zM241 -264l41 179h74l-60 -179h-55z" />
    <glyph glyph-name="rcommaaccent" unicode="&#x157;" horiz-adv-x="346" 
d="M63 0v501h74v-71q23 39 58.5 60.5t81.5 21.5q26 0 47 -7v-68q-13 5 -26 7t-26 2q-46 0 -80.5 -26.5t-54.5 -76.5v-343h-74zM22 -264l41 179h74l-60 -179h-55z" />
    <glyph glyph-name="Rcaron" unicode="&#x158;" horiz-adv-x="645" 
d="M77 0v700h300q69 0 120 -25t79.5 -70t28.5 -106q0 -69 -40.5 -118.5t-108.5 -69.5l157 -311h-85l-150 301h-224v-301h-77zM154 366h218q71 0 113.5 36t42.5 97q0 60 -42.5 96t-113.5 36h-218v-265zM235 917l82 -79l82 79h62l-104 -120h-80l-104 120h62z" />
    <glyph glyph-name="rcaron" unicode="&#x159;" horiz-adv-x="346" 
d="M63 0v501h74v-71q23 39 58.5 60.5t81.5 21.5q26 0 47 -7v-68q-13 5 -26 7t-26 2q-46 0 -80.5 -26.5t-54.5 -76.5v-343h-74zM99 718l82 -79l82 79h62l-104 -120h-80l-104 120h62z" />
    <glyph glyph-name="Sacute" unicode="&#x15a;" 
d="M304 -10q-83 0 -159 33.5t-134 96.5l51 53q54 -58 115.5 -87t129.5 -29q55 0 97.5 17.5t66.5 49t24 71.5q0 54 -37.5 83t-123.5 43l-101 16q-101 17 -149 60t-48 117q0 58 31 102t86.5 68.5t128.5 24.5q74 0 145.5 -24t130.5 -69l-44 -60q-115 87 -235 87
q-50 0 -88 -15.5t-59 -43t-21 -64.5q0 -49 33 -75t109 -38l100 -16q115 -19 167 -64.5t52 -127.5q0 -61 -34 -108.5t-94.5 -74t-139.5 -26.5zM217 801l94 116h95l-124 -116h-65z" />
    <glyph glyph-name="sacute" unicode="&#x15b;" horiz-adv-x="446" 
d="M223 -10q-62 0 -116.5 20.5t-94.5 57.5l45 48q35 -32 77 -49.5t86 -17.5q60 0 98 25t38 65q0 33 -22.5 51.5t-70.5 25.5l-87 12q-75 11 -111.5 45t-36.5 92q0 42 24 75t66.5 52t97.5 19t103 -16t94 -50l-39 -50q-42 29 -81.5 42.5t-80.5 13.5q-52 0 -84 -23t-32 -60
q0 -34 22 -51.5t71 -24.5l87 -12q75 -10 112.5 -44t37.5 -93q0 -43 -27 -78t-72.5 -55t-103.5 -20zM158 600l94 116h95l-124 -116h-65z" />
    <glyph glyph-name="Scircumflex" unicode="&#x15c;" 
d="M304 -10q-83 0 -159 33.5t-134 96.5l51 53q54 -58 115.5 -87t129.5 -29q55 0 97.5 17.5t66.5 49t24 71.5q0 54 -37.5 83t-123.5 43l-101 16q-101 17 -149 60t-48 117q0 58 31 102t86.5 68.5t128.5 24.5q74 0 145.5 -24t130.5 -69l-44 -60q-115 87 -235 87
q-50 0 -88 -15.5t-59 -43t-21 -64.5q0 -49 33 -75t109 -38l100 -16q115 -19 167 -64.5t52 -127.5q0 -61 -34 -108.5t-94.5 -74t-139.5 -26.5zM364 797l-84 80l-83 -80h-60l104 121h80l104 -121h-61z" />
    <glyph glyph-name="scircumflex" unicode="&#x15d;" horiz-adv-x="446" 
d="M223 -10q-62 0 -116.5 20.5t-94.5 57.5l45 48q35 -32 77 -49.5t86 -17.5q60 0 98 25t38 65q0 33 -22.5 51.5t-70.5 25.5l-87 12q-75 11 -111.5 45t-36.5 92q0 42 24 75t66.5 52t97.5 19t103 -16t94 -50l-39 -50q-42 29 -81.5 42.5t-80.5 13.5q-52 0 -84 -23t-32 -60
q0 -34 22 -51.5t71 -24.5l87 -12q75 -10 112.5 -44t37.5 -93q0 -43 -27 -78t-72.5 -55t-103.5 -20zM305 596l-84 80l-83 -80h-60l104 121h80l104 -121h-61z" />
    <glyph glyph-name="Scedilla" unicode="&#x15e;" 
d="M274 -226q-69 0 -113 41l30 32q38 -32 83 -32q30 0 47 13.5t17 35.5t-18.5 34.5t-50.5 12.5h-29l23 81q-72 8 -137 40.5t-115 87.5l51 53q54 -58 115.5 -87t129.5 -29q55 0 97.5 17.5t66.5 49t24 71.5q0 54 -37.5 83t-123.5 43l-101 16q-101 17 -149 60t-48 117
q0 58 31 102t86.5 68.5t128.5 24.5q74 0 145.5 -24t130.5 -69l-44 -60q-115 87 -235 87q-50 0 -88 -15.5t-59 -43t-21 -64.5q0 -49 33 -75t109 -38l100 -16q115 -19 167 -64.5t52 -127.5q0 -61 -34 -108.5t-94 -74t-138 -26.5l-12 -43q44 -2 69.5 -24t25.5 -58
q0 -40 -32.5 -65.5t-82.5 -25.5z" />
    <glyph glyph-name="scedilla" unicode="&#x15f;" horiz-adv-x="446" 
d="M211 -228q-69 0 -113 41l30 32q38 -32 83 -32q30 0 47 13.5t17 35.5t-18.5 34.5t-50.5 12.5h-29l24 83q-55 3 -104 23t-85 54l45 48q35 -32 77 -49.5t86 -17.5q60 0 98 25t38 65q0 32 -22.5 50.5t-70.5 25.5l-87 12q-75 11 -111.5 44.5t-36.5 90.5q0 42 24 75t66.5 52
t97.5 19t103 -16t94 -50l-39 -50q-42 29 -81.5 42.5t-80.5 13.5q-52 0 -84 -23t-32 -60q0 -32 22 -49t71 -25l87 -12q75 -10 112.5 -44t37.5 -92q0 -41 -24 -74t-65 -53.5t-93 -24.5l-13 -47q44 -2 69.5 -24t25.5 -58q0 -40 -32.5 -65.5t-82.5 -25.5z" />
    <glyph glyph-name="Scaron" unicode="&#x160;" 
d="M304 -10q-83 0 -159 33.5t-134 96.5l51 53q54 -58 115.5 -87t129.5 -29q55 0 97.5 17.5t66.5 49t24 71.5q0 54 -37.5 83t-123.5 43l-101 16q-101 17 -149 60t-48 117q0 58 31 102t86.5 68.5t128.5 24.5q74 0 145.5 -24t130.5 -69l-44 -60q-115 87 -235 87
q-50 0 -88 -15.5t-59 -43t-21 -64.5q0 -49 33 -75t109 -38l100 -16q115 -19 167 -64.5t52 -127.5q0 -61 -34 -108.5t-94.5 -74t-139.5 -26.5zM199 919l82 -79l82 79h62l-104 -120h-80l-104 120h62z" />
    <glyph glyph-name="scaron" unicode="&#x161;" horiz-adv-x="446" 
d="M223 -10q-62 0 -116.5 20.5t-94.5 57.5l45 48q35 -32 77 -49.5t86 -17.5q60 0 98 25t38 65q0 33 -22.5 51.5t-70.5 25.5l-87 12q-75 11 -111.5 45t-36.5 92q0 42 24 75t66.5 52t97.5 19t103 -16t94 -50l-39 -50q-42 29 -81.5 42.5t-80.5 13.5q-52 0 -84 -23t-32 -60
q0 -34 22 -51.5t71 -24.5l87 -12q75 -10 112.5 -44t37.5 -93q0 -43 -27 -78t-72.5 -55t-103.5 -20zM140 718l82 -79l82 79h62l-104 -120h-80l-104 120h62z" />
    <glyph glyph-name="Tcedilla" unicode="&#x162;" horiz-adv-x="617" 
d="M295 -228q-69 0 -113 41l30 32q38 -32 83 -32q30 0 47 13.5t17 35.5t-18.5 34.5t-50.5 12.5h-29l26 91h-17v631h-253v69h583v-69h-253v-631h-17l-15 -55q44 -2 69.5 -24t25.5 -58q0 -40 -32.5 -65.5t-82.5 -25.5z" />
    <glyph glyph-name="tcedilla" unicode="&#x163;" horiz-adv-x="365" 
d="M216 -228q-69 0 -113 41l30 32q38 -32 83 -32q30 0 47 13.5t17 35.5t-18.5 34.5t-50.5 12.5h-29l25 88q-82 23 -82 115v326h-108v63h108v127l73 19v-146h151v-63h-151v-307q0 -40 18 -57.5t59 -17.5q21 0 37.5 3t35.5 10v-65q-19 -7 -42.5 -10t-45.5 -3h-5.5h-5.5
l-13 -46q44 -2 69.5 -24t25.5 -58q0 -40 -32.5 -65.5t-82.5 -25.5z" />
    <glyph glyph-name="Tcaron" unicode="&#x164;" horiz-adv-x="617" 
d="M270 0v631h-253v69h583v-69h-253v-631h-77zM226 917l82 -79l82 79h62l-104 -120h-80l-104 120h62z" />
    <glyph glyph-name="tcaron" unicode="&#x165;" horiz-adv-x="365" 
d="M275 582l6 186l78 14l-25 -200h-59zM260 -9q-65 0 -100 31t-35 90v326h-108v63h108v127l73 19v-146h151v-63h-151v-307q0 -40 18 -57.5t59 -17.5q21 0 37.5 3t35.5 10v-65q-19 -7 -42.5 -10t-45.5 -3z" />
    <glyph glyph-name="Tbar" unicode="&#x166;" horiz-adv-x="617" 
d="M270 0v306h-149v66h149v259h-253v69h583v-69h-253v-259h149v-66h-149v-306h-77z" />
    <glyph glyph-name="tbar" unicode="&#x167;" horiz-adv-x="365" 
d="M260 -10q-65 0 -100 31t-35 90v152h-108v59h108v116h-108v63h108v127l73 19v-146h151v-63h-151v-116h154v-59h-154v-133q0 -40 18 -57.5t59 -17.5q21 0 37.5 3t35.5 10v-65q-19 -7 -42.5 -10t-45.5 -3z" />
    <glyph glyph-name="Utilde" unicode="&#x168;" horiz-adv-x="704" 
d="M352 -11q-89 0 -154 37.5t-100 106.5t-35 163v404h77v-404q0 -72 26 -125t74 -82t112 -29q65 0 112.5 29t73.5 82t26 125v404h77v-404q0 -94 -35.5 -163t-100 -106.5t-153.5 -37.5zM236 794l-52 10q22 100 94 100q27 0 52.5 -13.5t48.5 -27.5t44 -14q17 0 27.5 13
t17.5 44l51 -10q-10 -50 -34 -75t-60 -25q-26 0 -51.5 14t-49 27.5t-44.5 13.5q-18 0 -28 -13t-16 -44z" />
    <glyph glyph-name="utilde" unicode="&#x169;" horiz-adv-x="549" 
d="M255 -10q-57 0 -101 24.5t-68.5 68t-24.5 101.5v317h73v-302q0 -67 38 -105.5t102 -38.5q45 0 80.5 20.5t57.5 57.5v368h74v-501h-74v58q-59 -68 -157 -68zM158 595l-52 10q22 100 94 100q27 0 52.5 -13.5t48.5 -27.5t44 -14q17 0 27.5 13t17.5 44l51 -10
q-10 -50 -34 -75t-60 -25q-26 0 -51.5 14t-49 27.5t-44.5 13.5q-18 0 -28 -13t-16 -44z" />
    <glyph glyph-name="Umacron" unicode="&#x16a;" horiz-adv-x="704" 
d="M352 -11q-89 0 -154 37.5t-100 106.5t-35 163v404h77v-404q0 -72 26 -125t74 -82t112 -29q65 0 112.5 29t73.5 82t26 125v404h77v-404q0 -94 -35.5 -163t-100 -106.5t-153.5 -37.5zM210 820v53h284v-53h-284z" />
    <glyph glyph-name="umacron" unicode="&#x16b;" horiz-adv-x="549" 
d="M255 -10q-57 0 -101 24.5t-68.5 68t-24.5 101.5v317h73v-302q0 -67 38 -105.5t102 -38.5q45 0 80.5 20.5t57.5 57.5v368h74v-501h-74v58q-59 -68 -157 -68zM132 621v53h284v-53h-284z" />
    <glyph glyph-name="Ubreve" unicode="&#x16c;" horiz-adv-x="704" 
d="M352 -11q-89 0 -154 37.5t-100 106.5t-35 163v404h77v-404q0 -72 26 -125t74 -82t112 -29q65 0 112.5 29t73.5 82t26 125v404h77v-404q0 -94 -35.5 -163t-100 -106.5t-153.5 -37.5zM352 791q-60 0 -100.5 32.5t-53.5 90.5l52 13q21 -87 102 -87q38 0 64.5 22t37.5 65
l52 -13q-13 -58 -54 -90.5t-100 -32.5z" />
    <glyph glyph-name="ubreve" unicode="&#x16d;" horiz-adv-x="549" 
d="M255 -10q-57 0 -101 24.5t-68.5 68t-24.5 101.5v317h73v-302q0 -67 38 -105.5t102 -38.5q45 0 80.5 20.5t57.5 57.5v368h74v-501h-74v58q-59 -68 -157 -68zM274 592q-60 0 -100.5 32.5t-53.5 90.5l52 13q21 -87 102 -87q38 0 64.5 22t37.5 65l52 -13q-13 -58 -54 -90.5
t-100 -32.5z" />
    <glyph glyph-name="Uring" unicode="&#x16e;" horiz-adv-x="704" 
d="M352 -11q-89 0 -154 37.5t-100 106.5t-35 163v404h77v-404q0 -72 26 -125t74 -82t112 -29q65 0 112.5 29t73.5 82t26 125v404h77v-404q0 -94 -35.5 -163t-100 -106.5t-153.5 -37.5zM352 782q-31 0 -56.5 15t-40.5 40.5t-15 55.5q0 31 15 56t40.5 40t56.5 15t56.5 -15
t40.5 -40t15 -56q0 -30 -15 -55.5t-40.5 -40.5t-56.5 -15zM352 823q29 0 49.5 20.5t20.5 49.5t-20.5 49.5t-49.5 20.5t-49.5 -20.5t-20.5 -49.5t20.5 -49.5t49.5 -20.5z" />
    <glyph glyph-name="uring" unicode="&#x16f;" horiz-adv-x="549" 
d="M255 -10q-57 0 -101 24.5t-68.5 68t-24.5 101.5v317h73v-302q0 -67 38 -105.5t102 -38.5q45 0 80.5 20.5t57.5 57.5v368h74v-501h-74v58q-59 -68 -157 -68zM274 583q-31 0 -56.5 15t-40.5 40.5t-15 55.5q0 31 15 56t40.5 40t56.5 15t56.5 -15t40.5 -40t15 -56
q0 -30 -15 -55.5t-40.5 -40.5t-56.5 -15zM274 624q29 0 49.5 20.5t20.5 49.5t-20.5 49.5t-49.5 20.5t-49.5 -20.5t-20.5 -49.5t20.5 -49.5t49.5 -20.5z" />
    <glyph glyph-name="Uhungarumlaut" unicode="&#x170;" horiz-adv-x="704" 
d="M352 -11q-89 0 -154 37.5t-100 106.5t-35 163v404h77v-404q0 -72 26 -125t74 -82t112 -29q65 0 112.5 29t73.5 82t26 125v404h77v-404q0 -94 -35.5 -163t-100 -106.5t-153.5 -37.5zM235 802l104 113h86l-127 -113h-63zM400 802l104 113h87l-130 -113h-61z" />
    <glyph glyph-name="uhungarumlaut" unicode="&#x171;" horiz-adv-x="549" 
d="M255 -10q-57 0 -101 24.5t-68.5 68t-24.5 101.5v317h73v-302q0 -67 38 -105.5t102 -38.5q45 0 80.5 20.5t57.5 57.5v368h74v-501h-74v58q-59 -68 -157 -68zM157 603l104 113h86l-127 -113h-63zM322 603l104 113h87l-130 -113h-61z" />
    <glyph glyph-name="Uogonek" unicode="&#x172;" horiz-adv-x="704" 
d="M374 -221q-44 0 -71 23.5t-27 62.5q0 32 20 61.5t65 62.5q-90 -1 -157 35.5t-104 105.5t-37 166v404h77v-404q0 -72 26 -125t74 -82t112 -29q65 0 112.5 29t73.5 82t26 125v404h77v-404q0 -119 -56.5 -197.5t-155.5 -101.5q-52 -34 -77 -62.5t-25 -57.5q0 -25 15 -38.5
t43 -13.5q13 0 25.5 3.5t22.5 10.5l15 -39q-16 -10 -34.5 -15.5t-39.5 -5.5z" />
    <glyph glyph-name="uogonek" unicode="&#x173;" horiz-adv-x="549" 
d="M428 -221q-44 0 -71 23.5t-27 62.5q0 35 23.5 67t75.5 68h-17v58q-59 -68 -157 -68q-57 0 -101 24.5t-68.5 68t-24.5 101.5v317h73v-302q0 -67 38 -105.5t102 -38.5q45 0 80.5 20.5t57.5 57.5v368h74v-501q-55 -34 -80 -64t-25 -59q0 -25 15 -38.5t43 -13.5
q13 0 25.5 3.5t22.5 10.5l15 -39q-16 -10 -34.5 -15.5t-39.5 -5.5z" />
    <glyph glyph-name="Wcircumflex" unicode="&#x174;" horiz-adv-x="882" 
d="M186 0l-151 700h78l119 -578l173 578h75l173 -576l120 576h75l-151 -700h-78l-177 593l-178 -593h-78zM522 795l-84 80l-83 -80h-60l104 121h80l104 -121h-61z" />
    <glyph glyph-name="wcircumflex" unicode="&#x175;" horiz-adv-x="703" 
d="M155 0l-141 501h73l108 -400l125 400h66l124 -400l109 400h70l-142 -501h-71l-124 401l-125 -401h-72zM435 596l-84 80l-83 -80h-60l104 121h80l104 -121h-61z" />
    <glyph glyph-name="Ycircumflex" unicode="&#x176;" horiz-adv-x="639" 
d="M281 0v285l-278 415h90l229 -347l228 347h87l-279 -418v-282h-77zM403 795l-84 80l-83 -80h-60l104 121h80l104 -121h-61z" />
    <glyph glyph-name="ycircumflex" unicode="&#x177;" horiz-adv-x="510" 
d="M84 -214q-14 0 -26.5 1.5t-20.5 3.5v67q17 -4 42 -4q66 0 100 78l30 69l-204 500h82l162 -411l175 411h80l-250 -579q-21 -48 -45 -78t-54.5 -44t-70.5 -14zM333 596l-84 80l-83 -80h-60l104 121h80l104 -121h-61z" />
    <glyph glyph-name="Ydieresis" unicode="&#x178;" horiz-adv-x="639" 
d="M281 0v285l-278 415h90l229 -347l228 347h87l-279 -418v-282h-77zM233 810q-21 0 -35.5 14t-14.5 34t14.5 34t35.5 14t35.5 -14t14.5 -34t-14.5 -34t-35.5 -14zM407 810q-21 0 -35.5 14t-14.5 34t14.5 34t35.5 14t35.5 -14t14.5 -34t-14.5 -34t-35.5 -14z" />
    <glyph glyph-name="Zacute" unicode="&#x179;" horiz-adv-x="604" 
d="M24 0v55l445 577h-441v68h542v-55l-447 -577h455v-68h-554zM244 799l94 116h95l-124 -116h-65z" />
    <glyph glyph-name="zacute" unicode="&#x17a;" horiz-adv-x="463" 
d="M31 0v58l302 377h-299v66h389v-57l-303 -378h306v-66h-395zM164 600l94 116h95l-124 -116h-65z" />
    <glyph glyph-name="Zdotaccent" unicode="&#x17b;" horiz-adv-x="604" 
d="M24 0v55l445 577h-441v68h542v-55l-447 -577h455v-68h-554zM308 801q-20 0 -34.5 14.5t-14.5 34.5t14.5 34.5t34.5 14.5t34.5 -14.5t14.5 -34.5t-14.5 -34.5t-34.5 -14.5z" />
    <glyph glyph-name="zdotaccent" unicode="&#x17c;" horiz-adv-x="463" 
d="M31 0v58l302 377h-299v66h389v-57l-303 -378h306v-66h-395zM228 602q-20 0 -34.5 14.5t-14.5 34.5t14.5 34.5t34.5 14.5t34.5 -14.5t14.5 -34.5t-14.5 -34.5t-34.5 -14.5z" />
    <glyph glyph-name="Zcaron" unicode="&#x17d;" horiz-adv-x="604" 
d="M24 0v55l445 577h-441v68h542v-55l-447 -577h455v-68h-554zM226 917l82 -79l82 79h62l-104 -120h-80l-104 120h62z" />
    <glyph glyph-name="zcaron" unicode="&#x17e;" horiz-adv-x="463" 
d="M31 0v58l302 377h-299v66h389v-57l-303 -378h306v-66h-395zM146 718l82 -79l82 79h62l-104 -120h-80l-104 120h62z" />
    <glyph glyph-name="Scommaaccent" unicode="&#x218;" 
d="M304 -10q-83 0 -159 33.5t-134 96.5l51 53q54 -58 115.5 -87t129.5 -29q55 0 97.5 17.5t66.5 49t24 71.5q0 54 -37.5 83t-123.5 43l-101 16q-101 17 -149 60t-48 117q0 58 31 102t86.5 68.5t128.5 24.5q74 0 145.5 -24t130.5 -69l-44 -60q-115 87 -235 87
q-50 0 -88 -15.5t-59 -43t-21 -64.5q0 -49 33 -75t109 -38l100 -16q115 -19 167 -64.5t52 -127.5q0 -61 -34 -108.5t-94.5 -74t-139.5 -26.5zM210 -262l41 179h74l-60 -179h-55z" />
    <glyph glyph-name="scommaaccent" unicode="&#x219;" horiz-adv-x="446" 
d="M223 -10q-62 0 -116.5 20.5t-94.5 57.5l45 48q35 -32 77 -49.5t86 -17.5q60 0 98 25t38 65q0 33 -22.5 51.5t-70.5 25.5l-87 12q-75 11 -111.5 45t-36.5 92q0 42 24 75t66.5 52t97.5 19t103 -16t94 -50l-39 -50q-42 29 -81.5 42.5t-80.5 13.5q-52 0 -84 -23t-32 -60
q0 -34 22 -51.5t71 -24.5l87 -12q75 -10 112.5 -44t37.5 -93q0 -43 -27 -78t-72.5 -55t-103.5 -20zM146 -264l41 179h74l-60 -179h-55z" />
    <glyph glyph-name="uni021A" unicode="&#x21a;" horiz-adv-x="617" 
d="M270 0v631h-253v69h583v-69h-253v-631h-77zM230 -264l41 179h74l-60 -179h-55z" />
    <glyph glyph-name="uni021B" unicode="&#x21b;" horiz-adv-x="365" 
d="M260 -10q-65 0 -100 31t-35 90v327h-108v63h108v127l73 19v-146h151v-63h-151v-308q0 -40 18 -57.5t59 -17.5q21 0 37.5 3t35.5 10v-65q-19 -7 -42.5 -10t-45.5 -3zM152 -264l41 179h74l-60 -179h-55z" />
    <glyph glyph-name="dotlessj" unicode="&#x237;" horiz-adv-x="200" 
d="M9 -214q-13 0 -24.5 2t-22.5 4v62q17 -4 38 -4q34 0 48.5 16t14.5 52v583h74v-590q0 -59 -33 -92t-95 -33z" />
    <glyph glyph-name="uni02BB" unicode="&#x2bb;" horiz-adv-x="250" 
d="M201 719l-58 -211h-80l80 211h58z" />
    <glyph glyph-name="uni02BC" unicode="&#x2bc;" horiz-adv-x="250" 
d="M63 508l58 211h80l-80 -211h-58z" />
    <glyph glyph-name="circumflex" unicode="&#x2c6;" 
d="M383 596l-84 80l-83 -80h-60l104 121h80l104 -121h-61z" />
    <glyph glyph-name="caron" unicode="&#x2c7;" 
d="M218 718l82 -79l82 79h62l-104 -120h-80l-104 120h62z" />
    <glyph glyph-name="breve" unicode="&#x2d8;" 
d="M300 592q-60 0 -100.5 32.5t-53.5 90.5l52 13q21 -87 102 -87q38 0 64.5 22t37.5 65l52 -13q-13 -58 -54 -90.5t-100 -32.5z" />
    <glyph glyph-name="dotaccent" unicode="&#x2d9;" 
d="M300 602q-20 0 -34.5 14.5t-14.5 34.5t14.5 34.5t34.5 14.5t34.5 -14.5t14.5 -34.5t-14.5 -34.5t-34.5 -14.5z" />
    <glyph glyph-name="ring" unicode="&#x2da;" 
d="M300 583q-31 0 -56.5 15t-40.5 40.5t-15 55.5q0 31 15 56t40.5 40t56.5 15t56.5 -15t40.5 -40t15 -56q0 -30 -15 -55.5t-40.5 -40.5t-56.5 -15zM300 624q29 0 49.5 20.5t20.5 49.5t-20.5 49.5t-49.5 20.5t-49.5 -20.5t-20.5 -49.5t20.5 -49.5t49.5 -20.5z" />
    <glyph glyph-name="ogonek" unicode="&#x2db;" 
d="M294 -221q-44 0 -71 23.5t-27 62.5t29 74t94 77l34 -16q-55 -34 -80.5 -64t-25.5 -59q0 -25 15 -38.5t43 -13.5q13 0 25.5 3.5t22.5 10.5l15 -39q-16 -10 -34.5 -15.5t-39.5 -5.5z" />
    <glyph glyph-name="tilde" unicode="&#x2dc;" 
d="M184 594l-52 10q22 100 94 100q27 0 52.5 -13.5t48.5 -27.5t44 -14q17 0 27.5 13t17.5 44l51 -10q-10 -50 -34 -75t-60 -25q-26 0 -51.5 14t-49 27.5t-44.5 13.5q-18 0 -28 -13t-16 -44z" />
    <glyph glyph-name="hungarumlaut" unicode="&#x2dd;" 
d="M183 603l104 113h86l-127 -113h-63zM348 603l104 113h87l-130 -113h-61z" />
    <glyph glyph-name="Wgrave" unicode="&#x1e80;" horiz-adv-x="882" 
d="M186 0l-151 700h78l119 -578l173 578h75l173 -576l120 576h75l-151 -700h-78l-177 593l-178 -593h-78zM429 799l-123 116h96l92 -116h-65z" />
    <glyph glyph-name="wgrave" unicode="&#x1e81;" horiz-adv-x="703" 
d="M155 0l-141 501h73l108 -400l125 400h66l124 -400l109 400h70l-142 -501h-71l-124 401l-125 -401h-72zM342 600l-123 116h96l92 -116h-65z" />
    <glyph glyph-name="Wacute" unicode="&#x1e82;" horiz-adv-x="882" 
d="M186 0l-151 700h78l119 -578l173 578h75l173 -576l120 576h75l-151 -700h-78l-177 593l-178 -593h-78zM375 799l94 116h95l-124 -116h-65z" />
    <glyph glyph-name="wacute" unicode="&#x1e83;" horiz-adv-x="703" 
d="M155 0l-141 501h73l108 -400l125 400h66l124 -400l109 400h70l-142 -501h-71l-124 401l-125 -401h-72zM288 600l94 116h95l-124 -116h-65z" />
    <glyph glyph-name="Wdieresis" unicode="&#x1e84;" horiz-adv-x="882" 
d="M186 0l-151 700h78l119 -578l173 578h75l173 -576l120 576h75l-151 -700h-78l-177 593l-178 -593h-78zM352 810q-21 0 -35.5 14t-14.5 34t14.5 34t35.5 14t35.5 -14t14.5 -34t-14.5 -34t-35.5 -14zM526 810q-21 0 -35.5 14t-14.5 34t14.5 34t35.5 14t35.5 -14t14.5 -34
t-14.5 -34t-35.5 -14z" />
    <glyph glyph-name="wdieresis" unicode="&#x1e85;" horiz-adv-x="703" 
d="M155 0l-141 501h73l108 -400l125 400h66l124 -400l109 400h70l-142 -501h-71l-124 401l-125 -401h-72zM265 611q-21 0 -35.5 14t-14.5 34t14.5 34t35.5 14t35.5 -14t14.5 -34t-14.5 -34t-35.5 -14zM439 611q-21 0 -35.5 14t-14.5 34t14.5 34t35.5 14t35.5 -14t14.5 -34
t-14.5 -34t-35.5 -14z" />
    <glyph glyph-name="Ygrave" unicode="&#x1ef2;" horiz-adv-x="639" 
d="M281 0v285l-278 415h90l229 -347l228 347h87l-279 -418v-282h-77zM310 799l-123 116h96l92 -116h-65z" />
    <glyph glyph-name="ygrave" unicode="&#x1ef3;" horiz-adv-x="510" 
d="M84 -214q-14 0 -26.5 1.5t-20.5 3.5v67q17 -4 42 -4q66 0 100 78l30 69l-204 500h82l162 -411l175 411h80l-250 -579q-21 -48 -45 -78t-54.5 -44t-70.5 -14zM240 600l-123 116h96l92 -116h-65z" />
    <glyph glyph-name="enspace" unicode="&#x2002;" horiz-adv-x="500" 
 />
    <glyph glyph-name="emspace" unicode="&#x2003;" horiz-adv-x="1000" 
 />
    <glyph glyph-name="thinspace" unicode="&#x2009;" horiz-adv-x="175" 
 />
    <glyph glyph-name="hairspace" unicode="&#x200a;" horiz-adv-x="100" 
 />
    <glyph glyph-name="zerowidthspace" unicode="&#x200b;" horiz-adv-x="0" 
 />
    <glyph glyph-name="endash" unicode="&#x2013;" horiz-adv-x="547" 
d="M49 248v66h449v-66h-449z" />
    <glyph glyph-name="emdash" unicode="&#x2014;" horiz-adv-x="697" 
d="M49 248v66h599v-66h-599z" />
    <glyph glyph-name="uni2015" unicode="&#x2015;" horiz-adv-x="947" 
d="M49 248v66h849v-66h-849z" />
    <glyph glyph-name="quoteleft" unicode="&#x2018;" horiz-adv-x="250" 
d="M201 719l-58 -211h-80l80 211h58z" />
    <glyph glyph-name="quoteright" unicode="&#x2019;" horiz-adv-x="250" 
d="M63 508l58 211h80l-80 -211h-58z" />
    <glyph glyph-name="quotesinglbase" unicode="&#x201a;" horiz-adv-x="250" 
d="M44 -137l58 211h80l-80 -211h-58z" />
    <glyph glyph-name="quotedblleft" unicode="&#x201c;" horiz-adv-x="386" 
d="M201 719l-58 -211h-80l80 211h58zM337 719l-58 -211h-80l80 211h58z" />
    <glyph glyph-name="quotedblright" unicode="&#x201d;" horiz-adv-x="386" 
d="M199 508l58 211h80l-80 -211h-58zM63 508l58 211h80l-80 -211h-58z" />
    <glyph glyph-name="quotedblbase" unicode="&#x201e;" horiz-adv-x="386" 
d="M180 -137l58 211h80l-80 -211h-58zM44 -137l58 211h80l-80 -211h-58z" />
    <glyph glyph-name="dagger" unicode="&#x2020;" horiz-adv-x="425" 
d="M180 0v442h-126v60h126v198h66v-198h126v-60h-126v-442h-66z" />
    <glyph glyph-name="daggerdbl" unicode="&#x2021;" horiz-adv-x="425" 
d="M180 0v198h-126v60h126v184h-126v60h126v198h66v-198h126v-60h-126v-184h126v-60h-126v-198h-66z" />
    <glyph glyph-name="bullet" unicode="&#x2022;" horiz-adv-x="328" 
d="M163 252q-27 0 -50 13.5t-36.5 36.5t-13.5 50q0 28 13.5 51t36.5 37t50 14q28 0 51 -14t37 -37t14 -51q0 -27 -13.5 -50t-36.5 -36.5t-52 -13.5z" />
    <glyph glyph-name="ellipsis" unicode="&#x2026;" horiz-adv-x="639" 
d="M125 -6q-21 0 -36 15t-15 36t15 36t36 15t36 -15t15 -36t-15 -36t-36 -15zM320 -6q-21 0 -36 15t-15 36t15 36t36 15t36 -15t15 -36t-15 -36t-36 -15zM514 -6q-21 0 -36 15t-15 36t15 36t36 15t36 -15t15 -36t-15 -36t-36 -15z" />
    <glyph glyph-name="perthousand" unicode="&#x2030;" horiz-adv-x="1084" 
d="M176 345q-67 0 -108 50t-41 130t41 130t108 50q65 0 106 -50t42 -130q-1 -80 -42 -130t-106 -50zM176 391q44 0 70.5 36.5t26.5 97.5q0 62 -26.5 98.5t-70.5 36.5q-45 0 -71 -36.5t-27 -98.5q1 -61 27 -97.5t71 -36.5zM142 0l393 700h62l-394 -700h-61zM566 -5
q-67 0 -108 50t-41 130t41 130t108 50q65 0 106 -50t42 -130q-1 -80 -42 -130t-106 -50zM566 41q44 0 70.5 36.5t26.5 97.5q0 62 -26.5 98.5t-70.5 36.5q-45 0 -71 -36.5t-27 -98.5q1 -61 27 -97.5t71 -36.5zM910 -5q-67 0 -108 50t-41 130t41 130t108 50q65 0 106 -50
t42 -130q-1 -80 -42 -130t-106 -50zM910 41q44 0 70.5 36.5t26.5 97.5q0 62 -26.5 98.5t-70.5 36.5q-45 0 -71 -36.5t-27 -98.5q1 -61 27 -97.5t71 -36.5z" />
    <glyph glyph-name="uni2032" unicode="&#x2032;" horiz-adv-x="250" 
d="M63 508l58 211h80l-80 -211h-58z" />
    <glyph glyph-name="uni2033" unicode="&#x2033;" horiz-adv-x="386" 
d="M199 508l58 211h80l-80 -211h-58zM63 508l58 211h80l-80 -211h-58z" />
    <glyph glyph-name="guilsinglleft" unicode="&#x2039;" horiz-adv-x="389" 
d="M265 0l-234 251l234 250h79l-228 -248l231 -253h-82z" />
    <glyph glyph-name="guilsinglright" unicode="&#x203a;" horiz-adv-x="389" 
d="M124 501l234 -251l-234 -250h-79l228 248l-231 253h82z" />
    <glyph glyph-name="fraction" unicode="&#x2044;" horiz-adv-x="578" 
d="M30 0l393 700h62l-394 -700h-61z" />
    <glyph glyph-name="uni2070" unicode="&#x2070;" horiz-adv-x="350" 
d="M176 345q-67 0 -108 50t-41 130t41 130t108 50q65 0 106 -50t42 -130q-1 -80 -42 -130t-106 -50zM176 391q44 0 70.5 36.5t26.5 97.5q0 62 -26.5 98.5t-70.5 36.5q-45 0 -71 -36.5t-27 -98.5q1 -61 27 -97.5t71 -36.5z" />
    <glyph glyph-name="uni2074" unicode="&#x2074;" horiz-adv-x="330" 
d="M219 350v88h-198v42l192 220h58v-218h43v-44h-43v-88h-52zM82 482h137v157z" />
    <glyph glyph-name="uni2075" unicode="&#x2075;" horiz-adv-x="309" 
d="M147 345q-75 0 -127 47l32 36q23 -21 46 -30t51 -9q37 0 59.5 19.5t22.5 50.5q0 29 -24 48.5t-62 19.5q-17 0 -35.5 -3t-37.5 -11l-32 10l8 177h216v-45h-174l-4 -99q17 7 34.5 10t34.5 3q58 0 93.5 -30t35.5 -79q0 -52 -38 -83.5t-99 -31.5z" />
    <glyph glyph-name="uni2076" unicode="&#x2076;" horiz-adv-x="326" 
d="M175 345q-66 0 -107 47t-41 123q0 86 46.5 137.5t123.5 51.5q23 0 48 -7.5t43 -20.5l-28 -39q-15 11 -32.5 16t-35.5 5q-52 0 -81 -35t-32 -100q19 21 46 33.5t55 12.5q53 0 87.5 -31t34.5 -78q0 -49 -36 -82t-91 -33zM171 527q-25 0 -48.5 -12t-40.5 -34
q7 -42 31.5 -66.5t60.5 -24.5q33 0 54.5 19.5t21.5 49.5t-22 49t-57 19z" />
    <glyph glyph-name="uni2077" unicode="&#x2077;" horiz-adv-x="298" 
d="M56 350l172 305h-212v45h271v-39l-170 -311h-61z" />
    <glyph glyph-name="uni2078" unicode="&#x2078;" horiz-adv-x="327" 
d="M164 345q-60 0 -98 28.5t-38 72.5q0 29 18.5 52.5t49.5 33.5q-25 11 -40 32.5t-15 46.5q0 41 35 68t87 27q53 0 88 -27t35 -68q0 -25 -15 -46.5t-40 -32.5q30 -10 48.5 -33.5t18.5 -52.5q0 -44 -37.5 -72.5t-96.5 -28.5zM164 553q30 0 50 15.5t20 39.5t-20 40t-50 16
q-31 0 -51.5 -16t-20.5 -40t20.5 -39.5t51.5 -15.5zM164 388q35 0 59 17.5t24 43.5q0 27 -24 44.5t-59 17.5q-37 0 -60.5 -17.5t-23.5 -44.5q0 -26 23.5 -43.5t60.5 -17.5z" />
    <glyph glyph-name="uni2079" unicode="&#x2079;" horiz-adv-x="326" 
d="M151 704q66 0 107 -47t41 -123q0 -85 -46.5 -137t-123.5 -52q-23 0 -48 7.5t-43 20.5l28 39q15 -10 32.5 -15.5t35.5 -5.5q52 0 81 35.5t32 99.5q-19 -21 -45.5 -33.5t-55.5 -12.5q-53 0 -87.5 31t-34.5 78q0 50 36 82.5t91 32.5zM155 522q26 0 49 12t40 34
q-7 42 -31.5 66.5t-60.5 24.5q-33 0 -54.5 -19.5t-21.5 -49.5t22 -49t57 -19z" />
    <glyph glyph-name="uni2080" unicode="&#x2080;" horiz-adv-x="350" 
d="M176 -5q-67 0 -108 50t-41 130t41 130t108 50q65 0 106 -50t42 -130q-1 -80 -42 -130t-106 -50zM176 41q44 0 70.5 36.5t26.5 97.5q0 62 -26.5 98.5t-70.5 36.5q-45 0 -71 -36.5t-27 -98.5q1 -61 27 -97.5t71 -36.5z" />
    <glyph glyph-name="uni2081" unicode="&#x2081;" horiz-adv-x="165" 
d="M83 0v296l-63 -26v45l82 35h33v-350h-52z" />
    <glyph glyph-name="uni2082" unicode="&#x2082;" horiz-adv-x="291" 
d="M26 0v38l136 125q29 28 40.5 46.5t11.5 38.5q0 27 -20 44.5t-52 17.5q-25 0 -47 -10t-49 -33l-29 35q29 26 60.5 39.5t65.5 13.5q53 0 87.5 -29t34.5 -74q0 -31 -15 -56.5t-55 -62.5l-97 -89h172v-44h-244z" />
    <glyph glyph-name="uni2083" unicode="&#x2083;" horiz-adv-x="313" 
d="M151 -5q-39 0 -73.5 13.5t-59.5 38.5l35 33q22 -22 44.5 -31t53.5 -9q37 0 59 16.5t22 43.5q0 24 -21.5 38.5t-56.5 14.5h-31v42h27q30 0 50 17.5t20 42.5q0 24 -20 39.5t-51 15.5q-28 0 -48.5 -9.5t-43.5 -32.5l-35 33q26 26 59 40.5t70 14.5q53 0 87.5 -27.5
t33.5 -69.5q1 -26 -14.5 -47.5t-42.5 -33.5q32 -10 51 -31.5t19 -50.5q0 -44 -37.5 -72.5t-96.5 -28.5z" />
    <glyph glyph-name="uni2084" unicode="&#x2084;" horiz-adv-x="330" 
d="M219 0v88h-198v42l192 220h58v-218h43v-44h-43v-88h-52zM82 132h137v157z" />
    <glyph glyph-name="uni2085" unicode="&#x2085;" horiz-adv-x="309" 
d="M147 -5q-75 0 -127 47l32 36q23 -21 46 -30t51 -9q37 0 59.5 19.5t22.5 50.5q0 29 -24 48.5t-62 19.5q-17 0 -35.5 -3t-37.5 -11l-32 10l8 177h216v-45h-174l-4 -99q17 7 34.5 10t34.5 3q58 0 93.5 -30t35.5 -79q0 -52 -38 -83.5t-99 -31.5z" />
    <glyph glyph-name="uni2086" unicode="&#x2086;" horiz-adv-x="326" 
d="M175 -5q-66 0 -107 47t-41 123q0 86 46.5 137.5t123.5 51.5q23 0 48 -7.5t43 -20.5l-28 -39q-15 11 -32.5 16t-35.5 5q-52 0 -81 -35t-32 -100q19 21 46 33.5t55 12.5q53 0 87.5 -31t34.5 -78q0 -49 -36 -82t-91 -33zM171 177q-25 0 -48.5 -12t-40.5 -34
q7 -42 31.5 -66.5t60.5 -24.5q33 0 54.5 19.5t21.5 49.5t-22 49t-57 19z" />
    <glyph glyph-name="uni2087" unicode="&#x2087;" horiz-adv-x="298" 
d="M56 0l172 305h-212v45h271v-39l-170 -311h-61z" />
    <glyph glyph-name="uni2088" unicode="&#x2088;" horiz-adv-x="327" 
d="M164 -5q-60 0 -98 28.5t-38 72.5q0 29 18.5 52.5t49.5 33.5q-25 11 -40 32.5t-15 46.5q0 41 35 68t87 27q53 0 88 -27t35 -68q0 -25 -15 -46.5t-40 -32.5q30 -10 48.5 -33.5t18.5 -52.5q0 -44 -37.5 -72.5t-96.5 -28.5zM164 203q30 0 50 15.5t20 39.5t-20 40t-50 16
q-31 0 -51.5 -16t-20.5 -40t20.5 -39.5t51.5 -15.5zM164 38q35 0 59 17.5t24 43.5q0 27 -24 44.5t-59 17.5q-37 0 -60.5 -17.5t-23.5 -44.5q0 -26 23.5 -43.5t60.5 -17.5z" />
    <glyph glyph-name="uni2089" unicode="&#x2089;" horiz-adv-x="326" 
d="M151 354q66 0 107 -47t41 -123q0 -86 -46.5 -137.5t-123.5 -51.5q-23 0 -48 7.5t-43 20.5l28 39q15 -11 32.5 -16t35.5 -5q52 0 81 35t32 100q-19 -21 -46 -33.5t-55 -12.5q-53 0 -87.5 31t-34.5 78q0 49 36 82t91 33zM155 172q25 0 48.5 12t40.5 34q-7 42 -31.5 66.5
t-60.5 24.5q-33 0 -54.5 -19.5t-21.5 -49.5t22 -49t57 -19z" />
    <glyph glyph-name="Euro" unicode="&#x20ac;" horiz-adv-x="775" 
d="M463 -11q-83 0 -151 34t-113.5 94.5t-63.5 141.5h-102v51h95q-1 10 -1.5 20t-0.5 20q0 11 0.5 22t1.5 21h-95v50h103q18 81 64 141t114.5 93.5t151.5 33.5t150.5 -31.5t113.5 -93.5l-53 -41q-37 50 -91.5 76t-121.5 26q-64 0 -116 -25t-87.5 -70.5t-51.5 -108.5h283
l-18 -50h-274q-1 -10 -1.5 -21t-0.5 -22q0 -10 0.5 -20t1.5 -20h245l-18 -51h-218q15 -62 50.5 -108.5t87.5 -71.5t116 -25q65 0 121.5 26.5t91.5 75.5l51 -40q-46 -61 -114.5 -94t-149.5 -33z" />
    <glyph glyph-name="trademark" unicode="&#x2122;" horiz-adv-x="675" 
d="M324 421v279h55l88 -181l88 181h55v-279h-42l2 225l-103 -206l-102 203l1 -222h-42zM132 421v241h-99v38h241v-38h-99v-241h-43z" />
    <glyph glyph-name="uni2191" unicode="&#x2191;" horiz-adv-x="505" 
d="M216 0v609l-163 -215l-48 38l246 318l245 -318l-47 -37l-165 219v-614h-68z" />
    <glyph glyph-name="uni2193" unicode="&#x2193;" horiz-adv-x="505" 
d="M285 700v-609l163 215l48 -38l-246 -318l-245 318l47 37l165 -219v614h68z" />
    <glyph glyph-name="minus" unicode="&#x2212;" 
d="M102 328v60h396v-60h-396z" />
    <glyph glyph-name="uni2215" unicode="&#x2215;" horiz-adv-x="578" 
d="M30 0l393 700h62l-393 -700h-62z" />
    <glyph glyph-name="notequal" unicode="&#x2260;" 
d="M111 123l84 122h-93v60h134l71 103h-205v60h246l83 121h58l-83 -121h92v-60h-133l-71 -103h204v-60h-245l-84 -122h-58z" />
    <glyph glyph-name="fi" unicode="&#xfb01;" horiz-adv-x="573" 
d="M135 0v438h-118v63h118v95q0 74 40 113t115 39q20 0 36 -2t31 -7v-66q-17 5 -31 7.5t-31 2.5q-44 0 -65.5 -21.5t-21.5 -67.5v-93h149v-63h-149v-438h-73zM437 0v501h74v-501h-74zM474 597q-20 0 -35 15t-15 36q0 20 15 34.5t35 14.5q21 0 35.5 -14.5t14.5 -35.5
q0 -20 -14.5 -35t-35.5 -15z" />
    <glyph glyph-name="fl" unicode="&#xfb02;" horiz-adv-x="573" 
d="M135 0v438h-118v63h118v95q0 74 40 113t115 39q20 0 36 -2t31 -7v-66q-17 5 -31 7.5t-31 2.5q-44 0 -65.5 -21.5t-21.5 -67.5v-93h149v-63h-149v-438h-73zM437 0v700l74 17v-717h-74z" />
    <glyph glyph-name="uniFEFF" unicode="&#xfeff;" horiz-adv-x="0" 
 />
    <glyph glyph-name="uniFFFD" unicode="&#xfffd;" 
d="M103 -100v850h394v-850h-394z" />
    <glyph glyph-name="NULL" horiz-adv-x="215" 
 />
    <glyph glyph-name="CR" horiz-adv-x="215" 
 />
    <glyph glyph-name="idotaccent" horiz-adv-x="198" 
d="M63 0v501h74v-501h-74zM100 597q-20 0 -35 15t-15 36q0 20 15 34.5t35 14.5q21 0 35.5 -14.5t14.5 -35.5q0 -20 -14.5 -35t-35.5 -15z" />
    <glyph glyph-name="a.school" horiz-adv-x="590" 
d="M292 -8q-70 0 -127.5 34.5t-91 93t-33.5 131.5t33.5 131t91 92.5t128.5 34.5q44 0 85 -14.5t75 -42.5v49h74v-501h-73v53q-66 -61 -162 -61zM299 57q47 0 87.5 18.5t66.5 51.5v248q-26 32 -66.5 50.5t-87.5 18.5q-52 0 -94.5 -25t-67 -68.5t-24.5 -98.5t24.5 -99t67 -70
t94.5 -26z" />
    <glyph glyph-name="aacute.school" horiz-adv-x="590" 
d="M292 -8q-70 0 -127.5 34.5t-91 93t-33.5 131.5t33.5 131t91 92.5t128.5 34.5q44 0 85 -14.5t75 -42.5v49h74v-501h-73v53q-66 -61 -162 -61zM299 57q47 0 87.5 18.5t66.5 51.5v248q-26 32 -66.5 50.5t-87.5 18.5q-52 0 -94.5 -25t-67 -68.5t-24.5 -98.5t24.5 -99t67 -70
t94.5 -26zM231 600l94 116h95l-124 -116h-65z" />
    <glyph glyph-name="abreve.school" horiz-adv-x="590" 
d="M292 -8q-70 0 -127.5 34.5t-91 93t-33.5 131.5t33.5 131t91 92.5t128.5 34.5q44 0 85 -14.5t75 -42.5v49h74v-501h-73v53q-66 -61 -162 -61zM299 57q47 0 87.5 18.5t66.5 51.5v248q-26 32 -66.5 50.5t-87.5 18.5q-52 0 -94.5 -25t-67 -68.5t-24.5 -98.5t24.5 -99t67 -70
t94.5 -26zM295 592q-60 0 -100.5 32.5t-53.5 90.5l52 13q21 -87 102 -87q38 0 64.5 22t37.5 65l52 -13q-13 -58 -54 -90.5t-100 -32.5z" />
    <glyph glyph-name="acircumflex.school" horiz-adv-x="590" 
d="M292 -8q-70 0 -127.5 34.5t-91 93t-33.5 131.5t33.5 131t91 92.5t128.5 34.5q44 0 85 -14.5t75 -42.5v49h74v-501h-73v53q-66 -61 -162 -61zM299 57q47 0 87.5 18.5t66.5 51.5v248q-26 32 -66.5 50.5t-87.5 18.5q-52 0 -94.5 -25t-67 -68.5t-24.5 -98.5t24.5 -99t67 -70
t94.5 -26zM378 596l-84 80l-83 -80h-60l104 121h80l104 -121h-61z" />
    <glyph glyph-name="adieresis.school" horiz-adv-x="590" 
d="M292 -8q-70 0 -127.5 34.5t-91 93t-33.5 131.5t33.5 131t91 92.5t128.5 34.5q44 0 85 -14.5t75 -42.5v49h74v-501h-73v53q-66 -61 -162 -61zM299 57q47 0 87.5 18.5t66.5 51.5v248q-26 32 -66.5 50.5t-87.5 18.5q-52 0 -94.5 -25t-67 -68.5t-24.5 -98.5t24.5 -99t67 -70
t94.5 -26zM208 611q-21 0 -35.5 14t-14.5 34t14.5 34t35.5 14t35.5 -14t14.5 -34t-14.5 -34t-35.5 -14zM382 611q-21 0 -35.5 14t-14.5 34t14.5 34t35.5 14t35.5 -14t14.5 -34t-14.5 -34t-35.5 -14z" />
    <glyph glyph-name="agrave.school" horiz-adv-x="590" 
d="M292 -8q-70 0 -127.5 34.5t-91 93t-33.5 131.5t33.5 131t91 92.5t128.5 34.5q44 0 85 -14.5t75 -42.5v49h74v-501h-73v53q-66 -61 -162 -61zM299 57q47 0 87.5 18.5t66.5 51.5v248q-26 32 -66.5 50.5t-87.5 18.5q-52 0 -94.5 -25t-67 -68.5t-24.5 -98.5t24.5 -99t67 -70
t94.5 -26zM285 600l-123 116h96l92 -116h-65z" />
    <glyph glyph-name="amacron.school" horiz-adv-x="590" 
d="M292 -8q-70 0 -127.5 34.5t-91 93t-33.5 131.5t33.5 131t91 92.5t128.5 34.5q44 0 85 -14.5t75 -42.5v49h74v-501h-73v53q-66 -61 -162 -61zM299 57q47 0 87.5 18.5t66.5 51.5v248q-26 32 -66.5 50.5t-87.5 18.5q-52 0 -94.5 -25t-67 -68.5t-24.5 -98.5t24.5 -99t67 -70
t94.5 -26zM153 621v53h284v-53h-284z" />
    <glyph glyph-name="aogonek.school" horiz-adv-x="590" 
d="M468 -221q-44 0 -71 23.5t-27 62.5q0 35 23.5 67t75.5 68h-15v53q-66 -61 -162 -61q-70 0 -127.5 34.5t-91 93t-33.5 131.5t33.5 131t91 92.5t128.5 34.5q44 0 85 -14.5t75 -42.5v49h74v-501q-55 -34 -80.5 -64t-25.5 -59q0 -25 15 -38.5t43 -13.5q13 0 25.5 3.5
t22.5 10.5l15 -39q-16 -10 -34.5 -15.5t-39.5 -5.5zM113 252q0 -55 24.5 -99t67 -70t94.5 -26q47 0 87.5 18.5t66.5 51.5v248q-26 32 -66.5 50.5t-87.5 18.5q-52 0 -94.5 -25t-67 -68.5t-24.5 -98.5z" />
    <glyph glyph-name="aring.school" horiz-adv-x="590" 
d="M292 -8q-70 0 -127.5 34.5t-91 93t-33.5 131.5t33.5 131t91 92.5t128.5 34.5q44 0 85 -14.5t75 -42.5v49h74v-501h-73v53q-66 -61 -162 -61zM299 57q47 0 87.5 18.5t66.5 51.5v248q-26 32 -66.5 50.5t-87.5 18.5q-52 0 -94.5 -25t-67 -68.5t-24.5 -98.5t24.5 -99t67 -70
t94.5 -26zM295 583q-31 0 -56.5 15t-40.5 40.5t-15 55.5q0 31 15 56t40.5 40t56.5 15t56.5 -15t40.5 -40t15 -56q0 -30 -15 -55.5t-40.5 -40.5t-56.5 -15zM295 624q29 0 49.5 20.5t20.5 49.5t-20.5 49.5t-49.5 20.5t-49.5 -20.5t-20.5 -49.5t20.5 -49.5t49.5 -20.5z" />
    <glyph glyph-name="atilde.school" horiz-adv-x="590" 
d="M292 -8q-70 0 -127.5 34.5t-91 93t-33.5 131.5t33.5 131t91 92.5t128.5 34.5q44 0 85 -14.5t75 -42.5v49h74v-501h-73v53q-66 -61 -162 -61zM299 57q47 0 87.5 18.5t66.5 51.5v248q-26 32 -66.5 50.5t-87.5 18.5q-52 0 -94.5 -25t-67 -68.5t-24.5 -98.5t24.5 -99t67 -70
t94.5 -26zM179 595l-52 10q22 100 94 100q27 0 52.5 -13.5t48.5 -27.5t44 -14q17 0 27.5 13t17.5 44l51 -10q-10 -50 -34 -75t-60 -25q-26 0 -51.5 14t-49 27.5t-44.5 13.5q-18 0 -28 -13t-16 -44z" />
    <glyph glyph-name="g.alt" horiz-adv-x="530" 
d="M256 -214q-109 0 -169.5 31.5t-60.5 87.5q0 33 26 60.5t74 45.5q-38 24 -38 69q0 26 17.5 48t46.5 35q-43 25 -70 67t-27 93q0 53 28 95.5t75 67.5t104 25q38 0 72.5 -12t61.5 -32q17 30 46 47.5t63 17.5q8 0 13.5 -0.5t9.5 -1.5l3 -64q-6 1 -13 1.5t-16 0.5
q-48 0 -78 -27q21 -24 33 -54t12 -64q0 -52 -28 -95t-74.5 -68t-104.5 -25q-16 0 -32 2.5t-31 6.5q-43 -18 -43 -49q0 -38 61 -42l181 -9q62 -4 96 -31t34 -75q0 -46 -33.5 -80.5t-94.5 -53t-144 -18.5zM262 196q39 0 69.5 17t48.5 45.5t18 64.5t-18 65t-48.5 45.5
t-69.5 16.5q-38 0 -69 -16.5t-49 -45.5t-18 -65t18 -64.5t49 -45.5t69 -17zM251 -159q93 0 148 23.5t55 63.5q0 46 -70 49l-168 9q-8 1 -15.5 1.5t-14.5 1.5q-43 -10 -66.5 -29.5t-23.5 -45.5q0 -34 41 -53.5t114 -19.5z" />
    <glyph glyph-name="gbreve.alt" horiz-adv-x="530" 
d="M256 -214q-109 0 -169.5 31.5t-60.5 87.5q0 33 26 60.5t74 45.5q-38 24 -38 69q0 26 17.5 48t46.5 35q-43 25 -70 67t-27 93q0 53 28 95.5t75 67.5t104 25q38 0 72.5 -12t61.5 -32q17 30 46 47.5t63 17.5q8 0 13.5 -0.5t9.5 -1.5l3 -64q-6 1 -13 1.5t-16 0.5
q-48 0 -78 -27q21 -24 33 -54t12 -64q0 -52 -28 -95t-74.5 -68t-104.5 -25q-16 0 -32 2.5t-31 6.5q-43 -18 -43 -49q0 -38 61 -42l181 -9q62 -4 96 -31t34 -75q0 -46 -33.5 -80.5t-94.5 -53t-144 -18.5zM262 196q39 0 69.5 17t48.5 45.5t18 64.5t-18 65t-48.5 45.5
t-69.5 16.5q-38 0 -69 -16.5t-49 -45.5t-18 -65t18 -64.5t49 -45.5t69 -17zM251 -159q93 0 148 23.5t55 63.5q0 46 -70 49l-168 9q-8 1 -15.5 1.5t-14.5 1.5q-43 -10 -66.5 -29.5t-23.5 -45.5q0 -34 41 -53.5t114 -19.5zM265 592q-60 0 -100.5 32.5t-53.5 90.5l52 13
q21 -87 102 -87q38 0 64.5 22t37.5 65l52 -13q-13 -58 -54 -90.5t-100 -32.5z" />
    <glyph glyph-name="gcircumflex.alt" horiz-adv-x="530" 
d="M256 -214q-109 0 -169.5 31.5t-60.5 87.5q0 33 26 60.5t74 45.5q-38 24 -38 69q0 26 17.5 48t46.5 35q-43 25 -70 67t-27 93q0 53 28 95.5t75 67.5t104 25q38 0 72.5 -12t61.5 -32q17 30 46 47.5t63 17.5q8 0 13.5 -0.5t9.5 -1.5l3 -64q-6 1 -13 1.5t-16 0.5
q-48 0 -78 -27q21 -24 33 -54t12 -64q0 -52 -28 -95t-74.5 -68t-104.5 -25q-16 0 -32 2.5t-31 6.5q-43 -18 -43 -49q0 -38 61 -42l181 -9q62 -4 96 -31t34 -75q0 -46 -33.5 -80.5t-94.5 -53t-144 -18.5zM262 196q39 0 69.5 17t48.5 45.5t18 64.5t-18 65t-48.5 45.5
t-69.5 16.5q-38 0 -69 -16.5t-49 -45.5t-18 -65t18 -64.5t49 -45.5t69 -17zM251 -159q93 0 148 23.5t55 63.5q0 46 -70 49l-168 9q-8 1 -15.5 1.5t-14.5 1.5q-43 -10 -66.5 -29.5t-23.5 -45.5q0 -34 41 -53.5t114 -19.5zM348 596l-84 80l-83 -80h-60l104 121h80l104 -121
h-61z" />
    <glyph glyph-name="gcommaaccent.alt" horiz-adv-x="530" 
d="M256 -214q-109 0 -169.5 31.5t-60.5 87.5q0 33 26 60.5t74 45.5q-38 24 -38 69q0 26 17.5 48t46.5 35q-43 25 -70 67t-27 93q0 53 28 95.5t75 67.5t104 25q38 0 72.5 -12t61.5 -32q17 30 46 47.5t63 17.5q8 0 13.5 -0.5t9.5 -1.5l3 -64q-6 1 -13 1.5t-16 0.5
q-48 0 -78 -27q21 -24 33 -54t12 -64q0 -52 -28 -95t-74.5 -68t-104.5 -25q-16 0 -32 2.5t-31 6.5q-43 -18 -43 -49q0 -38 61 -42l181 -9q62 -4 96 -31t34 -75q0 -46 -33.5 -80.5t-94.5 -53t-144 -18.5zM262 196q39 0 69.5 17t48.5 45.5t18 64.5t-18 65t-48.5 45.5
t-69.5 16.5q-38 0 -69 -16.5t-49 -45.5t-18 -65t18 -64.5t49 -45.5t69 -17zM251 -159q93 0 148 23.5t55 63.5q0 46 -70 49l-168 9q-8 1 -15.5 1.5t-14.5 1.5q-43 -10 -66.5 -29.5t-23.5 -45.5q0 -34 41 -53.5t114 -19.5zM342 776l-41 -179h-74l60 179h55z" />
    <glyph glyph-name="gdotaccent.alt" horiz-adv-x="530" 
d="M256 -214q-109 0 -169.5 31.5t-60.5 87.5q0 33 26 60.5t74 45.5q-38 24 -38 69q0 26 17.5 48t46.5 35q-43 25 -70 67t-27 93q0 53 28 95.5t75 67.5t104 25q38 0 72.5 -12t61.5 -32q17 30 46 47.5t63 17.5q8 0 13.5 -0.5t9.5 -1.5l3 -64q-6 1 -13 1.5t-16 0.5
q-48 0 -78 -27q21 -24 33 -54t12 -64q0 -52 -28 -95t-74.5 -68t-104.5 -25q-16 0 -32 2.5t-31 6.5q-43 -18 -43 -49q0 -38 61 -42l181 -9q62 -4 96 -31t34 -75q0 -46 -33.5 -80.5t-94.5 -53t-144 -18.5zM262 196q39 0 69.5 17t48.5 45.5t18 64.5t-18 65t-48.5 45.5
t-69.5 16.5q-38 0 -69 -16.5t-49 -45.5t-18 -65t18 -64.5t49 -45.5t69 -17zM251 -159q93 0 148 23.5t55 63.5q0 46 -70 49l-168 9q-8 1 -15.5 1.5t-14.5 1.5q-43 -10 -66.5 -29.5t-23.5 -45.5q0 -34 41 -53.5t114 -19.5zM265 602q-20 0 -34.5 14.5t-14.5 34.5t14.5 34.5
t34.5 14.5t34.5 -14.5t14.5 -34.5t-14.5 -34.5t-34.5 -14.5z" />
    <glyph glyph-name="caronSlovak" 
d="M267 508l5 192l76 11l-25 -203h-56z" />
    <glyph glyph-name="commaaccent" 
d="M222 -264l41 179h74l-60 -179h-55z" />
    <glyph glyph-name="exclamdown.cap" horiz-adv-x="198" 
d="M129 505l9 -511h-77l9 511h59zM99 705q21 0 36 -15t15 -36t-15 -36t-36 -15t-36 15t-15 36t15 36t36 15z" />
    <glyph glyph-name="questiondown.cap" horiz-adv-x="506" 
d="M318 501q2 -46 -5 -79.5t-26 -60t-51 -49.5l-44 -31q-44 -32 -61.5 -58t-17.5 -60q0 -31 19.5 -55t52 -38.5t73.5 -14.5q49 0 92.5 23t77.5 67l58 -38q-29 -38 -65.5 -64.5t-78.5 -40t-88 -13.5q-61 0 -109.5 22.5t-76.5 61.5t-28 89q0 34 10.5 61.5t36 53.5t70.5 57
l34 24q37 25 52 59t11 84h64zM286 706q21 0 36 -15t15 -36t-15 -36t-36 -15t-36 15t-15 36t15 36t36 15z" />
    <glyph glyph-name="periodcentered.cap" horiz-adv-x="250" 
d="M125 296q-21 0 -36 15t-15 36t15 36t36 15t36 -15t15 -36t-15 -36t-36 -15z" />
    <glyph glyph-name="hyphen.cap" horiz-adv-x="447" 
d="M49 313v66h349v-66h-349z" />
    <glyph glyph-name="endash.cap" horiz-adv-x="547" 
d="M49 313v66h449v-66h-449z" />
    <glyph glyph-name="emdash.cap" horiz-adv-x="697" 
d="M49 313v66h599v-66h-599z" />
    <glyph glyph-name="uni2015.cap" horiz-adv-x="947" 
d="M49 313v66h849v-66h-849z" />
    <glyph glyph-name="at.cap" horiz-adv-x="780" 
d="M403 -9q-77 0 -142.5 26.5t-114 74t-75.5 111.5t-27 139q0 79 27 146t75 117t113 78t141 28q71 0 131.5 -23.5t105.5 -65t70.5 -97.5t25.5 -121q0 -61 -23 -109.5t-63 -76.5t-91 -28q-65 0 -93 41q-25 -22 -52 -33.5t-54 -11.5q-41 0 -73.5 20t-51 54t-18.5 77
q0 49 22.5 89t61 64t85.5 24q62 0 101 -39l5 26h56l-39 -192q-7 -36 7.5 -55.5t48.5 -19.5q35 0 63 22t44 60.5t16 85.5q0 76 -38 136t-102.5 94.5t-146.5 34.5q-64 0 -119.5 -24.5t-97.5 -68.5t-65 -103t-23 -127q0 -89 40.5 -158.5t111.5 -109.5t161 -40q94 0 170 41
l18 -41q-43 -22 -91.5 -33.5t-99.5 -11.5zM369 233q46 0 81 35q-1 11 -1 22t3 24l21 106q-14 22 -38 34t-53 12q-31 0 -56.5 -17t-41 -45.5t-15.5 -62.5q0 -48 28 -78t72 -30z" />
    <glyph glyph-name="zero.tab" 
d="M300 -11q-75 0 -133.5 44t-91.5 125t-33 192q0 112 33 192.5t91.5 124.5t133.5 44q76 0 134 -44t91 -124.5t33 -192.5q0 -111 -33 -192t-91 -125t-134 -44zM158 147l238 464q-20 17 -44 26t-52 9q-56 0 -97.5 -36.5t-64.5 -103t-23 -156.5q0 -62 11.5 -113.5t31.5 -89.5z
M300 54q56 0 97.5 36.5t64.5 103t23 156.5q0 62 -11.5 113.5t-31.5 89.5l-238 -464q41 -35 96 -35z" />
    <glyph glyph-name="one.tab" 
d="M84 0v63h177v559l-177 -78v66l204 90h45v-637h202v-63h-451z" />
    <glyph glyph-name="two.tab" 
d="M74 0v53l280 306q33 36 51.5 63.5t26 51.5t7.5 51q0 53 -41.5 87.5t-105.5 34.5q-49 0 -91 -19t-94 -66l-42 50q55 50 111 74.5t117 24.5q63 0 112 -23.5t77 -64.5t28 -94q0 -35 -9 -64.5t-32 -63t-66 -80.5l-239 -259l361 1v-63h-451z" />
    <glyph glyph-name="three.tab" 
d="M286 -11q-72 0 -134.5 25t-110.5 74l48 47q44 -44 90.5 -63.5t105.5 -19.5q51 0 90.5 18t61.5 50t22 73q0 39 -19.5 69.5t-53.5 47.5t-78 17h-83v62h80q57 0 92.5 35t35.5 91q0 37 -20 67t-54.5 47.5t-77.5 17.5q-54 0 -96.5 -19.5t-86.5 -65.5l-48 48q47 50 106 75.5
t126 25.5q64 0 114.5 -25t79.5 -68.5t29 -98.5t-36 -98.5t-95 -60.5q71 -16 114 -62t43 -107q0 -58 -31.5 -104t-87 -72t-126.5 -26z" />
    <glyph glyph-name="four.tab" 
d="M407 0v187h-378v57l372 456h77v-450h97v-63h-97v-187h-71zM113 250h294v363z" />
    <glyph glyph-name="five.tab" 
d="M288 -11q-138 0 -238 95l45 49q46 -43 91.5 -62.5t102.5 -19.5q51 0 90 21t60.5 59t21.5 87q0 70 -47.5 113t-124.5 43q-40 0 -78 -9.5t-79 -30.5l-50 16l16 350h398v-63h-336l-11 -242q40 20 77 28.5t78 8.5q69 0 120.5 -26.5t80 -74t28.5 -110.5q0 -69 -31 -121
t-86 -81.5t-128 -29.5z" />
    <glyph glyph-name="six.tab" 
d="M321 -10q-81 0 -142.5 43t-96.5 118.5t-35 174.5q0 116 39 202.5t110 134.5t165 48q44 0 87 -12t77 -35l-36 -56q-31 18 -65 28t-69 10q-72 0 -124.5 -37.5t-81 -107.5t-30.5 -168q39 50 93 78t112 28q68 0 121 -28t83 -77.5t30 -112.5q0 -66 -31 -118.5t-84.5 -82.5
t-121.5 -30zM314 380q-55 0 -105.5 -27.5t-87.5 -75.5q8 -67 34.5 -117.5t69 -78.5t95.5 -28q48 0 85.5 21.5t59 59.5t21.5 85t-22 83.5t-60.5 57t-89.5 20.5z" />
    <glyph glyph-name="seven.tab" 
d="M123 0l348 637h-420v63h498v-56l-344 -644h-82z" />
    <glyph glyph-name="eight.tab" 
d="M300 -11q-72 0 -128 26t-88.5 71.5t-32.5 102.5q0 43 21 79.5t58.5 63t85.5 37.5q-61 17 -99.5 61t-38.5 99q0 52 29 93t79.5 65t113.5 24q64 0 114 -24t79 -65t29 -93q0 -55 -38 -99t-100 -61q73 -17 119 -66.5t46 -113.5q0 -57 -32 -102.5t-88.5 -71.5t-128.5 -26z
M300 399q43 0 77.5 17t54.5 45.5t20 64.5t-20 65t-54.5 45.5t-77.5 16.5t-77.5 -16.5t-54.5 -45.5t-20 -65t20 -64.5t54.5 -45.5t77.5 -17zM300 47q51 0 91 19t63.5 52t23.5 74t-23.5 74t-63.5 52t-91 19t-91 -19t-63.5 -52t-23.5 -74t23.5 -74t63.5 -52t91 -19z" />
    <glyph glyph-name="nine.tab" 
d="M279 711q81 0 142.5 -43t96.5 -118.5t35 -174.5q0 -116 -39 -202.5t-110 -134.5t-165 -48q-44 0 -87 12t-77 35l36 56q31 -18 65 -28t69 -10q72 0 124.5 37.5t81 107.5t30.5 168q-39 -50 -93 -78t-112 -28q-68 0 -121 28t-83 77.5t-30 112.5q0 66 31 118.5t84.5 82.5
t121.5 30zM286 321q55 0 105.5 27.5t87.5 75.5q-8 67 -34.5 117.5t-69 78.5t-95.5 28q-48 0 -85.5 -21.5t-59 -59.5t-21.5 -85t22 -83.5t60.5 -57t89.5 -20.5z" />
    </font>
</defs>
</svg>
